<svg width="590.81" height="84.631" enable-background="new 0 0 566.93 72.714" version="1.1" viewBox="0 0 590.81 84.631" xmlns="http://www.w3.org/2000/svg">
	<path d="m589.81 67.818c0 8.6972-9.3473 15.813-20.772 15.813h-547.26c-11.425 0-20.772-7.1159-20.772-15.813v-51.005c0-8.6972 9.3473-15.813 20.772-15.813h547.26c11.425 0 20.772 7.1159 20.772 15.813z" stroke-width=".90618"/>
	<g transform="translate(14.153 5.9489)">
		<linearGradient id="SVGID_1_" x1="129.53" x2="129.53" y1=".3569" y2="71.357" gradientUnits="userSpaceOnUse">
			<stop stop-color="#B830B0" offset="0"/>
			<stop stop-color="#0547FF" offset="1"/>
		</linearGradient>
		<path d="m122.88 3.133c2.804-3.588 8.608-4.201 12.048-1.191 1.407 1.187 2.393 2.82 2.897 4.579 6.369 21.915 12.767 43.82 19.127 65.736-3.758 5e-3 -7.52-6e-3 -11.277 5e-3 -1.773-6.042-3.504-12.097-5.254-18.146-7.269-0.017-14.534-4e-3 -21.802-7e-3 -1.779 6.045-3.536 12.097-5.284 18.153-3.738-0.014-7.477-4e-3 -11.216-8e-3 6.051-20.904 12.109-41.812 18.189-62.709 0.722-2.183 0.994-4.625 2.572-6.412m6.635 13.429c-2.665 9.08-5.276 18.176-7.926 27.259 5.283 0.024 10.563 9e-3 15.844 9e-3 -2.644-9.09-5.274-18.179-7.918-27.268z" fill="url(#SVGID_1_)"/>
		<linearGradient id="SVGID_2_" x1="209.06" x2="209.06" y1=".3569" y2="71.357" gradientUnits="userSpaceOnUse">
			<stop stop-color="#B830B0" offset="0"/>
			<stop stop-color="#0547FF" offset="1"/>
		</linearGradient>
		<path d="m202.06 3.604c1.959-2.842 5.746-4.22 9.08-3.343 3.051 0.703 5.387 3.333 6.192 6.294 6.362 21.899 12.748 43.791 19.11 65.69-3.765 0.026-7.526 0-11.29 0.016-1.75-6.049-3.481-12.104-5.245-18.15-7.256 4e-3 -14.511-0.013-21.767 6e-3 -1.734 6.053-3.523 12.092-5.257 18.143-3.735 4e-3 -7.469-4e-3 -11.203 4e-3 6.048-21.021 12.167-42.024 18.263-63.029 0.638-1.9 0.886-3.992 2.117-5.631m-0.916 40.228c5.261 6e-3 10.519 2e-3 15.779 2e-3 -2.617-9.107-5.276-18.204-7.885-27.313-2.628 9.105-5.279 18.201-7.894 27.311z" fill="url(#SVGID_2_)"/>
		<linearGradient id="SVGID_3_" x1="168.93" x2="168.93" y1=".3569" y2="71.357" gradientUnits="userSpaceOnUse">
			<stop stop-color="#B830B0" offset="0"/>
			<stop stop-color="#0547FF" offset="1"/>
		</linearGradient>
		<path d="m148.54 0.152h40.791v11c-5.007 4e-3 -10.011-6e-3 -15.016 4e-3 0 20.366 3e-3 40.736-3e-3 61.101h-10.757c0-20.364-4e-3 -40.734 2e-3 -61.101-5.006-0.01-10.01 0-15.019-4e-3 2e-3 -3.667-2e-3 -7.332 2e-3 -11z" fill="url(#SVGID_3_)"/>
		<linearGradient id="SVGID_4_" x1="264.97" x2="264.97" y1=".3569" y2="71.357" gradientUnits="userSpaceOnUse">
			<stop stop-color="#B830B0" offset="0"/>
			<stop stop-color="#0547FF" offset="1"/>
		</linearGradient>
		<path d="m248.4 0.599c1.034-0.356 2.136-0.479 3.227-0.452 4.287 0.016 8.575 3e-3 12.861 6e-3 7.22 0.132 14.112 4.612 17.236 11.11 2.163 4.22 2.387 9.127 1.841 13.756-0.376 4.847-2.408 9.692-6.134 12.904-1.969 1.755-4.42 2.816-6.525 4.377-1.157 0.882-1.214 2.594-0.617 3.816 5.69 8.783 11.606 17.432 17.416 26.141-4.249 8e-3 -8.498-0.01-12.747 8e-3 -5.562-8.354-11.065-16.75-16.604-25.116-1.628-2.381-2.071-5.534-1.097-8.252 0.762-2.083 2.582-3.609 4.611-4.396 3.873-1.478 7.691-3.8 9.836-7.453 1.632-2.747 1.548-6.137 0.813-9.143-0.86-3.902-4.663-6.973-8.681-6.838-2.778 0.02-5.556-0.014-8.33 0.013-1.256-0.028-2.438 1.063-2.422 2.335-0.013 19.615 6e-3 39.232-6e-3 58.848-3.613-8e-3 -7.223 0-10.836-4e-3 -7e-3 -21.117 6e-3 -42.236-7e-3 -63.354 0.024-3.7 2.655-7.182 6.165-8.306z" fill="url(#SVGID_4_)"/>
		<linearGradient id="SVGID_5_" x1="299.09" x2="299.09" y1=".3569" y2="71.357" gradientUnits="userSpaceOnUse">
			<stop stop-color="#B830B0" offset="0"/>
			<stop stop-color="#0547FF" offset="1"/>
		</linearGradient>
		<path d="m293.38 0.152h11.402c-3e-3 24.037 7e-3 48.071-7e-3 72.109-3.797-0.01-7.596 0-11.396-4e-3 1e-3 -24.037 1e-3 -48.071 1e-3 -72.105z" fill="url(#SVGID_5_)"/>
		<linearGradient id="SVGID_6_" x1="18.819" x2="18.819" y1=".3569" y2="71.357" gradientUnits="userSpaceOnUse">
			<stop stop-color="#B830B0" offset="0"/>
			<stop stop-color="#0547FF" offset="1"/>
		</linearGradient>
		<path d="m32.154 5e-3c1.826-6e-3 3.652 0 5.479-4e-3 8e-3 4.294 0 8.589 3e-3 12.882 0.019 3.584-0.082 7.167-0.231 10.748-0.244 5.17-0.568 10.352-1.425 15.462-0.588 3.521-1.807 6.922-3.319 10.146-2.467 5.2-6.343 9.602-10.7 13.303-3.898 3.43-8.551 5.928-13.444 7.617-2.768 0.952-5.617 1.688-8.518 2.098 3e-3 -3.603 3e-3 -7.203 0-10.805 3.492-0.524 6.849-1.766 9.967-3.402 3.7-1.955 7.03-4.588 9.833-7.688 2.895-3.202 5.202-6.907 6.953-10.847 2.062-4.526 3.166-9.415 3.916-14.311 0.94-6.224 1.332-12.517 1.478-18.808 0.02-2.13 2e-3 -4.261 8e-3 -6.391z" fill="url(#SVGID_6_)"/>
		<linearGradient id="SVGID_7_" x1="44.88" x2="44.88" y1=".3569" y2="71.357" gradientUnits="userSpaceOnUse">
			<stop stop-color="#B830B0" offset="0"/>
			<stop stop-color="#0547FF" offset="1"/>
		</linearGradient>
		<path d="m39.837 0.011c3.361-0.021 6.724-3e-3 10.086-9e-3 1e-3 24.085 1e-3 48.169 0 72.253-3.354 7e-3 -6.709-0.018-10.063 0.014-0.042-7.68-6e-3 -15.361-0.018-23.041-3e-3 -16.406 7e-3 -32.809-5e-3 -49.217z" fill="url(#SVGID_7_)"/>
		<linearGradient id="SVGID_8_" x1="70.963" x2="70.963" y1=".3569" y2="71.357" gradientUnits="userSpaceOnUse">
			<stop stop-color="#B830B0" offset="0"/>
			<stop stop-color="#0547FF" offset="1"/>
		</linearGradient>
		<path d="m52.167 3e-3c1.816-1e-3 3.632-5e-3 5.447 1e-3 -0.059 7.344 0.191 14.699 1.066 21.996 0.717 5.666 1.727 11.376 3.983 16.653 2.14 5.109 5.224 9.856 9.243 13.685 3.838 3.658 8.49 6.474 13.543 8.094 1.41 0.449 2.852 0.805 4.318 1.018-2e-3 3.602-3e-3 7.2 0 10.801-2.88-0.393-5.704-1.135-8.453-2.067-3.273-1.14-6.438-2.614-9.346-4.505-2.123-1.364-4.053-2.998-5.907-4.703-3.057-2.818-5.792-6.021-7.847-9.648-1.607-2.822-2.78-5.877-3.698-8.988-0.842-3.129-1.201-6.361-1.528-9.578-0.632-6.95-0.868-13.936-0.823-20.911 2e-3 -3.955 1e-3 -7.903 2e-3 -11.848z" fill="url(#SVGID_8_)"/>
		<path d="m32.154 5e-3c-6e-3 2.131 0.012 4.262-9e-3 6.393-0.145 6.29-0.537 12.584-1.477 18.808-0.75 4.896-1.854 9.784-3.916 14.311-1.751 3.938-4.059 7.646-6.953 10.848-2.803 3.102-6.134 5.732-9.833 7.688-3.118 1.639-6.475 2.878-9.967 3.4 3e-3 3.604 3e-3 7.205 0 10.807 2.901-0.409 5.75-1.145 8.518-2.098 4.894-1.689 9.546-4.188 13.444-7.617 4.357-3.701 8.233-8.103 10.7-13.303 1.512-3.227 2.731-6.625 3.319-10.146 0.857-5.111 1.181-10.292 1.425-15.462 0.149-3.581 0.25-7.164 0.231-10.748-3e-3 -4.293 5e-3 -8.588-3e-3 -12.882-1.827 1e-3 -3.653-5e-3 -5.479 1e-3" fill="url(#SVGID_6_)"/>
		<path d="m39.837 0.011c0.012 16.407 1e-3 32.813 6e-3 49.217 0.012 7.68-0.025 15.361 0.018 23.041 3.354-0.029 6.709-7e-3 10.063-0.014 1e-3 -24.084 1e-3 -48.168 0-72.253-3.363 6e-3 -6.726-0.014-10.087 9e-3" fill="url(#SVGID_7_)"/>
		<linearGradient id="SVGID_11_" x1="70.965" x2="70.965" y1=".3569" y2="71.357" gradientUnits="userSpaceOnUse">
			<stop stop-color="#B830B0" offset="0"/>
			<stop stop-color="#0547FF" offset="1"/>
		</linearGradient>
		<path d="m52.167 3e-3c-1e-3 3.945 0 7.895 0 11.842-0.045 6.978 0.191 13.961 0.823 20.911 0.327 3.216 0.686 6.449 1.528 9.578 0.918 3.111 2.091 6.166 3.698 8.988 2.054 3.627 4.79 6.83 7.847 9.648 1.854 1.705 3.785 3.339 5.907 4.703 2.907 1.891 6.073 3.365 9.346 4.504 2.749 0.936 5.573 1.678 8.453 2.068-3e-3 -3.601-2e-3 -7.199 0-10.801-1.466-0.213-2.908-0.566-4.318-1.018-5.053-1.62-9.705-4.436-13.543-8.094-4.019-3.826-7.103-8.574-9.243-13.685-2.257-5.277-3.267-10.987-3.983-16.653-0.875-7.295-1.125-14.65-1.066-21.994-1.817-2e-3 -3.632 2e-3 -5.449 3e-3" fill="url(#SVGID_11_)"/>
		<linearGradient id="SVGID_12_" x1="418.3" x2="418.3" y1=".3569" y2="71.357" gradientUnits="userSpaceOnUse">
			<stop stop-color="#B830B0" offset="0"/>
			<stop stop-color="#0547FF" offset="1"/>
		</linearGradient>
		<path d="m437.87 34.488c5.281-3.112 8.575-8.381 8.575-14.23 0-13.813-14.59-20.104-28.146-20.104-13.558 0-28.146 6.291-28.146 20.104 0 5.851 3.293 11.118 8.574 14.23-7.511 3.479-11.714 9.403-11.714 16.784 0 13.913 15.737 21.192 31.283 21.192s31.283-7.279 31.283-21.192c4e-3 -7.381-4.199-13.308-11.709-16.784zm-19.57-8.756c-3.458 0-6.271-2.23-6.271-4.974s2.813-4.975 6.271-4.975c3.455 0 6.27 2.231 6.27 4.975-1e-3 2.744-2.813 4.974-6.27 4.974zm0 17.725c3.848 0 6.979 2.567 6.979 5.728 0 3.065-3.131 5.56-6.979 5.56-3.85 0-6.979-2.492-6.979-5.56 0-3.161 3.13-5.728 6.979-5.728z" fill="url(#SVGID_12_)"/>
		<linearGradient id="SVGID_13_" x1="473.71" x2="473.71" y1=".3569" y2="71.357" gradientUnits="userSpaceOnUse">
			<stop stop-color="#B830B0" offset="0"/>
			<stop stop-color="#0547FF" offset="1"/>
		</linearGradient>
		<path d="m498.23 11.921c-5.774-7.698-14.257-11.769-24.529-11.769s-18.755 4.069-24.529 11.769c-4.854 6.476-7.528 15.181-7.528 24.513 0 18.058 9.912 36.28 32.06 36.28s32.062-18.223 32.062-36.28c-4e-3 -9.333-2.679-18.038-7.536-24.513zm-24.529 39.309c-7.721 0-8.566-10.037-8.566-14.881 0-4.798 0.848-14.714 8.566-14.714 7.721 0 8.565 9.916 8.565 14.714 2e-3 4.844-0.844 14.881-8.565 14.881z" fill="url(#SVGID_13_)"/>
		<linearGradient id="SVGID_14_" x1="534.87" x2="534.87" y1=".3569" y2="71.357" gradientUnits="userSpaceOnUse">
			<stop stop-color="#B830B0" offset="0"/>
			<stop stop-color="#0547FF" offset="1"/>
		</linearGradient>
		<path d="m559.4 11.921c-5.772-7.698-14.256-11.769-24.527-11.769-10.272 0-18.755 4.069-24.529 11.769-4.854 6.476-7.53 15.181-7.53 24.513 0 18.058 9.914 36.28 32.062 36.28 22.146 0 32.061-18.223 32.061-36.28-4e-3 -9.333-2.679-18.038-7.537-24.513zm-24.527 39.309c-7.722 0-8.567-10.037-8.567-14.881 0-4.798 0.848-14.714 8.567-14.714s8.565 9.916 8.565 14.714c2e-3 4.844-0.845 14.881-8.565 14.881z" fill="url(#SVGID_14_)"/>
		<linearGradient id="SVGID_15_" x1="368.2" x2="368.2" y1=".3569" y2="71.357" gradientUnits="userSpaceOnUse">
			<stop stop-color="#B830B0" offset="0"/>
			<stop stop-color="#0547FF" offset="1"/>
		</linearGradient>
		<polygon points="366.66 23.181 344.17 72.386 369.64 72.386 399.88 1.165 336.52 1.165 336.52 23.181" fill="url(#SVGID_15_)"/>
	</g>
</svg>
