<svg width="590.1" height="141.3" enable-background="new 0 0 566.924 121.752" version="1.1" viewBox="0 0 590.1 141.3" xmlns="http://www.w3.org/2000/svg">
	<path d="m589.1 113.64c0 14.662-9.3361 26.658-20.747 26.658h-546.61c-11.411 0-20.747-11.996-20.747-26.658v-85.985c0-14.662 9.3361-26.658 20.747-26.658h546.61c11.411 0 20.747 11.996 20.747 26.658z" stroke-width="1.1759"/>
	<g transform="translate(13.45 9.1374)" fill="#6187e5">
		<path d="m207.01 5.277c4.724-6.043 14.501-7.076 20.297-2.006 2.37 1.996 4.031 4.75 4.88 7.715 10.73 36.92 21.508 73.822 32.223 110.75-6.332 6e-3 -12.667-0.012-18.999 6e-3 -2.987-10.18-5.903-20.377-8.852-30.564-12.246-0.023-24.485-6e-3 -36.73-0.012-2.998 10.184-5.958 20.379-8.901 30.582-6.298-0.021-12.596-6e-3 -18.895-0.012 10.194-35.221 20.4-70.438 30.643-105.65 1.218-3.682 1.678-7.799 4.334-10.809m11.179 22.625c-4.49 15.295-8.889 30.619-13.354 45.922 8.9 0.043 17.796 0.016 26.692 0.016-4.453-15.313-8.884-30.625-13.338-45.938z"/>
		<path d="m340.41 6.072c3.3-4.787 9.68-7.109 15.295-5.631 5.143 1.184 9.076 5.615 10.434 10.604 10.721 36.893 21.479 73.772 32.195 110.67-6.342 0.049-12.68 0-19.02 0.024-2.949-10.188-5.865-20.387-8.837-30.575-12.226 6e-3 -24.446-0.021-36.671 0.01-2.922 10.195-5.936 20.367-8.855 30.563-6.293 6e-3 -12.58-6e-3 -18.873 6e-3 10.188-35.414 20.496-70.797 30.767-106.19 1.076-3.194 1.493-6.717 3.565-9.479m-1.543 67.768c8.863 0.013 17.721 7e-3 26.584 7e-3 -4.41-15.347-8.892-30.671-13.285-46.015-4.426 15.338-8.893 30.662-13.299 46.008z"/>
		<path d="m250.24 0.256h68.719v18.533c-8.438 6e-3 -16.866-0.01-25.297 6e-3 0 34.313 6e-3 68.627-4e-3 102.94h-18.123c0-34.313-5e-3 -68.625 5e-3 -102.94-8.436-0.016-16.866 0-25.301-6e-3 1e-3 -6.178-4e-3 -12.351 1e-3 -18.533z"/>
		<path d="m418.47 1.01c1.74-0.602 3.6-0.807 5.438-0.764 7.223 0.025 14.447 6e-3 21.668 0.01 12.164 0.225 23.772 7.771 29.037 18.719 3.645 7.109 4.02 15.377 3.102 23.176-0.635 8.164-4.059 16.328-10.334 21.741-3.313 2.952-7.441 4.743-10.992 7.375-1.947 1.481-2.047 4.364-1.038 6.428 9.586 14.8 19.552 29.367 29.338 44.039-7.157 0.013-14.315-0.017-21.476 0.013-9.369-14.074-18.643-28.22-27.975-42.313-2.744-4.013-3.49-9.324-1.848-13.901 1.281-3.513 4.352-6.08 7.77-7.406 6.524-2.49 12.959-6.4 16.572-12.559 2.75-4.627 2.605-10.336 1.37-15.4-1.45-6.574-7.854-11.746-14.625-11.52-4.683 0.031-9.358-0.021-14.032 0.021-2.117-0.049-4.107 1.791-4.08 3.934-0.023 33.047 0.01 66.096-0.011 99.141-6.088-0.013-12.168 0-18.257-7e-3 -0.012-35.575 0.014-71.153-0.012-106.73 0.039-6.238 4.474-12.106 10.385-13.998z"/>
		<path d="m494.26 0.256h19.211c-6e-3 40.496 0.014 80.986-0.012 121.48-6.396-0.019-12.797 0-19.199-6e-3v-121.48z"/>
		<path d="m54.173 8e-3c3.076-0.01 6.153 0 9.229-8e-3 0.013 7.234 0 14.469 5e-3 21.701 0.032 6.039-0.139 12.076-0.389 18.107-0.412 8.711-0.957 17.439-2.4 26.05-0.991 5.937-3.044 11.662-5.592 17.099-4.156 8.76-10.686 16.172-18.027 22.405-6.567 5.779-14.405 9.986-22.649 12.834-4.664 1.604-9.463 2.845-14.35 3.533 5e-3 -6.065 5e-3 -12.138 0-18.203 5.883-0.883 11.538-2.971 16.791-5.729 6.233-3.295 11.844-7.729 16.566-12.953 4.877-5.395 8.764-11.641 11.714-18.271 3.474-7.625 5.333-15.861 6.597-24.109 1.584-10.482 2.244-21.088 2.489-31.684 0.035-3.592 5e-3 -7.184 0.016-10.772z"/>
		<path d="m67.116 0.02c5.662-0.037 11.328-6e-3 16.992-0.016 2e-3 40.574 2e-3 81.149 0 121.73-5.65 0.013-11.303-0.026-16.953 0.021-0.072-12.938-0.01-25.879-0.03-38.814-7e-3 -27.644 0.011-55.281-9e-3 -82.919z"/>
		<path d="m87.888 4e-3c3.06-2e-3 6.118-8e-3 9.176 2e-3 -0.099 12.371 0.322 24.766 1.797 37.057 1.207 9.547 2.909 19.164 6.711 28.059 3.604 8.605 8.801 16.604 15.572 23.051 6.466 6.166 14.302 10.906 22.815 13.635 2.375 0.76 4.805 1.355 7.274 1.715-3e-3 6.064-6e-3 12.129 0 18.191-4.852-0.658-9.61-1.908-14.24-3.482-5.514-1.918-10.847-4.4-15.745-7.588-3.576-2.301-6.828-5.053-9.952-7.924-5.149-4.748-9.758-10.146-13.219-16.256-2.708-4.758-4.683-9.9-6.23-15.145-1.418-5.271-2.023-10.717-2.573-16.135-1.064-11.709-1.462-23.477-1.386-35.23 0-6.649-2e-3 -13.302 0-19.95z"/>
		<path d="m54.173 8e-3c-0.01 3.588 0.02 7.18-0.016 10.77-0.245 10.596-0.904 21.201-2.489 31.684-1.264 8.248-3.124 16.484-6.597 24.109-2.95 6.635-6.837 12.879-11.714 18.271-4.722 5.229-10.333 9.658-16.566 12.953-5.253 2.764-10.908 4.85-16.791 5.73 5e-3 6.065 5e-3 12.138 0 18.203 4.887-0.688 9.686-1.929 14.35-3.532 8.244-2.849 16.082-7.056 22.649-12.835 7.341-6.233 13.871-13.646 18.027-22.405 2.547-5.437 4.601-11.162 5.592-17.099 1.443-8.61 1.989-17.339 2.4-26.05 0.25-6.031 0.421-12.068 0.389-18.107-5e-3 -7.231 8e-3 -14.466-5e-3 -21.7-3.077 8e-3 -6.153-2e-3 -9.229 8e-3"/>
		<path d="m67.116 0.02c0.02 27.641 2e-3 55.275 0.01 82.917 0.02 12.938-0.042 25.879 0.03 38.815 5.65-0.051 11.302-0.012 16.953-0.021 2e-3 -40.574 2e-3 -81.15 0-121.73-5.665 0.012-11.331-0.02-16.993 0.018"/>
		<path d="m87.888 4e-3c-2e-3 6.648 0 13.301 0 19.949-0.076 11.754 0.322 23.521 1.386 35.23 0.55 5.418 1.155 10.863 2.573 16.134 1.547 5.244 3.522 10.388 6.23 15.146 3.46 6.108 8.07 11.509 13.219 16.256 3.124 2.871 6.376 5.623 9.952 7.923 4.898 3.188 10.231 5.672 15.745 7.59 4.63 1.574 9.388 2.824 14.24 3.481-6e-3 -6.063-3e-3 -12.127 0-18.19-2.47-0.358-4.899-0.955-7.274-1.715-8.513-2.729-16.35-7.47-22.815-13.636-6.771-6.446-11.967-14.444-15.572-23.051-3.802-8.895-5.504-18.512-6.711-28.061-1.475-12.289-1.896-24.684-1.797-37.055-3.057-9e-3 -6.116-3e-3 -9.176-1e-3"/>
		<path d="m535.44 109.7 7.135 2.162-0.141-2.439c0-6.717 5.752-11.135 12.146-11.135 7.318 0 12.332 5.705 12.332 12.838 0 4.281-2.254 8.562-6.074 10.584l-3.037-3.223c2.945-1.058 5.154-4.601 5.154-7.683 0-4.692-3.865-8.375-8.514-8.375-4.465 0-8.236 3.815-8.236 8.278 0 2.438 1.15 4.972 3.084 6.488v0.829l-17.811-5.338v-13.892h3.957v10.906z"/>
		<path d="m562.22 75.426h3.955v22.408l-18.637-15.187c-1.746-1.426-3.91-3.082-6.211-3.082-3.636 0-6.625 3.222-6.625 6.81 0 3.545 2.854 6.442 6.35 6.674v4.324c-6.166-0.688-10.309-4.692-10.309-10.998 0-5.89 4.371-10.949 10.398-10.949 2.576 0 5.152 0.968 7.134 2.574l13.94 11.412v-13.986z"/>
		<path d="m530.74 56.471c0 9.936 8.146 18.018 18.162 18.018 9.936 0 18.018-8.082 18.018-18.018 0-10.225-7.944-18.234-18.09-18.234s-18.09 8.009-18.09 18.234zm18.162-13.975c7.838 0 13.977 6.234 13.977 14.195 0 7.465-6.27 13.537-13.977 13.537-7.787 0-14.123-6.07-14.123-13.537 0-8.091 6.071-14.195 14.123-14.195z"/>
		<path d="m530.74 18.234c0 9.936 8.146 18.018 18.162 18.018 9.936 0 18.018-8.082 18.018-18.018 0-10.224-7.946-18.234-18.09-18.234s-18.09 8.01-18.09 18.234zm18.162-13.974c7.838 0 13.977 6.234 13.977 14.195 0 7.465-6.27 13.539-13.977 13.539-7.787 0-14.123-6.074-14.123-13.539 0-8.094 6.071-14.195 14.123-14.195z"/>
	</g>
</svg>
