<svg width="566.93px" height="104.51px" enable-background="new 0 0 566.929 104.51" version="1.1" viewBox="0 0 566.93 104.51" xmlns="http://www.w3.org/2000/svg">
	<path d="M566.929,84.51c0,11-9,20-20,20H20c-11,0-20-9-20-20V20C0,9,9,0,20,0h526.929c11,0,20,9,20,20V84.51z"/>
	<polygon points="432.61 68.958 384.13 86.539 432.92 86.539 451.48 76.296" fill="#f00"/>
	<polygon points="387.34 18.221 444.93 18.221 521.62 57.097 491.54 57.097 470.4 47.377 457.36 52.681" fill="#f00"/>
	<g fill="#fc0">
		<polygon points="494.6 36.031 543.09 18.458 494.3 18.458 475.75 28.693"/>
		<polygon points="539.89 86.768 482.29 86.768 405.6 47.892 435.68 47.892 456.82 57.613 469.86 52.308"/>
		<rect x="23.837" y="17.749" width="38.175" height="46.65"/>
		<rect x="23.837" y="70.11" width="97.824" height="14.281"/>
		<polygon points="85.87 17.749 131.21 17.749 162.23 43.926 139.81 60.375"/>
		<polygon points="143.14 62.967 143.14 84.392 178.93 84.392 178.93 62.967 248.12 17.749 214.72 17.749 145.53 62.967"/>
		<polygon points="252.9 24.885 291.07 48.686 291.07 84.392 252.9 84.392"/>
		<polygon points="257.67 17.749 355.5 84.392 376.97 84.392 376.97 17.742 358.36 17.742 358.36 64.613 288.69 17.749"/>
	</g>
</svg>
