<svg width="584.46" height="88.16" enable-background="new 0 0 566.929 79.219" version="1.1" viewBox="0 0 584.46 88.16" xmlns="http://www.w3.org/2000/svg">
	<path d="m583.46 70.672c0 9.0686-9.2465 16.488-20.548 16.488h-541.36c-11.301 0-20.548-7.4198-20.548-16.488v-53.183c0-9.0686 9.2465-16.488 20.548-16.488h541.36c11.301 0 20.548 7.4198 20.548 16.488z" stroke-width=".92032"/>
	<g transform="translate(9.9186 5.09)">
		<g id="_x23_ffffffff" fill="#ba1525">
			<path d="m123.44 3.436c3.074-3.934 9.436-4.604 13.207-1.307 1.542 1.299 2.622 3.091 3.175 5.02 6.981 24.021 13.994 48.033 20.966 72.058-4.12 4e-3 -8.242-6e-3 -12.362 4e-3 -1.943-6.623-3.841-13.258-5.759-19.889-7.967-0.018-15.932-4e-3 -23.898-8e-3 -1.951 6.627-3.876 13.258-5.792 19.897-4.098-0.014-8.195-4e-3 -12.294-8e-3 6.633-22.914 13.273-45.832 19.938-68.739 0.792-2.393 1.09-5.072 2.819-7.028m7.273 14.718c-2.921 9.952-5.783 19.924-8.688 29.881 5.791 0.027 11.579 0.01 17.367 0.01-2.898-9.963-5.781-19.926-8.679-29.891z"/>
			<path d="m210.23 3.953c2.147-3.114 6.298-4.627 9.953-3.666 3.345 0.771 5.905 3.654 6.788 6.899 6.975 24.005 13.973 48.001 20.947 72.005-4.125 0.033-8.25 0-12.375 0.018-1.918-6.629-3.816-13.266-5.748-19.895-7.954 4e-3 -15.907-0.015-23.86 6e-3 -1.901 6.635-3.86 13.252-5.763 19.885-4.094 4e-3 -8.186-2e-3 -12.28 4e-3 6.629-23.041 13.336-46.063 20.019-69.087 0.701-2.081 0.971-4.373 2.319-6.169m-1.003 44.092c5.766 8e-3 11.53 4e-3 17.296 4e-3 -2.868-9.984-5.782-19.956-8.644-29.939-2.879 9.98-5.786 19.951-8.652 29.935z"/>
			<path d="m151.56 0.167h44.712v12.059c-5.487 4e-3 -10.974-6e-3 -16.459 4e-3 0 22.325 4e-3 44.653-3e-3 66.977h-11.792c0-22.324-3e-3 -44.651 4e-3 -66.977-5.489-0.01-10.974 0-16.462-4e-3 0-4.02-3e-3 -8.037 0-12.059z"/>
			<path d="m261.02 0.657c1.133-0.391 2.342-0.524 3.537-0.495 4.699 0.017 9.398 3e-3 14.098 6e-3 7.914 0.145 15.468 5.056 18.894 12.179 2.371 4.626 2.615 10.005 2.018 15.079-0.41 5.313-2.64 10.625-6.723 14.145-2.158 1.925-4.846 3.089-7.153 4.8-1.269 0.967-1.329 2.842-0.676 4.185 6.237 9.629 12.724 19.104 19.09 28.653-4.657 8e-3 -9.313-0.013-13.972 8e-3 -6.098-9.157-12.13-18.36-18.202-27.53-1.785-2.609-2.27-6.066-1.201-9.045 0.834-2.285 2.831-3.958 5.055-4.82 4.246-1.619 8.431-4.166 10.782-8.172 1.788-3.01 1.697-6.725 0.893-10.021-0.943-4.277-5.111-7.644-9.514-7.495-3.047 0.021-6.091-0.016-9.132 0.014-1.377-0.032-2.672 1.165-2.655 2.561-0.014 21.501 8e-3 43.004-6e-3 64.504-3.96-6e-3 -7.917 0-11.878-4e-3 -7e-3 -23.146 7e-3 -46.297-7e-3 -69.443 0.02-4.059 2.905-7.876 6.752-9.109z"/>
			<path d="m310.34 0.167h12.498c-4e-3 26.349 6e-3 52.692-8e-3 79.042-4.162-0.01-8.326 0-12.49-4e-3v-79.038z"/>
		</g>
	</g>
	<g transform="translate(9.9186 5.09)">
		<path d="m527.33 79.205c-21.836 0-39.604-17.766-39.604-39.603 0-21.838 17.768-39.602 39.604-39.602 21.838 0 39.602 17.765 39.602 39.603-1e-3 21.836-17.764 39.602-39.602 39.602zm0-76.297c-20.234 0-36.695 16.461-36.695 36.694 0 20.234 16.461 36.695 36.695 36.695 20.232 0 36.693-16.461 36.693-36.695 0-20.232-16.461-36.694-36.693-36.694zm0 63.674c-14.873 0-26.977-12.102-26.977-26.976 0-14.875 12.104-26.976 26.977-26.976s26.975 12.101 26.975 26.976c-1e-3 14.874-12.102 26.976-26.975 26.976zm0-51.042c-13.271 0-24.068 10.797-24.068 24.066 0 13.271 10.797 24.068 24.068 24.068 13.27 0 24.066-10.797 24.066-24.068 0-13.27-10.797-24.066-24.066-24.066z" fill="#ba1525"/>
	</g>
	<g transform="translate(9.9186 5.09)">
		<path d="m446.26 79.205c-21.836 0-39.604-17.766-39.604-39.603 1e-3 -21.838 17.768-39.602 39.604-39.602 21.838 0 39.602 17.765 39.602 39.603 0 21.836-17.764 39.602-39.602 39.602zm0-76.297c-20.232 0-36.695 16.461-36.695 36.694 0 20.234 16.463 36.695 36.695 36.695s36.693-16.461 36.693-36.695c1e-3 -20.232-16.46-36.694-36.693-36.694zm0 63.674c-14.875 0-26.977-12.102-26.977-26.976 0-14.875 12.102-26.976 26.977-26.976 14.873 0 26.975 12.101 26.975 26.976 0 14.874-12.102 26.976-26.975 26.976zm0-51.042c-13.271 0-24.068 10.797-24.068 24.066 0 13.271 10.797 24.068 24.068 24.068s24.066-10.797 24.066-24.068c1e-3 -13.27-10.796-24.066-24.066-24.066z" fill="#ba1525"/>
	</g>
	<g transform="translate(9.9186 5.09)">
		<path d="m378.4 79.205c-15.295 0-27.736-12.441-27.736-27.738 0-9.178 4.637-17.842 12.197-22.976-1.932-2.98-2.943-6.41-2.943-10.009-1e-3 -10.19 8.29-18.482 18.482-18.482s18.484 8.292 18.484 18.481c0 3.599-1.016 7.027-2.947 10.009 7.563 5.134 12.199 13.796 12.199 22.976 2e-3 15.298-12.441 27.739-27.736 27.739zm0-76.297c-8.588 0-15.576 6.986-15.576 15.574 0 3.479 1.127 6.773 3.256 9.524l1.006 1.297-1.41 0.841c-7.467 4.467-12.104 12.637-12.104 21.323 0 13.689 11.139 24.83 24.828 24.83 13.691 0 24.83-11.141 24.83-24.83 0-8.688-4.639-16.857-12.105-21.323l-1.406-0.841 1.002-1.297c2.131-2.751 3.256-6.045 3.256-9.524-1e-3 -8.587-6.989-15.574-15.577-15.574zm0 64.785c-8.945 0-16.225-7.275-16.225-16.226 0-8.944 7.277-16.225 16.225-16.225 8.945 0 16.225 7.278 16.225 16.225 0 8.951-7.278 16.226-16.225 16.226zm0-29.542c-7.344 0-13.316 5.976-13.316 13.318 0 7.344 5.975 13.318 13.316 13.318 7.344 0 13.316-5.975 13.316-13.318 0-7.342-5.972-13.318-13.316-13.318zm0-11.512c-4.496 0-8.152-3.658-8.152-8.154 0-4.495 3.656-8.151 8.152-8.151s8.152 3.656 8.152 8.151c2e-3 4.496-3.656 8.154-8.152 8.154zm0-13.399c-2.893 0-5.244 2.354-5.244 5.244 0 2.894 2.352 5.246 5.244 5.246 2.895 0 5.246-2.354 5.246-5.246 0-2.891-2.352-5.244-5.246-5.244z" fill="#ba1525"/>
	</g>
	<g transform="translate(9.9186 5.09)">
		<path d="m70.453 3e-3h-61.692c-4.819 0-8.761 3.943-8.761 8.762v61.692c0 4.818 3.942 8.762 8.761 8.762h61.692c4.819 0 8.762-3.943 8.762-8.762v-61.692c0-4.818-3.942-8.762-8.762-8.762zm-36.184 31.847c-0.175 3.69-0.406 7.389-1.017 11.037-0.42 2.516-1.291 4.943-2.369 7.246-1.761 3.711-4.528 6.852-7.639 9.492-2.782 2.449-6.104 4.232-9.597 5.438-1.976 0.683-4.01 1.205-6.08 1.498 2e-3 -2.571 2e-3 -5.143 0-7.713 2.492-0.375 4.889-1.26 7.114-2.43 2.641-1.396 5.018-3.273 7.019-5.488 2.067-2.285 3.713-4.932 4.963-7.742 1.472-3.229 2.26-6.721 2.795-10.214 0.672-4.442 0.951-8.938 1.055-13.425 0.017-1.52 4e-3 -3.042 8e-3 -4.564 1.303-4e-3 2.606 0 3.911-2e-3 5e-3 3.064 0 6.131 2e-3 9.195 0.013 2.558-0.059 5.115-0.165 7.672zm8.936-16.867c1e-3 17.192 1e-3 34.386 0 51.576-2.395 6e-3 -4.789-0.01-7.183 0.012-0.031-5.482-5e-3 -10.967-0.013-16.447-3e-3 -11.71 5e-3 -23.422-4e-3 -35.134 2.4-0.016 4.8-3e-3 7.2-7e-3v0zm28.443 51.572c-2.056-0.279-4.072-0.811-6.034-1.477-2.336-0.813-4.596-1.865-6.672-3.217-1.515-0.973-2.892-2.139-4.216-3.355-2.182-2.014-4.134-4.299-5.601-6.889-1.147-2.018-1.985-4.195-2.64-6.416-0.601-2.232-0.857-4.543-1.09-6.837-0.451-4.962-0.62-9.947-0.588-14.928 0-2.817-1e-3 -5.634 0-8.453 1.297-1e-3 2.593-4e-3 3.888 1e-3 -0.042 5.241 0.137 10.495 0.761 15.701 0.512 4.045 1.233 8.121 2.844 11.889 1.527 3.646 3.729 7.035 6.598 9.768 2.74 2.613 6.06 4.621 9.667 5.777 1.007 0.32 2.036 0.572 3.083 0.727-1e-3 2.57-2e-3 5.138 0 7.709z" fill="#ba1525"/>
	</g>
</svg>
