<svg width="1066.7" height="400" version="1.1" viewBox="0 0 1066.7 400" xmlns="http://www.w3.org/2000/svg">
	<defs>
		<clipPath id="clipPath4616">
			<path d="m0 300h800v-300h-800z"/>
		</clipPath>
		<linearGradient id="linearGradient4642" x2="1" gradientTransform="matrix(698 0 0 698 26.041 148.5)" gradientUnits="userSpaceOnUse">
			<stop stop-color="#f08fa5" offset="0"/>
			<stop stop-color="#ee6e5e" offset=".25"/>
			<stop stop-color="#fbde2d" offset=".5075"/>
			<stop stop-color="#a3ddf2" offset="1"/>
		</linearGradient>
	</defs>
	<g transform="matrix(1.3333 0 0 -1.3333 0 400)">
		<g clip-path="url(#clipPath4616)">
			<g transform="translate(147.2 153.5)">
				<path d="m0 0c6.4-6.9 15.4-11 25.4-11.1l-31.9-48.7-26.6 49.2h26.1c3.9 0 7 3.1 7 7zm-94.76 116.4c-19.9 0-36-16.1-36-36v-55c0-18.3 13.7-33.4 31.4-35.7l69.86-116.2h45.3l54.8 87.6v-77.6c0-6 4.3-10 9.7-10h143.8c9.3 0 17.9 3 24.799 8 0.701-4 4.701-8 9.5-8h37.901c4.8 0 8.9 4 9.599 8 5.801-5 13.5-8 21.901-8h89.099c9 0 17.201 4 23.101 9 0.3-5 4.6-9 9.899-9h37.801c5.5 0 9.9 4 9.9 10v67.9h30.799c7.101 0 12.801-5.7 12.801-12.7v-55.2c0-5 4.4-10 9.9-10h37.5c5.5 0 9.9 5 9.9 10l-0.101 79.3c0 10-4.099 18.9-10.799 25.2h14.1c19.9 0 36 16.1 36 36v56.4c0 19.9-16.1 36-36 36h-87.7c-10.8 0-20.4-4.6-27-12v6.4c0 3.1-2.5 5.6-5.601 5.6h-95.899c-6.2 0-13.4-6.5-15.8-10v10h-138v-77.5h-23c-7.5 0-13.5 6-13.5 13.5v54c0 5.5-4.5 10-10 10h-38c-5.2 0-9.5-4-9.9-9.1-6.2 5.7-14.5 9.1-23.6 9.1h-88.1c-10.1 0-19.2-4.2-25.6-11.1v4.1c0 3.9-3.1 7-7 7h-41.26z"/>
			</g>
		</g>
		<path d="m426.2 261h-37.5v-75c0-18.8 15.099-33.9 33.899-33.9h84.501v30.8h-69.2c-6.499 0-11.7 5.2-11.7 11.7v0.9h80.9v27.6h-80.9v9.699h80.9v28.201zm-131.8 0v-75c0-18.8 15.1-33.9 33.9-33.9h57.7v30.8h-42.4c-6.5 0-11.7 5.2-11.7 11.7v66.4zm374-0.4c-18.801 0-33.9-15.1-33.9-34v-40.6c0-18.8 15.099-33.9 33.9-33.9h74c18.8 0 33.899 15.1 33.899 33.9v40.6c0 18.9-15.099 34-33.899 34zm3.6-66v23.601c0 6.499 5.201 11.699 11.7 11.699h43.099c6.501 0 11.701-5.2 11.701-11.699v-23.601c0-6.5-5.2-11.7-11.701-11.7h-43.099c-6.499 0-11.7 5.2-11.7 11.7m-124 66c-18.8 0-33.9-15.1-33.9-34v-40.6c0-18.8 15.1-33.9 33.9-33.9h80.799v30.8h-65.499c-6.501 0-11.701 5.2-11.701 11.7v23.601c0 6.499 5.2 11.699 11.701 11.699h65.499v30.7zm-367.4 0c-18.8 0-33.9-15.1-33.9-34v-40.6c0-18.8 15.1-33.9 33.9-33.9h74c18.8 0 33.9 15.1 33.9 33.9v40.6c0 18.9-15.1 34-33.9 34zm3.6-66v23.601c0 6.499 5.2 11.699 11.7 11.699h43.1c6.5 0 11.7-5.2 11.7-11.699v-23.601c0-6.5-5.2-11.7-11.7-11.7h-43.1c-6.5 0-11.7 5.2-11.7 11.7m-124.26 66c-18.8 0-33.9-15.1-33.9-34v-40.6c0-18.8 15.1-33.9 33.9-33.9h80.761v30.8h-65.461c-6.5 0-11.7 5.2-11.7 11.7v23.601c0 6.499 5.2 11.699 11.7 11.699h65.461v30.7zm536.96-114.2v-110.4h37.699v79.7h52.2c6.5 0 11.7-5.2 11.7-11.7v-68h37.8v76.4c0 18.9-15.099 34-33.899 34zm-113.5 0c-18.801 0-33.901-15.1-33.901-34v-40.6c0-19.3 15.1-34.8 33.901-34.8h74c18.799 0 33.899 15.5 33.899 34.8v40.6c0 18.9-15.1 34-33.899 34zm3.599-65.999v23.599c0 6.5 5.2 11.7 11.7 11.7h43.1c6.5 0 11.7-5.2 11.7-11.7v-23.599c0-6.5-5.2-11.7-11.7-11.7h-43.1c-6.5 0-11.7 5.2-11.7 11.7m-81.401-44.401h37.5v110.4h-37.5zm-98.599 110.4c-18.9 0-34.1-15.2-34.1-34.1s15.2-34.1 34.1-34.1h2.6c0-0.101-0.1-0.3-0.1-0.4h54.7c2.599 0 4.6-2 4.6-4.599v-0.401c0-2.5-2.001-4.6-4.6-4.6h-89.9v-32.2h91.3c18.9 0 34.1 16.5 34.1 35 0 18.9-15.2 34.3-34.1 34.3h-60.7c-2.5 0-4.601 2.3-4.601 4.901v0.299c0 2.5 2.101 4.599 4.601 4.599h91.6v31.301zm-79.4-110.4h37.5v110.4h-37.5zm-40.899 110.4-46.301-69.5-39.5 69.5h-41.76l64.26-110.4h33.5l64.999 110.4z" fill="url(#linearGradient4642)"/>
	</g>
</svg>
