<svg width="420.96" height="112.53" version="1.1" viewBox="0 0 111.38 29.773" xmlns="http://www.w3.org/2000/svg">
	<g transform="translate(-33.813 -78.563)">
		<g fill="#ec010d" stroke="#fad60b">
			<path d="m52.053 82.922q-0.19551 0.16293-0.50507 0.2118-0.29327 0.03259-0.6517 0.03259-0.71687 0-1.3523 0.03258-0.63541 0.01629-0.94497 0.01629-0.40732 0-1.0916 0.06517-0.68429 0.06517-1.4826 0.16292-0.79834 0.09775-1.6293 0.24439-0.83092 0.13034-1.5478 0.27697-0.71687 0.14663-1.2382 0.30956-0.50507 0.14663-0.668 0.27697-0.09775 0.16292-0.30956 0.94497-0.2118 0.76575-0.42361 1.8736-0.2118 1.0916-0.37473 2.3787-0.16293 1.2871-0.16293 2.4928 0.89609-0.17922 1.8411-0.39102 0.94497-0.2281 2.0529-0.42361 0.60282-0.09775 1.2871-0.29327 0.70058-0.19551 1.4012-0.39102 0.70058-0.19551 1.3523-0.34214 0.668-0.14663 1.2056-0.14663 0.58653 0 0.97756 0.04888 0.40731 0.03259 0.6517 0.16293 0.26068 0.13034 0.35844 0.40731 0.11405 0.26068 0.11405 0.73317 0 0.42361-0.2118 0.83092-0.19551 0.39102-0.52136 0.73317-0.2281 0.24439-0.86351 0.45619-0.61912 0.2118-1.3523 0.39102-0.71687 0.16293-1.3849 0.29327-0.6517 0.11405-0.94497 0.16292-1.1405 0.19551-2.2647 0.4399-1.1079 0.2281-2.004 0.45619-0.89609 0.2281-1.4826 0.4399-0.57024 0.19551-0.63541 0.32585-0.11405 0.26068-0.19551 0.70058-0.06517 0.4399-0.11405 0.99385-0.04888 0.53765-0.06517 1.1405-0.01629 0.60282-0.01629 1.1894 0 0.96126-0.01629 1.613 0 0.6517 0 1.3197 0 0.40732-0.04888 0.78204-0.04888 0.37474-0.2281 0.65171-0.16292 0.29327-0.50507 0.45619-0.34214 0.17922-0.91238 0.17922-0.08146 0-0.17922 0-0.08146 0-0.16292-0.0163-0.09775-0.0163-0.45619-0.14663-0.35844-0.13031-0.74946-0.4236-0.39102-0.27698-0.70058-0.70058-0.29327-0.42361-0.29327-1.0264 0-1.8899 0.2118-3.6821 0.2118-1.8085 0.37473-3.2911 0.01629-0.11405 0.08146-0.63541 0.08146-0.52136 0.19551-1.3034 0.11405-0.79834 0.26068-1.7759 0.14663-0.99385 0.29327-2.004 0.14663-1.0264 0.27697-2.004 0.14663-0.99385 0.26068-1.7922 0.11405-0.79834 0.17922-1.3197 0.06517-0.53765 0.06517-0.6517 0-0.2118-0.06517-0.42361-0.06517-0.2281-0.14664-0.45619-0.08146-0.2281-0.14663-0.45619-0.06517-0.24439-0.06517-0.48878 0-0.30956 0.19551-0.6517 0.2118-0.34214 0.50507-0.61912 0.30956-0.29327 0.6517-0.47248 0.35844-0.19551 0.6517-0.19551 0.668 0 1.1405 0.11405t0.89609 0.11405q0.61912 0 1.4826-0.14663 0.8798-0.14663 1.9877-0.37473 0.96126-0.19551 1.9225-0.35844 0.96126-0.17922 1.8736-0.30956 0.92868-0.14663 1.7759-0.2281 0.84721-0.08146 1.5804-0.08146 0.27697 0 0.668 0.14663 0.39102 0.13034 0.74946 0.35844 0.37473 0.2118 0.61912 0.48878 0.26068 0.27697 0.26068 0.53766 0 0.48878-0.27697 1.0101-0.26068 0.52136-1.0264 1.0427z" stroke-width="1.0509"/>
			<g stroke-width=".8">
				<path d="m53.642 95.152q0-0.03721-0.02481-0.13643-0.0124-0.11162-0.03721-0.17363-0.40928 0.04961-0.90537 0.32246-0.48369 0.26045-1.0542 0.80615-0.55811 0.5457-1.203 1.4139-0.64492 0.85576-1.3519 2.096-0.18604 0.33486-0.39688 0.73174-0.21084 0.38447-0.39688 0.83095-0.17363 0.44649-0.28525 0.95498-0.11162 0.4961-0.11162 1.0542 0 0.21084 0.11162 0.32246 0.12402 0.0992 0.24805 0.0992 0.28525 0 0.73174-0.32247 0.45889-0.33486 0.97978-0.88056 0.5333-0.54571 1.079-1.2402 0.55811-0.70693 1.0294-1.4387 0.47129-0.74414 0.81856-1.4635 0.35967-0.73174 0.49609-1.3146 0.03721-0.18604 0.08682-0.43408t0.08682-0.48369q0.04961-0.24805 0.07441-0.44648 0.02481-0.19844 0.02481-0.29766zm10.009 1.5627q0 0.22324-0.07441 0.47129t-0.19844 0.49609q-0.11162 0.24805-0.26045 0.49609t-0.31006 0.45889q-0.71934 0.96738-1.5503 1.8231-0.81856 0.84336-1.6495 1.5875-0.44648 0.39688-0.91777 0.71934t-0.94258 0.55811q-0.47129 0.23564-0.91777 0.35967-0.44648 0.12402-0.83096 0.12402-0.47129 0-0.90537-0.29766-0.43408-0.29765-0.76894-0.74414-0.32246-0.45888-0.5209-0.97979-0.18604-0.52089-0.18604-0.96738-0.14883 0.22324-0.43408 0.59531t-0.59531 0.75655q-0.31006 0.38447-0.58291 0.70693-0.26045 0.31006-0.37207 0.44649-0.39688 0.42168-0.91777 0.86816-0.5209 0.44649-1.0418 0.80615-0.5085 0.35967-0.95498 0.59532-0.44648 0.22324-0.68213 0.22324-0.5457 0-1.0542-0.17363-0.5085-0.17364-0.90537-0.4961-0.38447-0.33486-0.62012-0.81855-0.23564-0.48369-0.23564-1.1038 0-0.60772 0.16123-1.327 0.17363-0.73174 0.45889-1.5131 0.29766-0.79375 0.70693-1.5999 0.40928-0.80615 0.88057-1.5627 0.48369-0.76894 1.017-1.4511t1.0914-1.2154q0.99219-0.94258 2.1084-1.3891 1.1162-0.44648 2.3068-0.44648 0.31006 0 0.5209 0.08682t0.35967 0.23564q0.14883 0.13643 0.24805 0.32246 0.11162 0.18604 0.19844 0.37207 0.06201 0.08682 0.19844 0.24805 0.14883 0.14883 0.29766 0.33486t0.26045 0.37207 0.11162 0.33486q0 0.26045-0.07441 0.57051-0.07441 0.29766-0.16123 0.69453-0.07441 0.39688-0.14883 0.90537-0.07441 0.49609-0.07441 1.1534 0 0.37207 0.04961 0.86816 0.06201 0.49609 0.17363 0.93018 0.11162 0.43408 0.27285 0.74414 0.17363 0.29766 0.38447 0.29766 0.26045 0 0.45889-0.0496 0.21084-0.062 0.39688-0.16124 0.18604-0.11162 0.37207-0.26044 0.19844-0.14883 0.44648-0.32247 0.76895-0.5581 1.5379-1.2898 0.78135-0.73174 1.5875-1.5007 0.22324-0.21084 0.45889-0.47129 0.24805-0.26045 0.49609-0.48369 0.26045-0.22324 0.5085-0.37207 0.24805-0.14883 0.47129-0.14883 0.34727 0 0.34727 0.58291z"/>
				<path d="m77.67 93.929q0 0.5209-0.73174 1.141-0.44648 0.38447-0.99219 0.70693-0.5333 0.31006-1.1038 0.5457-0.57051 0.22324-1.141 0.35967-0.55811 0.12402-1.0542 0.12402-0.55811 0-1.2774-0.16123-0.71934-0.17363-1.3146-0.42168-0.11162 0.22324-0.28525 0.59531-0.16123 0.37207-0.34727 0.80615-0.18604 0.42168-0.37207 0.84336-0.18604 0.40928-0.33486 0.73174-0.29766 0.64493-0.57051 1.2154-0.27285 0.57051-0.5333 1.0914t-0.5085 1.017q-0.24805 0.48369-0.49609 0.95498t-0.49609 0.76895q-0.24805 0.29765-0.48369 0.45888-0.22324 0.17364-0.43408 0.23565-0.19844 0.0744-0.35967 0.0744-0.39688 0-0.75654-0.22324-0.34726-0.21084-0.73174-0.70693 0.03721-0.19844 0.04961-0.32246 0.0124-0.12403 0.0124-0.22325 0-0.48369-0.32246-1.4263-0.31006-0.95498-0.96738-2.3068-0.34727-0.71934-0.66973-1.4759-0.32246-0.76894-0.57051-1.4883-0.24805-0.73174-0.39688-1.3643-0.14883-0.64492-0.14883-1.1162 0-0.37207 0.09922-0.78135 0.11162-0.42168 0.32246-0.76894 0.22324-0.34727 0.5457-0.57051 0.33486-0.22324 0.79375-0.22324 0.71934 0 1.0914 0.40928 0.37207 0.39688 0.37207 1.0666 0 0.35967-0.07441 0.76895-0.07441 0.39688-0.07441 0.71934 0 0.17363 0.0248 0.5333 0.02481 0.34727 0.08682 0.79375 0.07441 0.43408 0.19844 0.93018 0.13643 0.49609 0.34727 0.95498 0.09922 0.21084 0.22324 0.5085 0.12402 0.29766 0.26045 0.64492 0.13643 0.33486 0.26045 0.68213 0.12402 0.34727 0.22324 0.65732 0.09922 0.29766 0.16123 0.53331 0.06201 0.23564 0.06201 0.34726v0.0124q0.07441-0.14882 0.22324-0.50849 0.14883-0.37207 0.33486-0.85576 0.18604-0.4961 0.39688-1.0542 0.22324-0.57051 0.43408-1.1286 0.21084-0.57051 0.38447-1.0666 0.17363-0.5085 0.29766-0.86816 0.19844-0.60772 0.38447-1.1286 0.19844-0.5209 0.45889-0.90537 0.26045-0.39688 0.60771-0.62012 0.35967-0.22324 0.89297-0.22324 0.35967 0 0.62012 0.16123 0.26045 0.14883 0.5085 0.33486 0.12402 0.08682 0.32246 0.23564 0.21084 0.13643 0.47129 0.27285 0.26045 0.12402 0.5457 0.22324 0.29766 0.08682 0.59531 0.08682 0.5085 0 0.95498-0.06201 0.45889-0.06201 0.86816-0.16123 0.40928-0.11162 0.78135-0.23564 0.37207-0.13643 0.74414-0.28525 0.35967-0.13643 0.59531-0.22324 0.23564-0.08682 0.5333-0.08682 0.24805 0 0.34727 0.17363 0.11162 0.17363 0.11162 0.27285z"/>
				<path d="m84.256 97.96c-0.34726 0.07441-0.7152 0.14056-1.1038 0.19844-0.38034 0.04961-0.75241 0.09095-1.1162 0.12402-0.35553 0.03307-0.65732 0.04961-0.90537 0.04961-0.05788 0-0.14056-0.0041-0.24805-0.0124-0.09922-0.01654-0.21084-0.03721-0.33486-0.06201-0.11576-0.02481-0.23564-0.05375-0.35967-0.08682-0.11576-0.04134-0.21497-0.09095-0.29766-0.14883 0.09095 0.19017 0.14056 0.40101 0.14883 0.63252 0.01653 0.22324 0.0248 0.44648 0.0248 0.66973 0 0.1571-0.01654 0.34313-0.04961 0.5581-0.03307 0.21497-0.07855 0.43408-0.13643 0.65733-0.04961 0.22324-0.11162 0.43821-0.18604 0.64492-0.07441 0.20671-0.15296 0.38034-0.23564 0.52089-0.2067 0.35554-0.42995 0.68214-0.66973 0.97979-0.23151 0.29765-0.49196 0.57464-0.78135 0.83096-0.28939 0.25631-0.61598 0.49609-0.97978 0.71933-0.3638 0.22325-0.78548 0.44236-1.265 0.65733-0.51263 0.22324-1.0253 0.38034-1.5379 0.47129-0.51263 0.0827-1.0418 0.12402-1.5875 0.12402-0.40514 0-0.76481-0.10335-1.079-0.31006-0.31419-0.21497-0.57878-0.50023-0.79375-0.85576-0.21497-0.35553-0.38034-0.76481-0.49609-1.2278-0.10749-0.46302-0.16123-0.94671-0.16123-1.4511 0-0.12402 0.0083-0.27698 0.02481-0.45888 0.02481-0.19017 0.05375-0.38034 0.08682-0.57051 0.04134-0.19017 0.08268-0.3762 0.12402-0.55811 0.04961-0.1819 0.09508-0.33486 0.13643-0.45888 0.11576-0.34726 0.28112-0.74414 0.49609-1.1906 0.22324-0.44648 0.48369-0.90124 0.78135-1.3643 0.29766-0.47129 0.62838-0.93018 0.99219-1.3767 0.3638-0.45475 0.74828-0.85576 1.1534-1.203 0.41341-0.35553 0.83923-0.64079 1.2774-0.85576 0.44648-0.21497 0.89297-0.32246 1.3395-0.32246 0.19017 0 0.34313 0.02067 0.45889 0.06201 0.11576 0.03307 0.21084 0.08268 0.28525 0.14883 0.07441 0.05788 0.14056 0.12816 0.19844 0.21084 0.06615 0.07441 0.13643 0.14883 0.21084 0.22324 0.05788-0.01654 0.11576-0.02894 0.17363-0.03721 0.06615-0.0083 0.13229-0.0124 0.19844-0.0124 0.25632 0 0.5085 0.09922 0.75654 0.29766 0.24805 0.19844 0.50023 0.41754 0.75654 0.65732 0.11576 0.10749 0.23151 0.21911 0.34727 0.33486 0.12402 0.10749 0.23564 0.20671 0.33486 0.29766 0.09922 0.08268 0.18604 0.15296 0.26045 0.21084 0.08268 0.04961 0.14056 0.07442 0.17363 0.07442h0.69453c0.25632-0.0083 0.51263-0.01654 0.76895-0.02481 0.26458-0.01654 0.51676-0.03721 0.75654-0.06201 0.24805-0.02481 0.47129-0.05375 0.66973-0.08682 0.02481-0.0083 0.13229-0.03307 0.32246-0.07441 0.19017-0.04961 0.41755-0.10748 0.68213-0.17363 0.27285-0.07441-0.31419 0.08268 0 0zm-10.666 5.3454c0.66973 0 1.2609-0.17777 1.7735-0.5333 0.5209-0.35553 0.95912-0.82682 1.3146-1.4139 0.35553-0.59531 0.62839-1.2692 0.81856-2.0216 0.19844-0.76068 0.30179-1.542 0.31006-2.344-0.05788-0.12402-0.1447-0.25218-0.26045-0.38447-0.10749-0.13229-0.23151-0.24805-0.37207-0.34726-0.14056-0.10749-0.28525-0.1943-0.43408-0.26045-0.14883-0.06615-0.28525-0.09922-0.40928-0.09922-0.19844 0-0.41341 0.07855-0.64492 0.23564-0.23151 0.1571-0.44648 0.31833-0.64492 0.48369-0.19844 0.16536-0.39688 0.38447-0.59531 0.65732-0.19017 0.26458-0.36794 0.56224-0.5333 0.89297s-0.31833 0.68213-0.45889 1.0542c-0.14056 0.3638-0.26045 0.7276-0.35967 1.0914-0.09922 0.35553-0.17777 0.7028-0.23564 1.0418-0.04961 0.33899-0.07441 0.64078-0.07441 0.90537 0 0.13229 0.02067 0.26045 0.06201 0.38447 0.04134 0.12403 0.09508 0.23565 0.16123 0.33487 0.07441 0.0992 0.16123 0.17776 0.26045 0.23564 0.09922 0.0579 0.20671 0.0868 0.32246 0.0868z"/>
				<path d="m103.28 95.499q0 0.09922-0.0248 0.19844-0.0248 0.09922-0.0868 0.22324-0.44648 0.89297-1.0542 1.8479-0.60771 0.95498-1.327 1.8728-0.70693 0.90537-1.4883 1.7239-0.78135 0.81856-1.5751 1.4387-0.78135 0.60771-1.5503 0.96738-0.76895 0.35967-1.4635 0.35967-0.70693 0-1.3022-0.21084-0.58291-0.22324-1.017-0.70693-0.43408-0.4837-0.68212-1.2402-0.23565-0.75654-0.23565-1.8356-0.19844 0.32246-0.48369 0.73174-0.27285 0.39688-0.59531 0.80615-0.31006 0.40928-0.65733 0.79376-0.33486 0.38447-0.66972 0.66972-0.29766 0.26045-0.74414 0.63252-0.43409 0.35967-1.0046 0.70694-0.55811 0.33486-1.2402 0.59531-0.68213 0.24804-1.4635 0.28525-1.017 0-1.6123-0.34726-0.58291-0.35967-0.88057-0.90538-0.29766-0.5581-0.38447-1.2278-0.07441-0.66973-0.07441-1.3022 0-0.062 0.0124-0.34726 0.02481-0.28526 0.06201-0.70693 0.04961-0.42168 0.12402-0.94258 0.08682-0.5333 0.19844-1.1038 0.12402-0.57051 0.28525-1.141 0.16123-0.57051 0.37207-1.079 0.11162-0.26045 0.21084-0.47129 0.11162-0.22324 0.24805-0.37207 0.13642-0.16123 0.33486-0.26045 0.19844-0.09922 0.49609-0.11162 0.38447 0 0.63252 0.13643 0.26045 0.12402 0.40928 0.32246 0.16123 0.19844 0.22324 0.44648 0.06201 0.24805 0.06201 0.48369 0 0.18604-0.17363 0.65732-0.16123 0.47129-0.35967 1.1658-0.19844 0.69453-0.37207 1.5875-0.16123 0.89296-0.16123 1.9224 0 0.5209 0.17363 0.83096 0.17363 0.29766 0.45889 0.29766 0.39688 0 0.76895-0.12403 0.38447-0.12402 0.74414-0.32246t0.69454-0.44649q0.34726-0.26045 0.65732-0.52089 0.37207-0.31006 0.80615-0.79375 0.44649-0.4837 0.86817-1.017 0.42168-0.5457 0.78134-1.0666 0.35967-0.5209 0.57051-0.90537 0.11162-0.19844 0.26045-0.5209 0.14883-0.33486 0.28526-0.69453 0.13642-0.35967 0.24804-0.68213 0.11162-0.33486 0.16123-0.5333 0.0372-0.17363 0.062-0.29766 0.0372-0.13643 0.062-0.27285 0.0372-0.13643 0.0868-0.28525t0.12403-0.33486q0.0496-0.12402 0.18603-0.26045 0.13643-0.14883 0.31006-0.26045 0.18604-0.12402 0.38447-0.19844 0.21084-0.08682 0.39688-0.08682 0.5581 0 0.85576 0.32246 0.29766 0.31006 0.32246 0.76894-0.0496 0.24805-0.17363 0.83096-0.11162 0.57051-0.23565 1.2898-0.12402 0.70693-0.21084 1.4759-0.0868 0.75654-0.0868 1.3891 0 1.0914 0.29765 1.7239 0.31006 0.62012 0.86817 0.62012 0.42168 0 0.88056-0.22324 0.47129-0.23565 0.96739-0.62012 0.49609-0.38447 0.99218-0.88056 0.5085-0.5085 0.99219-1.0666 0.49609-0.55811 0.94258-1.1286 0.45889-0.57051 0.85576-1.079 0.57051-0.74414 1.0418-1.2278 0.47129-0.49609 0.91777-0.49609 0.0744 0 0.18604 0.0248 0.12402 0.02481 0.23564 0.08682t0.18604 0.16123q0.0868 0.09922 0.0868 0.26045z"/>
				<path d="m108.36 94.546q-0.0124 0.42168-0.16123 0.70693-0.13643 0.28525-0.35967 0.45889-0.21084 0.16123-0.48369 0.23564-0.27285 0.06201-0.54571 0.06201-0.22324 0-0.44648-0.06201t-0.45889-0.06201q-0.39687 0-0.97978 0.24805-0.57051 0.23564-1.1782 0.62012-0.60772 0.38447-1.1906 0.85576-0.58291 0.47129-1.0046 0.93018-0.23564 0.26045-0.5457 0.63252-0.31006 0.35967-0.59531 0.75655-0.27286 0.39687-0.47129 0.79375-0.18604 0.39687-0.18604 0.71934 0 0.39687 0.0744 0.93017 0.0868 0.5333 0.0868 1.1286 0 0.21084-0.0124 0.39688 0 0.17363-0.0496 0.34727-0.0248 0.14882-0.16123 0.33486-0.12402 0.17363-0.32246 0.33486-0.19844 0.17363-0.43408 0.28526-0.23565 0.11162-0.48369 0.11162-0.40928 0-0.69454-0.29766-0.28525-0.29766-0.45888-0.83096-0.16123-0.5333-0.23565-1.2526-0.0744-0.71934-0.0744-1.5503 0-0.0496 0-0.33486 0.0124-0.28525 0.0124-0.62012 0.0124-0.33486 0.0248-0.64492 0.0124-0.31006 0.0124-0.39688 0-0.04961 0.0124-0.32246 0.0248-0.27285 0.0496-0.65732 0.0372-0.39688 0.062-0.84336 0.0372-0.45889 0.062-0.86816 0.0372-0.40928 0.062-0.71934 0.0248-0.32246 0.0372-0.42168 0.0124-0.03721 0.0248-0.24805 0.0248-0.22324 0.0496-0.5085 0.0372-0.28525 0.0868-0.58291 0.0496-0.29766 0.0992-0.49609 0.0496-0.17363 0.19844-0.40928 0.16123-0.23564 0.39687-0.44648 0.24805-0.22324 0.54571-0.37207 0.29765-0.16123 0.63252-0.16123 0.39687 0 0.63252 0.12402 0.24804 0.12402 0.38447 0.31006 0.14883 0.17363 0.19844 0.38447 0.0496 0.19844 0.0496 0.35967 0 0.09922-0.0744 0.44648-0.0744 0.33486-0.19844 0.74414-0.14882 0.5457-0.26045 1.2774-0.11162 0.71934-0.17363 1.3891 0.68213-0.76895 1.4635-1.5503 0.78135-0.79375 1.6247-1.4263 0.84335-0.64492 1.7239-1.0418 0.88057-0.40928 1.7611-0.40928 0.43409 0 0.78135 0.14883 0.34727 0.13643 0.58291 0.37207 0.24805 0.22324 0.37207 0.5085 0.13643 0.27285 0.13643 0.5581v0.02481z"/>
				<path d="m113.85 87.162q0 0.40928-0.12402 0.78135-0.12403 0.35967-0.35967 0.68213-0.47129 0.65732-1.4511 0.65732-0.34726 0-0.70693-0.06201t-0.64492-0.17363q-0.28526-0.11162-0.47129-0.28525-0.18604-0.17363-0.18604-0.39688 0-0.38447 0.19844-0.80615 0.19844-0.43408 0.5085-0.79375 0.32246-0.37207 0.69453-0.60772 0.38447-0.24805 0.73174-0.24805 0.43408 0 0.76894 0.06201 0.33487 0.04961 0.55811 0.18604 0.23564 0.13643 0.35967 0.38447 0.12402 0.24805 0.12402 0.62012zm7.7143 10.207q0 0.28525-0.22325 0.73174-0.21084 0.43408-0.59531 0.97978-0.37207 0.5333-0.89297 1.1534-0.5209 0.60771-1.1286 1.2526-0.65732 0.70693-1.4263 1.3891-0.76894 0.68213-1.6371 1.3146-0.85576 0.62011-1.6867 0.96738-0.83095 0.33486-1.5751 0.33486-0.86816 0-1.5131-0.28525-0.63252-0.29766-1.0914-0.79375-0.44648-0.5085-0.73174-1.1534-0.28525-0.65732-0.45888-1.3767-0.16123-0.73174-0.22324-1.4759-0.062-0.74414-0.062-1.4139 0-0.26045 0.0372-0.78135 0.0372-0.5209 0.0992-1.0914 0.0744-0.58291 0.14883-1.1162 0.0868-0.5457 0.17363-0.85576 0.18604-0.60772 0.85576-1.1534 0.64492-0.5209 1.4387-0.5209 0.80616 0 0.80616 0.96738 0 0.45889-0.0868 0.97978-0.0744 0.5085-0.17363 1.0046-0.16123 0.90537-0.22325 1.6371-0.062 0.71934-0.062 1.2774 0 0.63252 0.0744 1.2278 0.0744 0.59531 0.21084 1.0666 0.14883 0.45889 0.35967 0.74414 0.22324 0.28526 0.52089 0.28526 0.37207 0 0.76895-0.062 0.39687-0.0744 0.95498-0.37207 1.0666-0.58291 2.2696-1.5751 0.42168-0.34727 0.95498-0.81856 0.5457-0.48369 1.079-0.97978 0.5333-0.5085 1.0046-0.99219t0.74414-0.83096q0.0372-0.06201 0.0992-0.14883 0.0744-0.09922 0.16123-0.19844 0.0868-0.09922 0.18604-0.16123 0.11162-0.07441 0.21084-0.07441 0.19843 0 0.28525 0.06201 0.0992 0.04961 0.21084 0.33486 0.13643 0.31006 0.13643 0.5209z"/>
				<path d="m118.14 102.24q0-0.57051 0.062-1.141 0.0744-0.58292 0.17364-1.141 0.11162-0.57051 0.23564-1.1038 0.12403-0.5333 0.22324-1.017 0.13643-0.64492 0.24805-1.1534t0.13643-0.94258q-0.18604 0.03721-0.42168 0.07441-0.22325 0.02481-0.45889 0.06201-0.23564 0.02481-0.45889 0.03721-0.22324 0.0124-0.37207 0.0124-0.38447 0-0.66972-0.04961-0.27285-0.06201-0.45889-0.21084-0.18604-0.16123-0.27285-0.43408-0.0868-0.28525-0.0868-0.71934 0-0.27285 0.12403-0.45889 0.13642-0.18604 0.34726-0.29766 0.22324-0.11162 0.48369-0.14883 0.27285-0.04961 0.5333-0.04961 0.0992 0 0.38448-0.02481 0.28525-0.03721 0.60771-0.07441 0.32246-0.03721 0.63252-0.07441 0.31006-0.03721 0.45889-0.04961 0.0992 0 0.18603-0.14883 0.0992-0.14883 0.17364-0.34726 0.0868-0.21084 0.14882-0.42168 0.062-0.22324 0.0868-0.37207 0.062-0.33486 0.17363-0.81856 0.12403-0.48369 0.26045-0.99219 0.14883-0.5085 0.29766-0.96738 0.16123-0.47129 0.31006-0.74414 0.19843-0.38447 0.43408-0.58291 0.23564-0.19844 0.70693-0.19844 0.65733 0 0.95498 0.31006 0.31006 0.31006 0.31006 0.95498 0 0.29766-0.13642 0.76894-0.12403 0.47129-0.28526 1.017-0.16123 0.5333-0.31006 1.0914-0.13642 0.5457-0.14883 0.97978 0.24805 0 0.71934-0.04961t0.99219-0.11162q0.5209-0.07441 0.99219-0.14883 0.48369-0.07441 0.73173-0.12402 0.5209-0.11162 0.79375-0.16123 0.28526-0.06201 0.5085-0.11162 0.23564-0.04961 0.49609-0.11162 0.27286-0.07441 0.75655-0.21084 0.18603 0.14883 0.29765 0.23564 0.11162 0.08682 0.16123 0.14883 0.062 0.04961 0.0744 0.09922 0.0248 0.04961 0.0248 0.11162 0 0.48369-0.44648 0.89297-0.44649 0.39688-1.1286 0.70693-0.68212 0.31006-1.4883 0.5333-0.79375 0.21084-1.5007 0.33486-0.5209 0.08682-0.94258 0.14883-0.40928 0.06201-0.71933 0.12402-0.31006 0.04961-0.5085 0.12402-0.19844 0.06201-0.29766 0.16123-0.16123 0.55811-0.37207 1.3395-0.19843 0.76895-0.38447 1.6247-0.18603 0.85576-0.31006 1.7363-0.12402 0.86817-0.12402 1.6247 0 0.85576 0.33486 1.2774t0.94258 0.42168q0.55811 0 1.0914-0.0744 0.5457-0.0868 1.1286-0.29765 0.59531-0.22324 1.2526-0.59531 0.66972-0.37207 1.4883-0.95499 0.22324-0.17363 0.45888-0.38447 0.24805-0.21084 0.4961-0.39688 0.24804-0.19844 0.50849-0.32246 0.26045-0.13643 0.5333-0.13643 0.24805 0 0.38448 0.12403 0.14883 0.11162 0.14883 0.35967 0 0.18603-0.12403 0.45888-0.12402 0.26045-0.34726 0.55811-0.22325 0.29766-0.5333 0.62012-0.29766 0.31006-0.66973 0.59531-0.71934 0.57051-1.5131 1.0914-0.78134 0.5085-1.5999 0.89297-0.80615 0.38447-1.6247 0.60771-0.81855 0.22325-1.6247 0.22325-0.99219 0-1.6867-0.29766-0.69453-0.31006-1.141-0.81855-0.43408-0.5085-0.64492-1.1534-0.19844-0.65733-0.19844-1.3395z"/>
				<path d="m131.97 96.741q0-0.27285-0.062-0.5209-0.0496-0.24805-0.17363-0.31006-0.42168 0-0.90537 0.35967-0.47129 0.35967-0.90537 1.0294-0.43408 0.65732-0.78135 1.5999-0.33486 0.93018-0.49609 2.0712 0.58291-0.43408 1.1658-0.90537 0.59531-0.4837 1.0666-1.0046 0.48369-0.5209 0.78135-1.0914 0.31005-0.58291 0.31005-1.2278zm9.6738 2.282q0 0.22324-0.33486 0.81855-0.64492 0.93018-1.4387 1.848-0.78135 0.90537-1.6743 1.7239t-1.8604 1.5255q-0.96738 0.69453-1.9596 1.203-0.99219 0.5085-1.9844 0.80616-0.97978 0.28525-1.9224 0.28525-2.1208 0-3.3114-1.1906-1.1782-1.203-1.1782-3.6215 0-0.96738 0.13643-1.8976 0.13642-0.94259 0.44648-1.848 0.32246-0.91777 0.83096-1.7983 0.5085-0.88057 1.2526-1.7115 0.27285-0.31006 0.63252-0.59531 0.37207-0.28525 0.78134-0.5085 0.42168-0.22324 0.86817-0.35967 0.45888-0.13642 0.90537-0.13642 0.65732 0 1.1286 0.24805 0.48369 0.24805 0.79375 0.66973 0.31006 0.40928 0.45889 0.95498 0.14883 0.5333 0.14883 1.1286 0 1.1038-0.81856 2.2944-0.81855 1.1782-2.2696 2.4185-0.47129 0.39687-1.0914 0.86816-0.62012 0.45889-1.3891 1.0418 0.0248 0.31005 0.17364 0.58291 0.16123 0.27285 0.42168 0.48369 0.27285 0.19843 0.64492 0.32246 0.37207 0.11162 0.84336 0.11162 0.60771 0 1.2898-0.14883 0.68213-0.16123 1.3519-0.42168 0.66972-0.26045 1.3022-0.59531 0.63252-0.34726 1.1534-0.71933 0.91777-0.65733 1.7611-1.4139 0.85577-0.76895 1.6495-1.5627l0.65732-0.65732q0.68213-0.60772 1.1658-0.60772 0.24805 0 0.33486 0.17363 0.0992 0.16123 0.0992 0.28525z"/>
				<path d="m144.53 102.66q0 0.64492-0.24805 1.2774-0.23564 0.62012-0.63252 1.1782-0.39687 0.55811-0.91777 1.0294t-1.079 0.80615q-0.55811 0.33486-1.1162 0.5209-0.5581 0.19844-1.0418 0.19844-0.75655 0-1.1038-0.37207-0.34727-0.35967-0.34727-0.97979 0-0.29766 0.0868-0.57051 0.0992-0.26045 0.27285-0.45888 0.17363-0.21084 0.42168-0.32247 0.26045-0.12402 0.58291-0.12402h0.22324q0.24805 0 0.55811-0.0744t0.71933-0.40928q0.35967-0.29766 0.5209-0.70693 0.17364-0.42168 0.17364-0.73174 0-0.27285-0.13643-0.5085-0.13643-0.24804-0.35967-0.48369-0.22324-0.23564-0.5209-0.45889-0.28525-0.23564-0.60771-0.47129-0.42168-0.32246-0.85576-0.66973-0.42168-0.35967-0.76895-0.75654-0.34726-0.40928-0.5581-0.85576-0.21084-0.45889-0.21084-0.97979 0-0.5209 0.18603-1.0914 0.18604-0.57051 0.4961-1.1286 0.32246-0.55811 0.73173-1.0542 0.40928-0.49609 0.84336-0.88057 0.44649-0.38447 0.89297-0.60772 0.44649-0.22324 0.83096-0.22324 0.63252 0 0.95498 0.31006 0.33486 0.31006 0.33486 0.99219 0 0.32246-0.17363 0.66973-0.16123 0.33486-0.42168 0.66973-0.24805 0.32246-0.57051 0.63252-0.31006 0.31006-0.60771 0.57051-0.26045 0.23564-0.4961 0.38447-0.22324 0.14883-0.42168 0.32246 0.12403 0.22324 0.32247 0.45889 0.19843 0.22324 0.43408 0.44648 0.23564 0.21084 0.47129 0.40928 0.24804 0.19844 0.45888 0.37207 0.45889 0.37207 0.93018 0.78135 0.47129 0.40928 0.85576 0.86817 0.39688 0.44648 0.64492 0.95498 0.24805 0.49609 0.24805 1.0666z"/>
			</g>
		</g>
	</g>
</svg>
