<svg width="319.36" height="55.428" version="1.1" viewBox="0 0 84.499 14.665" xmlns="http://www.w3.org/2000/svg">
	<g transform="translate(-.25286 -235.13)">
		<g stroke-width=".26458"></g>
		<path d="m4.4641 246.79-1.7724-0.11469-1.7724-0.1147c-0.72973-0.23833-0.47109-0.95379-0.24654-1.7374l0.84504-2.5394 0.84504-2.5393c0.26261-0.65898 0.62746-1.6247 1.9125-1.7724h1.5665l1.5665-2e-5c0.30339-0.92689 0.64087-2.6036 2.1371-2.6784l21.071 0.0987 19.844-0.0376c1.7675 0.0687 1.7722 0.4845 1.2269 2.4266l32.064 0.3817c1.4089-0.0414 0.45602 1.6766 0.25025 2.1895l-0.84103 2.3407-0.84103 2.3407c-0.32925 0.95817-0.27291 1.5789-1.8553 1.7177h-32.002c-0.60342 2.0032-0.53972 2.629-2.3723 2.672h-41.568c-0.9206-0.26518-0.31777-1.6385-0.05758-2.6335zm8.8609-1.6608v-1.8131l5.9166-0.023 1.3716-1.8846h-7.2882v-1.5268h5.8674l1.7669-2.0994h-9.9245v9.1611h2.2903zm11.749-1.3719 2.3741-3.1017 2.9855 4.0805-4.2401 4e-3 -1.4175 2.203h10.199l-2.6372-3.8171-3.72-5.085c-1.1657-0.71298-1.5115-0.59055-2.5922 0.12249l-2.8397 4.008-3.2998 4.7714 3.0049-0.0846zm17.143 2.4216 2.9219-4.1052 2.9219-4.2925h-2.9715l-2.1923 3.1491-2.4569 3.3058-2.2632-3.3297-2.0587-3.1253-3.1851-0.018 5.3085 7.6503c1.2752 2.0492 2.6528 2.3844 3.9753 0.76483zm9.4241-5.9591h-3.0595c-1.4654 0.84604-1.8759 2.9095 0.04546 4.0188l3.3366 7.9e-4c2.573-1.7391 1.1591-3.9146-0.32252-4.0196zm-2.7788 0.99018h2.9303c0.6918 1.2871 0.03649 1.692-0.91284 2.2401h-1.2973c-0.98669-0.83531-1.1624-1.0876-0.72014-2.2401zm6.8097 2.4186v-0.68176h2.6298l0.26162 0.68176 0.26162 0.68177h1.5739l-1.0257-1.0257c0.64362-0.57772 1.0235-0.89166 0.98733-1.581 0.0334-1.0121-0.03468-1.111-0.56944-1.4839h-4.52l-0.2809 0.45451-0.2809 0.4545h4.5987l0.01443 0.96179h-4.5451l-0.01443 1.3108v0.90903h0.90902zm6.8176-1.3635v-2.0453h-0.90902v4.0906h0.90902zm4.0906 0.45451v-1.5908h1.7644l0.5618-0.90901h-4.5451l-0.2809 0.45451-0.2809 0.4545h1.8717v3.1816h0.90902zm8.1047 0.89229-3.5698 0.025 0.0101-1.1445 3.1349-0.0209 0.51741-0.62468-3.6624-6e-3 0.0101-0.71213h3.1279l0.5618-0.909h-4.5987v4.0906h4.0369zm6.6668-1.3468c-1.3026-0.087-2.6057-0.16516-3.9089-0.24295-0.43625-0.23568-0.56814-0.61339 0-0.85923l1.3822-0.034h1.7912l0.29649-0.47971 0.29649-0.47974-4.4823-0.0291c-0.67974 0.89007-0.75154 1.9059-0.0718 2.5626l3.534 0.0724c0.36089 0.23645 0.32465 0.53818-0.03044 0.62585h-3.5257l-0.29568 0.47843-0.29568 0.47842 5.1056-0.0708c1.2499-0.79915 0.20449-2.0221 0.20449-2.0221z" fill="#fefefe" stroke-width=".38171"/>
	</g>
</svg>
