<svg width="195px" height="34px" clip-rule="evenodd" fill-rule="evenodd" image-rendering="optimizeQuality" shape-rendering="geometricPrecision" text-rendering="geometricPrecision" version="1.1" viewBox="0 0 194.87 34.31" xmlns="http://www.w3.org/2000/svg">
	<defs>
		<style type="text/css"><![CDATA[
    .fil0 {fill:url(#id0)}
    .fil2 {fill:url(#id1);fill-rule:nonzero}
    .fil1 {fill:url(#id2);fill-rule:nonzero}
   ]]></style>
		<linearGradient id="id0" x1="97.44" x2="97.44" y2="34.31" gradientUnits="userSpaceOnUse">
			<stop offset="0"/>
			<stop offset=".36078"/>
			<stop stop-color="#545966" offset=".50196"/>
			<stop offset="1"/>
		</linearGradient>
		<linearGradient id="id1" x1="97.44" x2="97.44" y1=".92" y2="33.39" gradientUnits="userSpaceOnUse">
			<stop stop-color="#E7E7E7" offset="0"/>
			<stop stop-color="#1F1B20" offset=".52157"/>
			<stop stop-color="#E6E6E6" offset="1"/>
		</linearGradient>
		<linearGradient id="id2" x1="98.7" x2="97.91" y1="1.13" y2="33.19" gradientUnits="userSpaceOnUse">
			<stop stop-color="gray" offset="0"/>
			<stop stop-color="#FEFEFE" offset=".34902"/>
			<stop stop-color="#FEFEFE" offset=".63922"/>
			<stop stop-color="#4A4949" offset="1"/>
		</linearGradient>
	</defs>
	<path class="fil0" d="m172.22 29.76 0.01 4.55h-17.8l-4.71-4.58-0.04-25.15 4.72-4.58h17.79l0.03 4.52 4.71-4.52h12.85l5.02 4.57-0.28 8.77h-4.17l4.28 4.2 0.24 12.19-4.77 4.58h-13.19l-4.69-4.55zm-0.06-5.92-0.01-1.45h-11.93l0.04 1.45h11.9zm0.08-13.37h-11.96l-0.06 1.45h12.05l-0.03-1.45zm0.13 6.31v4.2h4.07l-4.07-4.2zm11.79-6.26h-1.43l-0.08 2.4h1.4l0.11-2.4zm-1.52 10.83 0.08 2.45h1.5l0.09-2.45h-1.67zm-113.21-16.79 4.76-4.56h12.92l4.7 4.58 0.09 25.16-4.77 4.57h-12.96l-4.71-4.58-0.04-23.78-0.11 15.58-8.45 12.78h-5.41l-8.41-12.67 0.07 12.67h-10.48l-0.01-8.05h-1.68l0.02 8.05h-10.47l-0.21-29.76 5.07-4.55h12.9l4.61 4.49-0.03-4.49h10.48l0.05 18.26 0.76 1.25 0.69-1.23 0.14-18.28h10.52l-0.04 4.56zm-58.9 5.91 0.05 1.45h11.96v10.47h-11.93l-0.15 11.92h-10.46l0.08-29.74 4.82-4.57h17.78l0.01 10.47h-12.16zm92.36 11.97-0.16 11.87h-10.45l-0.03-34.31h17.79l4.71 4.62 0.06 9.03-3.51 3.62 3.53 3.42-0.05 9.05-4.71 4.57h-5.63l-0.12-11.87h-1.43zm22.8-22.44-0.01 34.31h-10.47l-0.03-34.31h10.51zm17.17 10.52 0.02 23.79h-10.47l-0.02-23.79h-6.23l-0.02-10.52h22.67l-0.03 10.52h-5.92zm-106.24 5.54-0.19-5.54h-1.44v5.54h1.63zm43.19 7.78h1.68l0.02-13.37h-1.67l-0.03 13.37zm23-13.37 0.04 1.45h1.49l0.06-1.45h-1.59z"/>
	<path class="fil1" d="m9.25 33.08h-8.01l0.08-27.98 4.07-3.87h16.07v8.01h-12.19l0.12 3.91h11.92v8.01h-11.92l-0.14 11.92zm24.47 0h-8l-0.2-27.98 4.31-3.87h11.92l3.98 3.87 0.14 27.98h-8l-0.02-8.05h-4.14l0.01 8.05zm4.18-15.79-0.28-8.01h-3.86v8.01h4.14zm10.17-16.06h8.01l0.05 17.38 2.03 3.32 1.89-3.32 0.13-17.38h8.05l-0.14 19.93-7.88 11.92h-4.1l-7.9-11.92-0.14-19.93zm30.51 23.84h4.14l0.03-15.83h-4.14l-0.03 15.83zm-3.91 8.01-3.97-3.87-0.04-24.11 4.03-3.87h11.92l3.98 3.87 0.08 24.11-4.03 3.87h-11.97zm27.01-11.87-0.16 11.87h-8.01l-0.03-31.85h16.06l3.99 3.91 0.05 8.01-4.01 4.14 4.03 3.92-0.04 8-3.99 3.87h-3.91l-0.12-11.87h-3.86zm-0.14-11.97 0.12 3.91h3.87l0.15-3.91h-4.14zm22.93-8.01-0.02 31.85h-8.01l-0.03-31.85h8.06zm2.91 0h20.2l-0.03 8.05h-5.91l0.01 23.8h-8.01l-0.01-23.8h-6.24l-0.01-8.05zm31.69 23.84h11.92l0.01 8.01h-16.07l-3.97-3.87-0.04-24.11 3.98-3.87h16.07l0.05 8.01h-11.92l-0.16 3.91h12.2v8.01h-12.19l0.12 3.91zm26.25-12.96 0.13-2.83h-3.91l-0.16 4.87h8.05l3.98 3.92 0.23 11.14-4.04 3.87h-12.19l-3.97-3.87-0.06-7h8.06l0.09 2.82h3.87l0.2-4.92h-8.28l-3.75-3.86-0.18-11.15 4.04-3.87h11.87l4.25 3.87-0.22 7.01h-8.01z"/>
	<path class="fil2" d="m9.24 33.39h-8.31c0.02-9.47 0.03-18.95 0.08-28.42 1.41-1.35 2.84-2.7 4.26-4.05h16.49l0.01 8.63h-12.19l0.1 3.29h11.93l0.01 8.63h-11.93l-0.14 11.92h-0.31zm-7.7-0.62h7.4l0.15-11.92h11.91v-7.39h-11.91l-0.14-4.53h12.2v-7.39h-15.64l-3.89 3.69-0.08 27.54zm32.18 0.62h-8.31l-0.2-28.43 4.5-4.04h12.16l4.16 4.05c0.04 9.47 0.09 18.95 0.15 28.42h-8.62l-0.02-8.05h-3.53l0.02 8.05h-0.31zm-7.7-0.62h7.39l-0.01-8.05h4.75l0.02 8.05h7.39l-0.15-27.54-3.79-3.69h-11.68l-4.11 3.7 0.19 27.53zm11.56-15.78-0.26-7.4h-3.26l0.01 7.4h3.51zm0.35-7.71 0.29 8.32h-4.77v-8.62h4.47l0.01 0.3zm10.14-8.36h8.31l0.05 17.6 1.72 2.81 1.59-2.8 0.13-17.61h8.67c-0.06 6.78-0.1 13.56-0.15 20.33-2.67 4.05-5.35 8.09-8.02 12.14h-4.43c-2.68-4.04-5.38-8.08-8.04-12.14-0.07-6.77-0.1-13.55-0.14-20.33h0.31zm7.7 0.62h-7.39l0.13 19.53 7.76 11.7h3.77l7.74-11.7 0.14-19.53h-7.44l-0.13 17.15-2.18 3.85c-0.78-1.28-1.57-2.56-2.35-3.84l-0.05-17.16zm23.11 23.22h3.53l0.03-15.21h-3.53l-0.03 15.21zm3.84 0.62h-4.45c0.01-5.48 0.02-10.97 0.03-16.45h4.75c-0.01 5.48-0.02 10.97-0.03 16.45h-0.3zm-8.26 7.92-4.07-3.96c-0.02-8.12-0.04-16.25-0.04-24.37 1.4-1.35 2.81-2.7 4.21-4.05h12.17l4.16 4.05c0.02 8.12 0.05 16.25 0.09 24.37l-4.22 4.05h-12.21l-0.09-0.09zm-3.46-4.22 3.79 3.69h11.72l3.85-3.69-0.08-23.85-3.8-3.69h-11.67l-3.85 3.69 0.04 23.85zm30.98-7.57-0.16 11.88h-8.62c-0.01-10.82-0.03-21.64-0.03-32.47h16.49l4.17 4.09c0.02 2.76 0.04 5.51 0.05 8.27l-3.88 4.01 3.9 3.79c-0.01 2.75-0.02 5.51-0.04 8.26-1.38 1.36-2.78 2.7-4.17 4.05h-4.34l-0.11-11.88h-3.26zm-0.77 11.26 0.16-11.87h4.47l0.12 11.87h3.49l3.8-3.69 0.04-7.74-4.16-4.04 4.14-4.27-0.05-7.76-3.81-3.73h-15.63l0.03 31.23h7.4zm0.64-23.22 0.1 3.29h3.28l0.13-3.29h-3.51zm-0.5 3.61-0.13-4.23h4.78l-0.18 4.53h-4.46l-0.01-0.3zm23.42-11.93-0.02 32.16h-8.62c0-10.82-0.02-21.64-0.03-32.47h8.67v0.31zm-0.63 31.54 0.02-31.23h-7.44l0.03 31.23h7.39zm3.23-31.85h20.51l-0.03 8.67h-5.91l0.01 23.8h-8.62l-0.01-23.8h-6.23l-0.02-8.67h0.3zm19.9 0.62h-19.59l0.02 7.44h6.23l0.01 23.79h7.4l-0.01-23.79h5.91l0.03-7.44zm12.09 23.22h11.93l0.01 8.63h-16.49c-1.39-1.35-2.78-2.7-4.16-4.05 0-8.12-0.02-16.25-0.04-24.37l4.17-4.05h16.49l0.05 8.63h-11.93l-0.13 3.29h12.18l0.01 8.63h-12.19l0.1 3.29zm11.32 0.62h-11.91l-0.14-4.53h12.2v-7.39h-12.21l0.18-4.53h11.91l-0.05-7.39h-15.63l-3.81 3.69 0.04 23.85 3.79 3.69h15.63v-7.39zm14.33-13.29 0.12-2.5h-3.3l-0.14 4.26h7.86l4.16 4.09c0.09 3.8 0.16 7.6 0.23 11.4l-4.22 4.05h-12.44c-1.38-1.35-2.77-2.7-4.15-4.05l-0.06-7.44h8.66l0.1 2.82h3.27l0.18-4.3h-8.09l-3.93-4.05-0.18-11.4 4.22-4.05h12.12l4.44 4.05-0.24 7.44h-8.62l0.01-0.32zm0.74-2.79-0.11 2.5h7.39l0.21-6.57-4.06-3.69h-11.63l-3.85 3.69 0.17 10.89 3.57 3.69h8.48l-0.23 5.53h-4.46l-0.09-2.82h-7.45l0.05 6.56 3.79 3.69h11.95l3.84-3.69-0.21-10.88-3.81-3.74h-8.25l0.19-5.48h4.53l-0.02 0.32z"/>
</svg>
