<svg width="601.34" height="114.43" clip-rule="evenodd" fill-rule="evenodd" image-rendering="optimizeQuality" shape-rendering="geometricPrecision" text-rendering="geometricPrecision" version="1.1" viewBox="0 0 55.859 10.646" xmlns="http://www.w3.org/2000/svg">
	<defs>
		<style type="text/css"><![CDATA[
    .fil2 {fill:url(#id0)}
    .fil3 {fill:url(#id1)}
    .fil0 {fill:url(#id2)}
    .fil1 {fill:url(#id3);fill-rule:nonzero}
   ]]></style>
		<linearGradient id="id0" x1="29.4" x2="29.4" y1="5.26" y2="10" gradientUnits="userSpaceOnUse">
			<stop stop-color="#48201C" offset="0"/>
			<stop stop-color="#48201B" offset=".18824"/>
			<stop stop-color="#E84E22" offset=".38039"/>
			<stop stop-color="#fff" offset="1"/>
		</linearGradient>
		<linearGradient id="id1" x1="29.4" x2="29.4" y1=".42" y2="5.26" gradientUnits="userSpaceOnUse">
			<stop stop-color="#0D3142" offset="0"/>
			<stop stop-color="#15252C" offset=".3098"/>
			<stop stop-color="#048FBB" offset=".6"/>
			<stop stop-color="#fff" offset="1"/>
		</linearGradient>
		<linearGradient id="id2" x1="29.21" x2="29.21" y1="-.18" y2="10.6" gradientUnits="userSpaceOnUse">
			<stop stop-color="#FEFEFE" offset="0"/>
			<stop stop-color="#323232" offset=".36078"/>
			<stop stop-color="#434242" offset=".63137"/>
			<stop stop-color="#fff" offset="1"/>
		</linearGradient>
		<linearGradient id="id3" x1="29.4" x2="29.4" y2="10.42" gradientUnits="userSpaceOnUse">
			<stop stop-color="#FEFEFE" offset="0"/>
			<stop stop-color="#8C8B8B" offset=".34902"/>
			<stop stop-color="#1F1B20" offset=".45098"/>
			<stop stop-color="#6F7070" offset=".54902"/>
			<stop stop-color="#fff" offset="1"/>
		</linearGradient>
	</defs>
	<g transform="matrix(1.3658 0 0 1.3658 -1.3156 -1.8578)" fill="#fff" stroke="#000" stroke-width="1.4065" style="paint-order:markers stroke fill" aria-label="FAVORITES">
		<path d="m3.4538 8.3836h-1.5719l1.2683-5.4928 0.97353-0.75917h3.1528l-0.35726 1.5719h-2.3936l-0.15183 0.7681h2.34l-0.35726 1.5719h-2.34z" style="paint-order:markers stroke fill"/>
		<path d="m8.251 8.3836h-1.5719l1.2147-5.4928 1.0182-0.75917h2.34l0.60734 0.75917-1.2236 5.4928h-1.5719l0.35726-1.5809h-0.81276zm1.5273-3.0992 0.30367-1.5719h-0.75917l-0.35726 1.5719z" style="paint-order:markers stroke fill"/>
		<path d="m12.49 2.1316h1.5719l-0.7681 3.4118 0.25008 0.65199 0.51802-0.65199 0.80383-3.4118h1.5809l-0.91994 3.912-2.081 2.34h-0.80383l-1.0182-2.34z" style="paint-order:markers stroke fill"/>
		<path d="m17.413 6.8116h0.81276l0.71451-3.1081h-0.81276zm-1.1254 1.5719-0.60734-0.75917 1.0718-4.7337 0.96459-0.75917h2.34l0.60734 0.75917-1.0628 4.7337-0.96459 0.75917z" style="paint-order:markers stroke fill"/>
		<path d="m22.121 6.0525-0.56268 2.3311h-1.5719l1.4201-6.252h3.1528l0.60734 0.7681-0.34833 1.5719-0.97352 0.81276 0.61627 0.7681-0.36619 1.5719-0.95566 0.75917h-0.7681l0.50909-2.3311zm0.50909-2.349-0.15184 0.7681h0.75917l0.20542-0.7681z" style="paint-order:markers stroke fill"/>
		<path d="m27.486 2.1316-1.429 6.252h-1.5719l1.4201-6.252z" style="paint-order:markers stroke fill"/>
		<path d="m28.062 2.1316h3.9656l-0.36619 1.5809h-1.1611l-1.0628 4.6711h-1.5719l1.0628-4.6711h-1.2236z" style="paint-order:markers stroke fill"/>
		<path d="m33.388 6.8116h2.34l-0.35726 1.5719h-3.1528l-0.60734-0.75917 1.0718-4.7337 0.95566-0.75917h3.1528l-0.34833 1.5719h-2.34l-0.20542 0.7681h2.3936l-0.35726 1.5719h-2.3936z" style="paint-order:markers stroke fill"/>
		<path d="m39.119 4.2662 0.15184-0.55375h-0.7681l-0.25008 0.95566h1.5809l0.60734 0.7681-0.4555 2.1882-0.96459 0.75917h-2.3936l-0.60734-0.75917 0.30367-1.3754h1.5809l-0.10718 0.55375h0.75917l0.25901-0.96459h-1.6255l-0.56268-0.75917 0.46443-2.1882 0.96459-0.75917h2.3311l0.66093 0.75917-0.35726 1.3754z" style="paint-order:markers stroke fill"/>
	</g>
</svg>
