<svg width="218px" height="34px" clip-rule="evenodd" fill-rule="evenodd" image-rendering="optimizeQuality" shape-rendering="geometricPrecision" text-rendering="geometricPrecision" version="1.1" viewBox="0 0 217.88 34.25" xmlns="http://www.w3.org/2000/svg">
	<defs>
		<style type="text/css"><![CDATA[
    .fil0 {fill:url(#id0)}
    .fil2 {fill:url(#id1);fill-rule:nonzero}
    .fil1 {fill:url(#id2);fill-rule:nonzero}
   ]]></style>
		<linearGradient id="id0" x1="108.94" x2="108.94" y2="34.25" gradientUnits="userSpaceOnUse">
			<stop stop-color="#2B2A29" offset="0"/>
			<stop stop-color="#161515" offset=".36078"/>
			<stop stop-color="#545966" offset=".50196"/>
			<stop offset="1"/>
		</linearGradient>
		<linearGradient id="id1" x1="108.94" x2="108.94" y1=".93" y2="33.32" gradientUnits="userSpaceOnUse">
			<stop stop-color="#E7E7E7" offset="0"/>
			<stop stop-color="#1F1B20" offset=".52157"/>
			<stop stop-color="#E6E6E6" offset="1"/>
		</linearGradient>
		<linearGradient id="id2" x1="110.77" x2="110.04" y1="1.04" y2="33.21" gradientUnits="userSpaceOnUse">
			<stop stop-color="gray" offset="0"/>
			<stop stop-color="#FEFEFE" offset=".34902"/>
			<stop stop-color="#FEFEFE" offset=".63922"/>
			<stop stop-color="#4A4949" offset="1"/>
		</linearGradient>
	</defs>
	<path class="fil0" d="m195.27 29.71 0.01 4.54h-17.76l-4.71-4.57-0.08-25.11 4.71-4.57h17.76l0.03 4.5 4.69-4.5h12.82l5.02 4.56-0.26 8.76h-4.15l4.27 4.18 0.26 12.17-4.77 4.58h-13.17l-4.67-4.54zm-0.08-5.92-0.01-1.43h-11.9l0.05 1.43h11.86zm0.06-13.33h-11.92l-0.06 1.43h12.01l-0.03-1.43zm0.15 6.31 0.01 4.16h4.03l-4.04-4.16zm11.74-6.26h-1.41l-0.08 2.38h1.38l0.11-2.38zm-1.49 10.8 0.09 2.43h1.48l0.09-2.43h-1.66zm-114.18-16.85-0.03-4.46h10.52l0.05 23.79h1.66l-0.06-23.79h10.52l-0.05 29.69-4.8 4.56h-12.84l-4.77-4.53-4.72 4.53h-12.94l-4.71-4.57-0.06-22.1-0.08 13.91-8.42 12.76h-5.41l-8.4-12.63 0.09 12.63h-10.47l-0.02-8.03h-1.66l0.02 8.03h-10.45l-0.25-29.7 5.06-4.55h12.87l4.59 4.47-0.03-4.47h10.47l0.07 18.23 0.76 1.23 0.68-1.21 0.11-18.25h10.51l-0.03 4.55 4.73-4.55h12.9l4.59 4.46zm-80.98 6 0.05 1.43h11.93l0.02 10.47h-11.91l-0.13 11.89h-10.45l0.04-29.69 4.81-4.56h17.75l0.02 10.46h-12.13zm115.59 11.94-0.14 11.85h-10.44l-0.08-34.25h17.77l4.71 4.62 0.07 9.01-3.49 3.6 3.51 3.41-0.03 9.04-4.7 4.57h-5.63l-0.13-11.85h-1.42zm22.73-22.4 0.03 34.25h-10.46l-0.08-34.25h10.51zm17.14 10.51 0.05 23.74h-10.46l-0.05-23.74h-6.22l-0.03-10.51h22.63l-0.02 10.51h-5.9zm-129.43 5.52-0.2-5.52h-1.43l0.01 5.52h1.62zm43.11 7.76h1.66l0.01-13.33h-1.66l-0.01 13.33zm46.36-13.33 0.04 1.43h1.47l0.06-1.43h-1.57z"/>
	<path class="fil1" d="m9.23 33.01h-7.99l0.04-27.91 4.07-3.86h16.02l0.02 7.99h-12.17l0.13 3.9h11.89l0.02 7.99h-11.9l-0.13 11.89zm24.43 0h-7.99l-0.23-27.91 4.28-3.86h11.9l3.97 3.86 0.19 27.91h-7.99l-0.03-8.03h-4.13l0.03 8.03zm4.15-15.75-0.29-7.99h-3.86l0.01 7.99h4.14zm10.12-16.02h7.99l0.07 17.34 2.04 3.31 1.87-3.31 0.11-17.34h8.03l-0.11 19.88-7.85 11.89h-4.09l-7.9-11.89-0.16-19.88zm30.47 23.79h4.13l0.01-15.8h-4.13l-0.01 15.8zm-3.89 7.98-3.97-3.85-0.07-24.06 4.02-3.86h11.89l3.97 3.86 0.12 24.06-4.01 3.85h-11.95zm26.27-7.98h4.13l-0.05-23.79h8.03l-0.04 27.92-4.06 3.85h-11.85l-4.06-3.85-0.19-27.92h8.04l0.05 23.79zm24.09-3.86-0.14 11.84h-8l-0.07-31.77h16.03l3.98 3.9 0.06 7.99-4 4.13 4.03 3.91-0.03 7.99-3.97 3.85h-3.9l-0.14-11.84h-3.85zm-0.16-11.94 0.13 3.9h3.86l0.15-3.9h-4.14zm22.87-7.99 0.03 31.77h-7.99l-0.08-31.77h8.04zm2.9 0h20.16l-0.02 8.03h-5.9l0.05 23.74h-8l-0.04-23.74h-6.22l-0.03-8.03zm31.66 23.79h11.89l0.02 7.98h-16.03l-3.97-3.85-0.07-24.06 3.97-3.86h16.02l0.07 7.99h-11.9l-0.15 3.9h12.17l0.02 7.99h-12.17l0.13 3.91zm26.17-12.94 0.13-2.82h-3.91l-0.15 4.86h8.03l3.99 3.9 0.23 11.13-4.02 3.85h-12.16l-3.97-3.85-0.07-7h8.04l0.1 2.82h3.86l0.19-4.9h-8.26l-3.75-3.86-0.19-11.12 4.02-3.86h11.85l4.24 3.86-0.21 6.99h-7.99z"/>
	<path class="fil2" d="m9.23 33.32h-8.29c0.01-9.45 0.01-18.9 0.04-28.36l4.24-4.03h16.46l0.02 8.61h-12.16l0.11 3.28h11.9l0.02 8.61h-11.9l-0.13 11.89h-0.31zm-7.68-0.61h7.38l0.13-11.9h11.89l-0.02-7.37h-11.88l-0.14-4.52h12.17l-0.02-7.38h-15.59l-3.88 3.69-0.04 27.48zm32.11 0.61h-8.3c-0.08-9.45-0.17-18.91-0.23-28.36 1.49-1.35 2.98-2.69 4.48-4.03h12.13l4.16 4.03c0.04 9.46 0.12 18.91 0.19 28.36h-8.61l-0.03-8.03h-3.51l0.03 8.03h-0.31zm-7.69-0.61h7.38l-0.03-8.04h4.75l0.03 8.04h7.37l-0.18-27.48-3.8-3.69h-11.65l-4.1 3.69 0.23 27.48zm11.52-15.76-0.27-7.37h-3.25l0.01 7.37h3.51zm0.33-7.69 0.31 8.31h-4.76l-0.02-8.61h4.46l0.01 0.3zm10.11-8.33h8.3l0.07 17.56 1.72 2.8 1.57-2.79 0.11-17.57h8.65c-0.04 6.76-0.09 13.52-0.11 20.28-2.68 4.03-5.34 8.08-8 12.11h-4.41c-2.69-4.03-5.37-8.06-8.05-12.1-0.07-6.77-0.11-13.53-0.16-20.29h0.31zm7.68 0.61h-7.37l0.16 19.48 7.76 11.69h3.75l7.71-11.68 0.11-19.49h-7.42l-0.1 17.12c-0.73 1.28-1.45 2.56-2.17 3.84l-2.35-3.83-0.08-17.13zm23.1 23.18h3.51l0.01-15.18h-3.51l-0.01 15.18zm3.82 0.61h-4.44c0-5.47 0.01-10.94 0.01-16.41h4.75c-0.01 5.47-0.01 10.94-0.01 16.41h-0.31zm-8.23 7.9-4.06-3.94c-0.04-8.11-0.06-16.22-0.08-24.33 1.4-1.34 2.8-2.69 4.2-4.03h12.15l4.15 4.03c0.04 8.11 0.06 16.22 0.12 24.33l-4.2 4.03h-12.19l-0.09-0.09zm-3.45-4.21 3.79 3.69h11.69l3.83-3.69-0.11-23.79-3.79-3.69h-11.65l-3.83 3.69 0.07 23.79zm30.24-4.3h3.52l-0.06-23.79h8.65c-0.01 9.45-0.02 18.91-0.04 28.36l-4.25 4.03h-12.09l-4.25-4.03c-0.06-9.45-0.13-18.91-0.19-28.36h8.65l0.06 23.79zm3.82 0.61h-4.43l-0.06-23.79h-7.42l0.18 27.48 3.88 3.69h11.61l3.88-3.69 0.03-27.48h-7.41l0.05 23.79h-0.31zm20.26-3.86-0.14 11.85h-8.6c-0.02-10.8-0.05-21.59-0.08-32.39h16.46l4.17 4.08c0.02 2.75 0.04 5.5 0.06 8.24l-3.87 4 3.9 3.79-0.03 8.25-4.16 4.03h-4.33l-0.13-11.85h-3.25zm-0.75 11.24 0.14-11.85h4.47l0.13 11.85h3.48l3.78-3.69 0.03-7.72-4.15-4.03 4.12-4.26-0.06-7.74-3.8-3.73h-15.59l0.07 31.17h7.38zm0.61-23.17 0.11 3.28h3.26l0.13-3.28h-3.5zm-0.5 3.6-0.13-4.22h4.76l-0.17 4.52h-4.45l-0.01-0.3zm23.36-11.9 0.02 32.08h-8.6c-0.02-10.8-0.04-21.59-0.08-32.39h8.66v0.31zm-0.59 31.47-0.03-31.17h-7.42l0.07 31.17h7.38zm3.18-31.78h20.47l-0.02 8.65h-5.9l0.04 23.74h-8.6l-0.05-23.74h-6.22l-0.03-8.65h0.31zm19.85 0.61h-19.54l0.03 7.42h6.22l0.04 23.75h7.38l-0.05-23.75h5.9l0.02-7.42zm12.1 23.18h11.91l0.02 8.6h-16.46l-4.16-4.03c-0.02-8.11-0.03-16.22-0.07-24.32l4.15-4.04h16.46l0.07 8.61h-11.91l-0.13 3.28h12.16l0.02 8.61h-12.16l0.1 3.29zm11.29 0.61h-11.88l-0.15-4.52h12.18l-0.02-7.37h-12.18l0.17-4.52h11.89l-0.06-7.38h-15.6l-3.79 3.68 0.08 23.8 3.79 3.69h15.59l-0.02-7.38zm14.28-13.26 0.11-2.49h-3.28l-0.14 4.24h7.85l4.16 4.08 0.24 11.39-4.2 4.03h-12.42c-1.38-1.34-2.76-2.69-4.15-4.03-0.02-2.48-0.04-4.96-0.07-7.43h8.65l0.1 2.81h3.26l0.17-4.29h-8.07c-1.31-1.34-2.61-2.69-3.92-4.03-0.06-3.8-0.13-7.59-0.2-11.38l4.21-4.04h12.09c1.48 1.34 2.96 2.68 4.44 4.03-0.08 2.48-0.15 4.96-0.23 7.44h-8.61l0.01-0.33zm0.75-2.79-0.12 2.5h7.37l0.2-6.55-4.05-3.69h-11.61l-3.83 3.68 0.19 10.87 3.57 3.68h8.45l-0.21 5.52h-4.46l-0.1-2.82h-7.42l0.05 6.55 3.79 3.69h11.92l3.83-3.68-0.23-10.86-3.8-3.73h-8.23l0.18-5.48h4.52l-0.01 0.32z"/>
</svg>
