<svg width="634.02" height="114" clip-rule="evenodd" fill-rule="evenodd" image-rendering="optimizeQuality" shape-rendering="geometricPrecision" text-rendering="geometricPrecision" version="1.1" viewBox="0 0 58.894 10.606" xmlns="http://www.w3.org/2000/svg">
	<defs>
		<style type="text/css"><![CDATA[
    .fil2 {fill:url(#id0)}
    .fil3 {fill:url(#id1)}
    .fil0 {fill:url(#id2)}
    .fil1 {fill:url(#id3);fill-rule:nonzero}
   ]]></style>
		<linearGradient id="id0" x1="29.4" x2="29.4" y1="5.26" y2="10" gradientUnits="userSpaceOnUse">
			<stop stop-color="#48201C" offset="0"/>
			<stop stop-color="#48201B" offset=".18824"/>
			<stop stop-color="#E84E22" offset=".38039"/>
			<stop stop-color="#fff" offset="1"/>
		</linearGradient>
		<linearGradient id="id1" x1="29.4" x2="29.4" y1=".42" y2="5.26" gradientUnits="userSpaceOnUse">
			<stop stop-color="#0D3142" offset="0"/>
			<stop stop-color="#15252C" offset=".3098"/>
			<stop stop-color="#048FBB" offset=".6"/>
			<stop stop-color="#fff" offset="1"/>
		</linearGradient>
		<linearGradient id="id2" x1="29.21" x2="29.21" y1="-.18" y2="10.6" gradientUnits="userSpaceOnUse">
			<stop stop-color="#FEFEFE" offset="0"/>
			<stop stop-color="#323232" offset=".36078"/>
			<stop stop-color="#434242" offset=".63137"/>
			<stop stop-color="#fff" offset="1"/>
		</linearGradient>
		<linearGradient id="id3" x1="29.4" x2="29.4" y2="10.42" gradientUnits="userSpaceOnUse">
			<stop stop-color="#FEFEFE" offset="0"/>
			<stop stop-color="#8C8B8B" offset=".34902"/>
			<stop stop-color="#1F1B20" offset=".45098"/>
			<stop stop-color="#6F7070" offset=".54902"/>
			<stop stop-color="#fff" offset="1"/>
		</linearGradient>
	</defs>
	<g transform="translate(.047232 .093036)">
		<path class="fil0" d="m53.25 0.04-1.3 1.25-0.01-1.25h-5.48l-1.56 1.52v-1.52h-10.16v1.59l-1.62-1.59h-5.29v1.58l-1.61-1.58h-3.91l-1.31 1.26 0.01-1.26h-3.2l-0.02 2.04h-0.44v-2.04h-3.19l0.01 1.42-1.46-1.42h-3.9l-1.44 1.29 0.05 9.05h3.18v-2.43h0.47v2.43h3.19l-0.01-3.89 2.57 3.89h1.65l2.49-3.76v2.27l1.52 1.49h3.92l1.43-1.37v1.37h3.18l0.03-1.79h0.43l0.02 1.79h1.81l1.43-1.38v1.38h3.19l0.02-7.17h1.98l-0.01 7.17h3.19l0.01-7.17h2.02l-0.01 5.68 1.53 1.49h5.28v-1.44l1.48 1.44h3.99l1.35-1.3-0.06-3.65-1.39-1.37h1.36l0.09-2.54-1.62-1.48zm-1.27 6.1 0.01-1.11 1.28 1.33h-1.29zm-18.23-0.96 0.99-1.02-0.01 2.29-1.14-1.11zm21.33 1.7-0.01-0.41h0.47l-0.02 0.51h-0.43zm-48.21-0.09 0.01-3.59h0.04l0.01-3.16h-5.48l-1.37 1.3-0.04 9.04h3.19l0.05-3.59zm4.19-2.57 0.02 0.66h-0.46l0.01-0.77h0.43zm13.3 3h-0.24l0.01-4.02h0.47l-0.02 4.02z"/>
		<path class="fil1" d="m53.26 0.08-1.36 1.3v-1.3h-5.42l-1.63 1.58 0.01-1.58h-10.08v1.65l-1.67-1.65h-5.23v1.64l-1.68-1.64h-3.87l-1.37 1.32 0.01-1.32h-3.12l-0.02 2.04h-0.52v-2.04h-3.11l0.01 1.48-1.52-1.48h-3.86l-1.42 1.27 0.05 8.99h3.1v-2.43h0.55v2.43h3.11l-0.01-3.99 2.63 3.99h1.61l2.55-3.86v2.4l1.5 1.46h3.88l1.49-1.43v1.43h3.1l0.03-1.79h0.51l0.02 1.79h1.76l1.48-1.44v1.44h3.11l0.01-7.17h2.07l-0.01 7.17h3.11l0.01-7.17h2.1v5.71l1.49 1.46h5.23v-1.5l1.54 1.5h3.95l1.33-1.28-0.06-3.62-1.45-1.42h1.42l0.08-2.48-1.59-1.46zm-1.27 1.11 1.24-1.19h3.91l1.65 1.5-0.09 2.6h-1.3l1.33 1.31c0.02 1.23 0.04 2.46 0.07 3.69-0.46 0.44-0.93 0.88-1.38 1.32h-4.02l-1.42-1.38-0.01 1.38h-5.34l-1.55-1.51v-5.66h-1.93l-0.01 7.17h-3.27l0.01-7.17h-1.9l-0.02 7.17h-3.27v-1.33l-1.37 1.33h-1.87l-0.02-1.79h-0.35l-0.03 1.79h-3.27v-1.31l-1.36 1.31h-3.96l-1.54-1.51v-2.15l-2.43 3.66h-1.69l-2.51-3.79 0.01 3.79h-3.27v-2.43h-0.39l0.01 2.43h-3.27c-0.02-3.03-0.05-6.07-0.05-9.11 0.49-0.44 0.98-0.87 1.47-1.31h3.93l1.4 1.36-0.01-1.36h3.27l0.01 2.04h0.35l0.02-2.04h3.29l-0.01 1.2 1.25-1.2h3.93l1.56 1.52v-1.52h5.35l1.56 1.53v-1.53h10.25l-0.01 1.46 1.51-1.46h5.53zm-0.05 4.95v-1.21l1.43 1.47h-1.43zm0.09-1.01v1.19h1.14zm-18.31 0.02 1.06-1.09v2.49l-1.25-1.21zm0.97-0.89-1.04 1.08 1.04 1.01zm20.35 2.62-0.01-0.45h0.55l-0.02 0.6-0.51-0.01zm0.07-0.36 0.02 0.42h0.35l0.02-0.42zm-48.28 0.23 0.01-3.59h0.04l0.01-3.08h-5.42l-1.34 1.27-0.05 8.99h3.11l0.05-3.59zm0.09-3.51-0.01 3.59h-3.59l-0.05 3.59h-3.27c0.01-3.03 0.02-6.07 0.04-9.1 0.46-0.44 0.93-0.88 1.39-1.32h5.54v3.24zm4.18 0.97 0.03 0.71h-0.55v-0.85h0.52zm-0.06 0.63-0.02-0.69-0.35 0.01v0.68zm13.32 2.42h-0.29c0.01-1.37 0.01-2.73 0.02-4.1h0.55c-0.01 1.37-0.01 2.73-0.02 4.1zm-0.2-0.08h0.38l0.02-3.94h-0.39z" fill-rule="nonzero"/>
		<path class="fil2" d="m2.84 10h-2.41l0.03-4.74h6.03l-0.01 1.16h-3.58zm7.37 0h-2.41l-0.02-4.74h6.08l0.01 4.74h-2.41v-2.42h-1.25zm6.76-4.74v0.39l0.61 1 0.57-1v-0.39h2.43l-0.01 1.16-2.38 3.58h-1.24l-2.37-3.58v-1.16zm6.75 2.33h1.25l0.01-2.33h2.38v3.58l-1.21 1.16h-3.61l-1.19-1.16v-3.58h2.38zm6.96-1.16-0.05 3.57h-2.42l0.01-4.74h4.85l1.2 1.17-0.02 2.41-1.2 1.16h-1.18l-0.03-3.57zm6.86-1.17-0.01 4.74h-2.41v-4.74zm5.17 0v4.74h-2.41v-4.74zm5.25 2.33h3.59l-0.01 2.41h-4.83l-1.2-1.16v-3.58h6.09l-0.01 1.16h-3.67zm10.12-2.33 0.22 0.22 0.06 3.36-1.21 1.16h-3.67l-1.2-1.16-0.01-2.11h2.42l0.03 0.85h1.17l0.06-1.48h-2.49l-0.81-0.84z" fill="#fff"/>
		<path class="fil3" d="m0.46 5.26 0.01-3.68 1.23-1.16h4.84v2.41h-3.68l0.04 1.17h3.59v1.26zm7.32 0-0.02-3.68 1.3-1.16h3.59l1.19 1.16 0.02 3.68zm3.7-0.01-0.08-2.41h-1.16l-0.01 2.41zm3.07-4.83h2.41l0.01 4.84h-2.39zm3.6 4.84 0.05-4.84h2.42l-0.04 4.84zm6.83 0 0.01-2.43h-1.25l-0.01 2.43h-2.38v-3.68l1.22-1.16h3.59l1.19 1.16 0.01 3.68zm3.24 0v-4.84h4.84l1.2 1.17 0.01 2.41-1.21 1.25 0.01 0.01zm2.43-2.43 0.03 1.17h1.16l0.05-1.17zm6.9-2.41-0.01 4.84h-2.42l0.01-4.84zm0.88 0h6.08l-0.01 2.42h-1.78l-0.01 2.42h-2.41l0.01-2.42h-1.88zm7.08 4.84 0.01-3.68 1.2-1.16h4.83l0.01 2.41h-3.58l-0.05 1.17h3.67v1.26zm10.36-1.57 0.04-0.85h-1.18l-0.05 1.47h2.42l0.98 0.95h-5.43l-0.32-0.32-0.05-3.36 1.22-1.16h3.57l1.28 1.16-0.07 2.11z" fill="#fff"/>
	</g>
</svg>
