<svg id="Layer_2_1_" width="566.93px" height="129.21px" enable-background="new 0 0 566.929 129.21" version="1.1" viewBox="0 0 566.93 129.21" xmlns="http://www.w3.org/2000/svg">
	<defs>
		<linearGradient id="linearGradient6916" x1="50.717" x2="50.971" y1="275.18" y2="300.47" gradientTransform="matrix(3.9835 .065573 -.065573 3.9835 -58.635 -1085.1)" gradientUnits="userSpaceOnUse">
			<stop stop-color="#bb000f" offset="0"/>
			<stop stop-color="#fa0211" offset=".010461"/>
			<stop stop-color="#e9010c" offset=".81085"/>
			<stop stop-color="#d90209" offset=".97777"/>
			<stop stop-color="#c20b03" offset="1"/>
		</linearGradient>
		<linearGradient id="linearGradient4596" x1="34.01" x2="35.122" y1="274.68" y2="300.82" gradientUnits="userSpaceOnUse">
			<stop stop-color="#830505" offset="0"/>
			<stop stop-color="#f00" offset=".038014"/>
			<stop stop-color="#f00" offset=".97302"/>
			<stop stop-color="#cc0202" offset="1"/>
		</linearGradient>
		<linearGradient id="linearGradient4699" x1="52.448" x2="56.972" y1="13.337" y2="116.76" gradientUnits="userSpaceOnUse">
			<stop stop-color="#a42402" offset="0"/>
			<stop stop-color="#bb000f" offset=".025312"/>
			<stop stop-color="#fa0211" offset=".034877"/>
			<stop stop-color="#f1010e" offset=".42406"/>
			<stop stop-color="#bb000f" offset=".42995"/>
			<stop stop-color="#ef010c" offset=".44927"/>
			<stop stop-color="#f1010e" offset=".48494"/>
			<stop stop-color="#e7010b" offset=".84242"/>
			<stop stop-color="#d50208" offset=".98974"/>
			<stop stop-color="#b51100" offset="1"/>
		</linearGradient>
		<linearGradient id="linearGradient4852" x1="62.159" x2="64.282" y1="274.59" y2="300.34" gradientTransform="matrix(3.9835 .065573 -.065573 3.9835 -58.635 -1085.1)" gradientUnits="userSpaceOnUse">
			<stop stop-color="#bb000f" offset="0"/>
			<stop stop-color="#fa0211" offset=".029091"/>
			<stop stop-color="#e9010c" offset=".81085"/>
			<stop stop-color="#d90209" offset=".97777"/>
			<stop stop-color="#c20b03" offset="1"/>
		</linearGradient>
		<linearGradient id="linearGradient4804" x1="94.803" x2="94.431" y1="274.24" y2="299.85" gradientTransform="matrix(3.9835 .065573 -.065573 3.9835 -58.635 -1085.1)" gradientUnits="userSpaceOnUse">
			<stop stop-color="#bb000f" offset="0"/>
			<stop stop-color="#fa0211" offset=".030554"/>
			<stop stop-color="#f1010e" offset=".42893"/>
			<stop stop-color="#f1010e" offset=".43979"/>
			<stop stop-color="#f0010d" offset=".44762"/>
			<stop stop-color="#e9010c" offset=".81085"/>
			<stop stop-color="#d90209" offset=".96867"/>
			<stop stop-color="#c20b03" offset="1"/>
		</linearGradient>
		<linearGradient id="linearGradient4824" x1="78.907" x2="79.617" y1="274.22" y2="300.64" gradientTransform="matrix(3.9835 .065573 -.065573 3.9835 -58.635 -1085.1)" gradientUnits="userSpaceOnUse">
			<stop stop-color="#bb000f" offset="0"/>
			<stop stop-color="#fa0211" offset=".017798"/>
			<stop stop-color="#e9010c" offset=".81085"/>
			<stop stop-color="#d90209" offset=".9794"/>
			<stop stop-color="#c20b03" offset="1"/>
		</linearGradient>
		<linearGradient id="linearGradient4838" x1="107.27" x2="109.26" y1="274.15" y2="299.71" gradientTransform="matrix(3.9835 .065573 -.065573 3.9835 -58.635 -1085.1)" gradientUnits="userSpaceOnUse">
			<stop stop-color="#bb000f" offset="0"/>
			<stop stop-color="#fa0211" offset=".031446"/>
			<stop stop-color="#e9010c" offset=".81085"/>
			<stop stop-color="#d90209" offset=".97078"/>
			<stop stop-color="#c20b03" offset="1"/>
		</linearGradient>
		<linearGradient id="linearGradient4858" x1="129.4" x2="132.59" y1="273.9" y2="299.17" gradientTransform="matrix(3.9835 .065573 -.065573 3.9835 -58.635 -1085.1)" gradientUnits="userSpaceOnUse">
			<stop stop-color="#bb000f" offset="0"/>
			<stop stop-color="#fa0211" offset=".024039"/>
			<stop stop-color="#e9010c" offset=".81085"/>
			<stop stop-color="#d90209" offset=".9794"/>
			<stop stop-color="#c20b03" offset="1"/>
		</linearGradient>
		<linearGradient id="linearGradient4998" x1="145.74" x2="142.62" y1="273.6" y2="299.19" gradientTransform="matrix(3.9835 .065573 -.065573 3.9835 -58.635 -1085.1)" gradientUnits="userSpaceOnUse">
			<stop stop-color="#bb000f" offset="0"/>
			<stop stop-color="#fa0211" offset=".03713"/>
			<stop stop-color="#e9010c" offset=".81085"/>
			<stop stop-color="#d90209" offset=".9794"/>
			<stop stop-color="#c20b03" offset="1"/>
		</linearGradient>
		<linearGradient id="linearGradient5024" x1="118.03" x2="117.33" y1="274.11" y2="299.56" gradientTransform="matrix(3.9835 .065573 -.065573 3.9835 -58.635 -1085.1)" gradientUnits="userSpaceOnUse">
			<stop stop-color="#bb000f" offset="0"/>
			<stop stop-color="#fa0211" offset=".020973"/>
			<stop stop-color="#e9010c" offset=".81085"/>
			<stop stop-color="#d90209" offset=".9794"/>
			<stop stop-color="#c20b03" offset="1"/>
		</linearGradient>
	</defs>
	<path d="m85.921-114.04 7.0032-34.23c1.3544-2.6009 3.317-3.9064 5.8879-3.9165l13.689 0.22533c2.7265 0.09721 4.7237 1.4679 5.9918 4.1121l5.7648 33.808" fill="none"/>
	<g transform="matrix(3.9597 .43935 -.43935 3.9597 -16.662 -1142.3)" fill="#dfdfdf">
		<path d="m160.98 295.7q1.2245 0 2.0935-0.86899t0.86899-2.0935q0-1.2245-0.86899-2.0935t-2.0935-0.86899q-3.2785 0-5.5892-2.1725t-2.3107-5.2337 2.3107-5.2337q2.3107-2.1725 5.5892-2.1725h5.9249q0.98749 0 0.98749 0.98749v2.9625q0 0.98749-0.98749 0.98749h-5.9249q-1.2245 0-2.0935 0.86899t-0.86899 2.0935q0 1.2245 0.86899 2.0935t2.0935 0.86899q3.2785 0 5.5892 2.1725t2.3107 5.2337-2.3107 5.2337q-2.3107 2.1725-5.5892 2.1725h-5.9249q-0.98749 0-0.98749-0.98749v-2.9625q0-0.98749 0.98749-0.98749z"/>
	</g>
	<g transform="matrix(3.9632 -.40698 .40698 3.9632 -237.66 -1013.7)" fill="#dfdfdf">
		<path d="m140.25 289.78v5.9249h9.8749q0.98749 0 0.98749 0.98749v2.9625q0 0.98749-0.98749 0.98749h-13.825q-0.98749 0-0.98749-0.98749v-23.7q0-0.98749 0.98749-0.98749h13.825q0.98749 0 0.98749 0.98749v2.9625q0 0.98749-0.98749 0.98749h-9.8749v5.9249h7.8999q0.98749 0 0.98749 0.98749v1.975q0 0.98749-0.98749 0.98749z"/>
	</g>
	<g transform="matrix(3.9597 .43935 -.43935 3.9597 -18.287 -1144)" fill="#845f23">
		<path d="m160.98 273.77c-2.4527 0-4.6585 0.8549-6.4063 2.498-1.7472 1.6426-2.6855 3.7544-2.6855 6.0996s0.938 4.4586 2.6855 6.1016c1.7481 1.6435 3.9543 2.4961 6.4063 2.4961 0.5493 0 0.86 0.12758 1.252 0.51953 0.39196 0.39196 0.51953 0.70263 0.51953 1.252 0 0.54933-0.12757 0.85999-0.51953 1.252-0.39195 0.39195-0.70265 0.51954-1.252 0.51954h-5.9258c-0.53439 0-1.1337 0.14736-1.582 0.5957-0.44831 0.44831-0.5957 1.0476-0.5957 1.582v2.9629c0 0.53476 0.14866 1.1336 0.5957 1.582 0.4474 0.44872 1.046 0.59766 1.582 0.59766h5.9258c2.4527 0 4.6569-0.85521 6.4043-2.498 1.7468-1.6423 2.6875-3.7536 2.6875-6.0996 0-2.3459-0.94034-4.4589-2.6875-6.1016-1.7478-1.6432-3.9523-2.4961-6.4043-2.4961-0.54933 0-0.86-0.12758-1.252-0.51954-0.39195-0.39196-0.51953-0.70262-0.51953-1.252 0-0.54931 0.12758-0.85999 0.51953-1.252 0.39196-0.39196 0.70261-0.51952 1.252-0.51953h5.9238c0.53475 0 1.1336-0.14865 1.582-0.59571 0.44872-0.44739 0.59766-1.046 0.59766-1.582v-2.9629c0-0.53632-0.1502-1.1346-0.59766-1.582-0.44746-0.44744-1.0457-0.59766-1.582-0.59766z"/>
		<path d="m160.98 295.7q1.2245 0 2.0935-0.86899t0.86899-2.0935q0-1.2245-0.86899-2.0935t-2.0935-0.86899q-3.2785 0-5.5892-2.1725t-2.3107-5.2337 2.3107-5.2337q2.3107-2.1725 5.5892-2.1725h5.9249q0.98749 0 0.98749 0.98749v2.9625q0 0.98749-0.98749 0.98749h-5.9249q-1.2245 0-2.0935 0.86899t-0.86899 2.0935q0 1.2245 0.86899 2.0935t2.0935 0.86899q3.2785 0 5.5892 2.1725t2.3107 5.2337-2.3107 5.2337q-2.3107 2.1725-5.5892 2.1725h-5.9249q-0.98749 0-0.98749-0.98749v-2.9625q0-0.98749 0.98749-0.98749z"/>
	</g>
	<g transform="matrix(3.9632 -.40698 .40698 3.9632 -239.28 -1015.4)" fill="#845f23">
		<path d="m136.3 273.93c-0.50678 0-1.0608 0.1409-1.4707 0.55078-0.40985 0.40985-0.55078 0.96394-0.55078 1.4707v23.699c0 0.50677 0.14091 1.0608 0.55078 1.4707 0.40986 0.40986 0.96393 0.55079 1.4707 0.55079h13.824c0.50678 0 1.0608-0.14093 1.4707-0.55079 0.40985-0.40985 0.55078-0.96393 0.55078-1.4707v-2.9629c0-0.50655-0.13994-1.063-0.55078-1.4727-0.41063-0.40941-0.96518-0.54687-1.4707-0.54687h-8.8418v-3.8594h6.8672c0.50553 0 1.0601-0.13747 1.4707-0.54687 0.41085-0.40962 0.55078-0.9661 0.55078-1.4727v-1.9766c0-0.50656-0.13994-1.063-0.55078-1.4727-0.41063-0.4094-0.96518-0.54687-1.4707-0.54687h-6.8672v-3.8594h8.8418c0.50553 0 1.0601-0.13746 1.4707-0.54687 0.41084-0.40962 0.55078-0.9661 0.55078-1.4727v-2.9629c0-0.50676-0.14093-1.0608-0.55078-1.4707-0.40986-0.40987-0.96393-0.55078-1.4707-0.55078z"/>
		<path d="m140.25 289.78v5.9249h9.8749q0.98749 0 0.98749 0.98749v2.9625q0 0.98749-0.98749 0.98749h-13.825q-0.98749 0-0.98749-0.98749v-23.7q0-0.98749 0.98749-0.98749h13.825q0.98749 0 0.98749 0.98749v2.9625q0 0.98749-0.98749 0.98749h-9.8749v5.9249h7.8999q0.98749 0 0.98749 0.98749v1.975q0 0.98749-0.98749 0.98749z"/>
	</g>
	<g transform="matrix(3.8958 .14701 -.14385 3.9813 -53.611 -1097)" fill="#dfdfdf">
		<path d="m127.9 299.65q0 0.98749-0.98749 0.98749h-2.9625q-0.98748 0-0.98748-0.98749v-19.75h-4.4437q-0.98749 0-0.98749-0.98749v-2.9625q0-0.98749 0.98749-0.98749h13.825q0.98749 0 0.98749 0.98749v2.9625q0 0.98749-0.98749 0.98749h-4.4437z"/>
	</g>
	<g transform="matrix(4.079 -.18867 .19339 3.9796 -159.87 -1056.4)" fill="#dfdfdf">
		<path d="m115.52 299.65q0 0.98749-0.96774 0.98749h-2.9822q-0.98749 0-0.98749-0.98749v-23.7q0-0.98749 0.98749-0.98749h2.9625q0.98748 0 0.98748 0.98749z"/>
	</g>
	<g fill="#845f23">
		<g transform="matrix(3.8958 .14473 -.14385 3.9197 -55.611 -1079.5)">
			<path d="m118.52 273.62c-0.56392 0-1.2086 0.15829-1.6934 0.64453-0.48436 0.48581-0.63867 1.1283-0.63867 1.6894v2.9629c0 0.56217 0.15551 1.2063 0.64063 1.6914 0.48513 0.48513 1.1222 0.44665 1.6843 0.44954h3.0977l7e-3 18.595c2.1e-4 0.56287 0.15513 1.2079 0.64063 1.6934 0.48548 0.48548 1.1305 0.64063 1.6934 0.64063h2.9629c0.56391 0 1.2086-0.15828 1.6934-0.64454 0.48438-0.48581 0.63867-1.1283 0.63867-1.6894v-18.404h3.0996c0.56217 0 1.2063-0.15549 1.6914-0.64062s0.64063-1.1292 0.64063-1.6914v-2.9629c0-0.56111-0.15431-1.2036-0.63867-1.6894-0.4848-0.48624-1.1294-0.64453-1.6934-0.64453z"/>
			<path d="m127.9 299.65q0 0.98749-0.98749 0.98749h-2.9625q-0.98748 0-0.98748-0.98749v-19.75h-4.4437q-0.98749 0-0.98749-0.98749v-2.9625q0-0.98749 0.98749-0.98749h13.825q0.98749 0 0.98749 0.98749v2.9625q0 0.98749-0.98749 0.98749h-4.4437z"/>
		</g>
		<g transform="matrix(3.9796 -.18867 .18867 3.9796 -148.34 -1057.9)">
			<path d="m111.57 273.6c-0.56549 0-1.2173 0.15671-1.707 0.64648s-0.64648 1.1415-0.64648 1.707v23.699c0 0.56549 0.15671 1.2172 0.64648 1.707 0.48978 0.48978 1.1416 0.64649 1.707 0.64649h2.9824c0.56576 0 1.219-0.1629 1.7031-0.65821 0.48127-0.4924 0.62891-1.1377 0.62891-1.6953v-23.699c0-0.56384-0.15576-1.2148-0.64454-1.7051-0.48915-0.4906-1.1407-0.64843-1.707-0.64843z"/>
			<path d="m115.52 299.65q0 0.98749-0.96774 0.98749h-2.9822q-0.98749 0-0.98749-0.98749v-23.7q0-0.98749 0.98749-0.98749h2.9625q0.98748 0 0.98748 0.98749z"/>
		</g>
		<path d="m287.06 9.4809c-2.2373-0.066491-4.848 0.48514-6.8504 2.399-2.0007 1.9123-2.691 4.5087-2.7566 6.7635l-2.716 93.353c-0.0656 2.2548 0.47259 4.8878 2.3587 6.9155 1.8876 2.0294 4.4617 2.7353 6.6991 2.8018l11.547 0.34318c2.2394 0.0666 4.8412-0.49192 6.8428-2.3993 2.0016-1.9074 2.706-4.4997 2.7719-6.763l0.9703-33.351 6.0516 0.17985c1.9946 0.05928 2.8418 0.44401 4.2256 1.9274 1.3837 1.4833 1.7141 2.3607 1.6554 4.3767l-0.087 2.9622-0.70595 24.265c-0.0659 2.2634 0.48659 4.893 2.3739 6.916 1.8872 2.0229 4.4521 2.735 6.6914 2.8015l11.54 0.34296c2.2394 0.0665 4.8412-0.49193 6.8428-2.3993 2.0015-1.9075 2.706-4.4997 2.7718-6.7631l0.73549-25.281c0.23624-8.12-2.7146-15.441-7.6746-21.642 5.312-5.8961 8.6834-13.029 8.9196-21.149 0.27529-9.4624-3.2396-18.155-10.008-24.976-6.77-6.8229-15.508-10.533-25.261-10.823zm19.999 31.164 6.0516 0.17985c1.9946 0.05928 2.8418 0.44401 4.2256 1.9274 1.3837 1.4833 1.7141 2.3607 1.6554 4.3767-0.0586 2.0161-0.43932 2.8722-1.907 4.2708-1.4676 1.3986-2.3357 1.7324-4.3304 1.6731l-6.0516-0.17985z"/>
	</g>
	<g fill="#dfdfdf">
		<path d="m238.81 7.1273c-13.761 0-26.013 6.34-35.366 17.843-9.341 11.438-14.03 25.528-14.03 41.389 0 15.869 4.6878 29.978 14.03 41.467 5e-3 5e-3 0.0103 0.0106 0.0155 0.0159 9.3575 11.45 21.601 17.741 35.351 17.741 13.749 0 25.986-6.2929 35.343-17.741 5e-3 -5e-3 0.0104-0.0106 0.0155-0.0159 9.3419-11.489 14.03-25.598 14.03-41.467s-4.6951-29.963-14.045-41.404c-9.35-11.49-21.589-17.827-35.343-17.827zm-8e-3 39.584 2.5212 7.7658c0.79327 2.4367 3.2578 4.2244 5.8204 4.2253h5.8049l-4.3731 3.1825c-2.0768 1.5129-1.9522 4.9969-1.1492 7.4377l6.193 12.657-10.856-9.3641c-2.1874-1.8489-5.4975-0.39046-7.6848 1.4584l-7.2064 5.3449 3.8091-11.174c0.81585-2.45-0.56871-4.8526-2.6596-6.3676l-4.3887-3.1748h5.836c2.5626-9.16e-4 5.0272-1.7886 5.8204-4.2253z"/>
	</g>
	<path d="m142.93 14.149c-1.8533 0.19169-3.7693 1.796-4.427 3.3593-0.65766 1.5633-0.68347 3.0051-0.58287 4.598a3.6914 3.6914 0 0 0 0.10481 0.6717l23.618 93.115a3.6914 3.6914 0 0 0 0.38747 0.95013c1.9528 3.358 5.5938 5.6345 9.4055 5.472a3.6914 3.6914 0 0 0 0.0777-5e-3l13.668-0.86317a3.6914 3.6914 0 0 0 0.0699-4e-3c3.8884-0.32061 7.346-2.9972 8.8831-6.6269a3.6914 3.6914 0 0 0 0.26486-0.99133l11.716-95.347a3.6914 3.6914 0 0 0 0.0195-0.67955c-0.10695-1.6935-0.42417-3.3386-1.5617-4.8523-1.1375-1.5137-3.2972-2.4278-5.0772-2.3693a3.6914 3.6914 0 0 0-0.1087 0.0069l-15.081 0.95242c-1.8852 0.11906-3.4185 1.1961-4.4359 2.3541s-1.7352 2.4911-2.402 4.0657a3.6914 3.6914 0 0 0-0.26584 0.97578l-3.4494 27.234-6.9966-26.59a3.6914 3.6914 0 0 0-0.40448-0.97245c-0.88206-1.4629-1.7699-2.6714-2.9065-3.6759-1.1365-1.0045-2.7476-1.9004-4.658-1.7798l-15.71 0.99215a3.6914 3.6914 0 0 0-0.14756 0.0093z" fill="#845f23" stroke="#845f23" stroke-width="2"/>
	<path d="m238.81 7.1273c-13.761 0-26.013 6.34-35.366 17.843-9.341 11.438-14.03 25.528-14.03 41.389 0 15.869 4.6878 29.978 14.03 41.467 5e-3 5e-3 0.0103 0.0106 0.0155 0.0159 9.3575 11.45 21.601 17.741 35.351 17.741 13.749 0 25.986-6.2929 35.343-17.741 5e-3 -5e-3 0.0104-0.0106 0.0155-0.0159 9.3419-11.489 14.03-25.598 14.03-41.467s-4.6951-29.963-14.045-41.404c-9.35-11.49-21.589-17.827-35.343-17.827zm-8e-3 39.584 2.5212 7.7658c0.79327 2.4367 3.2578 4.2244 5.8204 4.2253h5.8049l-4.3731 3.1825c-2.0768 1.5129-3.0129 4.4224-2.2099 6.8631l3.674 10.801-7.4977-5.2982c-2.1874-1.8489-4.6578-2.114-6.8452-0.26516l-7.8251 5.4333 3.3671-10.647c0.81585-2.45-0.12677-5.3792-2.2177-6.8943l-4.3887-3.1748h5.836c2.5626-9.16e-4 5.0272-1.7886 5.8204-4.2253z" fill="#845f23"/>
	<g stroke-width="2">
		<path d="m115.41 11.463c-3.8554 0.01503-7.442 2.4997-9.2504 5.9725a3.8107 3.8107 0 0 0-0.35105 0.99814l-19.254 94.114a3.8107 3.8107 0 0 0-0.08156 0.69907c-0.02682 1.6295 0.06189 3.0905 0.81814 4.6673 0.75627 1.5769 2.9064 3.1452 4.835 3.177l15.732 0.25896c1.9554 0.0322 3.5512-0.95557 4.6561-2.0246 1.1048-1.069 1.9381-2.3343 2.756-3.8458a3.8107 3.8107 0 0 0 0.37453-1.0056l0.19328-0.86845 9.8732 0.16253 0.1646 0.87433a3.8107 3.8107 0 0 0 0.31101 0.96234c0.74414 1.5516 1.5326 2.8658 2.6193 3.9888s2.6972 2.1456 4.6258 2.1774l15.102 0.24859c1.8298 0.0301 4.069-1.0033 5.1716-2.6153s1.3384-3.2968 1.3669-5.0283a3.8107 3.8107 0 0 0-0.0585-0.70137l-16.146-94.697a3.8107 3.8107 0 0 0-0.31801-1.0091c-1.7212-3.5892-5.3608-6.1374-9.2978-6.2778a3.8107 3.8107 0 0 0-0.07-0.0012l-13.693-0.22541a3.8107 3.8107 0 0 0-0.0778-0.0013z" fill="#845f23" stroke="#845f23"/>
	</g>
	<g transform="matrix(3.9823 .1171 -.1171 3.9823 -56.308 -1093.3)" fill="none" stroke="#fcf1b3" stroke-width=".1255" style="font-variant-east_asian:normal">
		<path d="m93.795 274c-0.49133 0-1.0302 0.13649-1.4219 0.5293-0.39159 0.39275-0.52734 0.93149-0.52734 1.4219v23.699c0 0.49039 0.13575 1.0291 0.52734 1.4219 0.39164 0.3928 0.93055 0.52929 1.4219 0.52929h2.9629c0.49138 0 1.0298-0.13722 1.4219-0.52929 0.39207-0.39208 0.5293-0.93049 0.5293-1.4219v-8.9121h1.998c0.59077 0 0.99101 0.1668 1.4121 0.58789 0.4211 0.4211 0.58789 0.82134 0.58789 1.4121v6.9121c0 0.49139 0.13722 1.0298 0.5293 1.4219 0.39207 0.39207 0.9305 0.52929 1.4219 0.52929h2.9609c0.49139 0 1.0298-0.13722 1.4219-0.52929 0.39207-0.39209 0.52929-0.93049 0.52929-1.4219v-6.418c0-2.0723-0.83331-3.9062-2.2441-5.4316 1.4108-1.5254 2.2441-3.3593 2.2441-5.4316 0-2.284-0.90781-4.3321-2.6133-5.9356-1.7065-1.6044-3.8505-2.4336-6.25-2.4336zm4.9141 6.8633h1.998c0.59077 0 0.99101 0.1668 1.4121 0.58789 0.4211 0.4211 0.58789 0.82134 0.58789 1.4121 0 0.59078-0.16679 0.99101-0.58789 1.4121s-0.82134 0.58789-1.4121 0.58789h-1.998z"/>
		<path d="m100.71 279.9h-2.9625v5.9249h2.9625q1.2245 0 2.0935-0.86899t0.86899-2.0935q0-1.2245-0.86899-2.0935t-2.0935-0.86899zm2.9625 13.331h-0.0395q0.0395-0.237 0.0395-0.49375 0-1.2245-0.86899-2.0935t-2.0935-0.86899h-2.9625v9.8749q0 0.98749-0.98749 0.98749h-2.9625q-0.98749 0-0.98749-0.98749v-23.7q0-0.98749 0.98749-0.98749h6.9124q3.2785 0 5.5892 2.1725t2.3107 5.2337-2.3107 5.2337q-0.0988 0.0988-0.21725 0.19749 0.1185 0.0987 0.21725 0.1975 2.3107 2.1725 2.3107 5.2337v6.4187q0 0.98749-0.98749 0.98749h-2.9625q-0.98749 0-0.98749-0.98749z" style="font-variant-east_asian:normal"/>
	</g>
	<path d="m197.85 7.5449 2e-3 0.015625-14.938 0.94336c-2.0559 0.12984-3.6975 1.2944-4.7774 2.5234-1.0658 1.2131-1.8089 2.5995-2.4863 4.1992-0.15002 0.35202-0.25159 0.72575-0.30078 1.1055l-3.127 24.695-6.3379-24.082-8e-3 -0.03125c-0.0993-0.38688-0.25474-0.76051-0.45899-1.1035-0.89562-1.4854-1.8133-2.7424-3.002-3.793-1.2015-1.0619-2.9376-2.0338-5.0195-1.9023l-15.711 0.99219c-0.0411 2e-3 -0.0799 0.0051-0.11523 0.0078-1e-3 9.1e-5 -3e-3 -8.9e-5 -4e-3 0-0.0138-1.64e-4 -0.0273-9.84e-4 -0.041 0h-4e-3l-4e-3 2e-3c-2.0955 0.21674-4.0899 1.8959-4.832 3.6602-0.69828 1.6599-0.7252 3.2067-0.62305 4.8242 0.0164 0.25753 0.0579 0.5124 0.1211 0.76172l23.619 93.113c0.0951 0.37787 0.24197 0.74109 0.4375 1.0781 2.0385 3.5054 5.8335 5.8922 9.8555 5.7207h0.016c0.0249-2e-3 0.0507-6e-3 0.0762-8e-3l-4e-3 2e-3 13.658-0.86328c0.0188-7.5e-4 0.0406-3e-3 0.0625-4e-3 8e-3 -4.7e-4 0.0135-1e-3 0.0215-2e-3h6e-3c4.0897-0.3372 7.6918-3.1327 9.2988-6.9277 0.15228-0.359 0.25334-0.74009 0.30078-1.127l11.717-95.345c0.031-0.25514 0.0399-0.512 0.0234-0.76953-0.1096-1.7354-0.44725-3.5026-1.6621-5.1191-1.2587-1.675-3.525-2.6295-5.4844-2.5664h-8e-3zm-13.924 111.86-0.0137 2e-3h0.01zm14.201-111.36h0.01c1.7814-0.058565 3.9359 0.85243 5.0742 2.3672 1.1368 1.5127 1.4536 3.1566 1.5606 4.8496 0.0144 0.22578 8e-3 0.45212-0.0195 0.67773l-11.717 95.346c-0.0418 0.34055-0.13171 0.67648-0.26563 0.99218-1.5367 3.6288-4.9935 6.3045-8.8809 6.625h-2e-3c-0.0188 2e-3 -0.0397 3e-3 -0.0644 4e-3h-4e-3l-13.668 0.86328h-2e-3c-0.0217 2e-3 -0.0441 4e-3 -0.0664 6e-3 -3e-3 2.1e-4 -5e-3 -2.1e-4 -8e-3 0-3.8106 0.16247-7.4481-2.1135-9.4004-5.4707-0.17211-0.29668-0.30302-0.61663-0.38672-0.94922l-23.619-93.114v-2e-3c-0.0555-0.21965-0.0911-0.44468-0.10547-0.66992-0.10056-1.5924-0.0733-3.0353 0.58399-4.5977 0.65856-1.5655 2.5626-3.1634 4.418-3.3574h0.0313c-0.0265 0.0018-0.0265 0.0021 6e-3 0h4e-3c0.0393-3e-3 0.0746-0.0063 0.10742-0.0078h2e-3l15.713-0.99219c1.9094-0.12058 3.5203 0.77336 4.6562 1.7773 1.136 1.0041 2.0222 2.2129 2.9043 3.6758 0.17854 0.30016 0.31516 0.62882 0.40235 0.9668 3.6e-4 0.0014 2e-3 0.0025 2e-3 0.0039l6.6738 25.363 0.32593 1.2267 0.1643-1.2599 3.2891-25.975c0.0432-0.33375 0.13358-0.66283 0.26562-0.97266 0.66675-1.5745 1.3834-2.9088 2.4004-4.0664 1.0171-1.1577 2.5492-2.2326 4.4336-2.3516l15.08-0.95312h2e-3c0.0315-0.00216 0.065-0.00448 0.0996-0.00586z" color="#000000" color-rendering="auto" dominant-baseline="auto" enable-background="accumulate" fill="#fcf1b3" image-rendering="auto" shape-rendering="auto" solid-color="#000000" style="font-feature-settings:normal;font-variant-alternates:normal;font-variant-caps:normal;font-variant-ligatures:normal;font-variant-numeric:normal;font-variant-position:normal;isolation:auto;mix-blend-mode:normal;shape-padding:0;text-decoration-color:#000000;text-decoration-line:none;text-decoration-style:solid;text-indent:0;text-orientation:mixed;text-transform:none;white-space:normal"/>
	<g transform="matrix(3.984 0 0 3.984 -79.642 -1082)" fill="none" stroke="#fcf1b3" stroke-width=".1255" style="font-variant-east_asian:normal">
		<path d="m79.932 273.37c-3.3216 0-6.2565 1.5137-8.5371 4.3184-2.2804 2.7913-3.4258 6.2166-3.4258 10.113 0 3.8977 1.1457 7.3288 3.4258 10.133 0.0012 1e-3 0.0025 3e-3 0.0039 4e-3l2e-3 2e-3c2.2809 2.7887 5.2134 4.291 8.5312 4.291s6.2486-1.5025 8.5293-4.291l4e-3 -4e-3c6.83e-4 -6.5e-4 0.0014-1e-3 2e-3 -2e-3 2.28-2.804 3.4258-6.2351 3.4258-10.133-1e-6 -3.8977-1.1462-7.3236-3.4277-10.115-2.2801-2.803-5.2125-4.3164-8.5332-4.3164zm-2e-3 7.5476 1.4482 3.6115c0.07128 0.21895 0.21214 0.41351 0.39844 0.54883s0.41623 0.21086 0.64648 0.21094h2.7988l-2.1816 1.5879c-0.18661 0.13593-0.32763 0.33103-0.39844 0.55078-0.0708 0.21975-0.0702 0.46233 2e-3 0.68164l1.5377 5.0874-3.6274-2.8251c-0.19654-0.16613-0.45359-0.25977-0.71094-0.25977s-0.5144 0.0936-0.71094 0.25977l-3.2273 2.4192 1.0692-3.9233c0.07337-0.22032 0.07513-0.46453 0.0039-0.68555s-0.21414-0.41671-0.40234-0.55273l-2.4798-2.3846 3.2099-0.26623c0.23026-8e-5 0.70423 0.16844 0.89053 0.0331 0.1863-0.13532 0.23842-0.32988 0.3097-0.54883z"/>
		<path d="m79.931 274.47q4.5029 0 7.6827 3.9104 3.1797 3.8907 3.1797 9.4206t-3.1797 9.4404q-3.1797 3.8907-7.6827 3.8907-4.5029 0-7.6827-3.8907-3.1797-3.9104-3.1797-9.4404 0-5.5299 3.1797-9.4206 3.1797-3.9104 7.6827-3.9104zm4.9374 20.244q0.33575 0.158 0.49374 0.158t0.158-0.158-0.158-0.49374l-2.0737-6.3002 3.555-2.5872q0.49374-0.49374 0.49374-0.75049 0-0.23699-0.49374-0.23699h-4.8189l-1.5997-4.9374q-0.237-0.49375-0.49374-0.49375-0.237 0-0.49374 0.49375l-1.5997 4.9374h-4.8189q-0.49374 0-0.49374 0.25674 0 0.237 0.47399 0.73074l3.5747 2.5872-2.0935 6.3002q-0.158 0.31599-0.158 0.49374 0 0.158 0.17775 0.158 0.158 0 0.49374-0.158l4.9374-4.1672z" style="font-variant-east_asian:normal"/>
	</g>
	<path d="m103.23 11.878-55.037 2.1632c-1.8015 0.07092-3.6585 0.6453-4.9489 2.0465s-1.7126 3.2988-1.6419 5.0968l3.7117 94.341c0.0708 1.7985 0.64133 3.6544 2.0387 4.9489 1.3974 1.2946 3.296 1.7204 5.0968 1.6496l11.796-0.46689c1.7986-0.0709 3.6564-0.63927 4.9489-2.0387 1.2925-1.3994 1.7126-3.2989 1.6419-5.0968l-1.4318-36.378 28.519-1.1205c1.7986-0.07092 3.6564-0.63932 4.9489-2.0387 1.2925-1.3994 1.7126-3.2989 1.6419-5.0968l-0.31127-7.8669c-0.0708-1.7986-0.6393-3.6565-2.0387-4.9489s-3.2989-1.7125-5.0967-1.6419l-28.511 1.1283-0.70032-17.726 36.378-1.4318c1.7985-0.07091 3.6543-0.64131 4.9489-2.0387 1.2946-1.3974 1.7205-3.296 1.6496-5.0967l-0.46688-11.796c-0.0708-1.7986-0.6393-3.6565-2.0387-4.9489s-3.2989-1.7125-5.0968-1.6419z" fill="#815a16" stroke="#805a16" stroke-width="2"/>
	<g transform="matrix(3.9597 .43935 -.43935 3.9597 -20.054 -1145.7)" fill="none" stroke="#fcf1b3" stroke-width=".1255" style="font-variant-east_asian:normal">
		<path d="m160.98 274.16c-2.3634 0-4.4602 0.81258-6.1387 2.3906-1.6776 1.5772-2.5625 3.5735-2.5625 5.8164s0.88465 4.2409 2.5625 5.8184c1.6787 1.5783 3.7758 2.3887 6.1387 2.3887 0.62875 0 1.0796 0.18708 1.5273 0.63477s0.63476 0.89859 0.63476 1.5273c0 0.62876-0.18707 1.0796-0.63476 1.5273s-0.89859 0.63477-1.5273 0.63477h-5.9258c-0.46318 0-0.95284 0.12666-1.3066 0.48047-0.35379 0.35379-0.48047 0.84345-0.48047 1.3066v2.9629c0 0.46324 0.1273 0.95242 0.48047 1.3066 0.35323 0.35427 0.84261 0.48242 1.3066 0.48242h5.9258c2.3634 0 4.4585-0.81281 6.1367-2.3906 1.6774-1.577 2.5645-3.573 2.5645-5.8164s-0.88685-4.2411-2.5645-5.8184c-1.6785-1.5781-3.7738-2.3887-6.1367-2.3887-0.62877 0-1.0796-0.18707-1.5274-0.63477-0.44768-0.44769-0.63476-0.89858-0.63476-1.5273 0-0.62875 0.18708-1.0796 0.63476-1.5273 0.4477-0.44769 0.89857-0.63476 1.5274-0.63477h5.9238c0.46324 0 0.95241-0.12729 1.3066-0.48047 0.35427-0.35322 0.48243-0.8426 0.48243-1.3066v-2.9629c0-0.46408-0.12878-0.95299-0.48243-1.3066-0.35367-0.35365-0.84254-0.48242-1.3066-0.48242z"/>
		<path d="m160.98 295.7q1.2245 0 2.0935-0.86899t0.86899-2.0935q0-1.2245-0.86899-2.0935t-2.0935-0.86899q-3.2785 0-5.5892-2.1725t-2.3107-5.2337 2.3107-5.2337q2.3107-2.1725 5.5892-2.1725h5.9249q0.98749 0 0.98749 0.98749v2.9625q0 0.98749-0.98749 0.98749h-5.9249q-1.2245 0-2.0935 0.86899t-0.86899 2.0935q0 1.2245 0.86899 2.0935t2.0935 0.86899q3.2785 0 5.5892 2.1725t2.3107 5.2337-2.3107 5.2337q-2.3107 2.1725-5.5892 2.1725h-5.9249q-0.98749 0-0.98749-0.98749v-2.9625q0-0.98749 0.98749-0.98749z" style="font-variant-east_asian:normal"/>
	</g>
	<path d="m496.92 10.843c-9.3031-1.0322-17.896 1.2497-25.189 6.7254-7.2883 5.4727-11.627 12.918-12.605 21.736-0.97842 8.8183 1.6208 17.04 7.533 23.979 5.9155 6.942 13.801 11.044 23.103 12.076 2.5388 0.28169 4.3247 1.2654 5.9314 3.273 1.6067 2.0077 2.1749 3.9658 1.8932 6.5046-0.2817 2.5389-1.2653 4.3247-3.273 5.9314s-3.9658 2.1749-6.5046 1.8932l-23.465-2.6035c-1.79-0.19861-3.7158 0.08417-5.2072 1.2777-1.4914 1.1935-2.1895 3.0104-2.3881 4.8004l-1.3017 11.732c-0.19862 1.7901 0.0865 3.714 1.2777 5.2072 1.1913 1.4931 3.0066 2.1969 4.7996 2.3959l23.465 2.6035c9.303 1.0322 17.89-1.2513 25.181-6.7262 7.2873-5.472 11.634-12.915 12.613-21.735 0.97862-8.8201-1.6293-17.042-7.5407-23.979-5.9146-6.9411-13.793-11.043-23.095-12.075-2.5389-0.2817-4.3248-1.2653-5.9314-3.2731-1.6067-2.0077-2.1749-3.9658-1.8932-6.5046s1.2653-4.3247 3.273-5.9314 3.9658-2.1749 6.5047-1.8932l23.457 2.6026c1.7901 0.19862 3.714-0.08645 5.2072-1.2777 1.4931-1.1912 2.1969-3.0066 2.3958-4.7996l1.3017-11.732c0.19894-1.793-0.092-3.7167-1.2854-5.208s-3.0066-2.1969-4.7996-2.3958z" fill="#fad60b"/>
	<path d="m487.48 95.89q4.8487 0.53798 8.6714-2.5212 3.8228-3.0592 4.3607-7.9078 0.53797-4.8486-2.5212-8.6714-3.0592-3.8228-7.9078-4.3607-12.982-1.4404-21.177-11.058-8.1954-9.6177-6.8504-21.739 1.3449-12.122 11.449-19.709 10.104-7.5872 23.086-6.1468l23.461 2.6031q3.9102 0.43385 3.4764 4.3441l-1.3016 11.731q-0.43385 3.9102-4.344 3.4764l-23.461-2.6031q-4.8486-0.53797-8.6714 2.5212-3.8228 3.0592-4.3607 7.9078-0.53798 4.8487 2.5212 8.6714 3.0592 3.8228 7.9078 4.3607 12.982 1.4404 21.177 11.058 8.1954 9.6177 6.8504 21.739-1.3449 12.122-11.449 19.709-10.104 7.5872-23.086 6.1468l-23.461-2.6031q-3.9102-0.43385-3.4764-4.344l1.3016-11.731q0.43385-3.9102 4.344-3.4764z" fill="url(#linearGradient4998)" style="font-variant-east_asian:normal"/>
	<path d="m491.83 13.553c-6.4701 0.13119-12.349 2.1134-17.652 5.9062l0.6582 6.4043c0.18581 1.8094-0.11899 3.7588-1.3457 5.2617-1.2267 1.5029-3.0724 2.1934-4.8789 2.3789l-5.3887 0.55274c-0.55473 1.771-0.94419 3.6278-1.1602 5.5742-0.47248 4.2583-0.20945 7.7831 1.084 11.578 1.5902-0.0423 3.9318 0.54165 5.2383 1.6016 1.5066 1.2222 2.1697 3.2101 2.3555 5.0195l0.61718 6.0547c0.81618 0.8155 0.68402 0.64074 1.5632 1.3491 0 0 0.29596-9.0572-2.3749-12.243-1.3738-1.6385-4.923-0.81055-5.9879-2.3009-0.89129-1.8659-1.251-5.6063-1.5022-7.4612 0.0883-2.7021 0.62324-6.5643 1.3134-8.03l6.1292-0.5713c1.0259-0.09562 3.3107-1.0486 4.3475-2.3233 1.3291-1.6339 1.9788-3.8775 1.7812-6.0625l-0.5-5.5312c2.0521-2.5138 5.3532-3.6128 8.375-4.5 1.7793-0.52239 6.2068-1.2098 8.6576-0.93637l30.21 3.37c-0.42026-1.3021-1.5125-2.0661-3.3106-2.2656l-23.461-2.6035c-1.6227-0.18005-3.2123-0.25419-4.7676-0.22266zm-9.9316 81.717c0.0745 0.34329 0.13448 0.68805 0.16993 1.0332l1.207 11.742c0.18581 1.8094-0.12134 3.7571-1.3457 5.2617-0.54317 0.6675-1.2132 1.1678-1.9434 1.543l2.309 0.21568s1.5761-1.9219 1.8814-3.0879c0.29929-1.1428 0.80814-2.1635 0.66273-3.6705l-1.2399-12.85z" fill="#bb000f" fill-rule="evenodd"/>
	<g transform="matrix(3.9632 -.40698 .40698 3.9632 -240.57 -1017.7)" fill="none" stroke="#fcf1b3" stroke-width=".1255" style="font-variant-east_asian:normal">
		<path d="m136.3 274.14c-0.46748 0-0.96178 0.12972-1.3203 0.48828-0.35853 0.35854-0.48828 0.85285-0.48828 1.3203v23.699c0 0.46747 0.12973 0.96178 0.48828 1.3203 0.35854 0.35854 0.85284 0.48828 1.3203 0.48828h13.824c0.46748 0 0.96178-0.12974 1.3203-0.48828 0.35853-0.35853 0.48828-0.85285 0.48828-1.3203v-2.9629c0-0.46742-0.12911-0.9622-0.48828-1.3203-0.35912-0.35806-0.8537-0.48633-1.3203-0.48633h-9.0547v-4.2852h7.0801c0.46662 0 0.96119-0.12827 1.3203-0.48632 0.35917-0.35811 0.48828-0.85289 0.48828-1.3203v-1.9766c0-0.46742-0.12911-0.9622-0.48828-1.3203-0.35913-0.35806-0.8537-0.48633-1.3203-0.48633h-7.0801v-4.2852h9.0547c0.46662 0 0.9612-0.12827 1.3203-0.48632 0.35917-0.35811 0.48828-0.85289 0.48828-1.3203v-2.9629c0-0.46746-0.12975-0.96177-0.48828-1.3203-0.35854-0.35855-0.85284-0.48828-1.3203-0.48828z"/>
		<path d="m140.25 289.78v5.9249h9.8749q0.98749 0 0.98749 0.98749v2.9625q0 0.98749-0.98749 0.98749h-13.825q-0.98749 0-0.98749-0.98749v-23.7q0-0.98749 0.98749-0.98749h13.825q0.98749 0 0.98749 0.98749v2.9625q0 0.98749-0.98749 0.98749h-9.8749v5.9249h7.8999q0.98749 0 0.98749 0.98749v1.975q0 0.98749-0.98749 0.98749z" style="font-variant-east_asian:normal"/>
	</g>
	<path d="m411.19 13.524c-1.8094 0.18581-3.6542 0.88152-4.8786 2.3862-1.2244 1.5046-1.5306 3.4522-1.3448 5.2616l9.6451 93.925c0.18581 1.8094 0.88148 3.6542 2.3861 4.8786 1.5046 1.2244 3.4522 1.5306 5.2617 1.3448l54.788-5.6262c1.8094-0.18582 3.6542-0.88152 4.8786-2.3861s1.5306-3.4523 1.3448-5.2617l-1.2058-11.743c-0.1858-1.8094-0.87957-3.6563-2.3861-4.8786-1.5065-1.2222-3.4544-1.5226-5.2609-1.3371l-36.118 3.7089-1.7917-17.447 28.292-2.9053c1.8065-0.18551 3.6526-0.87551 4.8793-2.3784 1.2267-1.5029 1.5306-3.4522 1.3448-5.2617l-0.80442-7.8335c-0.18581-1.8094-0.87958-3.6563-2.3861-4.8786-1.5066-1.2222-3.4544-1.5226-5.2609-1.3371l-28.292 2.9053-1.7917-17.447 36.118-3.7089c1.8065-0.18551 3.6527-0.87552 4.8793-2.3784 1.2267-1.5029 1.5306-3.4522 1.3448-5.2617l-1.2058-11.743c-0.18581-1.8094-0.88152-3.6541-2.3861-4.8785-1.5046-1.2244-3.4523-1.5307-5.2617-1.3449z" fill="#fad60b"/>
	<path d="m433.18 73.641 2.4113 23.482 39.136-4.0189q3.9136-0.40189 4.3155 3.5117l1.2057 11.741q0.40189 3.9136-3.5117 4.3155l-54.791 5.6264q-3.9136 0.40189-4.3155-3.5117l-9.6453-93.927q-0.40189-3.9136 3.5117-4.3155l54.791-5.6264q3.9136-0.40189 4.3155 3.5117l1.2057 11.741q0.40189 3.9136-3.5117 4.3155l-39.136 4.0189 2.4113 23.482 31.309-3.2151q3.9136-0.40189 4.3155 3.5117l0.80378 7.8272q0.40189 3.9136-3.5117 4.3155z" fill="url(#linearGradient4858)" style="font-variant-east_asian:normal"/>
	<path d="m467.21 10.885c-0.28955-0.01146-0.59769-2.88e-4 -0.92382 0.0332l-40.373 4.1465c0.51476 1.1519 0.6954 2.4289 0.65039 3.6484l-0.43555 11.795c-0.0682 1.8479-0.65257 3.7963-2.123 5.1621-1.4705 1.3657-3.4548 1.8046-5.3027 1.7363l-9.0508-0.33398 7.9785 77.715c0.25913 2.5234 2.4982 3.4373 3.2598 3.332l-8.8457-79.051s4.507 0.17576 6.7598 0.11524c2.7172-0.07301 5.1161-0.73814 6.9148-2.384 1.2499-1.1437 2.0561-2.9453 2.0755-4.6394l0.17773-15.557 41.791-4.5488c-0.5729-0.73109-1.4214-1.1251-2.5527-1.1699z" fill="#bb000f" fill-rule="evenodd"/>
	<g transform="matrix(3.9813 .14701 -.14701 3.9813 -66.947 -1099.7)" fill="none" stroke="#fcf1b3" stroke-width=".1255" style="font-variant-east_asian:normal">
		<path d="m118.52 274.09c-0.47561 0-0.98787 0.13131-1.3574 0.50195-0.3695 0.3706-0.49804 0.88088-0.49804 1.3555v2.9629c0 0.47471 0.12991 0.98537 0.5 1.3555 0.37009 0.37009 0.88077 0.5 1.3555 0.5h3.5742v18.881c0 0.47551 0.12994 0.98737 0.5 1.3574 0.37006 0.37006 0.88194 0.5 1.3574 0.5h2.9629c0.47561 0 0.98787-0.13129 1.3574-0.50195 0.36951-0.3706 0.49804-0.88088 0.49804-1.3555v-18.881h3.5762c0.4747 0 0.98538-0.12991 1.3555-0.5 0.37009-0.3701 0.50001-0.88076 0.5-1.3555v-2.9629c0-0.47459-0.12854-0.98487-0.49804-1.3555-0.36955-0.37064-0.88181-0.50195-1.3574-0.50195z"/>
		<path d="m127.9 299.65q0 0.98749-0.98749 0.98749h-2.9625q-0.98748 0-0.98748-0.98749v-19.75h-4.4437q-0.98749 0-0.98749-0.98749v-2.9625q0-0.98749 0.98749-0.98749h13.825q0.98749 0 0.98749 0.98749v2.9625q0 0.98749-0.98749 0.98749h-4.4437z" style="font-variant-east_asian:normal"/>
	</g>
	<path d="m364.62 9.2458c-1.8511-0.068349-3.8442 0.37494-5.3125 1.7427-1.4683 1.3678-2.0457 3.3144-2.1139 5.1623l-0.43556 11.796c-0.0682 1.8479 0.36946 3.834 1.7352 5.3045 1.3658 1.4705 3.3142 2.0534 5.162 2.1217l14.456 0.53376-2.7839 75.396c-0.0684 1.8511 0.36947 3.8421 1.735 5.3123 1.3654 1.4701 3.3187 2.0536 5.1698 2.122l11.796 0.43557c1.8511 0.0683 3.8442-0.3749 5.3125-1.7427s2.0457-3.3144 2.1139-5.1623l2.7839-75.396 14.463 0.53404c1.8479 0.06823 3.834-0.36946 5.3045-1.7352 1.4705-1.3658 2.0534-3.3142 2.1217-5.1621l0.43556-11.796c0.0682-1.8479-0.36403-3.8318-1.7274-5.3042-1.3634-1.4723-3.3184-2.0614-5.1695-2.1298z" fill="#fad60b"/>
	<path d="m398.23 112.15q-0.14517 3.9315-4.0767 3.7864l-11.795-0.4355q-3.9315-0.14517-3.7863-4.0767l2.9033-78.63-17.692-0.65325q-3.9315-0.14517-3.7864-4.0767l0.4355-11.795q0.14517-3.9315 4.0767-3.7864l55.041 2.0323q3.9315 0.14517 3.7864 4.0767l-0.4355 11.795q-0.14516 3.9315-4.0767 3.7864l-17.692-0.65325z" fill="url(#linearGradient5024)" style="font-variant-east_asian:normal"/>
	<path d="m364.51 12.482c-0.10912-4e-3 -0.20802 3e-3 -0.3125 0.0039 0.88753 1.3019 1.2742 2.8581 1.3438 4.3262l0.73047 15.42 1.9404 0.0918-0.8115-17.68 55.461 1.9053c-0.3617-1.6827-1.2183-1.9564-3.3086-2.0336zm16.369 20.229-0.29492 0.04883 0.89258 0.0332-2.9024 78.631c-0.0707 1.9149 0.59078 3.1492 1.9707 3.7168l2.767-82.143z" fill="#bb000f" fill-rule="evenodd"/>
	<g transform="matrix(3.9796 -.18867 .18867 3.9796 -149.93 -1059.4)" fill="none" stroke="#fcf1b3" stroke-width=".1255" style="font-variant-east_asian:normal">
		<path d="m111.57 273.98c-0.49422 0-1.0392 0.13684-1.4355 0.5332-0.39637 0.39637-0.53321 0.94132-0.53321 1.4356v23.699c0 0.49423 0.13683 1.0392 0.53321 1.4356 0.39636 0.39636 0.94132 0.5332 1.4355 0.5332h2.9824c0.49127 0 1.0373-0.14158 1.4277-0.54102 0.39005-0.39907 0.51953-0.9379 0.51953-1.4277v-23.699c0-0.49322-0.13544-1.0366-0.53125-1.4336-0.39587-0.39704-0.94122-0.53516-1.4356-0.53516z"/>
		<path d="m115.52 299.65q0 0.98749-0.96774 0.98749h-2.9822q-0.98749 0-0.98749-0.98749v-23.7q0-0.98749 0.98749-0.98749h2.9625q0.98748 0 0.98748 0.98749z" style="font-variant-east_asian:normal"/>
	</g>
	<path d="m345.78 10.115c-1.926 0.09131-4.008 0.72704-5.4597 2.3232-1.4517 1.5962-1.8876 3.729-1.7963 5.655l4.4714 94.313c0.0913 1.9261 0.72699 4.008 2.3232 5.4598 1.5962 1.4517 3.729 1.8875 5.655 1.7962l11.869-0.5627c1.9124-0.0907 3.9999-0.74695 5.4272-2.3528 1.4273-1.6059 1.8339-3.7108 1.7433-5.6214l-4.4714-94.313c-0.0911-1.9224-0.7207-3.998-2.3151-5.4523-1.5944-1.4544-3.7294-1.8953-5.6554-1.804z" fill="#fad60b"/>
	<path d="m366.33 111.3q0.18631 3.9298-3.6649 4.1124l-11.868 0.56266q-3.9298 0.18631-4.1161-3.7435l-4.4715-94.315q-0.18631-3.9298 3.7435-4.1161l11.789-0.55894q3.9298-0.18631 4.1161 3.7435z" fill="url(#linearGradient4838)" style="font-variant-east_asian:normal"/>
	<path d="m285.12 9.0813c-1.9114-0.056204-4.0064 0.41549-5.5512 1.8764-1.5448 1.4608-2.1354 3.5237-2.1915 5.4315l-2.7752 94.378c-0.0561 1.9078 0.41232 4.0019 1.8686 5.551s3.52 2.1431 5.4313 2.1993l11.799 0.34695c1.9114 0.0562 4.0045-0.41809 5.5512-1.8764s2.1431-3.52 2.1993-5.4313l1.0507-35.732 8.198 0.24106c2.4001 0.07057 4.064 0.82135 5.7237 2.5816 1.6597 1.7602 2.3114 3.4654 2.2408 5.8655l-0.0881 2.9945-0.72134 24.532c-0.0562 1.9114 0.41805 4.0046 1.8764 5.5512 1.4583 1.5466 3.5199 2.1431 5.4313 2.1993l11.791 0.34672c1.9114 0.0562 4.0045-0.4181 5.5512-1.8764 1.5466-1.4583 2.1431-3.5199 2.1993-5.4313l0.75153-25.558c0.24286-8.259-2.8831-15.659-8.3786-21.896 5.8525-5.9029 9.4079-13.106 9.6507-21.365 0.26556-9.0314-3.0781-17.219-9.6394-23.762-6.5657-6.5469-14.944-10.077-24.443-10.356zm18.539 27.418 8.198 0.24106c2.4001 0.07057 4.064 0.82135 5.7237 2.5816 1.6597 1.7602 2.3114 3.4654 2.2408 5.8655s-0.82131 4.064-2.5816 5.7237c-1.7602 1.6597-3.4654 2.3114-5.8655 2.2408l-8.198-0.24106z" fill="#fad60b"/>
	<path d="m311.97 33.148-11.797-0.3469-0.6938 23.595 11.797 0.3469c3.2508 0.09559 6.0637-0.97623 8.4386-3.2155 2.3749-2.2392 3.6102-4.9843 3.7057-8.2351 0.0956-3.2508-0.97623-6.0637-3.2155-8.4386-2.2392-2.3749-4.9842-3.6101-8.2351-3.7057zm10.236 53.436 0.0578-1.9662c0.0956-3.2508-0.97622-6.0637-3.2154-8.4386s-4.9843-3.6101-8.2351-3.7057l-11.797-0.3469-1.1563 39.325c-0.0771 2.6217-1.4265 3.894-4.0481 3.8169l-11.797-0.3469c-2.6217-0.0771-3.894-1.4265-3.8169-4.0481l2.7752-94.38c0.0771-2.6217 1.4265-3.894 4.0481-3.8169l27.527 0.80944c8.7039 0.25594 16.038 3.3579 22.003 9.306 5.9651 5.9481 8.8281 12.986 8.5892 21.113-0.23898 8.1271-3.5106 14.984-9.8149 20.572-0.27002 0.25459-0.56612 0.50826-0.88829 0.76103 0.3069 0.27129 0.58758 0.54194 0.84203 0.81195 5.9651 5.9481 8.8281 12.986 8.5892 21.113l-0.75162 25.561c-0.0771 2.6217-1.4265 3.894-4.0481 3.8169l-11.797-0.3469c-2.6217-0.0771-3.894-1.4265-3.8169-4.0481z" fill="url(#linearGradient4804)" style="font-variant-east_asian:normal"/>
	<path d="m285.02 12.676c-2.6217-0.07709-3.9698 1.1967-4.0469 3.8184l-0.60149 20.234c0.60515 3.8955 2.9664 7.3329 3.9211 11.158 0.95658 3.8324 1.4517 7.7788 1.7856 11.715 0.20443 2.4098 0.21892 4.8373 0.1306 7.2541-0.11076 3.0304-0.35313 6.0645-0.8273 9.0596-0.45569 2.8784-1.1115 5.7303-1.9331 8.5263-1.0784 3.9202-2.8769 7.7404-4.814 11.567l-0.43681 14.865c-0.0527 1.7928 0.51732 2.9865 1.7266 3.5894l0.27144-17.603c4.2836-9.4936 7.1021-20.466 7.5557-30.165-0.14457-7.3474-0.65207-13.429-2.005-19.176-0.97683-3.972-3.949-7.1189-3.8047-10.994l0.76422-20.516c-0.0287-0.9074 0.98802-1.5148 1.6065-1.4865l38.629 1.0653-0.10352-0.24805c-3.1868-1.1229-6.6159-1.7435-10.291-1.8516z" fill="#bb000f" fill-rule="evenodd"/>
	<path d="m238.81 7.3382c-13.165 0-24.79 5.9874-33.841 17.119-9.0515 11.079-13.594 24.671-13.594 40.152 0 15.485 4.5436 29.099 13.594 40.229l8e-3 8e-3c9.0544 11.079 20.676 17.026 33.833 17.026s24.772-5.9475 33.825-17.026l8e-3 -8e-3c9.0504-11.13 13.594-24.745 13.594-40.229 0-15.485-4.5457-29.078-13.602-40.159-9.0496-11.125-20.664-17.111-33.825-17.111zm-8e-3 31.25 4.3887 13.532c0.55727 1.7118 2.1527 2.8707 3.9529 2.8713h11.835l-9.2442 6.7308c-1.4593 1.063-2.066 2.9461-1.5018 4.661l5.3146 16.162-12.053-10.178c-1.55-1.3101-3.8192-1.3101-5.3691 0l-12.139 10.24 5.3924-16.209c0.57395-1.7236-0.0373-3.6202-1.5096-4.6844l-9.2909-6.7231h11.89c1.8002-6.32e-4 3.4113-1.1126 4.0154-3.1213z" fill="#fad60b"/>
	<path d="m238.81 11.497q17.94 0 30.608 15.579 12.668 15.501 12.668 37.532t-12.668 37.611q-12.668 15.501-30.608 15.501t-30.608-15.501q-12.668-15.579-12.668-37.611 0-22.031 12.668-37.532 12.668-15.579 30.608-15.579zm19.671 80.651q1.3376 0.62948 1.9671 0.62948t0.62947-0.62948q0-0.62948-0.62947-1.9671l-8.2618-25.1 14.163-10.308q1.9671-1.9671 1.9671-2.99 0-0.94418-1.9671-0.94418h-19.199l-6.3734-19.671q-0.94421-1.9671-1.9671-1.9671-0.9442 0-1.9671 1.9671l-6.3734 19.671h-19.199q-1.9671 0-1.9671 1.0229 0 0.94422 1.8884 2.9113l14.242 10.308-8.3405 25.1q-0.62947 1.2589-0.62947 1.9671 0 0.62948 0.70816 0.62948 0.62947 0 1.9671-0.62948l19.671-16.602z" fill="#f00"/>
	<path d="m238.81 11.497q17.94 0 30.608 15.579 12.668 15.501 12.668 37.532t-12.668 37.611q-12.668 15.501-30.608 15.501t-30.608-15.501q-12.668-15.579-12.668-37.611 0-22.031 12.668-37.532 12.668-15.579 30.608-15.579zm19.671 80.651q1.3376 0.62948 1.9671 0.62948t0.62947-0.62948q0-0.62948-0.62947-1.9671l-8.2618-25.1 14.163-10.308q1.9671-1.9671 1.9671-2.99 0-0.94418-1.9671-0.94418h-19.199l-6.3734-19.671q-0.94421-1.9671-1.9671-1.9671-0.9442 0-1.9671 1.9671l-6.3734 19.671h-19.199q-1.9671 0-1.9671 1.0229 0 0.94422 1.8884 2.9113l14.242 10.308-8.3405 25.1q-0.62947 1.2589-0.62947 1.9671 0 0.62948 0.70816 0.62948 0.62947 0 1.9671-0.62948l19.671-16.602z" fill="url(#linearGradient4824)" style="font-variant-east_asian:normal"/>
	<g transform="matrix(3.984 0 0 3.984 -71.209 -1082)">
		<path transform="translate(0 37.15)" d="m43.486 236.81-13.814 0.54297c-0.45218 0.0178-0.91828 0.16197-1.2422 0.51367-0.3239 0.35171-0.42987 0.828-0.41211 1.2793l0.93164 23.68c0.01777 0.45142 0.16098 0.91725 0.51172 1.2422 0.35074 0.32494 0.8273 0.43183 1.2793 0.41406l2.9609-0.11719c0.45145-0.0178 0.91777-0.16046 1.2422-0.51172 0.32442-0.35126 0.42987-0.82802 0.41211-1.2793l-0.35938-9.1308 7.1582-0.28125c0.45145-0.0178 0.91777-0.16047 1.2422-0.51172 0.32442-0.35126 0.42987-0.82802 0.41211-1.2793l-0.07813-1.9746c-0.01777-0.45145-0.16046-0.91778-0.51172-1.2422s-0.82803-0.42985-1.2793-0.41211l-7.1562 0.28321-0.17578-4.4492 9.1309-0.35938c0.45142-0.0178 0.91724-0.16097 1.2422-0.51172 0.32494-0.35074 0.43185-0.82729 0.41406-1.2793l-0.11719-2.9609c-0.01777-0.45145-0.16046-0.91778-0.51172-1.2422s-0.82803-0.42985-1.2793-0.41211z" fill="#fad60b"/>
		<path d="m34.231 289.89 0.38835 9.8672q0.03883 0.98672-0.94789 1.0256l-2.9602 0.11651q-0.98672 0.0388-1.0256-0.9479l-0.93204-23.681q-0.03883-0.98673 0.94789-1.0256l13.814-0.5437q0.98672-0.0388 1.0256 0.9479l0.11651 2.9602q0.03883 0.98673-0.94789 1.0256l-9.8672 0.38835 0.23301 5.9203 7.8938-0.31068q0.98672-0.0388 1.0256 0.94789l0.07767 1.9734q0.03884 0.98673-0.94789 1.0256z" fill="url(#linearGradient4596)"/>
	</g>
	<path d="m114.35 9.4629c-3.8554 0.015032-7.442 2.4997-9.2504 5.9725a3.8107 3.8107 0 0 0-0.35105 0.99814l-19.254 94.114a3.8107 3.8107 0 0 0-0.08156 0.69907c-0.02682 1.6295 0.06189 3.0905 0.81814 4.6673 0.75627 1.5769 2.9064 3.1452 4.835 3.177l15.732 0.25896c1.9554 0.0322 3.5512-0.95557 4.6561-2.0246 1.1048-1.069 1.9381-2.3343 2.756-3.8458a3.8107 3.8107 0 0 0 0.37453-1.0056l0.19328-0.86845 9.8732 0.16253 0.1646 0.87433a3.8107 3.8107 0 0 0 0.31101 0.96234c0.74414 1.5516 1.5326 2.8658 2.6193 3.9888s2.6972 2.1456 4.6258 2.1774l15.102 0.24859c1.8298 0.0301 4.069-1.0033 5.1716-2.6153s1.3384-3.2968 1.3669-5.0283a3.8107 3.8107 0 0 0-0.0585-0.70137l-16.146-94.697a3.8107 3.8107 0 0 0-0.31801-1.0091c-1.7212-3.5892-5.3608-6.1374-9.2978-6.2778a3.8107 3.8107 0 0 0-0.07-0.00115l-13.693-0.22541a3.8107 3.8107 0 0 0-0.0778-0.00128z" fill="#fad60b"/>
	<path d="m111.71 107.75-0.85149 3.9207c-1.4068 2.6-2.7396 3.8896-3.9984 3.8689l-15.735-0.259c-1.3112-0.0216-1.9452-1.3436-1.9021-3.966l19.256-94.116c1.3544-2.6009 3.317-3.9064 5.8879-3.9165l13.689 0.22534c2.7265 0.09721 4.7237 1.4679 5.9918 4.1121l16.147 94.699c-0.0432 2.6224-0.93019 3.9194-2.661 3.8909l-15.105-0.24865c-1.3112-0.0216-2.6009-1.3544-3.8689-3.9984l-0.72198-3.9466zm12.754-19.605-3.8857-21.957-4.6896 21.957z" fill="url(#linearGradient6916)"/>
	<path d="m120.74 65.641c-0.48577 0.05123-0.47354 0.76238 0.0137 0.79688 0.0247 0.12677 0.0534 0.26969 0.0527 0.26562 6.6e-4 0.0013 1e-3 0.0026 2e-3 0.0039l3.8477 21.732h-8.3555c-0.0144-1.06e-4 -0.0287 5.62e-4 -0.043 2e-3 -0.0447 0.0049-0.0579 0.0019-0.0801 0-0.30617-0.16961-0.74501-0.7214-0.74715-0.22186-5.7e-4 0.1017 0.0185 0.72881 0.0209 1.1009 2e-3 0.29734 0.20295 0.33202 0.38224 0.33202h9.2176c0.39947 1.3e-5 1.0985-0.42485 0.97798-1.4455-0.73573-6.3496-2.542-14.45-3.6836-21.637v-0.0039c-0.0136-0.08141-0.0645-0.37002-0.10742-0.53711-0.0181-0.07209-0.056-0.13769-0.10938-0.18945-0.31237-0.30062-1.3887-0.19922-1.3887-0.19922z" color="#000000" color-rendering="auto" dominant-baseline="auto" enable-background="accumulate" fill="#bb000f" image-rendering="auto" shape-rendering="auto" solid-color="#000000" style="font-feature-settings:normal;font-variant-alternates:normal;font-variant-caps:normal;font-variant-ligatures:normal;font-variant-numeric:normal;font-variant-position:normal;isolation:auto;mix-blend-mode:normal;shape-padding:0;text-decoration-color:#000000;text-decoration-line:none;text-decoration-style:solid;text-indent:0;text-orientation:mixed;text-transform:none;white-space:normal"/>
	<path d="m120.58 65.973c-0.0956 4.59e-4 -0.18557 0.07495-0.20703 0.16797-2.2e-4 9.59e-4 -2e-3 9.9e-4 -2e-3 2e-3l-4.6875 21.953c-0.0251 0.12365 0.0826 0.25781 0.20898 0.25781h8.5762c0.12384 4e-6 0.23133-0.128 0.21093-0.25v-2e-3l-3.8867-21.951c-0.0175-0.09823-0.11117-0.17825-0.21094-0.17774a5.2628 5.2628 0 0 1-2e-3 0z" fill="none" stroke="#fcf1b3" stroke-linecap="round" stroke-linejoin="round" stroke-width=".5"/>
	<path d="m189.38 110.84q-1.7152 4.0504-5.7937 4.3868l-13.664 0.86291q-3.8528 0.16427-6.064-3.6379l-23.62-93.117q-0.243-3.8478 1.7152-4.0504l15.705-0.99184q1.8847-0.11902 4.1743 3.6784l11.828 44.981 5.8402-46.096q1.7152-4.0504 3.6784-4.1743l15.077-0.95217q2.5964-0.08532 2.8394 3.7627z" fill="#f00"/>
	<path d="m114.35 9.4629c-3.8554 0.015032-7.442 2.4997-9.2504 5.9725a3.8107 3.8107 0 0 0-0.35105 0.99814l-19.254 94.114a3.8107 3.8107 0 0 0-0.08156 0.69907c-0.02682 1.6295 0.06189 3.0905 0.81814 4.6673 0.75627 1.5769 2.9064 3.1452 4.835 3.177l15.732 0.25896c1.9554 0.0322 3.5512-0.95557 4.6561-2.0246 1.1048-1.069 1.9381-2.3343 2.756-3.8458a3.8107 3.8107 0 0 0 0.37453-1.0056l0.19328-0.86845 9.8732 0.16253 0.1646 0.87433a3.8107 3.8107 0 0 0 0.31101 0.96234c0.74414 1.5516 1.5326 2.8658 2.6193 3.9888s2.6972 2.1456 4.6258 2.1774l15.102 0.24859c1.8298 0.0301 4.069-1.0033 5.1716-2.6153s1.3384-3.2968 1.3669-5.0283a3.8107 3.8107 0 0 0-0.0585-0.70137l-16.146-94.697a3.8107 3.8107 0 0 0-0.31801-1.0091c-1.7212-3.5892-5.3608-6.1374-9.2978-6.2778a3.8107 3.8107 0 0 0-0.07-0.00115l-13.693-0.22541a3.8107 3.8107 0 0 0-0.0778-0.00128z" fill="none" stroke="#fcf1b3" stroke-width=".4989"/>
	<g fill="#bb000f">
		<path d="m105.73 34.456c0.0588-0.02509 0.34367-0.12283 0.40172-0.1496 0.68901-0.31775 1.3257-0.75467 1.8643-1.3361 1.2946-1.3974 1.7193-3.2969 1.6484-5.0977l-0.37289-9.4151-4e-3 -0.10244-0.0469-1.5312" stroke="#bb000f" stroke-width="1.5"/>
		<path d="m101.5 52.982-0.44726 1.2539c0.161 0.1197-0.13179 0.19813 0.0195 0.33789 1.4378 1.3279 2.0141 3.2239 2.0859 5.0488l0.31054 7.8672c0.0718 1.8239-0.35162 3.7613-1.6797 5.1992-1.328 1.4378-3.2239 2.014-5.0488 2.0859l-0.22656 0.0098 0.05859 1.498 0.22656-0.0078c2.1-0.08281 4.4188-0.75506 6.0918-2.5664 1.6734-1.8118 2.1607-4.1787 2.0781-6.2773l-0.31051-7.8672c-0.0827-2.1002-0.75505-4.4189-2.5664-6.0918-0.19092-0.17633-0.38882-0.33932-0.5918-0.49023z" color="#000000" color-rendering="auto" dominant-baseline="auto" enable-background="accumulate" image-rendering="auto" shape-rendering="auto" solid-color="#000000" style="font-feature-settings:normal;font-variant-alternates:normal;font-variant-caps:normal;font-variant-ligatures:normal;font-variant-numeric:normal;font-variant-position:normal;isolation:auto;mix-blend-mode:normal;shape-padding:0;text-decoration-color:#000000;text-decoration-line:none;text-decoration-style:solid;text-indent:0;text-orientation:mixed;text-transform:none;white-space:normal"/>
		<path d="m114.37 13.277c-2.5708 0.01014-4.5343 1.3152-5.8887 3.916l-19.256 94.117c0.10666 0.73136 0.01847 1.0213 0.0785 1.5863 0.07849 0.73877 0.32168 1.6596 0.68763 1.7357 0.08738 0.0182-0.02386-1.2749 0.10825-1.2499 0 0 18.772-92.032 19.748-96.008 0.0984-0.40108 0.86134-1.7133 1.6781-2.1329 0.83298-0.428 1.283-0.77764 2.407-0.89368s13.761 0.29358 17.721 0.29605c-1.0098-0.70908-2.2062-1.0931-3.5938-1.1426z"/>
	</g>
	<path d="m102.04 9.4861-55.037 2.1632c-1.8015 0.07092-3.6585 0.6453-4.9489 2.0465s-1.7126 3.2988-1.6419 5.0968l3.7117 94.341c0.0708 1.7985 0.64133 3.6544 2.0387 4.9489 1.3974 1.2946 3.296 1.7204 5.0968 1.6496l11.796-0.46689c1.7986-0.0709 3.6564-0.63927 4.9489-2.0387 1.2925-1.3994 1.7126-3.2989 1.6419-5.0968l-1.4318-36.378 28.519-1.1205c1.7986-0.07092 3.6564-0.63932 4.9489-2.0387 1.2925-1.3994 1.7126-3.2989 1.6419-5.0968l-0.31127-7.8669c-0.0708-1.7986-0.6393-3.6565-2.0387-4.9489-1.3994-1.2925-3.2989-1.7125-5.0968-1.6419l-28.511 1.1283-0.70032-17.726 36.378-1.4318c1.7985-0.07091 3.6543-0.64131 4.9489-2.0387 1.2946-1.3974 1.7205-3.296 1.6496-5.0967l-0.46688-11.796c-0.0708-1.7986-0.6393-3.6565-2.0387-4.9489-1.3994-1.2925-3.2989-1.7125-5.0968-1.6419z" fill="#fad60b"/>
	<path d="m65.169 72.935 1.5472 39.311q0.1547 3.9311-3.7764 4.0859l-11.793 0.46418q-3.9311 0.15458-4.0859-3.7765l-3.7133-94.347q-0.1547-3.9312 3.7764-4.0859l55.036-2.1661q3.9312-0.15458 4.0859 3.7765l0.46416 11.793q0.1547 3.9312-3.7764 4.0859l-39.311 1.5472 0.92832 23.587 31.449-1.2378q3.9311-0.15458 4.0859 3.7764l0.30945 7.8623q0.15474 3.9312-3.7764 4.0859z" fill="url(#linearGradient4699)"/>
	<path d="m102.04 9.4861-55.037 2.1632c-1.8015 0.07092-3.6585 0.6453-4.9489 2.0465s-1.7126 3.2988-1.6419 5.0968l3.7117 94.341c0.0708 1.7985 0.64133 3.6544 2.0387 4.9489 1.3974 1.2946 3.296 1.7204 5.0968 1.6496l11.796-0.46689c1.7986-0.0709 3.6564-0.63927 4.9489-2.0387 1.2925-1.3994 1.7126-3.2989 1.6419-5.0968l-1.4318-36.378 28.519-1.1205c1.7986-0.07092 3.6564-0.63932 4.9489-2.0387 1.2925-1.3994 1.7126-3.2989 1.6419-5.0968l-0.31127-7.8669c-0.0708-1.7986-0.6393-3.6565-2.0387-4.9489-1.3994-1.2925-3.2989-1.7125-5.0968-1.6419l-28.511 1.1283-0.70032-17.726 36.378-1.4318c1.7985-0.07091 3.6543-0.64131 4.9489-2.0387 1.2946-1.3974 1.7205-3.296 1.6496-5.0967l-0.46688-11.796c-0.0708-1.7986-0.6393-3.6565-2.0387-4.9489-1.3994-1.2925-3.2989-1.7125-5.0968-1.6419z" fill="none" stroke="#fcf1b3" stroke-width=".5"/>
	<path d="m141.57 11.612c-1.8533 0.19169-3.7693 1.796-4.427 3.3593-0.65766 1.5633-0.68347 3.0051-0.58287 4.598a3.6914 3.6914 0 0 0 0.10481 0.6717l23.618 93.115a3.6914 3.6914 0 0 0 0.38747 0.95013c1.9528 3.358 5.5938 5.6345 9.4055 5.472a3.6914 3.6914 0 0 0 0.0777-5e-3l13.668-0.86317a3.6914 3.6914 0 0 0 0.0699-4e-3c3.8884-0.32061 7.346-2.9972 8.8831-6.6269a3.6914 3.6914 0 0 0 0.26486-0.99133l11.716-95.347a3.6914 3.6914 0 0 0 0.0195-0.67955c-0.10695-1.6935-0.42417-3.3386-1.5617-4.8523-1.1375-1.5137-3.2972-2.4278-5.0772-2.3693a3.6914 3.6914 0 0 0-0.1087 0.00687l-15.081 0.95243c-1.8852 0.11906-3.4185 1.1961-4.4359 2.3541s-1.7352 2.4911-2.402 4.0657a3.6914 3.6914 0 0 0-0.26584 0.97578l-3.4494 27.234-6.9966-26.59a3.6914 3.6914 0 0 0-0.40448-0.97245c-0.88206-1.4629-1.7699-2.6714-2.9065-3.6759-1.1365-1.0045-2.7476-1.9004-4.658-1.7798l-15.71 0.99215a3.6914 3.6914 0 0 0-0.14756 0.0093z" fill="none"/>
	<path d="m64.55 57.21 0.25617 3.6891-18.087 0.6465-0.27928-4.7078 17.874-0.59845 0.2182 0.55651z" fill="#f1010e" fill-rule="evenodd"/>
	<path d="m102.16 12.42-55.037 2.166c-2.6208 0.10313-3.8785 1.4652-3.7754 4.0859l3.7129 94.348c0.07494 1.904 0.82267 3.0786 2.2266 3.5449l-3.6973-98.168c-0.09415-1.7553 0.75448-2.161 3.2715-2.2559l56.205-2.082 0.65162-0.0206-0.19097-0.29851-0.32589-0.38596c-0.68197-0.67031-1.6904-0.9867-3.041-0.93359z" fill="#bb000f"/>
	<path d="m141.57 11.612c-1.8533 0.19169-3.7693 1.796-4.427 3.3593-0.65766 1.5633-0.68347 3.0051-0.58287 4.598a3.6914 3.6914 0 0 0 0.10481 0.6717l23.618 93.115a3.6914 3.6914 0 0 0 0.38747 0.95013c1.9528 3.358 5.5938 5.6345 9.4055 5.472a3.6914 3.6914 0 0 0 0.0777-5e-3l13.668-0.86317a3.6914 3.6914 0 0 0 0.0699-4e-3c3.8884-0.32061 7.346-2.9972 8.8831-6.6269a3.6914 3.6914 0 0 0 0.26486-0.99133l11.716-95.347a3.6914 3.6914 0 0 0 0.0195-0.67955c-0.10695-1.6935-0.42417-3.3386-1.5617-4.8523-1.1375-1.5137-3.2972-2.4278-5.0772-2.3693a3.6914 3.6914 0 0 0-0.1087 0.00687l-15.081 0.95243c-1.8852 0.11906-3.4185 1.1961-4.4359 2.3541s-1.7352 2.4911-2.402 4.0657a3.6914 3.6914 0 0 0-0.26584 0.97578l-3.4494 27.234-6.9966-26.59a3.6914 3.6914 0 0 0-0.40448-0.97245c-0.88206-1.4629-1.7699-2.6714-2.9065-3.6759-1.1365-1.0045-2.7476-1.9004-4.658-1.7798l-15.71 0.99215a3.6914 3.6914 0 0 0-0.14756 0.0093z" fill="#fad60b"/>
	<path d="m189.38 110.84q-1.7152 4.0504-5.7937 4.3868l-13.664 0.86291q-3.8528 0.16427-6.064-3.6379l-23.62-93.117q-0.243-3.8478 1.7152-4.0504l15.705-0.99184q1.8847-0.11902 4.1743 3.6784l11.828 44.981 5.8402-46.096q1.7152-4.0504 3.6784-4.1743l15.077-0.95217q2.5964-0.08532 2.8394 3.7627z" fill="url(#linearGradient4852)" style="font-variant-east_asian:normal"/>
	<g fill="#bb000f">
		<path d="m157.66 14.293-15.705 0.99219c-1.3055 0.13501-1.8768 1.4836-1.7148 4.0488l23.619 93.117c0.35197 0.60524 0.73574 1.1336 1.1509 1.5862l-23.656-95.149c-0.40615-2.018 0.53954-2.0996 1.2082-2.1739l17.43-1.1545c-0.54108-0.48836-0.57888-0.67095-1.1847-0.97045-0.36451-0.18021-0.71708-0.30138-1.1477-0.29618z"/>
		<g fill-rule="evenodd">
			<path d="m198.26 11.729-15.076 0.95312c-1.3088 0.08265-2.5342 1.4736-3.6777 4.1738l-5.8411 46.096 0.93598 0.0066 6.2645-46.115c0.29702-0.85992 1.2256-2.3205 2.0128-2.6069l17.716-1.0794c-0.29049-0.62101-1.0354-1.4709-2.3341-1.4283z"/>
			<path d="m238.81 11.496-5.1911 0.34123s-3.2956 0.59912-4.9144 1.0221c-0.81121 0.21193-1.6187 0.44963-2.3984 0.75781-2.2706 0.89742-4.5326 1.8747-6.6058 3.1644-2.6714 1.6619-5.0532 3.7604-7.4196 5.8336-0.2708 0.23725-0.53422 0.48484-0.77343 0.75391-3.4175 3.8442-6.2507 7.0676-8.9648 12.088-0.1137 0.21032-0.22185 0.42369-0.33398 0.63477l-5.1895 42.779c0.26403 1.2127 0.5536 2.4114 0.88868 3.5879l0.43945-2.9238 5.127-42.604c0.12882-1.3004 1.4894-3.2227 2.6059-4.9142 1.8338-2.7785 3.7293-5.6353 6.5855-8.1659 4.0905-4.1373 6.96-6.5829 12.441-8.7332 0.51587-0.20238 3.2194-1.1946 3.754-1.3702 0 0 1.4969-0.24364 2.2522-0.30014 6.2389-0.46676 18.766-0.3165 18.766-0.3165-0.20874-0.06679-0.23658-0.0822-1.5439-0.42441l-3.9539-0.81653z"/>
			<path d="m238.91 29.199c0.39641 0.04696 0.68479 0.25443 0.98021 0.58524 0.34493 0.38626 0.56098 0.69743 0.87917 1.3835l6.373 19.67h7.377l-5.5455-0.0054-7.2223-20.333c-0.35351-0.85896-0.75554-1.2093-1.1969-1.2838zm28.43 21.713c0.24458 0.15444 0.96875 0.59926 0.96875 0.87109 0 0.68194-0.6554 1.6788-1.9668 2.9902l-14.164 10.307 8.2637 25.1c0.41965 0.89173 0.62891 1.5491 0.62891 1.9688 0 0.41965-0.20926 0.62891-0.62891 0.62891-0.41964 0-1.077-0.20926-1.9688-0.62891l-19.67-16.604-19.672 16.604c-0.58986 0.27758-0.9223 0.41976-1.3056 0.51373l-0.70246 0.12781 1.2028 0.07024 2.2224-0.21042 18.362-15.236 2.2123 0.12943 17.437 14.7c2.1059 0.98644 3.8614 0.77228 3.3328-1.2899l-7.8943-25.424 13.779-10.443c0.88805-0.67305 2.8729-3.9785 0.81541-4.159z"/>
			<path d="m313.43 33.285c2.6154 0.37896 4.8749 1.561 6.7676 3.5684 2.2392 2.3749 3.3104 5.1886 3.2148 8.4395s-1.3302 5.9952-3.7051 8.2344-5.1886 3.3104-8.4395 3.2148l-11.76-0.32227-0.0513 0.88009 14.264 0.37182c2.4077-0.09312 10.844-2.7903 11.07-12.468 0.15501-6.6275-4.0838-11.722-11.361-11.919z"/>
			<path d="m317.81 73.609c-1.3334-0.72328-4.4591-0.90847-4.4591-0.90847 1.0546 0.39153 2.1167 0.6548 3.403 1.4984 0.71873 0.47138 1.781 1.3892 2.2904 2.0025 0.748 0.90045 1.5254 1.7525 2.0556 2.8108 0.47195 0.94219 0.84423 2.0004 1.0293 3.0829 0.14156 0.82789 0.15529 1.6608 0.12997 2.5217l-0.0586 1.9668-0.75 25.561c-0.0507 1.7256 0.49486 2.8885 1.6133 3.5117l0.87799-31.259c0.0672-2.394-0.98794-4.7832-2.2334-6.8288-0.96315-1.5819-2.2705-3.0758-3.8985-3.9589z"/>
			<path d="m357.74 13.242-11.789 0.55859c-2.6198 0.12421-3.8684 1.4954-3.7441 4.1152l0.45312 9.5645c2.8491 4.9904 4.2454 10.576 4.0703 16.529-0.1216 4.1353-1.0795 8.0021-2.7363 11.576 0.89563 18.732 1.8792 39.594 2.6855 56.645 0.0793 1.6718 0.67207 2.7796 1.7676 3.334l-2.9355-59.629s2.1027-3.2106 2.375-12.227-3.7012-16.5-3.7012-16.5l-0.44885-10.312c-0.0873-0.46846 0.93967-1.3803 1.6078-1.3672l15.949-0.72709c-0.61842-0.95259-1.7089-1.6484-3.5536-1.5609z"/>
			<path d="m498.97 77.894c3.0376 5.346 1.8309 11.653-2.8121 15.475-2.3786 1.8448-5.6801 2.8515-8.6719 2.5195l-4.6816-0.51953c-0.57053-0.06331-0.48154 1.1838 0.0906 1.2307l2.6799 0.21967c1.7613 0.14437 3.4952 0.40446 5.3011 0.08839 9.4641-1.5645 13.664-11.649 9.6547-18.638-0.93959-1.3516-3.6947-2.9428-3.6947-2.9428s1.7809 1.9609 2.134 2.5671z"/>
			<path d="m463.81 54.738c-0.28955-0.01146-0.59769-2.87e-4 -0.92382 0.0332l-31.283 3.2655 0.35132 2.1407 34.828-3.5742c-0.53251-1.1856-1.5221-1.8078-2.9727-1.8652z"/>
			<path d="m475.65 93.07c-0.28956-0.01146-0.5977-2.87e-4 -0.92383 0.0332l-38.881 3.9941 0.35742 2.0293 42.483-4.3242c-0.56177-0.96677-1.84-1.5481-3.0359-1.7324z"/>
		</g>
	</g>
</svg>
