<svg width="813.33" height="306.67" version="1.1" viewBox="0 0 813.33 306.67" xmlns="http://www.w3.org/2000/svg">
	<defs>
		<clipPath id="clipPath5908">
			<path d="m0 230h610v-230h-610z"/>
		</clipPath>
	</defs>
	<g transform="matrix(1.3333 0 0 -1.3333 0 306.67)">
		<path d="m260.52 76.402h-91.75v55h91.75z" fill="#cd8358"/>
		<g clip-path="url(#clipPath5908)">
			<g transform="translate(6.7748 199.65)">
				<path d="m0 0 167.25-57.25h86.5v35.25c0 20.5-23.75 49.25-45.875 49.25h-207.88z" fill="#cd8358"/>
			</g>
			<g transform="translate(157.77 65.402)">
				<path d="m0 0v74.107l-66.5 22.763v-109.62l-31-16v-32.273h122v61.023h-13.5z" fill="#cd8358"/>
			</g>
			<path d="m201.5 4.379h-12.206v61.023h12.206z" fill="#cd8358"/>
			<g transform="translate(234.16 65.402)">
				<path d="m0 0v-61.023h-10.699l-6.349 27.741v-27.741h-10.206v61.023h10.206l6.842-27.478v27.478z" fill="#cd8358"/>
			</g>
			<g transform="translate(255.19 26.165)">
				<path d="m0 0c-0.618 6.912-1.238 15.454-1.859 25.631-1.244-11.685-2.025-20.23-2.343-25.631zm6.469 39.237 6.98-61.023h-12.474l-0.655 10.968h-4.366l-0.734-10.968h-12.62l6.226 61.023z" fill="#cd8358"/>
			</g>
			<g transform="translate(283.92 65.402)">
				<path d="m0 0v-48.811h7.422v-12.212h-19.628v61.023z" fill="#cd8358"/>
			</g>
			<g transform="translate(318.97 31.894)">
				<path d="m0 0v-17.074c1.72 0.075 2.817 0.427 3.29 1.055 0.474 0.628 0.71 2.173 0.71 4.636v5.692c0 2.613-0.213 4.197-0.637 4.749-0.426 0.552-1.547 0.867-3.363 0.942m0 23.068v-13.569c0.521 0.024 0.928 0.038 1.217 0.038 1.199 0 1.962 0.383 2.291 1.149s0.492 2.959 0.492 6.577c0 1.91-0.135 3.248-0.405 4.015-0.272 0.766-0.623 1.25-1.059 1.45-0.434 0.202-1.28 0.315-2.536 0.34m-12.207 10.441h12.178c3.846 0 6.759-0.389 8.741-1.168 1.982-0.778 3.581-2.354 4.798-4.727 1.219-2.373 1.827-6.196 1.827-11.47 0-3.565-0.429-6.051-1.29-7.458-0.86-1.406-2.556-2.486-5.088-3.239 2.821-0.83 4.736-2.206 5.74-4.129 1.005-1.924 1.508-4.872 1.508-8.845v-5.656c0-4.124-0.362-7.179-1.087-9.165-0.725-1.987-1.88-3.344-3.465-4.074-1.585-0.729-4.832-1.093-9.742-1.093h-14.12z" fill="#cd8358"/>
			</g>
			<g transform="translate(368.31 65.402)">
				<path d="m0 0v-40.783c0-4.624-0.116-7.872-0.348-9.743-0.232-1.872-0.918-3.795-2.058-5.767-1.141-1.973-2.644-3.468-4.51-4.485-1.865-1.018-4.063-1.527-6.595-1.527-2.803 0-5.277 0.603-7.423 1.809-2.145 1.207-3.75 2.777-4.813 4.712s-1.691 3.976-1.885 6.124c-0.193 2.15-0.289 6.666-0.289 13.552v36.108h12.206v-45.758c0-2.664 0.111-4.366 0.333-5.107s0.672-1.112 1.349-1.112c0.773 0 1.271 0.408 1.493 1.225 0.223 0.816 0.333 2.745 0.333 5.786v44.966z" fill="#cd8358"/>
			</g>
			<g transform="translate(387.24 54.962)">
				<path d="m0 0v-13.569c1.372 0 2.334 0.245 2.885 0.735s0.825 2.079 0.825 4.768v3.355c0 1.934-0.264 3.203-0.796 3.807-0.532 0.603-1.503 0.904-2.914 0.904m-12.207 10.441h8.641c5.759 0 9.659-0.289 11.699-0.867s3.701-2.055 4.987-4.428c1.285-2.375 1.927-6.163 1.927-11.365 0-4.749-0.454-7.941-1.363-9.574-0.907-1.634-2.696-2.614-5.363-2.94 2.416-0.779 4.04-1.822 4.871-3.128 0.831-1.307 1.348-2.506 1.551-3.6 0.204-1.093 0.304-4.102 0.304-9.027v-16.095h-11.337v20.279c0 3.266-0.197 5.289-0.593 6.068-0.396 0.778-1.435 1.168-3.117 1.168v-27.515h-12.207z" fill="#cd8358"/>
			</g>
			<g transform="translate(436.27 65.402)">
				<path d="m0 0v-61.023h-10.698l-6.35 27.741v-27.741h-10.206v61.023h10.206l6.842-27.478v27.478z" fill="#cd8358"/>
			</g>
			<g transform="translate(468.26 26.165)">
				<path d="m0 0c-0.618 6.912-1.238 15.454-1.859 25.631-1.244-11.685-2.025-20.23-2.343-25.631zm6.469 39.237 6.98-61.023h-12.474l-0.655 10.968h-4.367l-0.734-10.968h-12.619l6.226 61.023z" fill="#cd8358"/>
			</g>
			<g transform="translate(496.99 65.402)">
				<path d="m0 0v-48.811h7.422v-12.212h-19.628v61.023z" fill="#cd8358"/>
			</g>
			<g transform="translate(521.58 54.962)">
				<path d="m0 0v-15.529c0.348-0.025 0.648-0.037 0.899-0.037 1.121 0 1.9 0.358 2.334 1.074 0.435 0.716 0.653 2.204 0.653 4.466v5.013c0 2.086-0.252 3.443-0.755 4.071-0.502 0.627-1.545 0.942-3.131 0.942m-12.206 10.441h12.293c3.325 0 5.881-0.34 7.669-1.017 1.788-0.679 3.131-1.659 4.031-2.941 0.898-1.281 1.507-2.833 1.826-4.655s0.479-4.642 0.479-8.461v-5.315c0-3.895-0.31-6.735-0.928-8.519-0.619-1.784-1.755-3.153-3.407-4.109-1.653-0.954-3.813-1.431-6.48-1.431h-3.277v-24.576h-12.206z" fill="#cd8358"/>
			</g>
			<g transform="translate(569.25 65.402)">
				<path d="m0 0v-61.023h-12.206v25.63h-3.654v-25.63h-12.206v61.023h12.206v-21.823h3.654v21.823z" fill="#cd8358"/>
			</g>
			<g transform="translate(589.78 26.165)">
				<path d="m0 0c-0.618 6.912-1.238 15.454-1.859 25.631-1.244-11.685-2.025-20.23-2.343-25.631zm6.469 39.237 6.98-61.023h-12.474l-0.655 10.968h-4.367l-0.734-10.968h-12.619l6.226 61.023z" fill="#cd8358"/>
			</g>
		</g>
	</g>
</svg>
