<svg width="567.15px" height="100.83px" version="1.2" viewBox="15.349 117.02 567.15 100.83" xmlns="http://www.w3.org/2000/svg">
	<g fill="#fff">
		<path d="m176.92 152.21c1.66 1.15 2.906 2.396 3.737 3.736 0.894 1.598 1.437 3.386 1.629 5.365v44.169c0 2.684-0.495 4.775-1.485 6.277-0.99 1.5-2.093 2.697-3.306 3.592-1.405 1.021-3.002 1.725-4.79 2.107h-29.798v-67.165h26.923c3.067 0.131 5.43 0.769 7.09 1.919zm2.108 8.91c-0.191-1.404-0.606-2.682-1.245-3.832-0.512-0.958-1.31-1.836-2.396-2.635s-2.556-1.134-4.407-1.007l-25.008 0.096v60.649h25.391c1.341-0.254 2.555-0.701 3.641-1.34 0.895-0.512 1.757-1.277 2.587-2.301 0.83-1.021 1.31-2.426 1.438-4.215v-45.415zm-14.084 3.881c0.574 0.543 1.021 1.134 1.341 1.772 0.319 0.703 0.511 1.501 0.575 2.395v27.786c0.063 1.598-0.08 2.828-0.432 3.689-0.352 0.863-0.782 1.484-1.293 1.867-0.575 0.512-1.214 0.799-1.916 0.863h-5.749l-0.191-39.379h5.174c1.086 0.129 1.916 0.464 2.491 1.007zm-1.15 4.167c-0.128-0.51-0.319-0.925-0.574-1.245-0.575-0.702-1.565-0.894-2.971-0.575v32.959c0.574 0.191 1.117 0.256 1.629 0.191 0.447-0.063 0.846-0.254 1.197-0.574 0.352-0.318 0.591-0.926 0.719-1.82v-28.936z"/>
		<path d="m205.09 150.58v66.685h-18.588v-66.685h18.588zm-3.258 3.832h-12.264v59.212h12.264v-59.212z"/>
		<path d="m229.52 172.43v-2.778c0.063-1.277-0.224-2.044-0.862-2.3-0.256-0.127-0.607-0.127-1.054 0-0.512 0-0.879 0.112-1.103 0.336s-0.367 0.495-0.431 0.814c-0.129 0.319-0.129 0.702 0 1.149v3.641l14.755 9.582c1.852 1.021 3.273 2.107 4.264 3.258s1.677 2.236 2.06 3.258c0.447 1.15 0.671 2.363 0.671 3.641v14.658c-0.128 2.109-0.671 3.818-1.629 5.127-0.958 1.311-2.044 2.316-3.258 3.018-1.405 0.83-2.97 1.438-4.694 1.82h-19.354c-2.428-0.064-4.328-0.67-5.701-1.82-1.373-1.148-2.379-2.363-3.018-3.641-0.767-1.533-1.246-3.258-1.438-5.174v-21.846l17.438 10.637v3.736c0 0.574 0.079 1.006 0.239 1.293 0.159 0.287 0.367 0.496 0.623 0.623 0.255 0.191 0.574 0.287 0.958 0.287 0.958-0.064 1.501-0.447 1.629-1.15 0.063-0.254 0.031-0.605-0.096-1.053v-4.408l-12.743-7.664c-2.236-1.213-3.913-2.508-5.03-3.881-1.118-1.373-1.933-2.604-2.443-3.689-0.575-1.277-0.862-2.555-0.862-3.832v-15.713c0.127-2.427 0.702-4.311 1.725-5.652 1.021-1.342 2.172-2.332 3.449-2.971 1.469-0.702 3.098-1.117 4.887-1.245h17.15c2.938 0.128 5.205 0.671 6.803 1.629 1.597 0.958 2.811 2.044 3.641 3.257 0.895 1.406 1.469 2.971 1.725 4.695v24.432l-18.301-12.074zm-1.534-8.335c1.021 0.128 1.805 0.367 2.348 0.719s0.974 0.75 1.293 1.197c0.319 0.512 0.543 1.086 0.671 1.725v2.778l12.456 7.473-0.192-16.383c0.063-1.66-0.304-3.018-1.102-4.072-0.799-1.054-1.677-1.868-2.635-2.443-1.15-0.702-2.46-1.149-3.929-1.342h-18.587c-1.47 0.129-2.62 0.528-3.45 1.198-0.83 0.671-1.469 1.357-1.916 2.06-0.512 0.895-0.862 1.854-1.054 2.875v15.521c-0.064 1.278 0.191 2.395 0.767 3.354 0.574 0.957 1.213 1.787 1.916 2.49 0.767 0.83 1.693 1.564 2.779 2.203l15.713 10.156v6.229c0 1.213-0.256 2.156-0.767 2.826-0.512 0.672-1.086 1.166-1.725 1.484-0.703 0.385-1.533 0.641-2.491 0.768-1.214-0.127-2.14-0.398-2.778-0.814-0.639-0.414-1.118-0.877-1.438-1.389-0.384-0.574-0.64-1.246-0.767-2.014v-3.064l-11.21-6.707-0.191 15.713c0.063 1.852 0.463 3.273 1.197 4.264s1.549 1.74 2.443 2.252c1.021 0.574 2.203 0.926 3.545 1.053h18.684c1.852-0.063 3.241-0.479 4.168-1.244 0.926-0.768 1.612-1.598 2.06-2.492 0.511-1.086 0.767-2.299 0.767-3.641v-14.277c0.063-0.768-0.128-1.533-0.575-2.301-0.447-0.766-0.958-1.436-1.532-2.012-0.703-0.703-1.47-1.373-2.3-2.012l-17.055-11.019v-7.09c0.063-1.086 0.367-1.884 0.91-2.395s1.102-0.895 1.677-1.15c0.704-0.254 1.47-0.413 2.3-0.477z"/>
		<path d="m288.92 175.69-6.898 7.951 6.898 8.432v25.199h-17.726v-18.588l-2.491-2.299v21.078h-17.917v-66.972h17.917v21.078l2.491-2.97v-18.108h17.726v25.199zm-3.067-21.367h-11.114l-0.096 16.001-9.007 9.198-0.383-25.582h-11.21v59.595h11.114v-24.721l8.719 8.24v16.576h11.785v-21.174l-7.569-8.816 7.761-9.005v-20.312z"/>
		<path d="m340.95 172.43v-2.778c0.064-1.277-0.223-2.044-0.861-2.3-0.256-0.127-0.607-0.127-1.055 0-0.512 0-0.879 0.112-1.102 0.336-0.225 0.224-0.367 0.495-0.432 0.814-0.129 0.319-0.129 0.702 0 1.149v3.641l14.756 9.582c1.852 1.021 3.273 2.107 4.264 3.258s1.676 2.236 2.059 3.258c0.447 1.15 0.672 2.363 0.672 3.641v14.658c-0.129 2.109-0.672 3.818-1.629 5.127-0.959 1.311-2.045 2.316-3.258 3.018-1.406 0.83-2.971 1.438-4.695 1.82h-19.354c-2.428-0.064-4.328-0.67-5.701-1.82-1.373-1.148-2.379-2.363-3.018-3.641-0.768-1.533-1.246-3.258-1.438-5.174v-21.846l17.438 10.637v3.736c0 0.574 0.08 1.006 0.24 1.293 0.158 0.287 0.367 0.496 0.623 0.623 0.254 0.191 0.574 0.287 0.957 0.287 0.959-0.064 1.502-0.447 1.629-1.15 0.064-0.254 0.031-0.605-0.096-1.053v-4.408l-12.742-7.664c-2.236-1.213-3.914-2.508-5.031-3.881s-1.932-2.604-2.443-3.689c-0.574-1.277-0.861-2.555-0.861-3.832v-15.713c0.127-2.427 0.701-4.311 1.725-5.652 1.021-1.342 2.172-2.332 3.449-2.971 1.469-0.702 3.098-1.117 4.887-1.245h17.15c2.938 0.128 5.205 0.671 6.803 1.629 1.596 0.958 2.811 2.044 3.641 3.257 0.895 1.406 1.469 2.971 1.725 4.695v24.432l-18.302-12.074zm-1.533-8.335c1.021 0.128 1.805 0.367 2.348 0.719s0.975 0.75 1.293 1.197c0.32 0.512 0.543 1.086 0.672 1.725v2.778l12.455 7.473-0.191-16.383c0.063-1.66-0.305-3.018-1.102-4.072-0.799-1.054-1.678-1.868-2.635-2.443-1.15-0.702-2.461-1.149-3.93-1.342h-18.586c-1.471 0.129-2.621 0.528-3.451 1.198-0.83 0.671-1.469 1.357-1.916 2.06-0.512 0.895-0.861 1.854-1.053 2.875v15.521c-0.064 1.278 0.191 2.395 0.766 3.354 0.574 0.957 1.213 1.787 1.916 2.49 0.768 0.83 1.693 1.564 2.779 2.203l15.713 10.156v6.229c0 1.213-0.256 2.156-0.766 2.826-0.512 0.672-1.086 1.166-1.725 1.484-0.703 0.385-1.533 0.641-2.492 0.768-1.213-0.127-2.139-0.398-2.777-0.814-0.639-0.414-1.119-0.877-1.438-1.389-0.385-0.574-0.641-1.246-0.768-2.014v-3.064l-11.209-6.707-0.191 15.713c0.063 1.852 0.463 3.273 1.197 4.264s1.549 1.74 2.443 2.252c1.021 0.574 2.203 0.926 3.545 1.053h18.684c1.852-0.063 3.24-0.479 4.168-1.244 0.926-0.768 1.611-1.598 2.059-2.492 0.512-1.086 0.768-2.299 0.768-3.641v-14.277c0.063-0.768-0.129-1.533-0.576-2.301-0.447-0.766-0.957-1.436-1.531-2.012-0.703-0.703-1.471-1.373-2.301-2.012l-17.055-11.019v-7.09c0.064-1.086 0.367-1.884 0.91-2.395s1.102-0.895 1.678-1.15c0.703-0.254 1.469-0.413 2.299-0.477z"/>
		<path d="m402.46 150.68v56.912c-0.064 2.236-0.527 4.01-1.389 5.318-0.863 1.311-1.836 2.316-2.922 3.018-1.215 0.768-2.619 1.311-4.217 1.629h-28.263v-16.287h18.012v-3.162h-12.264c-2.363-0.127-4.152-0.703-5.365-1.725-1.215-1.021-2.076-2.172-2.588-3.449-0.639-1.469-0.957-3.098-0.957-4.887v-37.367h18.396v30.564h3.162v-30.564h18.395zm-3.162 3.545h-11.592v26.158c-0.064 0.83-0.289 1.564-0.672 2.203-0.32 0.574-0.814 1.086-1.484 1.533-0.672 0.447-1.645 0.703-2.922 0.766-0.959 0.064-1.789-0.031-2.492-0.287-0.639-0.256-1.213-0.703-1.725-1.342s-0.799-1.66-0.861-3.066v-25.964h-11.211v34.013c0.064 1.277 0.352 2.428 0.863 3.449 0.447 0.895 1.133 1.709 2.059 2.443s2.283 1.102 4.072 1.102h14.277v4.982c-0.129 0.83-0.416 1.564-0.863 2.203-0.383 0.512-0.959 0.99-1.725 1.438-0.768 0.447-1.789 0.672-3.066 0.672h-12.838v9.484h24.432c1.086-0.127 2.045-0.445 2.875-0.957 0.701-0.447 1.355-1.117 1.963-2.012s0.91-2.109 0.91-3.643v-53.175z"/>
		<path d="m426.8 172.43v-2.778c0.063-1.277-0.225-2.044-0.863-2.3-0.256-0.127-0.607-0.127-1.053 0-0.512 0-0.879 0.112-1.104 0.336-0.223 0.224-0.367 0.495-0.43 0.814-0.129 0.319-0.129 0.702 0 1.149v3.641l14.754 9.582c1.852 1.021 3.273 2.107 4.264 3.258s1.678 2.236 2.061 3.258c0.447 1.15 0.67 2.363 0.67 3.641v14.658c-0.127 2.109-0.67 3.818-1.629 5.127-0.957 1.311-2.043 2.316-3.258 3.018-1.404 0.83-2.969 1.438-4.693 1.82h-19.355c-2.428-0.064-4.328-0.67-5.701-1.82-1.373-1.148-2.379-2.363-3.018-3.641-0.766-1.533-1.246-3.258-1.438-5.174v-21.846l17.439 10.637v3.736c0 0.574 0.078 1.006 0.238 1.293s0.367 0.496 0.623 0.623c0.256 0.191 0.574 0.287 0.959 0.287 0.957-0.064 1.5-0.447 1.629-1.15 0.063-0.254 0.031-0.605-0.096-1.053v-4.408l-12.744-7.664c-2.236-1.213-3.912-2.508-5.029-3.881-1.119-1.373-1.934-2.604-2.443-3.689-0.576-1.277-0.863-2.555-0.863-3.832v-15.713c0.127-2.427 0.703-4.311 1.725-5.652s2.172-2.332 3.449-2.971c1.469-0.702 3.098-1.117 4.887-1.245h17.15c2.938 0.128 5.205 0.671 6.803 1.629s2.811 2.044 3.641 3.257c0.895 1.406 1.469 2.971 1.725 4.695v24.432l-18.3-12.074zm-1.533-8.335c1.021 0.128 1.805 0.367 2.348 0.719s0.973 0.75 1.293 1.197c0.318 0.512 0.543 1.086 0.67 1.725v2.778l12.457 7.473-0.193-16.383c0.064-1.66-0.303-3.018-1.102-4.072s-1.676-1.868-2.635-2.443c-1.15-0.702-2.459-1.149-3.928-1.342h-18.588c-1.469 0.129-2.619 0.528-3.449 1.198-0.83 0.671-1.469 1.357-1.916 2.06-0.512 0.895-0.863 1.854-1.055 2.875v15.521c-0.064 1.278 0.191 2.395 0.768 3.354 0.574 0.957 1.213 1.787 1.916 2.49 0.766 0.83 1.693 1.564 2.779 2.203l15.713 10.156v6.229c0 1.213-0.256 2.156-0.768 2.826-0.512 0.672-1.086 1.166-1.725 1.484-0.703 0.385-1.533 0.641-2.49 0.768-1.215-0.127-2.141-0.398-2.779-0.814-0.639-0.414-1.117-0.877-1.438-1.389-0.383-0.574-0.639-1.246-0.766-2.014v-3.064l-11.211-6.707-0.191 15.713c0.064 1.852 0.463 3.273 1.197 4.264s1.549 1.74 2.443 2.252c1.021 0.574 2.203 0.926 3.545 1.053h18.684c1.852-0.063 3.242-0.479 4.168-1.244 0.926-0.768 1.613-1.598 2.061-2.492 0.51-1.086 0.766-2.299 0.766-3.641v-14.277c0.064-0.768-0.127-1.533-0.574-2.301-0.447-0.766-0.959-1.436-1.533-2.012-0.703-0.703-1.469-1.373-2.299-2.012l-17.055-11.019v-7.09c0.063-1.086 0.367-1.884 0.91-2.395s1.102-0.895 1.676-1.15c0.703-0.254 1.471-0.413 2.301-0.477z"/>
		<path d="m483.42 150.87v17.438h-8.24v49.152h-19.354v-49.152h-7.857v-17.82l35.451 0.382zm-3.736 3.449h-28.266v10.156h8.049v49.535h11.689v-49.248h8.527v-10.443z"/>
		<path d="m505.27 168.12v7.761h12.264v17.438h-12.646v7.377h12.646v17.055l-31.139-0.191v-67.068h31.521v17.629h-12.646zm-3.737 11.306v-14.851h12.646v-10.156h-24.24v60.554h24.24v-10.635h-12.838v-14.564h13.029v-10.348h-12.837z"/>
		<path d="m578.95 152.93c1.277 1.054 2.172 2.155 2.684 3.305 0.639 1.342 0.926 2.812 0.861 4.407v57.2h-18.205v-48.097c-0.064-0.702-0.318-1.149-0.766-1.341-0.256-0.064-0.512-0.097-0.768-0.097-0.383 0-0.686 0.097-0.91 0.288-0.223 0.191-0.398 0.383-0.525 0.574-0.193 0.256-0.289 0.512-0.289 0.767v47.714h-18.011v-47.619c0-0.702-0.256-1.245-0.766-1.628-0.256-0.191-0.512-0.319-0.768-0.384-0.447 0-0.799 0.097-1.055 0.288s-0.447 0.415-0.574 0.67c-0.191 0.256-0.287 0.575-0.287 0.958v47.427h-17.438v-66.781h22.324c1.404-0.128 2.635-0.017 3.688 0.335 1.055 0.352 1.965 0.783 2.732 1.294 0.83 0.575 1.596 1.246 2.299 2.012 0.383-0.702 0.861-1.261 1.438-1.677 0.574-0.415 1.148-0.75 1.725-1.006 0.639-0.256 1.309-0.479 2.012-0.671h15.043c2.425 0.321 4.279 1.008 5.556 2.062zm0.192 7.233c-0.064-1.086-0.318-2.044-0.766-2.874-0.385-0.703-1.039-1.357-1.965-1.965-0.926-0.606-2.221-0.91-3.881-0.91h-13.125c-1.023 0.064-1.98 0.319-2.875 0.767-0.768 0.384-1.549 0.959-2.348 1.725-0.799 0.767-1.422 1.789-1.869 3.066-0.512-1.213-1.117-2.268-1.82-3.162-0.703-0.766-1.564-1.469-2.586-2.107-1.023-0.639-2.365-0.927-4.025-0.862l-17.916 0.191v59.978h10.635v-44.457c-0.064-0.895 0.096-1.692 0.479-2.396 0.32-0.639 0.848-1.213 1.582-1.725 0.734-0.511 1.836-0.767 3.305-0.767 0.768 0 1.502 0.192 2.205 0.575 0.51 0.319 1.006 0.878 1.484 1.677s0.719 1.964 0.719 3.497v43.594h11.307v-44.457c0-0.766 0.191-1.501 0.574-2.204 0.318-0.574 0.83-1.102 1.533-1.58 0.701-0.479 1.756-0.719 3.162-0.719 0.766-0.063 1.5 0.032 2.203 0.287 0.574 0.256 1.102 0.703 1.58 1.342s0.719 1.661 0.719 3.065v44.265h11.689v-53.844z"/>
		<polygon points="143.1 117.02 154.83 117.02 154.83 121.11 147.21 121.11 147.21 126.07 154.83 126.07 154.83 130.29 147.21 130.29 147.21 139.1 143.1 139.1"/>
		<path d="m168.18 139.1h-3.997v-3.439h-7.742l-2.294 3.439h-4.707l15.485-22.086h3.255v22.086zm-3.997-7.612v-6.444l-4.729 6.444h4.729z"/>
		<polygon points="169.74 117.02 174.38 117.02 180.92 131.86 187.5 117.02 192.18 117.02 192.18 139.1 188.06 139.1 188.06 127.97 182.96 139.1 178.78 139.1 173.87 127.97 173.87 139.1 169.74 139.1"/>
		<polygon points="269.12 117.02 273.76 117.02 280.29 131.86 286.88 117.02 291.56 117.02 291.56 139.1 287.43 139.1 287.43 127.97 282.33 139.1 278.16 139.1 273.24 127.97 273.24 139.1 269.12 139.1"/>
		<rect x="193.48" y="117.02" width="4.271" height="22.086"/>
		<polygon points="198.93 117.02 203.2 117.02 203.2 135.08 208.76 135.08 208.76 139.1 198.93 139.1"/>
		<polygon points="204.02 117.02 208.76 117.02 213.25 126.07 217.61 117.02 222.31 117.02 215.24 131.07 215.24 139.1 211.1 139.1 211.1 131.07"/>
		<path d="m245.58 133.4" stroke="#231F20" stroke-width=".3451"/>
		<path d="m245.52 123.11c-1.875-3.573-5.621-6.011-9.937-6.011-6.194 0-11.216 5.021-11.216 11.216s5.021 11.215 11.216 11.215c4.346 0 8.115-2.472 9.977-6.087l-5.082 0.042c-1.253 1.155-2.927 1.861-4.766 1.861-3.884 0-7.031-3.148-7.031-7.032s3.147-7.031 7.031-7.031c1.813 0 3.466 0.686 4.712 1.813l5.096 0.014z"/>
		<path d="m256.62 139.59c-6.226 0-11.273-5.048-11.273-11.274s5.048-11.274 11.273-11.274c6.228 0 11.275 5.048 11.275 11.274 1e-3 6.227-5.047 11.274-11.275 11.274zm7.178-11.274c0-3.939-3.195-7.133-7.134-7.133s-7.133 3.194-7.133 7.133 3.193 7.133 7.133 7.133c3.939 0 7.134-3.194 7.134-7.133z"/>
		<path d="m300.35 117.02c3.737 0.3 6.677 3.429 6.677 7.244 0 3.814-2.939 6.943-6.677 7.243l-3.229-0.015v7.611h-4.141v-22.086h4.141l3.229 3e-3zm-3.228 4.248v5.991l3.229-3e-3c1.412-0.264 2.481-1.503 2.481-2.992 0-1.49-1.069-2.729-2.481-2.993l-3.229-3e-3z"/>
		<path d="m352.53 139.39h-4.099v-22.183l5.695-8e-3 3.228 2e-3c3.737 0.3 6.677 3.429 6.677 7.244 0 3.116-1.963 5.775-4.719 6.807l4.778 8.137h-4.485l-6.697-11.442h-0.378v11.443zm-2.545-0.105m4.142 0m3.229-11.848c1.412-0.264 2.481-1.504 2.481-2.992 0-1.49-1.069-2.729-2.481-2.993h-4.825v5.989l4.825-4e-3z"/>
		<path d="m318.43 125.64m-5.987 0m-0.015 4.142m0 0 3e-3 3.229c0.265 1.413 1.503 2.481 2.992 2.481s2.729-1.069 2.993-2.481l3e-3 -3.229 0.011-12.571h4.24v12.571l-4e-3 3.229c-0.3 3.738-3.428 6.676-7.243 6.676-3.814 0-6.942-2.938-7.243-6.676l0.015-3.229-7e-3 -12.571h4.256l-0.016 12.571z"/>
		<polygon points="326.9 139.39 331.09 139.39 331.09 121.39 334.84 121.39 334.84 117.21 323.28 117.21 323.28 121.39 326.9 121.39"/>
		<polygon points="347.35 139.39 335.86 139.39 335.86 117.21 347.35 117.21 347.35 121.27 339.98 121.27 339.98 126.54 347.35 126.54 347.35 130.68 339.98 130.68 339.98 135.29 347.35 135.29"/>
		<path d="m352.53 127.97" stroke="#231F20" stroke-width=".3451"/>
	</g>
	<path d="m71.735 203.85c6.338 0 11.477 5.137 11.477 11.475h30.341c4.949 0 8.961-4.012 8.961-8.959 0-4.068-2.712-7.506-6.426-8.6l-0.021-0.039v-9.313l0.045-0.097c5.534-2.48 9.388-8.038 9.388-14.495 0-6.424-3.816-11.959-9.306-14.458l-0.127-0.083v-29.32c0-5.644-4.575-10.219-10.218-10.219h-68.333c-5.644 0-10.219 4.575-10.219 10.219v29.32l-0.126 0.083c-5.49 2.499-9.307 8.034-9.307 14.458 0 6.457 3.854 12.015 9.388 14.495l0.045 0.097v9.313l-0.02 0.039c-3.714 1.094-6.426 4.531-6.426 8.6 0 4.947 4.013 8.959 8.961 8.959h30.341c0-6.338 5.138-11.475 11.477-11.475h0.105z" fill="#FDBC1C"/>
	<path d="m18.335 206.37c5e-3 -4.535 2.627-8.455 6.445-10.319v-6.157c-5.626-3.145-9.43-9.164-9.432-16.067 2e-3 -6.903 3.806-12.923 9.432-16.066v-27.795c3e-3 -7.034 5.701-12.733 12.734-12.734h68.333c7.034 1e-3 12.733 5.701 12.734 12.734v27.795c5.626 3.143 9.43 9.163 9.432 16.066-2e-3 6.903-3.805 12.923-9.432 16.067v6.157c3.819 1.864 6.442 5.784 6.445 10.319-1e-3 6.338-5.136 11.473-11.476 11.475h-32.854v-2.516c-9e-3 -4.947-4.013-8.951-8.96-8.961v-5.032c6.869 2e-3 12.58 4.951 13.765 11.479h28.052c3.558-8e-3 6.439-2.889 6.444-6.445 5e-3 -2.928-1.956-5.398-4.62-6.186l-1.042-0.307-0.783-1.545v-0.602c-1e-3 -2.812-1e-3 -5.879-1e-3 -9.314v-0.56l0.679-1.45 0.854-0.381c4.657-2.092 7.903-6.764 7.901-12.2 2e-3 -5.41-3.213-10.062-7.833-12.169l-0.183-0.083-1.418-0.937v-1.352-29.32c-8e-3 -4.254-3.449-7.695-7.703-7.704h-68.333c-4.254 8e-3 -7.695 3.45-7.703 7.704v29.32 1.352l-1.129 0.746-0.291 0.192-0.18 0.082c-4.621 2.108-7.835 6.76-7.833 12.169-3e-3 5.437 3.244 10.108 7.901 12.2l0.852 0.381 0.679 1.45v0.56 9.314 0.602l-0.784 1.545-1.042 0.307c-2.665 0.787-4.625 3.258-4.62 6.186 5e-3 3.557 2.886 6.438 6.445 6.445h28.051c1.187-6.527 6.897-11.477 13.767-11.479h0.105v5.032h-0.103c-4.949 0.01-8.952 4.014-8.961 8.961v2.516h-32.856c-6.339-3e-3 -11.476-5.137-11.478-11.475z"/>
	<path d="m27.297 208.67" fill="#EC1C4E"/>
	<path d="m31.96 155.33c1e-3 -10.448 8.47-18.916 18.918-18.917 10.448 1e-3 18.917 8.469 18.917 18.917-1e-3 10.448-8.47 18.916-18.917 18.916s-18.916-8.468-18.918-18.916zm3.145 0c0.015 8.712 7.062 15.757 15.773 15.772 8.711-0.015 15.758-7.061 15.773-15.772-0.016-8.71-7.063-15.757-15.773-15.773-8.711 0.016-15.758 7.063-15.773 15.773z"/>
	<circle cx="63.089" cy="155.38" r="4.402"/>
	<path d="m73.569 155.33c0-10.448 8.469-18.916 18.917-18.917 10.447 1e-3 18.916 8.469 18.917 18.917-1e-3 10.448-8.47 18.916-18.917 18.916-10.448 0-18.917-8.468-18.917-18.916zm18.917 15.773c8.71-0.015 15.757-7.061 15.772-15.772-0.016-8.71-7.062-15.757-15.772-15.773-8.71 0.016-15.759 7.063-15.774 15.773 0.016 8.711 7.064 15.756 15.774 15.772z"/>
	<circle cx="80.276" cy="155.38" r="4.402"/>
</svg>
