<svg width="560.65" height="60.92" version="1.2" viewBox="0 0 560.65 60.92" xmlns="http://www.w3.org/2000/svg">
	<g transform="matrix(1.9134 0 0 1.9134 -20.358 -18.942)" fill="#d70000">
		<g transform="translate(-473.24 -349.43)">
			<g fill="#d70000">
				<path d="m508.87 368.86c-2.0075-2.8462-5.3188-4.7025-9.065-4.7025-6.1312 0-11.096 4.9675-11.096 11.095 0 6.1262 4.965 11.094 11.096 11.094 4.4475 0 8.285-2.6212 10.056-6.4012h-9.7938v-5.045h15.641c5e-3 0.11875 9e-3 0.235 9e-3 0.3525 0 1.6312-0.24375 3.2088-0.70125 4.6925-2.0012 6.4988-8.0537 11.229-15.211 11.229-8.7912 0-15.919-7.1312-15.919-15.921 0-8.7925 7.1275-15.918 15.919-15.918 6.515 0 12.112 3.9188 14.576 9.525h-5.5112z"/>
				<path d="m532.6 359.65v1e-3l-20.112 30.288h6.2262l4.2962-6.4688h9.59v6.4812h5.1875v-30.301h-5.1875zm-6.1462 18.631 6.1462-9.2525v9.2525h-6.1462z"/>
				<path d="m578.41 359.65v1e-3l-13.87 20.879v-20.88h-5.1875v1e-3l-20.114 30.288h6.2325l13.881-20.91v20.922h5.1875v-0.0362l13.87-20.886v20.922h5.1862v-30.301h-5.1862z"/>
				<path d="m603.55 364.84v-5.1888h-15.758v30.309l5.1862-0.02h10.571v-5.1888h-10.571v-7.0625h10.571v-5.1862h-10.571v-7.6625h10.571z"/>
			</g>
		</g>
		<path d="m163.33 30.547c1.6625-3.7425 4.16-9.3688 4.16-9.3688h-5.0888l-2.6788 6.0388-3.9888-3.6838c1.8262-1.4675 3.43-3.3238 3.43-6.42 0-1.6612-0.6575-3.2312-1.8412-4.4212-1.355-1.3512-3.2612-2.1262-5.2375-2.1262-3.4238 0-6.9688 2.4488-6.9688 6.5475 0 2.855 1.5725 4.7 3.1338 6.0662-2.8912 2.0475-5.4088 4.2275-5.4088 8.7238 0 2.5512 0.92375 4.8725 2.5988 6.5475 1.6888 1.6912 4.0475 2.6225 6.645 2.6225 4.9175 0 7.3575-2.38 9.2262-6.06l6.0325 5.5762 3.16-3.415-7.1738-6.6275zm-13.074-14.619c0.43875-0.44 1.1425-0.71 1.8288-0.71 0.73125 0 1.475 0.2925 1.9462 0.7625 0.32625 0.325 0.485 0.69375 0.485 1.1325 0 1.3062-0.62625 2.0175-2.3375 3.2825-1.4962-1.1975-2.4112-2.0325-2.4112-3.2825 0-0.465 0.16-0.855 0.48875-1.185m7.3788 15.988c-1.605 3.5762-2.745 4.5025-5.55 4.5025-1.3775 0-2.535-0.43625-3.3575-1.2525-0.80875-0.81125-1.2338-1.9388-1.2338-3.2625 0-2.445 1.2562-3.4138 4.35-5.5575 0.0163-0.01 0.0338-0.0238 0.045-0.0338l5.8388 5.3938-0.0925 0.21z"/>
		<g transform="translate(-473.24 -346.61)">
			<path d="m702.97 357.57-20.111 30.289h6.2262l4.2962-6.4675h9.5888v6.4825h5.19v-30.304h-5.19zm-6.1462 18.635 6.1462-9.2512v9.2512h-6.1462z"/>
			<path d="m660.54 387.87v-1e-3l13.864-20.885v20.886h5.1875v-1e-3l20.114-30.289h-6.2288l-13.885 20.906v-20.92h-5.1875v0.04l-13.864 20.88v-20.92h-5.19v30.304h5.19z"/>
			<path d="m771.71 357.57v12.2h-9.3662v-12.2h-5.1862v30.299h5.1862v-12.908h9.3662v12.908h5.1888v-30.299h-5.1888z"/>
			<path d="m727.12 357.57h-16.932v5.1862h5.8738v25.112h5.1888v-25.112h5.87v-5.1862z"/>
			<path d="m749.82 379.7c-1.9925 2.2138-4.8738 3.6025-8.0862 3.6025-6.0125 0-10.885-4.8712-10.885-10.879 0-6.01 4.8725-10.881 10.885-10.881 3.1612 0 6.01 1.4212 7.995 3.605h6.0775c-2.6562-5.0525-7.9625-8.6225-14.072-8.6225-8.78 0-15.898 7.1188-15.898 15.899 0 8.7788 7.1175 15.901 15.898 15.901 6.1538 0 11.489-3.51 14.131-8.625h-6.045z"/>
		</g>
	</g>
</svg>
