<svg id="Layer_2_1_" width="149.51" height="125.49" enable-background="new 0 0 566.929 129.21" version="1.1" viewBox="0 0 149.51 125.49" xmlns="http://www.w3.org/2000/svg">
	<g id="Layer_2_2_" transform="translate(-207.95 -.961)" fill="#fff">
		<g fill="#fff">
			<path d="m291.88 68.978 4.205-9.665-5.256-0.042-2.709 6.27-4.288-3.842c3.194-3.114 3.6-3.842 3.76-6.835 0.162-2.992-2.547-6.672-7.603-6.672-5.055 0-7.076 4.165-7.076 6.916 0 2.75 1.496 4.447 3.356 6.227-3.114 2.063-5.581 3.962-5.581 9.988 0 4.61 4.084 8.654 9.907 8.654s8.331-4.65 9.098-6.309c1.941 1.777 6.35 5.781 6.35 5.781l3.194-3.518zm-11.645-16.014c1.227 0 2.507 0.701 2.507 2.225 0 1.778-2.467 3.234-2.467 3.234-2.035-1.685-2.547-1.981-2.547-3.437 0-1.457 1.388-2.022 2.507-2.022zm0.323 22.241c-1.941 0-5.176-0.564-5.176-4.164s1.375-4.389 4.569-6.471c0 0 5.054 4.569 6.146 5.499-1.535 4.327-3.597 5.136-5.539 5.136z" fill="#fff"/>
		</g>
		<polygon points="303.85 11.42 303.85 33.203 318.51 11.474 323.8 11.474 323.8 42.962 318.51 42.962 318.51 21.179 303.85 43.07 298.62 43.07 298.62 21.072 284.06 42.962 277.7 42.962 298.67 11.42"/>
		<polygon points="344.55 11.474 344.55 16.812 333.66 16.812 333.66 24.846 344.55 24.846 344.55 30.238 333.61 30.238 333.61 37.678 344.5 37.678 344.5 43.016 328.33 43.016 328.33 11.474"/>
		<g fill="#fff">
			<path d="m270.8 11.474-20.974 31.65h6.471l4.475-6.902h10.137v6.902h5.229v-31.65zm0.054 19.303h-6.416l6.416-9.651z" fill="#fff"/>
		</g>
		<g fill="#fff">
			<path d="m270.31 83.774-20.974 31.649h6.47l4.475-6.901h10.137v6.901h5.23v-31.649zm0.054 19.304h-6.416l6.416-9.652z" fill="#fff"/>
		</g>
		<g fill="#fff">
			<path d="m253.34 27.68h-16.509v5.146l10.705 0.048c-1.858 4.143-6.019 7.029-10.854 7.029-6.566 0-11.889-5.323-11.889-11.889s5.323-11.889 11.889-11.889c4.078 0 7.675 2.053 9.817 5.181l5.436-5e-3c-2.582-5.857-8.439-9.947-15.252-9.947-9.201 0-16.661 7.459-16.661 16.661s7.459 16.661 16.661 16.661 16.661-7.459 16.661-16.661c-1e-3 -0.113-2e-3 -0.224-4e-3 -0.335z" fill="#fff"/>
		</g>
		<rect x="236.83" y="27.649" width="16.795" height="5.257"/>
		<rect x="240.95" y="21.341" width="16.283" height="3.316"/>
		<g fill="#fff">
			<path d="m318.92 106.93c-2.096 2.429-5.197 3.966-8.656 3.966-6.313 0-11.432-5.117-11.432-11.432 0-6.313 5.117-11.43 11.432-11.43 3.324 0 6.316 1.42 8.404 3.686l6.119-2e-3c-2.779-5.238-8.289-8.805-14.633-8.805-9.142 0-16.552 7.41-16.552 16.551 0 9.144 7.41 16.554 16.552 16.554 6.459 0 12.053-3.698 14.779-9.091z" fill="#fff"/>
		</g>
		<polygon points="225.72 115.48 240.12 93.916 240.12 115.43 245.62 115.43 266.43 83.939 259.9 83.939 245.56 105.72 245.56 83.994 240.17 83.994 225.72 105.78 225.72 83.884 220.27 83.884 220.27 115.48"/>
		<polygon points="295 89.169 288.91 89.169 288.91 115.32 283.52 115.32 283.52 89.223 277.48 89.223 277.54 83.833 295 83.833"/>
		<polygon points="331.78 115.48 331.78 102.06 341.54 102.06 341.54 115.38 346.98 115.38 346.98 83.939 341.64 83.939 341.64 96.666 331.78 96.666 331.78 83.939 326.44 83.884 326.44 115.48"/>
		<g fill="#fff">
			<path d="m347.89 1.961h-130.37c-4.734 0-8.573 3.838-8.573 8.573v106.35c0 4.734 3.838 8.572 8.573 8.572h130.37c4.734 0 8.572-3.838 8.572-8.572v-106.35c0-4.734-3.837-8.573-8.572-8.573zm7.039 114.69c0 4.109-3.332 7.441-7.439 7.441h-129.56c-4.109 0-7.441-3.332-7.441-7.441v-105.89c0-4.109 3.332-7.441 7.441-7.441h129.56c4.107 0 7.439 3.332 7.439 7.441z" fill="#fff"/>
		</g>
	</g>
</svg>
