<svg width="571.42" height="69.928" enable-background="new 0 0 566.93 65.438" version="1.1" viewBox="0 0 571.42 69.928" xmlns="http://www.w3.org/2000/svg">
	<path d="m439.29 28.605c-1.192-3.612-4.341-7.049-4.341-7.049s-4.731-6.146-14.024-8.242c-7.956-1.664-14.208 1.845-14.208 1.845s-5.677 2.275-9.943 6.978c-6.796 6.542-8.749 16.088-8.749 16.088s-2.604 8.314 1.521 14.896l4.482 5.422c6.326 5.279 13.087 5.819 13.087 5.819s5.46 1.229 11.824-0.434c5.563-1.122 9.614-3.869 9.614-3.869s9.222-5.097 11.749-15.509zm-14.357 17.317s-3.686 6.437-11.782 5.675c-9.51-0.975-10.628-9.325-10.628-9.325s-1.305-6.146 4.553-11.498c5.931-4.987 12.113-4.229 12.113-4.229s4.154 0.397 6.292 7.268c2.744 8.747-0.548 12.109-0.548 12.109" fill="#2d288b"/>
	<path d="m470.02 46.033c-3.044-0.672-7.917 0.575-7.917 0.575s-6.796 2.493-7.845 2.458c-0.396-0.577-1.263-11.677-1.012-16.123 0.146-7.846-0.509-14.243-0.509-14.243s-0.323-7.558-4.373-12.039c-4.771-4.811-8.101-2.747-10.016-1.593-4.591 4.122-2.457 9.146-2.457 9.146l2.389 6.762s1.155 2.894 1.012 7.628l1.012 15.944c0 2.133 1.737 16.484 1.737 16.484s0.176 4.665 4.661 5.496c4.593 0.759 9.109-1.52 11.025-2.423 1.917-0.901 4.447-1.697 4.447-1.697s2.098-0.471 4.194-0.65c4.916-0.472 6.688-1.338 6.688-1.338s1.901-0.286 3.184-2.099c1.278-1.81 2.826-10.302-6.22-12.288" fill="#639d01"/>
	<path d="m389.55 53.118c-3.229-0.969-6.938-0.327-6.938-0.327s-10.485 1.011-15.945-0.146c-8.457-1.48-8.174-10.592-8.174-10.592s-0.283-6.039 4.813-14.208c6.289-10.088 13.23-11.895 13.23-11.895s1.733-0.649 3.36 0.217c1.013 5.854 6.688 5.818 6.688 5.818s8.171 0.545 7.771-9.359c-0.938-8.138-8.782-9.257-12.074-10.018-9.864-1.771-16.269 3.508-16.269 3.508s-6.614 3.578-14.531 16.051c-5.391 7.735-6.04 13.811-6.04 13.811s-0.649 1.446-0.396 7.883c-0.145 5.023 1.737 8.676 1.737 8.676s2.854 8.645 11.891 12.187c5.497 2.276 13.525 2.241 13.525 2.241s7.771-0.108 13.733-0.435c3.255 0.252 4.812-1.447 4.812-1.447s3.648-2.385 3.289-6.543c0 0-0.708-4.295-4.482-5.422" fill="#94012c"/>
	<g fill="#fff">
		<path d="m155.03 64.734h-11.956l-1.598-36.012-15.545 36.012h-7.975l-6.642-32.557-10.367 32.557h-20.331l-3.057-17.403h-13.822l-7.84 17.403h-12.495l25.652-58.2h14.749l7.839 47.04 15.285-47.041h11.823l5.848 31.893 13.56-31.893h14.351zm-79.273-28.707-2.189-11.29-5.049 11.29h7.238"/>
		<path d="m189.32 64.734 1.998-12.488h-20.866l1.654-10.365h18.148l1.994-12.495h-18.341l1.594-10.366h20.861l1.995-12.486h-33.087l-9.305 58.2h33.355"/>
		<path d="m344.66 6.5332h-13.954l-11.827 19-7.438-19h-13.688l14.084 30.692-4.339 27.508h11.963l3.671-24.315 21.528-33.885"/>
		<path d="m255.55 30.628c3.714-16.093 17.469-26.654 30.717-23.591 13.256 3.063 20.989 18.586 17.278 34.679-3.714 16.089-17.467 26.652-30.721 23.589-13.253-3.063-20.985-18.59-17.274-34.677zm18.099 23.023c6.327 2.83 14.078-2.721 17.302-12.398 3.223-9.685 0.714-19.828-5.614-22.659-6.328-2.832-14.069 2.722-17.298 12.404-3.227 9.683-0.713 19.821 5.61 22.653"/>
		<path d="m226.84 19.123h7.786c8.439 0 6.727 10.812-1.316 10.812h-8.313zm-3.689 22.679h10.021c9.499 0 9.233 11.605-1.317 11.605h-10.55zm-6.595-34.949-9.229 57.767h26.903c11.076 0 27.276-16.326 12.531-29.672 15.162-15.692 0.126-27.955-7.916-28.095-6.461-0.104-22.416 0-22.416 0h0.127"/>
		<path d="m17.893 11.714c-11.396 7.053-16.876 17.803-15.417 32.422 1.697 16.957 23.656 27.64 42.259 16.879 1.629-0.94 0.992-0.792 1.595-1.331l3.723-23.656h-22.194l-1.702 10.897h9.276l-1.065 5.85c-5.314 2.125-14.352 1.327-18.204-5.582-2.44-4.376-4.703-14.142 5.583-23.124 8.369-7.309 22.856-8.633 31.23-4.78 0 0 1.062-6.111 1.857-11.829-16.078-5.58-28.571-0.927-36.941 4.254"/>
	</g>
	<path d="m520.89 26.689c-6.325-10.339-17.46-11.894-17.46-11.894s-3.543-1.194-11.133-0.183c-14.246 2.713-19.2 13.667-19.2 13.667s-5.099 8.024-3.074 17.75l6.224 12.292c4.59 4.302 6.469 4.302 6.757 4.558 6.076 2.747 13.125 1.156 13.125 1.156s8.895-0.867 17.029-7.194c6.506-4.771 9.326-11.786 9.326-11.786l0.863-9.41zm-17.316 21.113c-10.231 6.146-16.668-0.579-16.668-0.579s-2.855-1.88-3.47-7.593c-0.438-6.615 6.146-10.05 6.146-10.05s3.471-2.134 7.81-1.808c4.339 0.324 5.708 0.035 9.219 2.64 3.324 3.002 3.107 5.206 3.107 5.206s1.195 7.449-6.144 12.184" fill="#c8a601"/>
	<path d="m522.48 45.055s0.218 5.783-0.688 7.194c-1.229 2.639-1.047 5.206-1.047 5.206s-0.835 7.809 8.209 9.107c6.214-0.035 6.971-5.206 7.081-7.411 0.36-1.732 0.217-9.798 0.217-9.798l8.063 6.581s5.856 4.917 9.295 7.772c3.581 2.818 4.479 3.325 4.479 3.325s0.763 0.901 3.506 0.577c2.211 0.038 4.234-1.952 4.234-1.952s2.563-1.875 3.214-5.167c0.795-3.905-2.24-5.821-2.24-5.821s-11.205-9.039-18.798-15.258c5.097-2.783 7.556-4.699 7.556-4.699s7.088-4.698 8.604-11.896c2.099-7.918-3.867-11.024-3.867-11.024s-3.726-2.676-6.87-4.087c-7.92-3.868-15.293-3.073-15.293-3.073s-10.483-0.722-17.316 7.703c-3.144 4.083-1.19 9.436-1.19 9.436s0.388 0.857 1.263 4.916c1.753 8.167 1.588 18.369 1.588 18.369zm13.738-16.053-0.688-9.435s6.614-0.146 9.363 0.324c5.426 0.831 5.134 2.352 5.134 2.352s-0.181 1.915-4.303 3.796c-4.48 2.17-9.506 2.963-9.506 2.963" fill="#00766a"/>
</svg>
