<svg width="946.67" height="226.67" version="1.1" viewBox="0 0 946.67 226.67" xmlns="http://www.w3.org/2000/svg">
	<defs>
		<clipPath id="clipPath4538">
			<path d="m0 170h710v-170h-710z"/>
		</clipPath>
	</defs>
	<g transform="matrix(1.3333 0 0 -1.3333 0 226.67)" fill="#fff">
		<g transform="translate(696.11 33.724)">
			<path d="m0 0-41.94-24.292h-598.35l-41.936 24.292v53.768l39.448 22.84h194.12l35.088 50.244h141.39l35.5-50.244h197.03l39.648-23.048zm-37.368 84.912h-195.16l-35.088 50.244h-150.1l-35.296-50.244h-192.04l-47.544-27.404v-61.252l50.036-28.86h603.12l49.828 28.86v61.044z" fill="#fff"/>
		</g>
		<g clip-path="url(#clipPath4538)" fill="#fff">
			<g transform="translate(327.21 122.53)">
				<path d="m0 0c0-2.632 2.144-4.716 4.716-4.688h19.26v5.864h-18.088v1.644h14.252v5.836h-20.112z" fill="#fff"/>
			</g>
			<g transform="translate(327.23 141.86)">
				<path d="m0 0c0 2.424 2.088 4.676 4.688 4.664h19.26v-5.836h-18.088v-1.644h14.252v-5.916h-20.14z" fill="#fff"/>
			</g>
			<g transform="translate(455.9 66.732)">
				<path d="m0 0h61.04v-24.292l-21.796-14.74h-67.376l22.32 14.952h39.444v9.132h-61.04v23.776l22.532 15.256h67.268l-22.22-14.944h-40.172z" fill="#fff"/>
			</g>
			<g transform="translate(525.46 90.816)">
				<path d="m0 0h27.404v-63.116h-27.404z" fill="#fff"/>
			</g>
			<g transform="translate(590.85 66.732)">
				<path d="m0 0h61.04v-24.292l-21.804-14.74h-67.368l22.32 14.952h39.448v9.132h-61.04v23.776l22.524 15.256h67.272l-22.22-14.944h-40.172z" fill="#fff"/>
			</g>
			<g transform="translate(369.12 42.652)">
				<path d="m0 0v9.132h26.256l22.32 14.948h-48.576v9.14h39.544l22.22 14.944h-65.296l-23.876-14.64v-48.476h66.44l22.42 14.952z" fill="#fff"/>
			</g>
			<g transform="translate(177.28 42.652)">
				<path d="m0 0v9.132h26.264l22.316 14.948h-48.58v9.14h39.548l22.216 14.944h-65.296l-23.872-14.64v-48.476h66.436l22.424 14.952z" fill="#fff"/>
			</g>
			<g transform="translate(306.63 48.668)">
				<path d="m0 0-34.048 21.18v-42.148h-27.408v63.116h27.82l33.636-18.476v18.476h27.408v-63.116h-27.408z" fill="#fff"/>
			</g>
			<g transform="translate(81.362 75.872)">
				<path d="m0 0v-33.22h34.048v9.132h-27.82l22.216 14.948h33.012v-24.916l-20.972-14.116h-67.888v47.748l22.732 15.368h74.328l-22.112-14.944z" fill="#fff"/>
			</g>
			<g transform="translate(331.23 154.4)">
				<path d="m0 0c-6.536 0-11.84-5.3-11.84-11.836v-20.72c0-6.536 5.304-11.836 11.84-11.836h19.952v5.836h-19.456c-3.432 0-6.476 3.252-6.476 6.684v19.36c0 3.432 3.044 6.604 6.476 6.604h19.456v5.916h-19.952z" fill="#fff"/>
			</g>
			<g transform="translate(369.01 123.54)">
				<path d="m0 0v17.148h19.024v5.836h-20.092c-2.6 0.012-4.688-2.24-4.688-4.664l-0.024-19.336c0-2.632 2.14-4.716 4.712-4.688h12.256l-0.032 13.448h-9.22v-5.784h3.408v-1.956h-5.344z" fill="#fff"/>
			</g>
			<g transform="translate(313.75 154.45)">
				<path d="m0 0h-19.116c-8.052 0-14.584-6.528-14.584-14.58 0-8.056 6.532-14.428 14.584-14.36h5.824v-1.968h-20.28v-5.708h19.62c3.688 0 6.68 2.992 6.68 6.676 0 3.688-2.992 6.628-6.68 6.628l-5.084 0.02c-4.784 0-8.664 3.88-8.664 8.664s3.876 8.664 8.664 8.664h19.048z" fill="#fff"/>
			</g>
			<g transform="translate(313.75 140.85)">
				<path d="m0 0h-19.868v-1.956l5.96-0.012c8.056 0 14.584-6.372 14.584-14.424 0-8.056-6.528-14.444-14.584-14.444l-19.664 0.04v5.804h19.62c4.784 0 8.664 3.876 8.664 8.66s-3.88 8.612-8.664 8.612l-5.084 0.02c-3.688 0-6.68 2.992-6.68 6.68s2.992 6.68 6.68 6.68h19.048z" fill="#fff"/>
			</g>
			<g transform="translate(410.26 147.53)">
				<path d="m0 0c-0.236 0.556-0.32 0.688-0.96 0.688s-0.796-0.332-1.04-0.888l-12.116-37.324 6.376-8e-3 6.852 20.692 2.256-6.988h-4.524v-5.888h12.876z" fill="#fff"/>
			</g>
			<g transform="translate(367.25 110)">
				<path d="m0 0c-6.536 0-11.84 5.3-11.84 11.836v20.72c0 6.536 5.304 11.836 11.84 11.836h20.78v-5.916h-20.28c-3.436 0-6.48-3.172-6.48-6.604v-19.36c0-3.432 3.04-6.684 6.48-6.684h14.368v17.404h-11.172v5.812h17.108v-27.68l12.188 37.712c1.312 3.736 4.868 6.416 9.056 6.416 4.272 0 7.9-2.796 9.132-6.664l12.656-38.832h-23.984v5.836h15.58l-10.564 32.388c-0.616 1.78-1.72 1.992-2.82 1.992-1.148 0-2.212-0.472-2.812-2.1l-12.4-38.116h-26.836z" fill="#fff"/>
			</g>
		</g>
	</g>
</svg>
