<svg width="397.33" height="103.71" version="1.1" viewBox="0 0 105.13 27.439" xmlns="http://www.w3.org/2000/svg">
	<g transform="translate(-10.548 -271.94)">
		<g transform="matrix(.15111 0 0 .15111 519.93 300.97)">
			<g aria-label="Last Played">
				<path transform="scale(.26458)" d="m-10208-726.01c-37.492-0.97449-67.985 96.281-45.817 50.295-16.362 37.588-52.261 124.39-35.848 85.234-5.1 12.919-10.45 26.09-15.808 39.27-2.292-0.16599-4.574-0.4082-6.887-0.4082-22.212 0-44.089 5.1195-64.773 14.918-21.654 9.8016-41.94 25.977-61.721 47.688a22.652 22.652 0 0 0-0.07 0.0723c-13.238 14.655-24.532 29.267-33.84 43.936-5.298 8.099-8.899 15.243-12.219 21.715-5.294 4.4426-10.416 8.6318-15.039 11.971-9.728 7.0256-19.056 13.012-28.037 18.186 5.475-4.0875 10.443-8.3127 14.89-12.76a22.652 22.652 0 0 0 0.969-1.0312c7.913-8.9683 14.74-18.958 20.451-29.814 7.222-13.278 10.801-28.314 10.801-43.752 0-17.079-5.385-34.22-17.724-45.93-9.981-9.8322-23.313-15.593-37.297-17.615-3.35-4.7014-7.585-8.8638-12.457-12.117-8.553-6.2071-18.551-8.2578-27.883-8.2578-11.899 0-23.396 3.7925-33.711 9.8594a22.652 22.652 0 0 0 0 2e-3c-8.922 5.248-17.46 11.475-25.611 18.604-7.749 6.7204-14.933 14.18-21.547 22.32-5.909 6.8402-10.685 12.753-14.449 18.129a22.652 22.652 0 0 0-0.11 0.1582c-3.235 4.7052-6.23 9.4633-9.178 14.23 0.668-2.3638 1.403-4.7455 1.909-7.0684 1.97-7.499 3.295-14.105 3.295-21.268 0-8.2597-2.24-16.637-6.213-23.789a22.652 22.652 0 0 0 0-4e-3c-2.696-4.8512-6.046-9.2775-9.762-13.357-3.605-4.8078-8.008-9.1515-13.27-12.611-4.42-3.6826-9.78-7.9004-20.337-7.9004-9.025 0-19.192 2.9682-26.784 9.4375-3.414 2.8582-6.915 6.131-10.775 9.9922a22.652 22.652 0 0 0-1.791 2.0195c-5.274 6.7115-9.726 12.859-13.42 18.662a22.652 22.652 0 0 0 0 2e-3c-3.309 5.2003-6.603 10.613-9.883 16.236-4.404 7.5491-7.534 15.834-8.363 24.738-0.645 6.5375-0.408 13.192 1.238 19.775l-0.136-0.58008c0.127 0.57211 0.291 1.9371-0.174 4.498 0 9e-3 -1.788 5.5082-6.073 12.908-8.258 14.097-15.587 26.036-22.087 36.195 0.305-3.0117 0.611-5.9069 0.918-8.9688 1.33-9.3699 2.472-18.384 3.376-26.979a22.652 22.652 0 0 0 0.01-0.11718c0.954-9.54 1.457-18.083 1.457-25.816 0-7.2333-0.239-14.855-0.711-22.879-0.52-8.8363-1.841-17.374-3.99-25.57-1.822-8.6192-4.98-16.856-10.412-24.07-6.113-8.5286-17.854-16.117-29.756-16.117-15.186 0-29.214 8.5973-38.359 19.701a22.652 22.652 0 0 0-0.1 0.11719c-6.51 8.013-12.146 16.185-16.869 24.559-3.871 6.656-6.891 13.131-8.527 20.492a22.652 22.652 0 0 0-0.366 2.1035c-0.751 6.0062-0.816 12.648 2.118 19.979 0.04 0.0945 0.374 1.083 0.628 2.8652a22.652 22.652 0 0 0 0.645 3.0215c-0.632-2.2095 0.221 1.8084-0.156 7.8496a22.652 22.652 0 0 0-0.03 0.74805l-1.209 41.084c-0.314 0.40283-1.218 1.5541-1.405 1.7637a22.652 22.652 0 0 0-0.314 0.36132c-9.841 11.553-19.139 21.466-27.817 29.746-7.9 7.1348-14.626 12.541-20.232 16.559-0.14-1.6244-0.266-3.3387-0.266-5.3594 0-18.184 2.415-36.376 7.319-54.762a22.652 22.652 0 0 0 0.03-0.11914c5.068-19.425 11.825-38.673 20.32-57.787a22.652 22.652 0 0 0 1.08-2.9746c1.816-6.3543 2.062-12.772 1.428-18.961-0.63-9.7117-5.694-16.263-10.045-20.615-4.321-4.3224-8.987-7.4435-14.258-10.518-6.13-4.0274-14.813-6.7638-23.261-5.7051-2.079 0.26053-4.057 0.72159-5.944 1.3203-0.652-0.59204-1.237-1.1877-1.916-1.7812l1.807 1.8066c0 3e-3 -0.02 3e-3 -0.03 6e-3 -7.035-7.8015-18.523-12.807-28.805-12.807-5.545 0-8.801 0.77152-13.869 1.7852l2.187-0.32813c-7.183 0.71841-14.09 2.5982-21.521 5.252-8.242 2.9438-16.543 7.1918-25.434 12.605-9.681 5.4348-19.39 12.486-29.5 21.15a22.652 22.652 0 0 0-0.47 0.41406c-15.25 13.82-29.691 29.231-43.354 46.176-3.342 4.0403-5.891 7.6465-8.207 10.932-2.095 1.4317-4.373 3.1639-6.293 5.3574a22.652 22.652 0 0 0-0.357 0.41797c-10.81 12.971-21.797 25.031-32.955 36.189-10.671 10.67-21.024 19.948-30.999 27.848-7.79 6.0939-14.674 10.816-20.96 14.748 0.567-2.6684 1.134-5.3774 2.085-8.4668 4.026-12.528 8.704-27.439 14.018-44.705 5.722-17.164 12.346-35.944 19.869-56.305 7.95-20.308 16.788-41.748 26.533-64.338a22.652 22.652 0 0 0 0.06-0.14843c9.627-22.756 20.601-46.018 32.918-69.773a22.652 22.652 0 0 0 0.02-0.0371c7.868-15.242 13.118-27.478 13.936-41.377a22.652 22.652 0 0 0 0-0.0742c1.024-18.433-9.816-32.365-23.033-43.748-7.334-7.1791-18.22-11.133-27.864-11.133-14.368 0-27.122 8.505-35.197 18.6a22.652 22.652 0 0 0-0.121 0.15429c-8.585 10.926-15.905 26.057-28.176 51.963 0 0.0163-0.02 0.0384-0.02 0.0547-12.039 24.972-27.882 62.208-47.395 110.78-0.566-3.247-1.41-6.5351-2.357-9.9297-2.076-9.3408-6.213-18.202-11.973-25.881a22.652 22.652 0 0 0-0.308-0.40234c-6.628-8.4367-14.903-15.723-24.451-22.129-8.761-6.1668-18.222-11.527-28.305-16.08-9.635-4.5496-19.415-8.1722-29.315-10.777-8.502-2.2375-16.278-3.6278-23.918-3.9668-8.481-8.329-16.885-14.937-26.789-19.182l1.815 0.875c-7.54-4.0593-14.669-7.4238-24.881-7.4238-13.301 0-26.51 7.7139-34.111 17.596a22.652 22.652 0 0 0-0.67 0.91797c-3.743 5.4063-6.706 10.61-9.203 15.922-10.146 3.7664-20.701 8.2565-31.803 13.586a22.652 22.652 0 0 0-0.328 0.16015c-12.129 6.0639-22.91 13.084-32.203 21.24-8.388 7.1207-16.674 17.09-16.674 31.336a22.652 22.652 0 0 0 0.138 2.502c0.835 7.5132 3.916 15.985 10.139 22.457 5.195 5.7373 12.385 10.513 20.342 12.502 4.895 1.2238 9.728 2.0215 14.922 2.0215 1.161 0 2.053-0.10014 3.008-0.17579-1.103 3.5028-1.893 6.0689-3.059 9.7617-5.407 16.672-10.808 33.779-16.209 51.33-5.387 17.061-10.555 33.681-15.5 49.863a22.652 22.652 0 0 0 0 2e-3c-4.566 14.947-8.107 27.671-10.877 38.828 0 3e-3 -0.02 0.0388-0.02 0.041 0-0.0114-0.57 0.42803-2.325 1.0859a22.652 22.652 0 0 0-0.457 0.17774c-11.379 4.5516-21.626 10.355-28.75 21.293-7.123 10.938-7.317 26.799-2.39 37.885a22.652 22.652 0 0 0 0.203 0.44727c5.348 11.364 14.061 20.974 24.592 27.9 11.851 8.2555 26.306 12.035 41.019 12.035 7.529 0 15.168-1.4288 22.205-4.4746 6.09-2.4615 11.853-5.502 17.135-10.705 1.73-0.11633 3.606-0.3086 5.1-0.3086 15.992 0 30.807-1.7266 44.437-5.5371 12.861-3.4692 22.894-6.8811 32.096-13.551 8.968-6.4204 17.983-15.481 19.394-29.588 0.865-8.6471-4.325-20.529-11.316-25.766s-13.339-6.3513-19.351-7.0586c-7.735-0.90993-16.952-1.7973-27.467-2.6816-4.275-0.56026-7.973-1.167-11.315-1.7773 2.274-8.3025 4.661-16.608 7.205-24.918 4.397 1.8575 9.32 3.1465 14.793 3.1465 3.944-1e-5 7.948-0.31158 12.237-0.84766 4.41-0.55136 8.916-1.3583 13.552-2.3887a22.652 22.652 0 0 0 1.311-0.33203c7.104-2.0299 14.336-4.5292 21.715-7.4805 7.286-2.9146 14.367-6.081 21.24-9.5176v2e-3c6.677-3.3379 12.934-6.7087 18.787-10.123 5.381-3.1389 10.063-6.1726 14.309-9.2656 7.8-5.0149 15.204-11.164 22.361-18.291 3.699-3.4693 7.242-7.0614 10.602-10.791-6.552 20.586-11.892 38.364-15.944 53.219a22.652 22.652 0 0 0-0.16 0.62305c-3.69 15.221-6.298 27.866-7.81 38.438-1.429 9.5351-2.256 17.172-2.256 24.129 0 16.037 4.521 31.757 13.843 44.41a22.652 22.652 0 0 0 0.457 0.59961c10.072 12.757 26.296 21.408 42.692 21.408 19.922 0 39.961-6.1163 59.887-16.846v2e-3c11.963-6.4415 23.393-13.758 34.386-21.75 0.58 1.3073 1.103 2.6393 1.789 3.8984a22.652 22.652 0 0 0 0.776 1.3144c3.902 6.1323 8.261 11.72 13.193 16.65a22.652 22.652 0 0 0 1.1 1.0274c4.808 4.2071 9.958 7.8151 15.562 10.617a22.652 22.652 0 0 0 0.93 0.43946c5.464 2.4286 10.341 4.6465 18.627 4.6465 20.689 0 40.099-9.2717 59.765-23.859 5.15-3.6249 10.729-8.0674 17.002-13.424 6.998-5.5985 13.573-11.237 19.752-16.93 0.101-0.0861 0.174-0.16592 0.274-0.25195v0.0137c3.193 11.974 8.655 23.104 16.627 32.404a22.652 22.652 0 0 0 0.4 0.45507c12.244 13.534 30.216 21.592 48.443 21.592 15.765 0 31.187-5.1702 46.145-13.701 12.624-6.9845 24.79-15.771 36.588-26.059 1.52 4.2174 3.393 8.3336 6.162 12.229-9.374 11.474-19.159 23.358-26.982 33.289a22.652 22.652 0 0 0-0.262 0.33789c-11.171 14.744-20.764 27.23-28.742 37.426a22.652 22.652 0 0 0-0.668 0.89843c-10.697 15.153-18.44 26.432-23.719 34.568-5.849 8.3065-10.534 15.97-14.027 23.539l0.306-0.63867c-1.653 3.307-1.799 2.8046-2.166 2.9356l0.453-0.15625c-6.273 2.0912-10.756 4.8176-16.445 8.4375a22.652 22.652 0 0 0 0 2e-3c-9.202 5.8567-15.84 13.546-23.365 23.568-4.99 6.4965-9.188 13.011-12.592 19.684-3.813 6.636-6.797 13.747-9 21.178-4.371 12.911 0.917 30.941 10.84 39.947 8.806 8.4401 21.418 13.467 33.486 13.467 8.981 0 17.945-1.6643 26.213-5.1094v-2e-3c10.455-4.3567 18.627-12.344 24.482-21.451 3.448-5.3622 6.487-9.1194 8.415-11.047a22.652 22.652 0 0 0 1.031-1.1016c0.03-0.03218 2.382-2.1758 7.338-4.4883a22.652 22.652 0 0 0 0.554-0.26758c3.911-1.9557 8.784-4.5076 14.75-7.7207l-1.248 0.62305c7.21-3.3274 14.079-7.4673 20.571-12.301 6.696-4.6686 12.693-9.7997 17.902-15.496 7.278-7.4205 13.066-18.17 13.066-29.801 0-5.7952-1.621-12.317-4.857-17.99 2.193-3.1129 15.023-20.064 36.08-45.754 22.999-27.511 52.62-63.648 88.959-108.51a22.652 22.652 0 0 0 0-4e-3c8.109-10.018 16.525-21.482 25.318-34.436 9.262-13.433 17.857-26.895 25.774-40.4 4.306-7.3465 7.918-14.016 11.814-20.965-6.802 20.536-10.73 38.992-10.73 55.963 0 12.969 1.873 25.233 6.25 36.488a22.652 22.652 0 0 0 0.412 0.99023c4.62 10.396 10.939 19.805 18.828 27.693 7.814 7.8147 17.09 13.979 27.305 17.859 9.981 4.0563 20.529 6.2773 31.125 6.2773 22.151 0 44.29-3.5462 66.121-10.492a22.652 22.652 0 0 0 0.297-0.0977c21.678-7.2263 42.244-16.654 61.591-28.25 0.227-0.13302 0.428-0.28445 0.655-0.41797 2.227 9.3941 6.263 17.923 13.56 25.219a22.652 22.652 0 0 0 0.602 0.58203c9.626 8.9394 22.869 14.809 36.279 14.809 12.071 0 23.982-3.075 37.92-8.0527 15.01-5.3604 30.225-13.722 46.145-24.793 4.676-3.123 9.886-6.9339 15.929-11.582a22.652 22.652 0 0 0 0.822-0.66406c5.508-4.6608 11.009-9.563 16.5-14.592 0.229 1.3532 0.298 2.7136 0.586 4.0625a22.652 22.652 0 0 0 0.08 0.35742c1.875 8.1202 5.023 15.915 9.243 23.148a22.652 22.652 0 0 0 0.455 0.74805c4.852 7.6251 11.42 14.206 19.064 19.07 8.88 5.6506 19.419 8.252 29.67 8.252 17.697 0 35.26-5.5078 52.176-15.023 16.037-9.0205 31.183-20.226 45.402-33.465a22.652 22.652 0 0 0 0-2e-3c13.893-12.935 26.43-26.662 37.555-41.174 10.946-14.276 19.562-27.449 25.846-40.016 3.719-7.4386 6.598-14.74 8.447-22.141a22.652 22.652 0 0 0 0.1-0.39649c2.042-8.8487 2.929-19.292-3.077-29.799a22.652 22.652 0 0 0-0.457-0.76172c-2.785-4.4579-7.175-9.3042-13.578-12.264-6.403-2.9595-14.086-3.2006-19.879-1.752-12.879 3.2198-19.061 11.229-24.57 19.186a22.652 22.652 0 0 0-0.486 0.73242c-1.826 2.8689-7.333 10.068-15.543 19.574a22.652 22.652 0 0 0 0 2e-3c-8.122 9.4053-17.174 19.103-27.153 29.082a22.652 22.652 0 0 0-0.351 0.35938c-8.703 9.099-17.072 16.847-25.11 23.484 0.03-0.3098 0.02-0.5393 0.05-0.85742a22.652 22.652 0 0 0 0.08-1.0625c0.374-7.105 1.578-16.584 3.7-28.039a22.652 22.652 0 0 0 0-2e-3c2.182-11.788 4.813-24.521 7.898-38.186 3.045-13.484 6.534-27.447 10.461-41.861 4.336-14.288 8.879-27.9 13.617-40.822 11.087-30.155 20.584-53.5 28.162-69.498a22.652 22.652 0 0 0 0.1-0.20508c8.146-17.651 14.737-32.42 19.818-44.43a22.652 22.652 0 0 0 0.02-0.0371c4.27-10.142 7.327-19.275 6.4-30.604-0.47-11.631-5.846-21.767-12.677-29.842a22.652 22.652 0 0 0-0.09-0.11133c-6.427-7.4971-12.414-13.637-21.797-17.896-6.158-2.9798-13.163-4.8301-20.314-4.8301zm-2367.3 84.16c-42.777 14.104-33.328 3.1034-50.436 27.268-5.828 3.1887-12.739 5.7888-21.033 7.5918l0.637-0.1289c-6.278 1.1771-13.203 3.4665-19.397 9.2734-6.193 5.8069-9.849 15.364-9.849 23.086 0 13.569 8.798 26.04 18.511 32.766a22.652 22.652 0 0 0 1.657 1.0449c1.862 1.0643 3.745 1.8272 5.611 2.7559-2.618 9.4964-5.587 19.73-9.25 31.385a22.652 22.652 0 0 0-0.123 0.40039c-4.389 14.926-9.226 30.097-14.51 45.506a22.652 22.652 0 0 0-0.181 0.55469c-4.842 15.404-9.899 30.346-15.166 44.834-4.635 12.744-9.013 23.534-13.161 32.875-9.458 2.4877-17.284 8.2454-23.951 14.781-7.795 7.064-12.935 17.252-14.486 27.334-1.437 9.3357-0.688 20.171 5.199 29.592l-0.594-1.0039c1.934 3.4813 3.655 6.9243 5.166 10.324a22.652 22.652 0 0 0 0.436 0.92578c1.287 2.5747 2.088 4.6869 2.519 6.1953l-0.369-1.4805c2.684 12.53 14.844 25.778 27.832 28.775a22.652 22.652 0 0 0 0.348 0.0762c10.499 2.25 22.55 1.1012 32.422-4.2832v-2e-3c4.15-2.2636 7.5-4.0057 10.512-5.5352 0.851-0.25703 1.618-0.45312 2.203-0.45312 0.685 0 3.234 0.16261 6.386 0.49219 4.433 0.95077 9.601 1.9633 16.616 3.2012a22.652 22.652 0 0 0 1.127 0.16992c7.893 0.98673 16.7 1.692 26.521 2.1621 9.775 0.90271 19.38 1.3789 28.801 1.3789 25.662 0 50.795-3.9719 75.041-11.889 18.32-5.9822 34.706-14.908 48.568-26.57 0.477 1.0296 0.875 2.0929 1.42 3.0918a22.652 22.652 0 0 0 0.776 1.3144c3.903 6.1342 8.263 11.721 13.191 16.648a22.652 22.652 0 0 0 1.102 1.0293c4.811 4.2098 9.963 7.8166 15.564 10.617a22.652 22.652 0 0 0 0.93 0.43946c5.46 2.4269 10.341 4.6465 18.625 4.6465 20.689 0 40.095-9.2732 59.759-23.859 5.15-3.6249 10.729-8.0674 17.002-13.424 7-5.5996 13.569-11.237 19.745-16.924 0.102-0.0883 0.178-0.16962 0.281-0.25781v0.0137c3.197 11.978 8.665 23.107 16.634 32.404a22.652 22.652 0 0 0 0.403 0.45507c12.244 13.534 30.214 21.592 48.441 21.592 15.761 0 31.177-5.1679 46.133-13.695 5.746-3.179 11.379-6.8113 16.949-10.688 2.199 4.7339 5.151 8.992 8.526 12.367a22.652 22.652 0 0 0 1.103 1.0312c5.094 4.4562 10.786 8.2327 16.895 11.287 6.226 3.1139 12.885 5.324 19.736 6.6172 6.507 1.5634 12.93 2.5078 19.354 2.5078 11.198 1e-5 21.84-2.9432 33.636-7.5449 4.862-1.8307 9.575-4.2471 14.418-7.084 5.334-2.4659 10.496-5.1579 15.442-8.125l-0.807 0.46289c4.98-2.7163 9.515-5.2112 13.617-7.4902a22.652 22.652 0 0 0 1.563-0.95313c4.654-3.103 8.675-6.1744 12.382-9.8027 6.885-6.2668 11.857-13.818 16.19-22.484 4.521-9.043 7.773-17.891 7.773-28.303 0-13.054-3.65-25.923-9.896-37.914-5.277-10.96-12.114-21.75-20.418-32.496l0.07 0.0918c-5.04-6.5911-9.164-12.826-12.525-18.699-1.781-3.9314-2.469-6.7205-2.727-8.7598 3.17-2.4649 7.724-5.2348 14.133-7.9336 6.764-2.8481 14.524-5.104 23.371-6.6426a22.652 22.652 0 0 0 0.738-0.14062c8.043-1.6756 15.762-2.4608 23.297-2.6895 1.267 6.3906 4.142 13.03 9.188 18.076a22.652 22.652 0 0 0 1.871 1.6738c2.82 2.2553 5.817 4.4303 8.996 6.5488a22.652 22.652 0 0 0 2.432 1.4102c5.393 2.6968 11.295 3.8406 16.873 3.8789-1.862 5.382-3.585 10.481-5.811 16.602a22.652 22.652 0 0 0-0.297 0.87304c-3.113 9.7855-6.226 19.571-9.342 29.361-3.066 9.1942-5.484 15.949-6.941 19.59a22.652 22.652 0 0 0-0.148 0.38282c-5.427 14.309-8.877 25.957-8.877 38.326 0 17.772 9.164 35.71 23.629 46.041v-2e-3c12.473 8.9097 27.097 14.318 42.117 14.318 11.907 0 23.973-2.354 36.144-6.5625 28.253-8.9738 50.879-19.227 68.297-32.281 15.14-11.019 26.157-19.76 34.113-27.717a22.652 22.652 0 0 0 1.182-1.2773c4.306-5.0236 7.972-10.952 9.969-17.939l-0.568 1.7246c2.146-5.7279 3.999-12.187 2.386-20.748-1.607-8.5096-11.452-20.796-21.849-22.875l3.97 1.1797c-13.849-5.5406-23.785 0.46592-30.402 4.877-3.247 2.1648-7.614 4.7691-12.982 7.6602-5.004 2.6941-10.511 5.2539-16.528 7.6602a22.652 22.652 0 0 0-0.51 0.21094c-5.518 2.365-11.281 4.5386-17.24 6.541-2.441 0.67697-4.69 1.1033-6.814 1.3711 0.129-1.7863 0.342-3.7872 0.746-6.1074a22.652 22.652 0 0 0 0.242-1.8281c0.283-3.1129 1.126-7.773 2.656-13.543 2.129-6.8242 4.264-13.85 6.395-21.08 2.553-7.2288 5.097-14.236 7.637-21.018 2.471-5.6573 4.536-10.501 6.476-15.104 29.746-4.033 54.384-8.2889 73.998-12.959a22.652 22.652 0 0 0 0.367-0.0899c19.891-5.0883 32.179-8.3906 42.825-14.123a22.652 22.652 0 0 0 0.912-0.51758c4.73-2.8374 8.809-6.5553 12.095-10.662l-1.668 1.8633c3.988-3.988 7.801-9.3945 9.664-16.365 2.091-7.0961 1.85-19.878-5.992-28.08-7.666-8.5068-17.538-9.707-24.4-9.707-5.183 0-11.706 0.24686-19.895 0.69922-7.83 0.0182-16.295 0.23552-25.623 0.67968a22.652 22.652 0 0 0-0.05 2e-3c-8.821 0.44106-17.878 0.88069-27.147 1.3223 4.244-9.8886 9.332-20.328 15.666-31.506l-0.04 0.0703c5.335-9.3366 8.559-20.45 7.195-31.783-1.363-11.333-7.288-21.525-14.892-29.129-8.085-8.0856-19.936-14.049-32.174-14.049-11.823 0-20.874 4.3019-30.336 9.8672a22.652 22.652 0 0 0 0 2e-3c-10.441 6.1425-19.475 14.639-24.932 25.553a22.652 22.652 0 0 0 0 2e-3c-2.468 4.9382-4.994 11.038-8.253 19.42-3.244 8.3408-6.477 17.11-9.698 26.312l0.125-0.34766c-3.13 8.4958-6.032 16.315-8.707 23.445a22.652 22.652 0 0 0 0 4e-3c-2.281 6.084-3.681 9.3039-3.867 9.8301-5.806 1.1802-11.417 2.3614-16.623 3.5586-3.58 0.60603-6.656 1.2368-9.764 1.8652-0.901-2.9127-2.016-5.775-3.543-8.4453l1.543 3.2852c-3.491-9.3065-10.038-15.844-16.972-20.697-6.439-4.5066-13.687-7.8136-21.274-9.8398-8.588-2.7654-17.518-3.6836-27.4-3.6836-7.262 0-14.828 0.86696-23.027 2.4043a22.652 22.652 0 0 0-0.27 0.0527c-8.063 1.6126-16.186 3.9883-24.385 7.0625-8.103 3.0387-15.967 6.5911-23.574 10.648a22.652 22.652 0 0 0-0.58 0.32031c-7.273 4.1559-14.101 8.8816-20.447 14.139-11.833 9.2055-22.435 20.708-31.955 34.236-10.576 15.028-16.92 31.966-16.92 49.398 0 0.4034 0.06 0.51737 0.07 0.89453-6.424 8.3784-12.728 16.423-18.67 23.107a22.652 22.652 0 0 0-0.314 0.35937c-9.838 11.548-19.142 21.462-27.825 29.746-7.896 7.1312-14.618 12.535-20.222 16.553-0.14-1.6232-0.266-3.3348-0.266-5.3535 0-18.19 2.409-36.381 7.311-54.762a22.652 22.652 0 0 0 0.03-0.11914c5.066-19.42 11.83-38.668 20.328-57.787a22.652 22.652 0 0 0 1.08-2.9746c1.826-6.3898 2.052-12.798 1.422-18.951-0.627-9.7073-5.687-16.264-10.039-20.619-4.318-4.3213-8.981-7.4428-14.248-10.516-6.13-4.0305-14.819-6.7726-23.274-5.7129-2.078 0.26052-4.054 0.72172-5.941 1.3203-0.652-0.59223-1.237-1.1875-1.916-1.7812l1.807 1.8066c-0.01 3e-3 -0.02 3e-3 -0.03 6e-3 -7.046-7.8151-18.53-12.807-28.812-12.807-5.545 0-8.801 0.77152-13.869 1.7852l2.187-0.32813c-7.184 0.71833-14.09 2.5978-21.521 5.252-8.249 2.9456-16.545 7.1948-25.43 12.605-9.681 5.4348-19.39 12.486-29.5 21.15a22.652 22.652 0 0 0-0.471 0.41406c-15.253 13.823-29.708 29.241-43.379 46.197-14.038 16.958-25.962 35.21-35.691 54.652-8.193 15.719-14.411 29.032-18.695 40.826-0.572-0.0962-1.19-0.2531-1.723-0.30664-9.608-0.96558-14.93 1.5357-20.82 4.0156a22.652 22.652 0 0 0-0.03 0.0156c-9.835 4.1607-20.847 7.289-33.162 9.2754a22.652 22.652 0 0 0-0.116 0.0195c-12.341 2.0568-24.108 3.0586-35.328 3.0586-5.547 0-12.185-0.21875-19.644-0.62304-7.452-0.83863-14.899-1.8634-22.358-3.1055-6.291-1.1111-12.081-2.216-17.705-3.3184 0.667-1.7122 1.235-3.093 1.979-5.043 4.128-9.6477 9.234-22.069 15.466-37.65a22.652 22.652 0 0 0 0.07-0.17773c7.2-18.451 13.284-34.221 18.258-47.334 4.898-12.913 8.898-23.806 12.109-32.961l0.02-0.0527c3.645-9.5682 6.411-17.165 8.377-23.064a22.652 22.652 0 0 0 0-4e-3c1.718-5.1535 3.199-9.358 4.401-12.566 2.018-5.2438 4.489-11.032 7.429-17.334a22.652 22.652 0 0 0 0.225-0.5c2.498-5.7106 4.942-9.3648 6.279-10.869a22.652 22.652 0 0 0 0.651-0.76563c9.538-11.741 13.36-30.514 7.443-45.018-4.738-11.765-13.647-21.198-24.162-28.002-10.519-6.8066-22.676-11.047-35.203-11.047zm1029.5 90.613c0.01-0.044-0.34 1.0247-0.529 1.6387 0.09-1.2869 0.52-1.596 0.529-1.6387zm1004.9 6.418c0.256 0.0234 0.904 0.1263 0.973 0.15429-0.328-0.0295-0.644-0.12904-0.973-0.15429zm231.52 3.3379c-0.07 0.23533 2.875-7.0876 0 0zm-1131 4.2109c17.22 8.3504 28.81-2.6762 22.949 22.025-2.671 3.4856-5.962 6.8389-10.16 10.068-5.102 3.9241-10.661 7.7021-16.695 11.322l0.994-0.5625c-6.056 3.2302-11.763 6.707-17.26 10.33 4.141-11.216 8.895-24.141 11.418-30.869a22.652 22.652 0 0 0 0.104-0.28125c2.917-8.1038 5.798-15.302 8.65-22.033zm-77.211 7.3105c0.261-0.16328 0.09 0.10804-0.828 0.48438a22.652 22.652 0 0 0 0.828-0.48438zm-419.27 8.3301c-0.09 0.0156-0.172 0.0427-0.258 0.0586-0.181 0.0397-0.424 0.0754-0.604 0.11524zm399.74 1.8691c-0.177 0.0905-0.222 0.11263-0.07 0.0332 0.02-0.0131 0.04-0.0201 0.07-0.0332zm-421.29 7.4453c-0.07 0.0586-0.134 0.12678-0.207 0.18555-0.05 0.0384-0.1 0.0629-0.143 0.10156zm641.14 17.811c-0.137 0.33008-0.338 0.79883-0.3 0.70313 0.09-0.23646 0.208-0.4662 0.3-0.70313zm-147.05 12.857c-0.01 8e-3 -0.02 0.0155-0.03 0.0234-0.01 7e-3 -0.02 0.0126-0.03 0.0195zm-19.588 14.18c-0.04 0.0258-0.07 0.0542-0.104 0.0801-0.249 0.19045-0.567 0.39989-0.814 0.58984zm-346.69 17.398c0.106-4e-3 -0.101 0.34092-0.543 0.82617 0.04-0.10364 0.106-0.24652 0.149-0.34961 0.159-0.2623 0.324-0.47414 0.394-0.47656zm1478.9 4.8203c-8.543 17.194-69.166 85.194-34.768 45.812 3.364-5.2516 7.13-10.94 11.746-17.432a22.652 22.652 0 0 0 0.03-0.0449c7.941-11.228 15.63-20.548 22.99-28.336zm-1557.9 5.9512c-0.305 0.0443-1.401 0.18229-1.644 0.20703 0.486-0.0747 1.177-0.12911 1.644-0.20703zm1570.4 54.893c-0.137 0.61833-0.224 1.2783-0.352 1.9043 0.05-0.18501 0.107-0.63401 0.122-0.71875zm-2364.8 6.3164c-1.487 3.4008 1.854-2.7814 0 0zm2088.6 9.2168c2.713 0.50554 5.447 0.84182 8.213 1.0098-0.233 2e-3 -0.549 0.0586-0.778 0.0586-4.756 0-6.534-0.63101-7.435-1.0684zm273.75 0.58789v0.10352c0 0.0341 0 0.0655-0.01 0.0996zm36.859 1.5918c0.05-0.0564-0.05 0.14373-0.488 0.57227 0.101-0.12336 0.227-0.25381 0.328-0.37696a22.652 22.652 0 0 0 0.16-0.19531zm-1208.3 0.68359c0.129 0.0468 0.53 0.40875 0.84 0.65821-0.754-0.38012-1.161-0.77456-0.84-0.65821zm-621.78 3.4024c-0.352 0.15092-0.648 0.36661-0.994 0.52344-0.265 0.13167-0.564 0.21444-0.823 0.35351zm-290.95 5.6055c0.109 0.72981 0.192 1.429 0.125 1.0488-0.06-0.35311-0.05-0.69352-0.125-1.0488zm-178.93 2.0723c-0.303 1.2177 1.755-3.3708 0 0zm455.47 1.0274c-0.08 0.0541-0.152 0.12715-0.233 0.18164-0.367 0.27932-0.741 0.4988-1.109 0.78515zm644.84 2.8476c-0.06 0.1556-0.06 0.1556 0 0zm-661.75 12.105c-0.09 0.0922-0.174 0.20162-0.266 0.29492-0.138 0.14927-0.274 0.26357-0.412 0.41407zm967.08 15.064c-0.08 0.0697-0.146 0.12045-0.1 0.0762 0.03-0.0265 0.07-0.0496 0.1-0.0762zm-1237.8 0.87305c-0.167 0.18815-0.431 0.47331-0.396 0.42774 0.127-0.14728 0.269-0.27984 0.396-0.42774z" fill="#fad60b" stroke-width="16.833px"/>
				<path d="m-2728.4-139.96q2.3159 0 4.4537 0.53445 0.7126 0.17815 0.8907 0.17815 0.3563-0.17815 0.7126-1.0689 2.8504-6.9478 5.5227-13.718 2.8504-6.7697 5.1663-12.47 2.4941-5.8789 4.2756-9.9764 1.7815-4.2756 2.6722-5.8789 1.0689-2.3159 1.9597-3.0285 1.0689-0.7126 1.9596-0.7126 1.4252 0 2.8504 0.7126 1.6034 0.7126 3.7412 3.2067 1.9596 2.3159 1.9596 4.4537 0.1781 1.9596-1.2471 5.3445-1.9596 4.6319-5.1663 11.58-3.2067 6.7697-7.6604 18.884-1.9597 5.3445-3.7411 11.223-1.6034 5.8789-2.8504 11.402-1.2471 5.5226-2.1378 10.333-0.8908 4.81-1.0689 8.1949-0.8908 8.9075 3.3848 8.9075 2.1378 0 5.8789-3.0285 3.7412-3.0285 7.6605-7.126 4.0974-4.0974 7.4822-8.0167 3.3849-3.9193 4.6319-5.8789 1.6034-2.3159 3.0286-2.6722t2.3159 1.0689q0.7126 1.247 0.1782 3.563-0.5345 2.1378-1.7815 4.6319-2.1378 4.2756-6.2353 9.6201-4.0974 5.3445-9.2637 10.155-5.1664 4.81-10.867 8.0167-5.7008 3.2067-10.867 3.2067-2.6722 0-4.6318-1.247-1.9597-1.247-3.2067-3.2067-1.2471-2.1378-1.7815-4.4537-0.5345-2.4941-0.3563-4.81 0.1781-3.0285 0.3563-4.81 0.1781-1.9596 0.5344-3.563 0.1782-1.0689-0.3563-1.0689-0.3563-0.17814-1.0689 0.7126-1.6033 1.9596-3.9193 4.2756-2.3159 2.3159-4.81 4.6319-2.3159 2.1378-4.6319 4.0974-2.3159 1.7815-3.9193 2.8504-5.8789 4.0974-10.867 5.8789t-8.0167 1.7815-5.5226-2.3159q-2.4941-2.4941-2.4941-9.2638 0-2.8504 0.8907-6.7697 0.8908-4.0974 3.0286-8.9075 2.1378-4.81 5.5226-9.9764 3.3848-5.3445 8.373-10.867 7.3041-8.0167 14.43-11.223 7.126-3.3848 14.608-3.3848zm-3.563 10.333q-2.4941 0-7.6604 4.2756-4.9882 4.2756-10.155 11.58-5.7007 8.0167-7.1259 11.758-1.4252 3.563-1.4252 5.5226 0 3.0285 2.3159 3.0285 1.6034 0 4.6319-1.7815 3.2067-1.9596 7.4823-6.0571 2.3159-2.3159 4.6319-5.5226 2.494-3.2067 4.6318-6.4134 2.1378-3.2067 3.7412-5.7008 1.6033-2.6722 1.9596-3.7411 0.8908-1.7815 0.7126-2.8504 0-1.247-0.5344-2.1378-1.0689-1.9596-3.2067-1.9596zm-98.874 34.383q0-6.0571 3.2067-14.965t9.0856-17.459q1.2471-1.7815 3.563-4.4537 2.316-2.8504 4.9882-5.1663 2.8504-2.4941 5.8789-4.2756 3.0286-1.7815 5.879-1.7815 2.494 0 3.9192 1.0689 1.4252 0.89075 2.316 2.4941 1.0689 1.4252 2.6722 1.6034 4.6319 0.3563 7.4823 3.2067 2.8504 2.6722 2.8504 7.8386 0 4.81-2.1378 8.7293-1.9596 3.7411-4.6319 6.7697-2.8504 2.8504-7.6604 5.7008-4.6319 2.6722-11.936 2.6722-1.4252 0-2.8504-0.3563-1.4252-0.53445-2.6723-1.0689-1.6033-0.7126-2.3159 0.89074-0.7126 1.4252-1.0689 2.6722-0.3563 1.247-0.3563 3.2067 0 3.0285 1.9597 4.81 2.1377 1.7815 6.057 1.7815t8.9075-1.247q5.1663-1.247 10.867-3.9193 5.8789-2.8504 12.292-7.4823 6.4134-4.6319 13.183-11.58 1.4252-1.4252 2.4941-1.4252 1.247 0 1.7815 0.89074 0.7126 1.247 0 3.3848-0.5345 2.1378-2.316 4.4537-4.6319 5.8789-10.867 11.402-6.2352 5.5226-13.539 9.7982-7.126 4.2756-15.143 6.9478-7.8386 2.4941-15.677 2.4941-3.0285 0-6.0571-1.247-2.8504-1.0689-5.1663-3.3848-2.3159-2.3159-3.7411-5.5226-1.2471-3.2067-1.2471-7.4823zm24.05-18.349q2.1378 0 4.4537-1.247 2.4941-1.4252 4.4538-3.3848 2.1377-1.9596 3.3848-4.0974 1.4252-2.3159 1.4252-4.2756t-1.2471-2.8504q-1.0689-1.0689-2.8503-1.0689-1.4252 0-3.0286 1.4252-1.6033 1.4252-3.3848 3.563-1.6034 2.1378-3.0286 4.6319t-2.1378 4.6319q-0.5344 1.6034-0.1781 2.1378t2.1378 0.53445zm-77.364-8.5512q0.1782-2.8504-0.1781-4.0974-0.1782-1.247-0.5345-2.1378-0.3563-0.89075-0.1781-2.316 0.3563-1.6033 1.6033-3.7411 1.6034-2.8504 3.9193-5.7008 2.4941-3.0285 5.5227-3.0285 1.7815 0 3.0285 1.7815 1.247 1.6033 1.7815 4.2756 0.7126 2.6722 0.8907 5.7008 0.1782 3.0285 0.1782 5.7008t-0.3563 6.2352q-0.3563 3.3848-0.8908 7.126-0.3563 3.563-0.7126 6.9478t-0.5344 5.5226q-0.3563 3.3848 0.3563 4.9882 0.7126 1.6033 1.6033 1.6033 0.5345 0 4.6319-4.9882 4.0975-5.1663 11.402-17.637 1.9596-3.3848 2.3159-5.3445t0-3.563q-0.3563-1.4252-0.1781-3.2067 0.1781-1.9596 1.4252-4.0974 1.247-2.1378 2.4941-4.0974 1.247-1.9596 3.2067-4.4537 1.4252-1.4252 2.494-2.316 1.2471-1.0689 3.2067-1.0689 0.7126 0 1.7815 0.89075 1.2471 0.71259 2.316 2.1378 1.247 1.247 2.1378 2.8504 0.8907 1.6033 0.8907 3.3848 0 1.6033-0.7126 4.2756-0.5344 2.4941-1.7815 5.5226-1.247 3.0285-3.7411 7.6604-2.4941 4.6319-5.5226 9.7982-3.0286 5.1663-6.5916 10.333-3.3848 4.9882-6.4134 8.7293-14.43 17.815-23.516 28.682-8.9074 10.867-10.333 13.183-2.4941 3.3848-1.9597 4.0974 2.6723 0.89075 2.6723 3.3848 0 1.9596-1.7815 3.7411-1.6034 1.7815-3.9193 3.3848-2.1378 1.6033-4.4538 2.6722-2.3159 1.247-3.7411 1.9596-2.6722 1.247-3.9193 2.6722-1.4252 1.4252-3.0285 3.9193-1.6034 2.4941-3.7412 3.3848t-4.6318 0.89075q-2.8504 0-4.8101-1.9596-2.1378-1.7815-1.247-4.2756 0.7126-2.4941 1.9596-4.6319 1.0689-2.1378 2.8504-4.4537 2.6723-3.563 4.6319-4.81 1.9596-1.247 3.0285-1.6033 2.4941-0.89075 3.9193-3.7411 1.0689-2.3159 3.2067-5.3445 1.9597-3.0285 6.2352-9.0856 3.2067-4.0974 7.6605-9.9764 4.6318-5.8789 10.689-13.183 1.0689-1.247 0.5345-1.247h-1.2471q-2.4941 0-3.7411-3.9193-1.2471-4.0974-0.8908-13.183zm-33.379-20.309q1.9596 0 3.2067 1.4252 1.4252 1.247 2.3159 2.3159 0.5345 1.6033 2.316 0.3563 2.1378-1.9596 4.2755-0.53445 3.7412 2.1378 3.7412 3.7411 0.1781 1.6033-0.1782 2.8504-3.563 8.0167-5.7007 16.212-2.1378 8.0167-2.1378 16.033 0 4.6319 1.247 6.7697 1.2471 1.9596 3.2067 1.9596 1.6033 0 4.4537-1.9596 2.8504-1.9596 6.5916-5.3445 3.7411-3.563 7.8385-8.373 4.2756-4.81 8.5512-10.689 1.4252-1.4252 2.6722-1.247 1.2471 0 1.7815 0.89075 0.7126 1.247 0.1782 3.563-0.5345 2.1378-1.7815 4.6319-3.0285 5.8789-7.4823 11.58-4.4537 5.7008-9.4419 10.333-4.9882 4.6319-10.154 7.4823-4.9882 2.8504-9.2638 2.8504-4.9882 0-8.373-3.7411-3.2067-3.7411-3.7411-9.2638-0.3563-1.9596-0.3563-3.3848t0-2.8504q-0.1782-1.9596-1.6034-0.53445-0.8907 0.89075-2.8504 2.8504-1.9596 1.9596-4.4537 4.0974-2.316 2.1378-4.9882 4.2756-2.4941 2.1378-4.2756 3.3848-6.9478 5.1663-12.292 5.1663-0.8907 0-2.4941-0.7126-1.4252-0.7126-2.8504-1.9596-1.4252-1.4252-2.6722-3.3848-1.0689-1.9596-1.0689-4.4537 0-2.6722 1.247-7.3041 1.2471-4.6319 5.5227-12.827 3.563-7.126 8.7293-13.361 5.1663-6.4134 10.867-11.58 3.7411-3.2067 6.9478-4.9882 3.2067-1.9596 5.7008-2.8504 2.4941-0.89075 4.2756-1.0689 1.7815-0.3563 2.4941-0.3563zm-6.5915 13.361q-1.2471 0-3.563 1.7815-2.1378 1.7815-6.0571 6.4134-2.3159 2.6722-4.4537 5.8789-1.9597 3.0285-3.563 6.0571-1.6034 2.8504-2.6723 5.5226t-1.4252 4.4537q-0.3563 1.7815-0.1781 3.3848 0.3563 1.4252 1.4252 1.4252t2.8504-1.0689q1.9596-1.247 3.9193-3.0285 2.3159-1.9596 4.4537-4.6319 2.3159-2.8504 6.4134-7.4823 1.9596-2.1378 3.7411-5.1663t2.316-3.9193q0.8907-1.4252 1.0688-2.8504 0.3563-1.6033 0-3.0285-0.3563-1.247-1.4251-2.4941-1.0689-1.247-2.8504-1.247zm-77.889 39.905q0-1.9596 0.5345-5.5226 0.5344-3.7411 1.9596-9.6201 1.6034-5.8789 4.2756-14.252 2.8504-8.373 7.4823-19.775 8.1948-20.487 13.005-30.464 4.81-10.155 6.7697-12.649 2.1378-2.6722 4.6318-2.6722 1.9597 0 3.2067 1.247 4.4538 3.7411 4.2756 6.9478-0.1781 3.0285-3.0285 8.5512-4.9882 9.6201-8.9075 18.884-3.9193 9.0856-7.126 17.28-3.0285 8.1949-5.3445 15.143-2.1377 6.9478-3.7411 11.936-2.1378 6.9478-1.4252 9.4419 0.7126 2.3159 2.8504 2.3159t5.5226-1.7815q3.3849-1.9596 7.4823-5.1663 4.2756-3.3848 8.7293-7.8386 4.6319-4.6319 9.0857-9.9764 1.247-1.4252 2.1377-1.4252 1.0689 0 1.6034 0.89075 1.0689 2.3159-1.2471 6.9478-1.9596 3.9193-6.7696 9.6201-4.6319 5.7008-10.867 10.867-6.0571 5.1663-13.005 8.9075-6.9478 3.7411-13.005 3.7411-3.9192 0-6.5915-3.3848-2.4941-3.3848-2.4941-8.1949zm3.5769-50.06q0 3.0285-1.4252 6.2352-1.247 3.2067-3.3848 6.2352-2.1378 2.8504-4.81 5.3445-2.4941 2.4941-4.9882 4.0974-1.4252 1.0689-3.563 2.3159t-4.6319 2.4941q-2.4941 1.247-5.1663 2.3159-2.6723 1.0689-5.1664 1.7815-1.6033 0.3563-3.0285 0.53445t-2.4941 0.17815-2.3159-0.7126q-1.0689-0.89075-1.0689-2.3159 0-1.247 0.5344-2.6722 0.7126-1.4252 1.6034-2.3159 1.0689-1.4252 3.3848-3.0285 2.3159-1.7815 5.1663-3.7411 2.316-1.6034 4.9882-3.0285 2.6723-1.6034 4.9882-3.3848 2.3159-1.7815 3.9193-3.9193 1.6033-2.3159 1.6033-4.9882 0-2.8504-1.6033-4.81-1.6034-2.1378-3.9193-3.3848-2.1378-1.247-4.6319-1.7815-2.3159-0.53445-3.9193-0.53445-2.3159 0-3.2067 1.9596-1.6033 3.563-3.2067 8.0167-1.6033 4.2756-4.81 13.005-2.8504 7.8386-5.3445 15.321-2.4941 7.4823-4.4537 14.965-0.8908 2.1378-0.3563 3.0285 0.5344 0.7126 2.4941 1.247 2.4941 0.7126 6.5915 1.247 4.2756 0.3563 7.3041 0.7126 3.0286 0.3563 2.8504 2.1378-0.1781 1.7815-2.6722 3.563-1.9597 1.4252-6.5915 2.6722-4.4538 1.247-10.155 1.247-1.4252 0-3.0285 0.17815-1.4252 0.3563-2.4941 1.6033-0.8907 0.89075-2.6722 1.6033-1.6034 0.7126-3.563 0.7126-4.4538 0-7.4823-2.1378-3.0285-1.9596-4.4537-4.9882-2.1378-4.81 4.9882-7.6604 1.4252-0.53445 2.3159-1.247 1.0689-0.89075 1.7815-2.3159 1.0689-4.4537 3.0285-10.867 1.9597-6.4134 4.0975-13.183 2.1378-6.9478 4.2756-13.539 2.1377-6.7697 3.7411-11.936 0.7126-1.9596 0.5344-2.4941-0.1781-0.71259-1.6033 0.17815-1.9596 1.0689-4.81 2.4941-2.6723 1.4252-3.563 1.4252-1.0689 0-2.4941-0.3563t-2.4941-1.6033q-0.8908-0.89075-1.0689-2.4941 0-1.7815 2.3159-3.7411 3.0286-2.6722 7.3042-4.81 4.4537-2.1378 8.373-3.563 1.247-0.53445 1.6033-0.89075 0.5345-0.3563 0.8908-1.247 0.7126-1.7815 2.3159-4.0974 1.7815-2.316 4.2756-2.316 1.4252 0 3.7411 1.247 2.4941 1.0689 5.5227 4.0974 0.8907 0.89074 1.4252 1.247 0.5344 0.17815 1.6033 0.17815 2.316 0 5.7008 0.89075t6.7697 2.4941q3.563 1.6033 6.5915 3.7411 3.2067 2.1378 5.1663 4.6319 1.6034 2.1378 2.1378 4.6319 0.7126 2.4941 0.7126 4.0974zm-139.64 47.744q2.316 0 4.8101-0.7126 2.6722-0.89075 5.1663-1.9596 2.6722-1.0689 4.9882-2.3159 2.3159-1.247 3.9193-2.3159 1.6033-1.0689 2.494-0.7126 0.8908 0.17815 1.0689 1.247 0.1782 0.89075-0.3563 2.3159-0.3563 1.247-1.4252 2.4941-2.494 2.4941-8.373 6.7697-5.7008 4.2756-16.39 7.6604-4.0975 1.4252-7.6604 1.4252-3.9193 0-7.6605-2.6722-3.7411-2.6722-3.7411-7.3041 0-2.8504 1.9596-8.0167 0.7126-1.7815 1.9597-5.5226 1.247-3.9193 2.4941-7.8386 1.4252-3.9193 2.4941-7.126 1.247-3.3848 1.6033-4.2756t0.1782-1.4252q0-0.53445-1.4252-0.3563-1.0689 0.17815-2.8504 0.3563-1.6034 0-3.3849 0.3563-1.4252 0.17815-2.4941-0.3563-1.0689-0.71259-1.9596-1.4252-0.8907-0.89075-0.8907-2.4941 0.1781-1.7815 1.247-3.0285 1.247-1.4252 2.1378-2.1378 1.0689-0.89074 3.0285-1.247 1.6034-0.3563 3.7412-0.7126 2.3159-0.53445 4.9882-1.0689 1.247-0.35629 1.9596-0.71259 0.8907-0.53445 1.4252-1.9596 0.3563-0.71259 1.4252-3.563 1.0689-2.8504 2.3159-6.2352 1.2471-3.563 2.4941-6.7697 1.2471-3.2067 1.9597-4.6319 1.247-2.4941 4.2755-4.2756 3.0286-1.7815 4.9882-1.7815 2.316 0 4.2756 1.9596 3.9193 3.9193 1.0689 8.9075-3.0285 5.3445-4.9882 10.155-1.9596 4.81-2.4941 6.0571-0.3563 1.0689 0.3563 1.247 0.8908 0 1.7815 0 3.0286 0 6.5916-0.17815 3.7411-0.17815 7.3041-0.3563 3.7411-0.17815 6.7697-0.17815 3.2067-0.17815 4.9881-0.17815 1.6034 0 2.1378 0.7126 0.5345 0.53445 0.1782 1.6033-0.1782 0.89075-1.0689 1.7815-0.7126 0.89075-1.6034 1.4252-2.3159 1.247-9.9763 3.2067-7.4823 1.7815-19.418 3.3848-1.7815 0.3563-2.4941 0.89075-0.7126 0.3563-1.4252 1.7815-0.8907 2.1378-2.1378 4.9882-1.0689 2.8504-2.1378 5.8789-0.8907 3.0285-1.7815 5.8789-0.7126 2.6722-0.8907 4.6319-0.7126 4.0974 0 6.4134 0.8907 2.3159 4.4537 2.3159zm-37.037-51.129q3.3849 0 5.5227 0.7126 2.1378 0.53445 3.9193 1.7815 1.7814 1.247 2.3159 2.6722 0.7126 1.247 0.7126 2.8504 0 2.4941-1.7815 3.7411-1.6033 1.0689-3.9193 1.0689-4.0974 0-8.373 0.89075-4.0974 0.71259-7.4823 2.1378-3.3848 1.4252-5.5226 3.2067-1.9597 1.7815-1.9597 3.9193 0 2.4941 1.4252 5.5226 1.6034 2.8504 3.9193 5.8789 3.0286 3.9193 4.8101 7.6604 1.9596 3.7411 1.9596 7.3041 0 1.9596-1.4252 4.81-1.4252 2.8504-3.0285 4.2756-0.8908 0.89075-2.4941 1.9596-1.6034 0.89075-3.563 1.9596-1.7815 1.0689-3.7411 1.9596-1.7815 1.0689-3.2067 1.6033-4.0975 1.6033-6.7697 1.6033-1.7815 0-3.9193-0.53445-1.9596-0.3563-3.7411-1.247t-3.2067-2.1378q-1.2471-1.247-1.4252-2.6722 0-0.89075 0.1781-1.7815 0.3563-1.0689 1.2471-1.9596 1.9596-2.1378 3.563-3.2067 1.6033-1.247 2.8503-1.7815 2.316-1.247 4.4538 0.3563 1.4252 0.53445 2.3159 0.89075 1.0689 0.17815 3.0286 0.17815 1.7815 0 2.6722-0.7126 1.0689-0.89075 1.0689-1.7815 0-1.4252-1.0689-3.563-1.0689-2.3159-3.0285-4.81-1.4252-1.7815-3.2067-4.81-1.7815-3.2067-2.6723-5.1663-0.7126-1.6033-1.247-3.563-0.5345-2.1378-0.5345-3.9193 0-4.81 3.3849-9.6201 3.3848-4.81 7.3041-7.8386 2.1378-1.7815 4.6319-3.2067 2.6722-1.4252 5.5226-2.4941 2.8504-1.0689 5.5227-1.6034 2.8503-0.53445 4.9881-0.53445zm-68.967 0.17815q1.9596 0 3.2067 1.4252 1.4251 1.247 2.3159 2.3159 0.5344 1.6033 2.3159 0.3563 2.1378-1.9596 4.2756-0.53445 3.7412 2.1378 3.7412 3.7411 0.1781 1.6033-0.1782 2.8504-3.563 8.0167-5.7008 16.212-2.1378 8.0167-2.1378 16.033 0 4.6319 1.2471 6.7697 1.247 1.9596 3.2067 1.9596 1.6033 0 4.4537-1.9596 2.8504-1.9596 6.5915-5.3445 3.7412-3.563 7.8386-8.373 4.2756-4.81 8.5512-10.689 1.4252-1.4252 2.6722-1.247 1.2471 0 1.7815 0.89075 0.7126 1.247 0.1782 3.563-0.5345 2.1378-1.7815 4.6319-3.0286 5.8789-7.4823 11.58-4.4537 5.7008-9.4419 10.333-4.9882 4.6319-10.154 7.4823-4.9882 2.8504-9.2638 2.8504-4.9882 0-8.373-3.7411-3.2067-3.7411-3.7412-9.2638-0.3563-1.9596-0.3563-3.3848t0-2.8504q-0.1781-1.9596-1.6033-0.53445-0.8908 0.89075-2.8504 2.8504t-4.4537 4.0974q-2.316 2.1378-4.9882 4.2756-2.4941 2.1378-4.2756 3.3848-6.9478 5.1663-12.292 5.1663-0.8908 0-2.4941-0.7126-1.4252-0.7126-2.8504-1.9596-1.4252-1.4252-2.6722-3.3848-1.0689-1.9596-1.0689-4.4537 0-2.6722 1.247-7.3041 1.2471-4.6319 5.5226-12.827 3.563-7.126 8.7294-13.361 5.1663-6.4134 10.867-11.58 3.7411-3.2067 6.9478-4.9882 3.2067-1.9596 5.7008-2.8504 2.4941-0.89075 4.2756-1.0689 1.7815-0.3563 2.4941-0.3563zm-6.5916 13.361q-1.247 0-3.563 1.7815-2.1377 1.7815-6.057 6.4134-2.316 2.6722-4.4538 5.8789-1.9596 3.0285-3.563 6.0571-1.6033 2.8504-2.6722 5.5226t-1.4252 4.4537q-0.3563 1.7815-0.1781 3.3848 0.3563 1.4252 1.4252 1.4252t2.8503-1.0689q1.9597-1.247 3.9193-3.0285 2.316-1.9596 4.4538-4.6319 2.3159-2.8504 6.4133-7.4823 1.9597-2.1378 3.7412-5.1663t2.3159-3.9193q0.8908-1.4252 1.0689-2.8504 0.3563-1.6033 0-3.0285-0.3563-1.247-1.4252-2.4941-1.0689-1.247-2.8504-1.247zm-66.845 39.193q4.9882 0 10.333-0.89075 5.5226-0.89075 10.154-2.8504 3.3849-1.4252 3.563 0.3563 0.3563 1.7815-1.6033 3.9193-5.3445 6.2352-14.074 9.0856-8.7294 2.8504-17.993 2.8504-3.563 0-7.3041-0.3563-3.7412-0.17815-6.5916-0.53445-3.0285-0.53445-4.6319-0.89075-1.6033-0.17815-2.494-0.17815-1.4252 0-2.8504 0.53445-1.4252 0.7126-3.3849 1.7815-1.9596 1.0689-4.4537 0.53445-2.316-0.53445-2.8504-3.0285-0.3563-1.247-1.0689-2.6722-0.7126-1.6033-1.6033-3.2067-0.8908-1.4252-0.5345-3.7411t1.9597-3.7411q2.6722-2.6722 4.9881-2.6722 0.7126 0 1.2471-0.3563 0.5344-0.3563 1.0689-1.7815 1.9596-4.2756 4.0974-10.155t4.0974-12.114q2.1378-6.2352 3.9193-12.292 1.9597-6.2352 3.2067-11.045 0.8908-3.0285-0.5344-3.2067-1.9597-0.3563-4.4538-1.7815-2.3159-1.6033-2.3159-3.7411 0-2.1378 2.8504-2.6722 4.0974-0.89074 7.3041-2.6722 3.2067-1.9596 4.81-3.9193 1.9597-2.4941 5.5227-2.4941 3.0285 0 6.0571 1.9596 3.0285 1.9596 4.0974 4.6319 1.247 3.0285-1.0689 5.8789-1.4252 1.6034-2.6722 4.4537-1.2471 2.6722-2.1378 4.9882-0.5345 1.4252-1.2471 3.563t-2.1378 5.8789q-1.247 3.563-3.2067 8.7293-1.9596 5.1663-4.81 12.47-2.4941 6.2352-4.0974 9.9764-1.4252 3.7411-2.1378 5.1663-0.3563 0.89075-0.1782 1.7815 0.1782 0.89075 1.4252 1.247 1.2471 0.53445 3.9193 1.0689 2.6722 0.53445 5.7008 1.0689 3.2067 0.53445 6.4134 0.89075 3.2067 0.17815 5.7007 0.17815z" fill="#ef010d" stroke-width="4.4537px"/>
			</g>
		</g>
	</g>
</svg>
