<svg width="319.36" height="55.428" version="1.1" viewBox="0 0 84.499 14.665" xmlns="http://www.w3.org/2000/svg">
	<g transform="translate(-.25286 -235.13)">
		<path d="m4.6213 246.9-3.5463-0.22949c-0.85373-0.5794-0.55019-1.0624-0.24664-1.7382l0.84541-2.5405 0.84542-2.5405c0.34847-1.0733 0.50405-1.6644 1.9134-1.7732 1.0448 0 2.0897 0 3.1345-1e-5 0.71269-0.89321 1.1361-2.4615 2.1381-2.6796l21.08 0.0987 20.26-0.0459c2.2663-7e-3 1.2055 1.8169 0.81974 2.436l32.078 0.38187c0.91867 0.46289 0.43418 1.5271 0.25036 2.1905l-1.6828 4.6834c-0.31804 0.80669-0.50245 1.6134-1.8562 1.7185h-32.016c-0.65526 1.8318-0.922 2.5831-2.3734 2.6732h-41.587c-0.88349-0.6097-0.31791-1.6393-0.057604-2.6347zm11.156-1.566 0.40876-0.76378h-5.3732v-5.7282h-2.2913v7.2558h6.847zm7.0058-4.0098 0.1338-0.16791 0.1338-0.1679 1.319 1.8139 0.67044 1.0191 0.47755 0.77795-3.5552-0.11908-0.43283 0.80875-0.43283 0.80874h7.6645v-0.43596l-1.7852-2.5507-1.7852-2.5507-1.5273-1.7185h-1.3424l-2.2542 3.1505-2.8074 4.1052h2.2257c1.0992-1.5912 2.1984-3.1824 3.2976-4.7736zm16.176 0.76377-6.57-0.38189v-1.1456l6.2093-0.22026c0.45193-0.49938 0.90386-0.99875 1.3558-1.4981h-6.8783c-2.6827 0.18846-2.739 3.2578-1.6434 4.171l3.3424 0.11027 3.3424 0.11041v1.1457l-6.454 0.22429-0.99277 1.4942h8.0196c1.7659-1.501 2.0349-2.5391 0.26894-4.0098zm6.9869 1.1164v-2.6041l2.7777-0.0499 1.1343-1.7083h-7.8616l-1.3967 1.724 3.437 0.016v5.5158h1.9094zm4.4424 1.0552v-0.40123h2.4601c1.7839-0.0235 1.3387-0.35112 1.5522-0.83067v-1.1472c-0.16275-0.47955 0.07981-0.75643-1.5522-0.83068h-2.814l-0.24797 0.40122-0.24797 0.40123h4.0596v1.2037h-4.0123v1.6049h0.80245zm8.5746 0.0838 0.3988-0.52002-2.9043-0.0334-0.05066-1.0915v-1.6488h-0.80246v3.611h3.1625zm2.2719 0.0165 0.01334-0.30093 1.6551-1.9894 1.3238 1.6173-1.807-0.0734-0.58779 1.0435 4.0471-0.0137-2.747-3.5931h-0.57118l-2.5933 3.611h1.2535l0.01334-0.30092zm7.2087-0.55509 1.0507-1.3775 1.0507-1.3775h-0.83946l-0.81854 1.0406-0.81854 1.0406-1.964-2.2818-0.50247 0.50108 2.0391 2.4234v0.88723h0.80246zm4.0033 0.14892 0.0089-0.70976 2.6725-0.0164 0.22748-0.61638-2.8999-3e-3v-0.75631h2.7612l0.49594-0.80245h-4.0596v3.611l3.5036 1e-3 0.44064-0.73281zm7.5434-2.904h-2.2711l-0.24797 0.40123-0.24797 0.40122h3.1713c0.61654 1.1549 0.4331 1.1152-0.34198 2.0491h-2.3091l-0.07165-0.44421v-0.80245h-0.80246v2.0061h4.0295c1.3748-0.85891 1.2945-3.5385-0.90856-3.611z" fill="#fefefe"/>
		<g stroke-width=".26458"></g>
	</g>
</svg>
