<svg width="240px" height="34px" clip-rule="evenodd" fill-rule="evenodd" image-rendering="optimizeQuality" shape-rendering="geometricPrecision" text-rendering="geometricPrecision" version="1.1" viewBox="0 0 239.88 34.38" xmlns="http://www.w3.org/2000/svg">
	<defs>
		<style type="text/css"><![CDATA[
    .fil0 {fill:url(#id0)}
    .fil2 {fill:url(#id1);fill-rule:nonzero}
    .fil1 {fill:url(#id2);fill-rule:nonzero}
   ]]></style>
		<linearGradient id="id0" x1="119.94" x2="119.94" y2="34.38" gradientUnits="userSpaceOnUse">
			<stop offset="0"/>
			<stop offset=".36078"/>
			<stop stop-color="#545966" offset=".50196"/>
			<stop offset="1"/>
		</linearGradient>
		<linearGradient id="id1" x1="119.94" x2="119.94" y1=".93" y2="33.45" gradientUnits="userSpaceOnUse">
			<stop stop-color="#E7E7E7" offset="0"/>
			<stop stop-color="#1F1B20" offset=".52157"/>
			<stop stop-color="#E6E6E6" offset="1"/>
		</linearGradient>
		<linearGradient id="id2" x1="121.88" x2="121.22" y1="1.04" y2="33.34" gradientUnits="userSpaceOnUse">
			<stop stop-color="gray" offset="0"/>
			<stop stop-color="#FEFEFE" offset=".34902"/>
			<stop stop-color="#FEFEFE" offset=".63922"/>
			<stop stop-color="#4A4949" offset="1"/>
		</linearGradient>
	</defs>
	<path class="fil0" d="m193.95 4.51 4.7-4.51h17.83l-0.05 10.5h-11.99l-0.08 1.44h12.16l-0.11 10.5h-12.17l0.03 1.44h11.97l-0.11 10.5h-17.82l-4.68-4.6 0.19-19.99-6.01 8.66-0.11 15.93h-10.6l0.16-15.96-5.78-8.79 0.1-9.63h10.51l-0.12 6.32 0.72 1.14 0.72-1.16 0.06-6.3h10.5l-0.02 4.51zm-68.65-0.02 0.02-4.49h10.56l-0.3 23.83h12.2l-0.09 10.55h-17.83l-4.68-4.65 0.04-7.89-4.72 4.47h-7.32l-0.03 8.07h-10.55l0.14-29.75 4.81-4.63h13.23l4.52 4.49zm-79.71 0.09 4.82-4.58h12.88l4.99 4.59-0.38 8.78h-4.17l4.24 4.21 0.1 12.21-4.83 4.59h-13.21l-4.57-4.49-0.03 4.49h-10.5l0.07-8.07h-1.67l-0.07 8.07h-10.49l0.12-29.82 5.13-4.56h12.92l4.65 4.58zm0.01 2.55-0.09 13.88h4.18l-4.05-4.23-0.04-9.65zm11.94 3.42h-1.42l-0.1 2.39h1.38l0.14-2.39zm-1.63 10.84 0.06 2.44h1.48l0.13-2.44h-1.67zm-45.51 2.44h12.2l-0.09 10.55h-17.83l-4.68-4.65 0.14-29.73h10.56l-0.3 23.83zm75.02-13.28-0.26 23.83h-10.5l0.26-23.83h-6.24l0.09-10.55h22.72l-0.15 10.55h-5.92zm74.76 15.76h-1.67l-0.07 8.07h-10.5l0.13-29.82 5.13-4.56h12.92l4.67 4.6-0.18 29.78h-10.5l0.07-8.07zm74.63 8.07h-17.84l0.41-34.38h17.77l4.73 4.59-0.25 25.21-4.82 4.58zm-199.68-18.29-0.14-5.54h-1.43l-0.06 5.54h1.63zm78.21 0h1.39l0.06-5.54h-1.39l-0.06 5.54zm46.97 0-0.14-5.54h-1.43l-0.06 5.54h1.63zm67.46-5.59-0.18 13.38h1.67l0.17-13.38h-1.66z"/>
	<path class="fil1" d="m1.37 1.24h8.07l-0.3 23.83h12.21l-0.07 8.07h-16.09l-3.95-3.92 0.13-27.98zm30.66 31.9h-8.02l0.12-28.03 4.36-3.87h11.94l3.94 3.87-0.17 28.03h-8.02l0.07-8.07h-4.14l-0.08 8.07zm4.37-15.81-0.19-8.02h-3.88l-0.08 8.02h4.15zm22.29-5.2 0.17-2.82h-3.92l-0.22 4.87h8.06l3.95 3.92 0.1 11.17-4.08 3.87h-12.22l-3.94-3.87 0.03-7.02h8.07l0.06 2.82h3.88l0.25-4.92h-8.29l-3.71-3.87-0.05-11.17 4.08-3.87h11.89l4.22 3.87-0.31 7.02h-8.02zm11.31-10.89h20.24l-0.12 8.07h-5.93l-0.25 23.83h-8.02l0.25-23.83h-6.24l0.07-8.07zm42.09 16.09h3.87l0.08-8.02h-3.87l-0.08 8.02zm7.92 7.74h-8.07l-0.03 8.07h-8.06l0.13-27.98 4.07-3.92h12.21l3.95 3.92-0.12 16.04-4.08 3.87zm6.54-23.83h8.07l-0.3 23.83h12.21l-0.07 8.07h-16.09l-3.95-3.92 0.13-27.98zm30.66 31.9h-8.02l0.12-28.03 4.36-3.87h11.94l3.94 3.87-0.17 28.03h-8.02l0.07-8.07h-4.14l-0.08 8.07zm4.37-15.81-0.19-8.02h-3.88l-0.08 8.02h4.15zm11.23-16.09h8.02l-0.1 5.42 1.95 3.15 1.97-3.15 0.05-5.42h8.02l-0.04 8.02-6.11 8.8-0.1 15.08h-8.11l0.14-15.08-5.78-8.8 0.09-8.02zm30.24 23.88h11.94l-0.09 8.02h-16.08l-3.94-3.87 0.23-24.16 4.04-3.87h16.08l-0.04 8.02h-11.94l-0.19 3.92h12.21l-0.08 8.02h-12.22l0.08 3.92zm31.27 8.02h-16.09l0.38-31.9h16.04l3.98 3.87-0.23 24.16-4.08 3.87zm-7.78-23.88-0.21 15.86h4.15l0.21-15.86h-4.15z"/>
	<path class="fil2" d="m1.37 0.93h8.38l-0.3 23.83h12.21l-0.08 8.69h-16.51c-1.38-1.37-2.76-2.73-4.14-4.1 0.03-9.47 0.09-18.95 0.14-28.42h0.3zm7.76 0.62h-7.45l-0.13 27.54 3.77 3.74h15.65l0.07-7.45h-12.21l0.3-23.83zm22.9 31.9h-8.33c0.04-9.49 0.08-18.98 0.13-28.48l4.54-4.04h12.18c1.38 1.35 2.75 2.71 4.13 4.05-0.07 9.49-0.13 18.98-0.17 28.47h-8.64l0.07-8.07h-3.53l-0.07 8.07h-0.31zm-7.71-0.62h7.4l0.08-8.07h4.77l-0.08 8.07h7.4l0.17-27.59-3.76-3.69h-11.69l-4.17 3.7-0.12 27.58zm11.76-15.81-0.17-7.4h-3.27l-0.08 7.4h3.52zm0.44-7.72 0.19 8.34h-4.77l0.09-8.64h4.48l0.01 0.3zm21.86 2.82 0.15-2.5h-3.3l-0.19 4.25h7.87l4.13 4.1c0.03 3.81 0.06 7.62 0.1 11.43l-4.27 4.05h-12.46l-4.12-4.06c0-2.48 0.01-4.97 0.03-7.45h8.67l0.07 2.82h3.27l0.23-4.3h-8.1c-1.3-1.35-2.6-2.7-3.89-4.06-0.02-3.8-0.04-7.61-0.05-11.42l4.27-4.05h12.13l4.41 4.05-0.32 7.46h-8.65l0.02-0.32zm0.78-2.8-0.14 2.5h7.4l0.28-6.58-4.02-3.69h-11.65l-3.89 3.7 0.05 10.9 3.53 3.69h8.49l-0.29 5.54h-4.47l-0.06-2.82h-7.46l-0.03 6.58 3.76 3.69h11.96l3.9-3.7-0.1-10.9-3.76-3.74h-8.27l0.25-5.49h4.54l-0.02 0.32zm10.84-8.39h20.55l-0.13 8.69h-5.92l-0.26 23.83h-8.64l0.26-23.83h-6.24l0.08-8.69h0.3zm19.92 0.62h-19.61l-0.07 7.45h6.24l-0.25 23.83h7.4l0.26-23.83h5.92l0.11-7.45zm22.48 15.47h3.25l0.08-7.4h-3.25l-0.08 7.4zm3.56 0.62h-4.18l0.09-8.64h4.49l-0.09 8.64h-0.31zm4.05 7.74h-7.76l-0.03 8.07h-8.68c0.04-9.48 0.09-18.95 0.13-28.42l4.26-4.1h12.46l4.13 4.1c-0.03 5.43-0.07 10.87-0.12 16.3-1.42 1.36-2.85 2.7-4.27 4.05h-0.12zm-8.07-0.62h7.95l3.89-3.7 0.12-15.77-3.76-3.74h-11.96l-3.89 3.74-0.13 27.54h7.45l0.03-8.07h0.3zm14.61-23.83h8.38l-0.3 23.83h12.21l-0.08 8.69h-16.52l-4.13-4.1c0.05-9.47 0.1-18.95 0.14-28.42h0.3zm7.76 0.62h-7.45l-0.13 27.54 3.77 3.74h15.65l0.07-7.45h-12.21l0.3-23.83zm22.9 31.9h-8.33c0.05-9.49 0.1-18.99 0.12-28.48 1.52-1.34 3.04-2.69 4.55-4.04h12.18l4.13 4.05c-0.05 9.49-0.12 18.98-0.17 28.47h-8.64l0.07-8.07h-3.53l-0.07 8.07h-0.31zm-7.71-0.62h7.4l0.08-8.07h4.76l-0.07 8.07h7.4l0.17-27.59-3.76-3.69h-11.69l-4.17 3.7-0.12 27.58zm11.76-15.81-0.17-7.4h-3.27l-0.08 7.4h3.52zm0.44-7.72 0.19 8.34h-4.77l0.09-8.64h4.48l0.01 0.3zm11.11-8.37h8.33l-0.1 5.65 1.65 2.64 1.65-2.65 0.06-5.64h8.63c-0.01 2.81-0.02 5.62-0.04 8.43l-6.11 8.79-0.11 15.3h-8.73l0.15-15.3-5.78-8.8c0.04-2.81 0.06-5.61 0.09-8.42h0.31zm7.7 0.62h-7.4l-0.08 7.62 5.78 8.79-0.14 14.87h7.49l0.1-14.87 6.11-8.8 0.04-7.61h-7.4l-0.06 5.2-2.27 3.64-2.26-3.64 0.09-5.2zm22.84 23.26h11.95l-0.09 8.64h-16.52l-4.12-4.06c0.09-8.13 0.16-16.27 0.23-24.41l4.22-4.05h16.52l-0.04 8.64h-11.95l-0.17 3.3h12.2l-0.09 8.64h-12.2l0.06 3.3zm11.32 0.62h-11.93l-0.08-4.54h12.22l0.08-7.4h-12.23l0.23-4.54h11.93l0.03-7.4h-15.65l-3.85 3.7-0.23 23.89 3.75 3.69h15.66l0.07-7.4zm19.65 8.02h-16.4c0.12-10.84 0.26-21.68 0.38-32.52h16.47l4.17 4.05c-0.08 8.14-0.14 16.28-0.24 24.42-1.41 1.35-2.84 2.7-4.26 4.05h-0.12zm-15.78-0.62h15.65l3.9-3.7 0.23-23.89-3.8-3.69h-15.61l-0.37 31.28zm8.31-23.26-0.2 15.24h3.52l0.2-15.24h-3.52zm-0.83 15.54 0.21-16.16h4.77l-0.21 16.48h-4.77v-0.32z"/>
</svg>
