<svg id="TEXT" width="568.93" height="159.78" enable-background="new 0 -0.001 566.929 157.78" version="1.1" viewBox="0 -.001 568.93 159.78" xmlns="http://www.w3.org/2000/svg">
	<polygon transform="translate(1 1.0004)" points="557.95 5.927 479.95 5.642 406.66 79.217 396.4 79.784 396.69 9.001 355.48 51.055 345.62 52.224 345.62 9.374 261.26 92.842 250.78 93.958 251.67 8.077 177.94 82.94 168.26 82.987 167.12 11.089 127.34 51.15 116.28 51.717 116.7 8.939 11.591 114.9 46.209 114.33 91.598 70.276 100.3 70.276 99.883 114.54 136.04 77.543 144.68 77.543 144.68 115.23 104.89 154.73 143.02 154.16 218.04 78.299 228.14 78.299 228.14 115.57 274.9 115.85 320.12 70.353 328.84 69.786 328.71 112.8 364.84 76.667 373.38 76.667 373.94 113.1 373.2 115 482.38 115 503.28 93.815 435.4 92.661 434.78 82.809 445.36 71.67 470.97 71.667 493.22 49.133 479.77 48.565 479.77 39.082 491.19 27.662 536.78 27.946" fill="#fff"/>
	<linearGradient id="SVGID_2_" x1="64.71" x2="60.765" y1="938.79" y2="934.84" gradientTransform="translate(.8203 -874.41)" gradientUnits="userSpaceOnUse">
		<stop stop-color="#08406F" offset="0"/>
		<stop stop-color="#60C5F5" offset="1"/>
	</linearGradient>
	<path d="m115.69 14.213-101.12 101.12-11.471 4.313s-0.604 0.039-0.271-0.445c0 0 117.26-117.29 117.47-117.47 0.212-0.181 0.467-0.028 0.467-0.028z" fill="url(#SVGID_2_)"/>
	<linearGradient id="SVGID_3_" x1="123.3" x2="119.67" y1="1013.9" y2="1010.3" gradientTransform="translate(.8203 -874.41)" gradientUnits="userSpaceOnUse">
		<stop stop-color="#08406F" offset="0"/>
		<stop stop-color="#60C5F5" offset="1"/>
	</linearGradient>
	<path d="m146.81 116.8-37.518 37.521-11.065 4.457s-0.576 0.065-0.236-0.407l43.929-43.749z" fill="url(#SVGID_3_)"/>
	<linearGradient id="SVGID_4_" x1="25.724" x2="25.724" y1="994.05" y2="989.74" gradientTransform="translate(-.1797 -875.41)" gradientUnits="userSpaceOnUse">
		<stop stop-color="#08406F" offset="0"/>
		<stop stop-color="#60C5F5" offset="1"/>
	</linearGradient>
	<polygon transform="translate(1 1.0004)" points="13.603 114.33 46.209 114.33 48.982 118.64 2.106 118.64" fill="url(#SVGID_4_)"/>
	<linearGradient id="SVGID_5_" x1="121.19" x2="121.19" y1="1033.2" y2="1028.7" gradientTransform="translate(-.1797 -875.41)" gradientUnits="userSpaceOnUse">
		<stop stop-color="#08406F" offset="0"/>
		<stop stop-color="#60C5F5" offset="1"/>
	</linearGradient>
	<polygon transform="translate(1 1.0004)" points="108.3 153.31 142.17 153.31 144.78 157.77 97.23 157.77" fill="url(#SVGID_5_)"/>
	<linearGradient id="SVGID_6_" x1="427.69" x2="427.69" y1="994.02" y2="989.56" gradientTransform="translate(-.1797 -875.41)" gradientUnits="userSpaceOnUse">
		<stop stop-color="#08406F" offset="0"/>
		<stop stop-color="#60C5F5" offset="1"/>
	</linearGradient>
	<polygon transform="translate(1 1.0004)" points="374.05 114.15 481.53 114.15 484.79 118.61 370.24 118.58" fill="url(#SVGID_6_)"/>
	<linearGradient id="SVGID_7_" x1="251.06" x2="251.06" y1="994.89" y2="990.42" gradientTransform="translate(.8203 -874.41)" gradientUnits="userSpaceOnUse">
		<stop stop-color="#08406F" offset="0"/>
		<stop stop-color="#60C5F5" offset="1"/>
	</linearGradient>
	<path d="m278.05 120.48-51.527-0.029c-0.333 5e-3 -0.81-0.335-0.81-0.335l4.561-4.115h45.054z" fill="url(#SVGID_7_)"/>
	<linearGradient id="SVGID_8_" x1="522.28" x2="522.28" y1="882.19" y2="877.32" gradientTransform="translate(.8203 -874.41)" gradientUnits="userSpaceOnUse">
		<stop stop-color="#08406F" offset="0"/>
		<stop stop-color="#60C5F5" offset="1"/>
	</linearGradient>
	<path d="m478.38 2.9134h88.652c0.785 0 0.785 0.313 0.785 0.313l-10.572 4.55h-75.164z" fill="url(#SVGID_8_)"/>
	<linearGradient id="SVGID_9_" x1="515.01" x2="515.01" y1="906.71" y2="902.5" gradientTransform="translate(-.1797 -875.41)" gradientUnits="userSpaceOnUse">
		<stop stop-color="#08406F" offset="0"/>
		<stop stop-color="#60C5F5" offset="1"/>
	</linearGradient>
	<polygon transform="translate(1 1.0004)" points="490.62 27.094 535.93 27.094 539.04 31.304 492.7 31.304" fill="url(#SVGID_9_)"/>
	<linearGradient id="SVGID_10_" x1="459.37" x2="459.37" y1="950.23" y2="946.51" gradientTransform="translate(-.1797 -875.41)" gradientUnits="userSpaceOnUse">
		<stop stop-color="#08406F" offset="0"/>
		<stop stop-color="#60C5F5" offset="1"/>
	</linearGradient>
	<polygon transform="translate(1 1.0004)" points="444.79 71.102 470.4 71.1 473.59 74.82 448.91 74.82" fill="url(#SVGID_10_)"/>
	<linearGradient id="SVGID_11_" x1="490.16" x2="490.16" y1="925.11" y2="919.56" gradientTransform="translate(.8203 -874.41)" gradientUnits="userSpaceOnUse">
		<stop stop-color="#08406F" offset="0"/>
		<stop stop-color="#60C5F5" offset="1"/>
	</linearGradient>
	<path d="m492.8 50.7h-13.58l-1.193-5.548h25.467c0.346-0.043 0.441 0.146 0.441 0.146z" fill="url(#SVGID_11_)"/>
	<linearGradient id="SVGID_12_" x1="74.389" x2="70.846" y1="968.83" y2="965.28" gradientTransform="translate(.8203 -874.41)" gradientUnits="userSpaceOnUse">
		<stop stop-color="#08406F" offset="0"/>
		<stop stop-color="#60C5F5" offset="1"/>
	</linearGradient>
	<path d="m97.872 71.634-47.89 48.009-2.773-4.313 46.601-46.365c2-2.313 4.675-1.731 4.675-1.731z" fill="url(#SVGID_12_)"/>
	<linearGradient id="SVGID_13_" x1="120.26" x2="114.89" y1="904.37" y2="904.37" gradientTransform="translate(.8203 -874.41)" gradientUnits="userSpaceOnUse">
		<stop stop-color="#08406F" offset="0"/>
		<stop stop-color="#60C5F5" offset="1"/>
	</linearGradient>
	<path d="m115.71 52.669v-38.476l5.063-12.499s0.303 0.075 0.303 0.571v53.647l-0.315 2.311c0 1e-3 -4.496 0.025-5.051-5.554z" fill="url(#SVGID_13_)"/>
	<linearGradient id="SVGID_14_" x1="173.08" x2="166.42" y1="919.96" y2="919.96" gradientTransform="translate(.8203 -874.41)" gradientUnits="userSpaceOnUse">
		<stop stop-color="#08406F" offset="0"/>
		<stop stop-color="#60C5F5" offset="1"/>
	</linearGradient>
	<path d="m173.9 89.843s-6.539 1.95-6.621-5.625c-0.08-7.313-0.013-69.291-0.013-69.291l5.214-13.896s0.182-0.027 0.182 0.725l-0.017 81.793z" fill="url(#SVGID_14_)"/>
	<linearGradient id="SVGID_15_" x1="255.99" x2="250" y1="925.22" y2="925.22" gradientTransform="translate(.8203 -874.41)" gradientUnits="userSpaceOnUse">
		<stop stop-color="#08406F" offset="0"/>
		<stop stop-color="#60C5F5" offset="1"/>
	</linearGradient>
	<path d="m256.81 99.91s-5.889 0.577-5.96-6.088l-0.033-80.063 4.651-12.071s0.583 0.153 0.583 0.907l-0.016 91.14z" fill="url(#SVGID_15_)"/>
	<linearGradient id="SVGID_16_" x1="349.28" x2="343.58" y1="904.62" y2="904.62" gradientTransform="translate(.8203 -874.41)" gradientUnits="userSpaceOnUse">
		<stop stop-color="#08406F" offset="0"/>
		<stop stop-color="#60C5F5" offset="1"/>
	</linearGradient>
	<path d="m350.1 58.425s-4.868 0.452-5.701-4.563v-39.723l4.393-12.147s0.563 0.134 0.563 0.886v49.667z" fill="url(#SVGID_16_)"/>
	<linearGradient id="SVGID_17_" x1="400.96" x2="395.16" y1="918.45" y2="918.45" gradientTransform="translate(.8203 -874.41)" gradientUnits="userSpaceOnUse">
		<stop stop-color="#08406F" offset="0"/>
		<stop stop-color="#60C5F5" offset="1"/>
	</linearGradient>
	<path d="m401.78 86.333s-4.938 0.643-5.797-4.373v-67.706l4.85-12.544s0.268 0.221 0.268 1.708v77.226z" fill="url(#SVGID_17_)"/>
	<linearGradient id="SVGID_18_" x1="101.77" x2="96.654" y1="968.94" y2="968.94" gradientTransform="translate(.8203 -874.41)" gradientUnits="userSpaceOnUse">
		<stop stop-color="#08406F" offset="0"/>
		<stop stop-color="#60C5F5" offset="1"/>
	</linearGradient>
	<path d="m98.759 121.82s-0.833-0.069-0.809-1.149c-1e-3 -0.917-0.078-49.036-0.078-49.036s-1.218-1.577 0.613-4.4c0.547 0.131 3.495 0.727 4.101 4.256v40.37z" fill="url(#SVGID_18_)"/>
	<linearGradient id="SVGID_19_" x1="121.25" x2="117.7" y1="973.84" y2="970.29" gradientTransform="translate(.8203 -874.41)" gradientUnits="userSpaceOnUse">
		<stop stop-color="#08406F" offset="0"/>
		<stop stop-color="#60C5F5" offset="1"/>
	</linearGradient>
	<path d="m141.84 79.598s-41.489 41.548-41.883 41.938c-0.346 0.379-1.202 0.282-1.202 0.282l3.827-9.963 36.059-36.088s1.34-1.727 3.831-1.637z" fill="url(#SVGID_19_)"/>
	<linearGradient id="SVGID_20_" x1="553.44" x2="549.77" y1="892.5" y2="888.83" gradientTransform="translate(.8203 -874.41)" gradientUnits="userSpaceOnUse">
		<stop stop-color="#08406F" offset="0"/>
		<stop stop-color="#60C5F5" offset="1"/>
	</linearGradient>
	<path d="m567.61 4.6394-27.566 27.665-3.115-4.211 20.312-20.324 10.582-4.542c0 1e-3 0.349 0.847-0.213 1.412z" fill="url(#SVGID_20_)"/>
	<linearGradient id="SVGID_21_" x1="145.99" x2="140.6" y1="969.88" y2="969.88" gradientTransform="translate(.8203 -874.41)" gradientUnits="userSpaceOnUse">
		<stop stop-color="#08406F" offset="0"/>
		<stop stop-color="#60C5F5" offset="1"/>
	</linearGradient>
	<path d="m141.92 114.62-0.079-35.025s-1.301-2.633 0.631-5.456c0.593-7e-3 3.7 0.421 4.339 4.146l-1e-3 38.52z" fill="url(#SVGID_21_)"/>
	<linearGradient id="SVGID_22_" x1="148.78" x2="144.29" y1="907.01" y2="902.52" gradientTransform="translate(.8203 -874.41)" gradientUnits="userSpaceOnUse">
		<stop stop-color="#08406F" offset="0"/>
		<stop stop-color="#60C5F5" offset="1"/>
	</linearGradient>
	<path d="m167.27 14.926-41.462 41.463c-1.987 1.986-5.045 1.836-5.045 1.836-1.795-3.531 0.315-6.065 0.315-6.065s50.503-50.49 50.867-50.87c0.331-0.417 0.541-0.264 0.541-0.264z" fill="url(#SVGID_22_)"/>
	<linearGradient id="SVGID_23_" x1="215.85" x2="211.69" y1="922.32" y2="918.16" gradientTransform="translate(.8203 -874.41)" gradientUnits="userSpaceOnUse">
		<stop stop-color="#08406F" offset="0"/>
		<stop stop-color="#60C5F5" offset="1"/>
	</linearGradient>
	<path d="m250.82 13.762-74.376 74.375c-1.55 1.551-2.537 1.703-2.537 1.703-3.781-1.878-1.213-6.255-1.213-6.255s80.652-80.635 81.016-81.015c0.943-1.093 1.761-0.883 1.761-0.883z" fill="url(#SVGID_23_)"/>
	<linearGradient id="SVGID_24_" x1="304.32" x2="299.93" y1="927.81" y2="923.43" gradientTransform="translate(.8203 -874.41)" gradientUnits="userSpaceOnUse">
		<stop stop-color="#08406F" offset="0"/>
		<stop stop-color="#60C5F5" offset="1"/>
	</linearGradient>
	<path d="m344.4 14.139-84.163 84.161c-1.429 1.432-3.424 1.608-3.424 1.608-3.115-1.556-0.776-6.175-0.776-6.175s90.61-90.5 90.974-90.881c0.941-1.098 1.781-0.862 1.781-0.862z" fill="url(#SVGID_24_)"/>
	<linearGradient id="SVGID_25_" x1="376.97" x2="372.76" y1="906.86" y2="902.65" gradientTransform="translate(.8203 -874.41)" gradientUnits="userSpaceOnUse">
		<stop stop-color="#08406F" offset="0"/>
		<stop stop-color="#60C5F5" offset="1"/>
	</linearGradient>
	<path d="m395.98 14.254-42.513 42.514c-1.429 1.432-3.374 1.657-3.374 1.657-2.932-1.908-0.588-5.983-0.588-5.983s49.584-49.69 49.947-50.07c1.047-1.033 1.377-0.66 1.377-0.66z" fill="url(#SVGID_25_)"/>
	<linearGradient id="SVGID_26_" x1="488.74" x2="485.28" y1="935.26" y2="931.81" gradientTransform="translate(.8203 -874.41)" gradientUnits="userSpaceOnUse">
		<stop stop-color="#08406F" offset="0"/>
		<stop stop-color="#60C5F5" offset="1"/>
	</linearGradient>
	<path d="m503.96 46.453-29.369 29.367-3.188-3.722 21.399-21.398 11.135-5.401s0.414 0.294 0.023 1.154z" fill="url(#SVGID_26_)"/>
	<linearGradient id="SVGID_27_" x1="499.81" x2="495.85" y1="979.38" y2="975.42" gradientTransform="translate(.8203 -874.41)" gradientUnits="userSpaceOnUse">
		<stop stop-color="#08406F" offset="0"/>
		<stop stop-color="#60C5F5" offset="1"/>
	</linearGradient>
	<path d="m514.63 90.96-28.848 28.651-3.258-4.465 20.049-20.049 12.289-5.38c1e-3 3e-3 0.397 0.435-0.232 1.243z" fill="url(#SVGID_27_)"/>
	<linearGradient id="SVGID_28_" x1="441.84" x2="437.55" y1="921.61" y2="917.33" gradientTransform="translate(.8203 -874.41)" gradientUnits="userSpaceOnUse">
		<stop stop-color="#08406F" offset="0"/>
		<stop stop-color="#60C5F5" offset="1"/>
	</linearGradient>
	<path d="m482.08 7.7774-76.912 76.913c-1.43 1.432-3.395 1.644-3.395 1.644-2.449-3.092-0.686-5.979-0.686-5.979l77.289-77.44z" fill="url(#SVGID_28_)"/>
	<linearGradient id="SVGID_29_" x1="486.86" x2="481.74" y1="916.65" y2="911.54" gradientTransform="translate(.8203 -874.41)" gradientUnits="userSpaceOnUse">
		<stop stop-color="#08406F" offset="0"/>
		<stop stop-color="#60C5F5" offset="1"/>
	</linearGradient>
	<path d="m493.7 32.304-12.676 12.786c-2.771 2.282-1.801 5.608-1.801 5.608-2.25-0.21-3.125-2.065-3.412-3.695-0.285-1.63 0.303-3.422 1.348-4.467l14.469-14.44z" fill="url(#SVGID_29_)"/>
	<linearGradient id="SVGID_30_" x1="185.98" x2="182.34" y1="992.33" y2="988.69" gradientTransform="translate(.8203 -874.41)" gradientUnits="userSpaceOnUse">
		<stop stop-color="#08406F" offset="0"/>
		<stop stop-color="#60C5F5" offset="1"/>
	</linearGradient>
	<path d="m143.17 154.32 77.913-77.943s1.437-1.873 4.267-1.771l-0.456 5.223s-78.666 78.506-79.113 78.948z" fill="url(#SVGID_30_)"/>
	<linearGradient id="SVGID_31_" x1="303.03" x2="299.39" y1="969.14" y2="965.5" gradientTransform="translate(.8203 -874.41)" gradientUnits="userSpaceOnUse">
		<stop stop-color="#08406F" offset="0"/>
		<stop stop-color="#60C5F5" offset="1"/>
	</linearGradient>
	<path d="m275.33 116 47.643-47.659s1.437-1.871 4.267-1.771l-0.857 5.621-48.325 48.29z" fill="url(#SVGID_31_)"/>
	<linearGradient id="SVGID_32_" x1="349.89" x2="346.38" y1="973.09" y2="969.58" gradientTransform="translate(.8203 -874.41)" gradientUnits="userSpaceOnUse">
		<stop stop-color="#08406F" offset="0"/>
		<stop stop-color="#60C5F5" offset="1"/>
	</linearGradient>
	<path d="m331.12 111.25 36.779-36.789c0.842-0.843 1.779-1.771 3.396-1.771l-0.107 5.501-43.081 43.043c-0.569 0.563-1.019 0.399-1.019 0.399z" fill="url(#SVGID_32_)"/>
	<linearGradient id="SVGID_33_" x1="370.8" x2="366.38" y1="993.64" y2="989.22" gradientTransform="translate(.8203 -874.41)" gradientUnits="userSpaceOnUse">
		<stop stop-color="#08406F" offset="0"/>
		<stop stop-color="#60C5F5" offset="1"/>
	</linearGradient>
	<path d="m362.98 119.06 7.25-7.281 5.557 2.326-0.734 1.047-3.813 4.437-0.272 0.3h-7.72c-0.34 0.014-0.521-0.271-0.521-0.271s-0.155-0.147 0.253-0.558z" fill="url(#SVGID_33_)"/>
	<linearGradient id="SVGID_34_" x1="229.46" x2="223.42" y1="971.77" y2="971.77" gradientTransform="translate(.8203 -874.41)" gradientUnits="userSpaceOnUse">
		<stop stop-color="#08406F" offset="0"/>
		<stop stop-color="#60C5F5" offset="1"/>
	</linearGradient>
	<path d="m224.98 118.34-0.09-38.515s-1.738-2.016 0.457-5.223c0.673-0.01 4.202 0.478 4.928 4.707l-1e-3 36.694-4.561 4.115c0 3e-3 -0.73-0.475-0.733-1.778z" fill="url(#SVGID_34_)"/>
	<linearGradient id="SVGID_35_" x1="330.3" x2="325.09" y1="968.52" y2="968.52" gradientTransform="translate(.8203 -874.41)" gradientUnits="userSpaceOnUse">
		<stop stop-color="#08406F" offset="0"/>
		<stop stop-color="#60C5F5" offset="1"/>
	</linearGradient>
	<path d="m326.45 120.95-0.08-48.75s-1.472-2.681 0.871-5.621c0.596-9e-3 3.243 0.472 3.885 4.702v39.975l-4.028 10.39c-4e-3 -2e-3 -0.605-0.143-0.648-0.696z" fill="url(#SVGID_35_)"/>
	<linearGradient id="SVGID_36_" x1="374.97" x2="368.73" y1="967.81" y2="967.81" gradientTransform="translate(.8203 -874.41)" gradientUnits="userSpaceOnUse">
		<stop stop-color="#08406F" offset="0"/>
		<stop stop-color="#60C5F5" offset="1"/>
	</linearGradient>
	<path d="m370.23 111.78v-32.629s-2.113-3.379 1.064-6.456c0.693-8e-3 4.132 0.24 4.492 4.323v37.088z" fill="url(#SVGID_36_)"/>
	<linearGradient id="SVGID_37_" x1="440.64" x2="436.22" y1="959.67" y2="955.26" gradientTransform="translate(.8203 -874.41)" gradientUnits="userSpaceOnUse">
		<stop stop-color="#08406F" offset="0"/>
		<stop stop-color="#60C5F5" offset="1"/>
	</linearGradient>
	<path d="m449.91 75.82-13.451 13.479-3.844 4.809c-3.896-2.458-1.953-6.874-0.912-7.925l14.088-14.079z" fill="url(#SVGID_37_)"/>
	<linearGradient id="SVGID_38_" x1="472.92" x2="472.92" y1="969.51" y2="963.71" gradientTransform="translate(.8203 -874.41)" gradientUnits="userSpaceOnUse">
		<stop stop-color="#08406F" offset="0"/>
		<stop stop-color="#60C5F5" offset="1"/>
	</linearGradient>
	<path d="m502.58 95.098h-66.391c-2.502-0.196-3.574-0.992-3.574-0.992-0.012-3.571 3.844-4.809 3.844-4.809l77.746 1e-3c0.543-1e-3 0.662 0.422 0.662 0.422z" fill="url(#SVGID_38_)"/>
	<g transform="translate(1 1.0004)" fill="#fff">
		<path d="m0 142.06v-9.521h2.876l1.728 6.494 1.708-6.494h2.883v9.521h-1.785v-7.496l-1.89 7.496h-1.851l-1.883-7.496v7.496z"/>
		<path d="m17.224 132.53h1.922v5.155c0 0.816 0.024 1.35 0.071 1.592 0.083 0.391 0.278 0.701 0.588 0.938s0.732 0.354 1.27 0.354c0.545 0 0.957-0.11 1.234-0.334 0.277-0.223 0.443-0.496 0.5-0.821 0.056-0.324 0.084-0.863 0.084-1.616v-5.268h1.922v5.001c0 1.144-0.052 1.95-0.155 2.423-0.104 0.472-0.296 0.87-0.575 1.193-0.279 0.324-0.652 0.582-1.12 0.773-0.468 0.192-1.078 0.289-1.832 0.289-0.909 0-1.599-0.104-2.068-0.313-0.47-0.211-0.841-0.482-1.114-0.818-0.273-0.335-0.452-0.688-0.539-1.057-0.125-0.545-0.188-1.353-0.188-2.416z"/>
		<path d="m33.025 142.06v-9.443h1.922v7.84h4.78v1.604h-6.702z"/>
		<path d="m48.385 142.06v-7.91h-2.825v-1.61h7.566v1.61h-2.819v7.91z"/>
		<path d="m60.438 142.06v-9.521h1.922v9.521z"/>
		<path d="m70.324 142.06v-9.521h3.085c1.169 0 1.931 0.048 2.286 0.144 0.545 0.146 1.002 0.453 1.37 0.935 0.368 0.479 0.552 1.098 0.552 1.854 0 0.584-0.106 1.075-0.318 1.477-0.212 0.396-0.482 0.711-0.809 0.938-0.327 0.229-0.659 0.378-0.997 0.452-0.459 0.09-1.124 0.136-1.994 0.136h-1.253v3.594zm1.922-7.91v2.701h1.052c0.757 0 1.264-0.053 1.52-0.15 0.256-0.098 0.456-0.254 0.601-0.467s0.217-0.459 0.217-0.74c0-0.346-0.102-0.633-0.305-0.856-0.204-0.225-0.461-0.362-0.773-0.422-0.229-0.043-0.691-0.063-1.383-0.063z"/>
		<path d="m85.378 142.06v-9.443h1.922v7.84h4.78v1.604h-6.702z"/>
		<path d="m99.582 142.06v-9.521h7.059v1.609h-5.137v2.108h4.78v1.604h-4.78v2.592h5.319v1.604z"/>
	</g>
	<g transform="translate(1 1.0004)" fill="#fff">
		<path d="m189.97 142.06h-2.091l-0.831-2.164h-3.806l-0.786 2.164h-2.039l3.708-9.521h2.032zm-3.539-3.769-1.313-3.532-1.286 3.532z"/>
		<path d="m197.12 142.06v-9.521h4.046c1.018 0 1.757 0.086 2.218 0.258 0.461 0.171 0.83 0.477 1.107 0.912 0.277 0.438 0.416 0.938 0.416 1.5 0 0.714-0.21 1.304-0.63 1.771-0.419 0.465-1.047 0.758-1.883 0.879 0.416 0.242 0.758 0.51 1.029 0.799 0.271 0.291 0.635 0.808 1.094 1.548l1.162 1.856h-2.299l-1.39-2.072c-0.493-0.739-0.832-1.207-1.013-1.398-0.181-0.189-0.375-0.322-0.578-0.396-0.203-0.069-0.526-0.104-0.968-0.104h-0.389v3.978h-1.922zm1.922-5.496h1.422c0.922 0 1.498-0.037 1.727-0.115 0.23-0.077 0.409-0.213 0.539-0.402 0.13-0.188 0.195-0.43 0.195-0.714 0-0.32-0.085-0.579-0.256-0.776-0.171-0.193-0.412-0.318-0.724-0.371-0.156-0.021-0.623-0.031-1.403-0.031h-1.5z"/>
		<path d="m218.94 138.55 1.864 0.593c-0.286 1.041-0.761 1.813-1.425 2.313-0.664 0.504-1.508 0.757-2.53 0.757-1.264 0-2.303-0.433-3.117-1.296-0.814-0.86-1.221-2.044-1.221-3.542 0-1.585 0.409-2.813 1.228-3.689 0.818-0.877 1.894-1.313 3.228-1.313 1.165 0 2.11 0.344 2.838 1.03 0.433 0.406 0.757 0.992 0.974 1.755l-1.903 0.452c-0.113-0.491-0.347-0.881-0.705-1.168-0.358-0.284-0.791-0.428-1.302-0.428-0.706 0-1.278 0.252-1.718 0.76-0.44 0.507-0.66 1.326-0.66 2.461 0 1.203 0.217 2.062 0.65 2.572s0.996 0.767 1.688 0.767c0.511 0 0.95-0.162 1.318-0.486 0.369-0.33 0.633-0.84 0.793-1.538z"/>
		<path d="m237.18 142.06h-2.091l-0.832-2.164h-3.806l-0.786 2.164h-2.039l3.708-9.521h2.033zm-3.539-3.769-1.313-3.532-1.286 3.532z"/>
		<path d="m244.32 132.53h3.514c0.792 0 1.396 0.062 1.812 0.183 0.559 0.165 1.037 0.457 1.435 0.877 0.398 0.419 0.702 0.936 0.91 1.542 0.208 0.608 0.312 1.358 0.312 2.251 0 0.782-0.098 1.458-0.292 2.025-0.238 0.691-0.578 1.254-1.02 1.682-0.333 0.325-0.784 0.578-1.351 0.762-0.424 0.136-0.991 0.203-1.701 0.203h-3.617v-9.521zm1.922 1.613v6.307h1.435c0.537 0 0.924-0.03 1.163-0.092 0.312-0.077 0.57-0.211 0.776-0.396 0.206-0.188 0.374-0.49 0.503-0.92 0.13-0.426 0.195-1.007 0.195-1.743 0-0.733-0.065-1.301-0.195-1.692-0.13-0.396-0.312-0.701-0.545-0.924-0.234-0.223-0.53-0.369-0.89-0.447-0.269-0.063-0.795-0.09-1.578-0.09z"/>
		<path d="m260.06 142.06v-9.521h7.059v1.609h-5.137v2.108h4.78v1.604h-4.78v2.592h5.319v1.604z"/>
	</g>
	<g transform="translate(1 1.0004)" fill="#fff">
		<path d="m283.18 142.06v-9.521h2.877l1.729 6.494 1.707-6.494h2.883v9.521h-1.785v-7.496l-1.891 7.496h-1.854l-1.887-7.496v7.496z"/>
		<path d="m309 142.06h-2.09l-0.832-2.164h-3.809l-0.782 2.164h-2.04l3.709-9.521h2.029zm-3.539-3.769-1.313-3.532-1.286 3.532z"/>
		<path d="m322.25 138.55 1.863 0.593c-0.285 1.041-0.761 1.813-1.425 2.313-0.665 0.505-1.509 0.757-2.53 0.757-1.264 0-2.303-0.433-3.115-1.296-0.813-0.86-1.223-2.044-1.223-3.542 0-1.585 0.409-2.813 1.229-3.689 0.818-0.877 1.896-1.313 3.229-1.313 1.165 0 2.108 0.344 2.839 1.03 0.434 0.406 0.76 0.992 0.977 1.755l-1.902 0.452c-0.111-0.491-0.35-0.881-0.704-1.168-0.356-0.284-0.791-0.428-1.303-0.428-0.705 0-1.277 0.252-1.718 0.76-0.439 0.507-0.66 1.326-0.66 2.461 0 1.203 0.218 2.062 0.648 2.572 0.434 0.51 0.994 0.767 1.688 0.767 0.51 0 0.946-0.162 1.313-0.486 0.369-0.33 0.633-0.84 0.794-1.538z"/>
		<path d="m331.9 142.06v-9.521h1.923v3.748h3.766v-3.748h1.924v9.521h-1.924v-4.164h-3.766v4.164z"/>
		<path d="m347.57 142.06v-9.521h1.923v9.521z"/>
		<path d="m357.47 142.06v-9.521h1.871l3.896 6.357v-6.357h1.786v9.521h-1.929l-3.839-6.209v6.209z"/>
		<path d="m373.19 142.06v-9.521h7.06v1.609h-5.138v2.108h4.78v1.604h-4.78v2.592h5.319v1.604z"/>
	</g>
	<g transform="translate(1 1.0004)" fill="#fff">
		<path d="m397.09 142.06v-9.521h7.06v1.609h-5.137v2.108h4.78v1.604h-4.78v2.592h5.319v1.604z"/>
		<path d="m412.07 142.06v-9.521h2.877l1.728 6.494 1.709-6.494h2.883v9.521h-1.783v-7.496l-1.893 7.496h-1.852l-1.884-7.496v7.496z"/>
		<path d="m429.29 132.53h1.922v5.155c0 0.816 0.023 1.35 0.07 1.592 0.082 0.391 0.273 0.701 0.588 0.938 0.311 0.236 0.729 0.354 1.27 0.354 0.547 0 0.957-0.11 1.234-0.334 0.277-0.223 0.443-0.496 0.5-0.821 0.057-0.324 0.084-0.863 0.084-1.616v-5.268h1.924v5.001c0 1.144-0.053 1.95-0.156 2.423-0.104 0.472-0.297 0.87-0.574 1.193-0.279 0.324-0.652 0.582-1.121 0.773-0.467 0.192-1.078 0.289-1.83 0.289-0.91 0-1.6-0.104-2.068-0.313-0.471-0.211-0.842-0.482-1.109-0.818-0.271-0.335-0.451-0.688-0.537-1.057-0.127-0.545-0.189-1.353-0.189-2.416v-5.077z"/>
		<path d="m445.09 142.06v-9.443h1.922v7.84h4.781v1.604h-6.703z"/>
		<path d="m467.88 142.06h-2.092l-0.83-2.164h-3.807l-0.785 2.164h-2.039l3.707-9.521h2.033zm-3.539-3.769-1.313-3.532-1.285 3.532z"/>
		<path d="m476.19 142.06v-7.91h-2.826v-1.61h7.564v1.61h-2.816v7.91z"/>
		<path d="m487.67 137.35c0-0.972 0.146-1.783 0.438-2.44 0.215-0.484 0.51-0.92 0.885-1.308 0.375-0.387 0.785-0.67 1.23-0.854 0.594-0.251 1.277-0.376 2.053-0.376 1.402 0 2.525 0.438 3.367 1.305 0.842 0.87 1.264 2.081 1.264 3.633 0 1.535-0.418 2.737-1.254 3.605-0.836 0.867-1.953 1.302-3.352 1.302-1.416 0-2.541-0.433-3.377-1.296s-1.254-2.057-1.254-3.571zm1.983-0.066c0 1.078 0.248 1.896 0.746 2.45 0.498 0.558 1.131 0.834 1.896 0.834 0.768 0 1.396-0.273 1.887-0.825 0.492-0.554 0.736-1.381 0.736-2.485 0-1.09-0.238-1.902-0.717-2.439-0.48-0.535-1.113-0.805-1.906-0.805s-1.43 0.271-1.916 0.813-0.726 1.362-0.726 2.457z"/>
		<path d="m504.54 142.06v-9.521h4.047c1.018 0 1.756 0.086 2.217 0.258 0.461 0.171 0.83 0.477 1.107 0.912 0.277 0.438 0.416 0.938 0.416 1.5 0 0.714-0.211 1.304-0.631 1.771-0.42 0.465-1.047 0.758-1.883 0.879 0.416 0.242 0.76 0.51 1.021 0.799 0.271 0.291 0.645 0.808 1.102 1.548l1.156 1.856h-2.296l-1.391-2.072c-0.492-0.739-0.83-1.207-1.012-1.398-0.186-0.189-0.375-0.322-0.578-0.396-0.203-0.069-0.525-0.104-0.971-0.104h-0.391v3.978h-1.92v-6e-3h4e-3v-2e-3h3e-3zm1.922-5.496h1.424c0.922 0 1.498-0.037 1.727-0.115 0.23-0.077 0.41-0.213 0.541-0.402 0.129-0.188 0.193-0.43 0.193-0.714 0-0.32-0.086-0.579-0.258-0.776-0.17-0.193-0.41-0.318-0.723-0.371-0.156-0.021-0.623-0.031-1.402-0.031h-1.502z"/>
	</g>
</svg>
