<svg width="341.16px" height="127.23px" enable-background="new -0.501 0 341.155 127.229" version="1.1" viewBox="-.501 0 341.16 127.23" xmlns="http://www.w3.org/2000/svg">
	<g fill="#f00">
		<path d="m277.72 70.452h-215.15c-19.423 0-35.228-15.803-35.228-35.227s15.806-35.225 35.228-35.225h215.15c19.426 0 35.229 15.802 35.229 35.226-1e-3 19.423-15.802 35.226-35.227 35.226zm-215.15-62.119c-14.829 0-26.895 12.064-26.895 26.895 0 14.828 12.065 26.894 26.895 26.894h215.15c14.827 0 26.896-12.065 26.896-26.894 0-14.83-12.067-26.895-26.896-26.895h-215.15z"/>
		<path d="M90.208,51.562V19.047h-9.779v22.735L66.006,19.047H55.494v32.515h9.779V28.093l15.155,23.469H90.208z"/>
		<path d="m106.1 51.562v-22.002h-9.778v22.002h9.778z"/>
		<path d="m106.1 24.914v-5.867h-9.778v5.867h9.778z"/>
		<path d="m140.32 51.562v-15.159c0-3.178-6.112-7.578-9.289-7.578h-2.935c-2.199 0-4.645 1.956-6.845 2.934v-2.199h-9.779v22.002h9.779v-15.159c0-1.467 3.422-3.178 4.89-3.178 1.467 0 4.155 1.711 4.155 3.178v15.158l10.024 1e-3z"/>
		<path id="_x33_162_1_" d="m222.14 52.319v-15.157c0-3.179-6.109-7.578-9.293-7.578h-2.932c-2.201 0-4.646 1.956-6.848 2.933v-2.199h-9.777v22.002h9.777v-15.158c0-1.466 3.424-3.179 4.891-3.179s4.154 1.713 4.154 3.179v15.157h10.028z"/>
		<path d="m156.22 51.562v-22.002h5.134v-2.934h-5.134v-4.645h-10.021v4.645h-5.135v2.934h5.135v22.002h10.021z"/>
		<path d="m175.04 28.826c-7.822 0-14.422 5.378-14.422 11.979 0 6.846 6.6 12.223 14.422 12.223 6.846 0 12.469-3.911 13.936-9.045h-10.021v2.934c0 2.445-1.709 3.18-3.91 3.18-2.2 0-3.668-0.734-3.668-3.18v-6.111h18.093c-4e-3 -6.601-6.36-11.98-14.43-11.98zm0 2.2c2.201 0 3.912 1.467 3.912 3.912v2.199h-7.578v-2.199c0-2.445 1.467-3.912 3.666-3.912z"/>
		<path d="m271.36 28.826c-8.069 0-14.426 5.378-14.426 11.979 0 6.846 6.354 12.223 14.426 12.223 7.818 0 14.422-5.377 14.422-12.223-4e-3 -6.6-6.603-11.979-14.422-11.979zm0 2.2c2.195 0 3.666 1.467 3.666 3.912v11.978c0 2.444-1.471 3.179-3.666 3.179-2.444 0-3.914-0.734-3.914-3.179v-11.978c-2e-3 -2.445 1.467-3.912 3.914-3.912z"/>
		<path d="m243.25 19.047v11.979s-2.936-2.2-6.848-2.2c-6.111 0-11.244 5.378-11.244 11.246 0 6.112 5.135 12.224 11.244 12.224 3.912 0 6.848-1.467 6.848-1.467v0.732h9.779v-32.514h-9.779zm-3.668 13.446c2.199 0 3.668 1.712 3.668 3.912v9.045c0 2.201-1.469 2.934-3.668 2.934-2.443 0-3.912-0.732-3.912-2.934v-9.045c0-2.2 1.469-3.912 3.912-3.912z"/>
	</g>
	<path d="m287.01 29.216c-2.774 0-5.036-2.258-5.036-5.035 0-2.959 2.213-5.28 5.036-5.28 2.729 0 5.036 2.417 5.036 5.28 0 2.681-2.35 5.035-5.036 5.035zm0-9.533c-2.427 0-4.253 1.934-4.253 4.5 0 2.344 1.908 4.254 4.253 4.254 2.229 0 4.254-2.028 4.254-4.254 0-2.399-1.984-4.5-4.254-4.5zm0.884 6.647-0.863-1.515h-1.096v1.321h-0.779v-4.546h2.104c0.979 0 1.488 0.813 1.488 1.613 0 0.615-0.303 1.238-0.885 1.492l0.711 1.248-0.68 0.387zm-1.959-2.294h1.321c0.22 0 0.396-0.079 0.521-0.235 0.119-0.149 0.188-0.368 0.188-0.597 0-0.311-0.151-0.832-0.709-0.832h-1.321v1.664z" fill="#f00"/>
	<path id="_x32_399_1_" d="m51.827 99.231v-14.18c0-2.688-2.689-5.379-5.378-5.379h-20.535v19.56h6.357v-13.2c0-0.979 0.732-1.957 1.711-1.957h9.777c0.979 0 1.957 0.979 1.957 1.957v13.199h6.111z" fill="#fff"/>
	<path d="m45.216 99.729v-13.697c2e-3 -0.32-0.173-0.704-0.466-0.994-0.289-0.291-0.671-0.469-0.991-0.464h-9.778c-0.616 2e-3 -1.21 0.704-1.21 1.458v13.696h-7.357v-20.558h21.036c3.011 0.039 5.84 2.868 5.877 5.881v14.678h-7.111zm6.611-0.498v-0.5 0.5zm-8.068-15.657c1.301 0.037 2.42 1.156 2.457 2.458v12.699h5.111v-13.68c4e-3 -1.175-0.601-2.414-1.534-3.345-0.931-0.934-2.168-1.539-3.343-1.535h-20.035v18.559h5.357v-12.698c4e-3 -1.206 0.869-2.429 2.209-2.458h9.778z"/>
	<path id="_x32_399_2_" d="m221.47 99.231v-14.18c0-2.688-2.688-5.379-5.376-5.379h-20.535v19.56h6.354v-13.2c0-0.979 0.736-1.957 1.713-1.957h9.779c0.979 0 1.953 0.979 1.953 1.957v13.199h6.112z" fill="#fff"/>
	<path d="m214.86 99.73v-13.699c2e-3 -0.319-0.174-0.704-0.464-0.993-0.289-0.29-0.67-0.468-0.989-0.464h-9.779c-0.616 2e-3 -1.212 0.706-1.214 1.457v13.699h-7.354v-20.56h21.038c3.008 0.037 5.836 2.867 5.875 5.88v14.68h-7.113zm6.612-0.5v-0.499 0.499zm-8.065-15.655c1.302 0.037 2.415 1.156 2.452 2.456l-2e-3 12.7h5.114v-13.68c4e-3 -1.176-0.601-2.415-1.533-3.346-0.931-0.933-2.168-1.537-3.341-1.533l-20.037-2e-3v18.56h5.354v-12.699c6e-3 -1.206 0.873-2.429 2.213-2.458l9.78 2e-3z"/>
	<path id="_x32_399_3_" d="m314.33 99.231v-14.18c0-2.688-2.688-5.379-5.379-5.379h-20.535v19.56h6.354v-13.2c0-0.979 0.732-1.957 1.715-1.957h9.775c0.979 0 1.955 0.979 1.955 1.957v13.199h6.115z" fill="#fff"/>
	<path d="m307.71 99.73v-13.699c2e-3 -0.32-0.173-0.703-0.466-0.993-0.287-0.291-0.67-0.467-0.99-0.463l-9.774-2e-3c-0.623 2e-3 -1.215 0.705-1.218 1.458v13.699h-7.352v-20.558h21.036c3.013 0.037 5.84 2.866 5.879 5.878v14.68h-7.115zm6.615-0.5v-0.5 0.5zm-8.071-15.655c1.302 0.036 2.419 1.155 2.454 2.456v12.699h5.115v-13.68c5e-3 -1.176-0.601-2.414-1.533-3.345-0.931-0.934-2.17-1.538-3.344-1.533h-20.036v18.558h5.354v-12.699c4e-3 -1.205 0.87-2.429 2.215-2.458l9.775 2e-3z"/>
	<path id="_x33_177_1_" d="m258.89 99.231v-14.18c0-2.688-2.688-5.379-5.379-5.379h-27.625v19.56h6.357v-13.2c0-0.979 0.73-1.957 1.709-1.957h3.668c0.734 0 1.712 0.979 1.712 1.957v13.199h6.358v-13.199c0-0.979 0.73-1.957 1.709-1.957h3.668c0.732 0 1.711 0.979 1.711 1.957v13.199h6.112z" fill="#fff"/>
	<path d="m238.83 99.731v-13.7c3e-3 -0.319-0.179-0.715-0.45-1.008-0.265-0.301-0.617-0.461-0.763-0.45h-3.668c-0.615 2e-3 -1.208 0.704-1.21 1.458v13.698h-7.356v-20.557h28.126c3.014 0.037 5.84 2.867 5.88 5.879v14.679h-7.112v-13.699c4e-3 -0.319-0.179-0.715-0.451-1.008-0.264-0.301-0.617-0.461-0.76-0.45h-3.67c-0.614 2e-3 -1.207 0.704-1.209 1.458v13.7h-7.357zm20.058-0.501v-0.499 0.499zm-7.823-15.655c1.128 0.07 2.148 1.16 2.209 2.456v12.7h5.112v-13.68c4e-3 -1.177-0.601-2.415-1.534-3.346-0.931-0.934-2.169-1.538-3.344-1.534l-27.125-2e-3v18.563h5.355v-12.7c7e-3 -1.203 0.869-2.429 2.21-2.456h3.668c1.13 0.07 2.152 1.16 2.211 2.456v12.698h5.359v-12.699c5e-3 -1.203 0.867-2.429 2.209-2.456h3.67z"/>
	<path id="_x33_181_1_" d="m21.514 99.231h-16.135c-2.688 0-5.379-1.71-5.379-4.398v-15.4h21.513v4.646h-14.424c-0.732 0-1.711 0.733-1.711 1.712s0.979 1.712 1.711 1.712h13.446v3.911h-13.446c-0.732 0-1.711 0.979-1.711 1.712 0 0.979 0.979 1.955 1.711 1.955h14.424l1e-3 4.15z" fill="#fff"/>
	<path d="m5.379 99.73c-2.868-5e-3 -5.852-1.828-5.881-4.898v-15.9h22.515v5.646h-14.924c-0.202-6e-3 -0.543 0.124-0.795 0.359-0.256 0.233-0.417 0.535-0.417 0.853 0 0.316 0.161 0.62 0.417 0.853 0.252 0.236 0.593 0.364 0.795 0.359h13.945v4.911h-13.945c-0.145-0.013-0.51 0.154-0.776 0.434-0.281 0.269-0.448 0.634-0.436 0.778-4e-3 0.32 0.177 0.715 0.45 1.006 0.265 0.299 0.618 0.463 0.762 0.448h14.922l2e-3 4.652 2e-3 0.5h-16.636v-1e-3zm16.134-0.5v-0.5 0.5zm-21.013-4.398c4e-3 2.305 2.369 3.893 4.879 3.898h15.634v-3.151h-13.924c-1.127-0.07-2.152-1.158-2.211-2.455 0.091-1.123 1.088-2.118 2.211-2.212h12.945v-2.911h-12.945c-1.024-0.029-2.166-0.882-2.211-2.212 0.045-1.33 1.187-2.183 2.211-2.212l13.922-2e-3v-3.645h-20.511v14.902z"/>
	<path id="_x33_181_2_" d="m100.98 99.478h-16.136c-2.688 0-5.379-1.711-5.379-4.397v-15.404h21.515v4.645h-14.426c-0.731 0-1.71 0.734-1.71 1.715s0.979 1.711 1.71 1.711h13.446v3.91h-13.446c-0.731 0-1.71 0.979-1.71 1.714 0 0.979 0.979 1.954 1.71 1.954h14.426v4.152z" fill="#fff"/>
	<path d="m84.843 99.978c-2.868-6e-3 -5.853-1.829-5.879-4.898v-15.905h22.514v5.646h-14.925c-0.2-6e-3 -0.541 0.124-0.793 0.359-0.256 0.235-0.419 0.537-0.417 0.857-2e-3 0.315 0.159 0.617 0.417 0.851 0.25 0.233 0.59 0.363 0.793 0.357h13.945v4.912l-13.945-2e-3c-0.145-0.013-0.508 0.155-0.776 0.436-0.279 0.269-0.448 0.635-0.434 0.779-6e-3 0.319 0.175 0.714 0.448 1.007 0.265 0.298 0.618 0.459 0.762 0.448h14.924v5.152h-16.634v1e-3zm16.136-0.502v-0.499 0.499zm-21.016-4.397c4e-3 2.303 2.371 3.891 4.88 3.897h15.635v-3.153h-13.925c-1.127-0.07-2.15-1.156-2.212-2.453 0.093-1.124 1.09-2.123 2.212-2.214h12.946v-2.91h-12.946c-1.022-0.028-2.167-0.88-2.212-2.209 0.045-1.335 1.188-2.188 2.212-2.216h13.925v-3.646h-20.515v14.904z"/>
	<path id="_x33_181_3_" d="m284.91 99.231h-16.137c-2.688 0-5.381-1.711-5.381-4.398v-15.4h21.516v4.646h-14.424c-0.732 0-1.715 0.733-1.715 1.712s0.979 1.712 1.715 1.712h13.442v3.911h-13.442c-0.732 0-1.715 0.979-1.715 1.712 0 0.979 0.979 1.955 1.715 1.955h14.424v4.153h2e-3v-3e-3z" fill="#fff"/>
	<path d="m284.91 99.732h-0.504v-2e-3h-15.633c-2.868-6e-3 -5.854-1.828-5.881-4.898v-15.9h22.517v5.646h-14.924c-0.202-5e-3 -0.545 0.125-0.797 0.36-0.259 0.233-0.421 0.536-0.419 0.853-2e-3 0.314 0.16 0.617 0.417 0.853 0.252 0.233 0.597 0.363 0.799 0.358h13.94v4.912l-13.94-2e-3c-0.145-0.013-0.511 0.156-0.78 0.436-0.281 0.269-0.448 0.634-0.436 0.777-4e-3 0.319 0.177 0.713 0.45 1.007 0.265 0.299 0.619 0.461 0.766 0.448h14.924v5.153h-0.499v-1e-3zm-21.018-4.9c5e-3 2.304 2.371 3.892 4.881 3.898h15.634v-3.152h-13.922c-1.13-0.069-2.156-1.157-2.215-2.454 0.092-1.123 1.093-2.12 2.215-2.212l12.941-2e-3v-2.91h-12.941c-1.026-0.027-2.171-0.88-2.215-2.21 0.044-1.332 1.19-2.185 2.215-2.214h13.922v-3.646h-20.515v14.902z"/>
	<path id="_x32_391_1_" d="m54.517 79.675v4.4h6.355c1.712 0 1.712 0 1.712 1.957v13.199h6.111v-13.199c0-1.957 0-1.957 1.956-1.957h6.111v-4.4h-22.245z" fill="#fff"/>
	<path d="m62.084 99.73v-13.699c0-0.55-4e-3 -0.938-0.035-1.163-0.033-0.221-0.056-0.217-0.056-0.219s-0.054-0.031-0.196-0.048c-0.186-0.026-0.5-0.028-0.925-0.026h-6.855v-5.402h23.246v5.4l-6.612 2e-3c-0.729-7e-3 -1.181 0.017-1.309 0.072-0.081 0.058-0.045-0.063-0.12 0.308-0.025 0.227-0.027 0.589-0.027 1.076v13.699h-7.111zm-7.068-16.157h5.856c0.834 0.027 1.361-0.082 1.873 0.417 0.409 0.546 0.312 1.065 0.339 2.041v12.697h5.111v-12.697c0.027-0.967-0.079-1.519 0.39-2.065 0.547-0.471 1.099-0.365 2.065-0.391h5.613v-3.4h-21.247v3.398zm-0.5-3.398v-0.5 0.5z"/>
	<path id="_x32_391_2_" d="m132.2 79.675v4.4h6.355c1.71 0 1.71 0 1.71 1.957v13.199h6.112v-13.199c0-1.957 0-1.957 1.957-1.957h6.112v-4.4h-22.246z" fill="#fff"/>
	<path d="m139.76 99.73v-13.699c0-0.55-2e-3 -0.938-0.033-1.163-0.035-0.221-0.056-0.217-0.056-0.219s-0.054-0.031-0.196-0.048c-0.186-0.026-0.498-0.028-0.925-0.026h-6.856v-5.402h23.246v5.402l-6.61-2e-3c-0.731-5e-3 -1.183 0.019-1.311 0.074-0.081 0.058-0.045-0.063-0.12 0.308-0.024 0.227-0.026 0.589-0.026 1.076v13.699h-7.113zm-7.064-16.157h5.854c0.834 0.027 1.361-0.082 1.873 0.417 0.409 0.546 0.312 1.065 0.336 2.041v12.697h5.113v-12.697c0.027-0.967-0.079-1.519 0.39-2.065 0.549-0.471 1.101-0.365 2.067-0.393h5.611v-3.398h-21.245v3.398h1e-3zm-0.5-3.398v-0.5 0.5z"/>
	<path id="_x32_391_3_" d="m317.91 79.675v4.4h6.354c1.713 0 1.713 0 1.713 1.957v13.199h6.11v-13.199c0-1.957 0-1.957 1.955-1.957h6.111v-4.4h-22.243z" fill="#fff"/>
	<path d="m325.48 99.731v-13.699c0-0.55-2e-3 -0.94-0.033-1.165-0.034-0.221-0.057-0.216-0.057-0.219 0 0-0.053-0.031-0.195-0.048-0.187-0.025-0.5-0.027-0.928-0.025h-6.854v-5.401h23.244v5.399h-6.611c-0.73-6e-3 -1.184 0.019-1.31 0.075-0.082 0.057-0.046-0.064-0.119 0.307-0.025 0.229-0.027 0.588-0.027 1.077v13.699h-7.11zm-7.069-16.157h5.855c0.835 0.027 1.362-0.084 1.876 0.416 0.409 0.545 0.311 1.067 0.336 2.042v12.698h5.112v-12.698c0.025-0.968-0.08-1.52 0.391-2.067 0.548-0.47 1.098-0.363 2.064-0.391h5.609v-3.399h-21.244v3.399h1e-3zm-0.499-3.399v-0.5 0.5z"/>
	<path d="m105.37 79.675v19.559h6.356v-3.42c0-0.979 0.733-1.959 1.711-1.959h8.068c0.979 0 1.711 0.979 1.711 1.959v3.42h5.379v-5.379c0-0.73-0.732-1.709-0.732-2.688 0-0.73 1.711-2.441 1.711-4.396v-1.713c0-1.714-2.689-5.381-4.4-5.381l-19.804-2e-3zm8.067 4.4h8.068c0.979 0 1.71 0.979 1.71 1.957v1.71c0 0.979-0.732 1.713-1.71 1.713h-8.068c-0.978 0-1.711-0.733-1.711-1.713v-1.71c1e-3 -0.976 0.733-1.957 1.711-1.957z" fill="#fff"/>
	<path d="m122.71 99.732v-3.919c-2e-3 -0.756-0.595-1.458-1.21-1.46h-8.068c-0.615 2e-3 -1.21 0.706-1.212 1.46v3.919h-7.355v-20.558l20.305 2e-3c1.2 0.043 2.286 1.069 3.233 2.24 0.923 1.197 1.644 2.546 1.665 3.641v1.714c-2e-3 1.126-0.479 2.112-0.919 2.901-0.45 0.756-0.842 1.464-0.791 1.495-0.035 0.758 0.68 1.669 0.731 2.687v5.879h-6.379v-1e-3zm-16.846-0.999h5.357v-2.92c6e-3 -1.206 0.869-2.431 2.211-2.46h8.068c1.34 0.029 2.206 1.254 2.21 2.46v2.918h4.379v-4.878c0.052-0.441-0.698-1.489-0.731-2.687 0.05-0.7 0.514-1.214 0.919-1.984 0.415-0.739 0.795-1.584 0.791-2.412v-1.714c0.021-0.619-0.601-1.962-1.452-3.025-0.824-1.092-1.937-1.899-2.449-1.854l-19.304-2e-3v18.558h1e-3zm-0.5-18.558v-0.5 0.5zm8.068 9.78c-1.239-4e-3 -2.209-0.975-2.211-2.214v-1.71c6e-3 -1.202 0.869-2.427 2.211-2.457v1.001c-0.615 0-1.21 0.706-1.212 1.456v1.71c0.014 0.721 0.493 1.199 1.212 1.212h8.068c0.717-0.013 1.196-0.491 1.21-1.212v-1.71c-2e-3 -0.754-0.595-1.456-1.21-1.456h-8.068v-1.001h8.068c1.34 0.028 2.204 1.253 2.21 2.457v1.71c-2e-3 1.237-0.973 2.21-2.21 2.214h-8.068z"/>
	<path d="m161.59 79.675c-1.712 0-4.399 3.667-4.399 5.381v14.178h6.354v-5.379h11.489v5.379h6.355v-14.178c0-1.714-2.688-5.381-4.646-5.381h-15.153zm3.667 4.4h8.066c0.73 0 1.711 0.979 1.711 1.957v3.422h-11.489v-3.422c0-0.976 0.734-1.957 1.712-1.957z" fill="#fff"/>
	<path d="m156.69 99.733v-14.677c0.021-1.095 0.741-2.443 1.665-3.643 0.946-1.171 2.034-2.195 3.236-2.24v1.001c-0.512-0.043-1.625 0.765-2.449 1.856-0.849 1.062-1.472 2.403-1.45 3.025l-2e-3 13.675h5.354v-5.378h12.489l-2e-3 5.38h5.356v-13.676c0.022-0.622-0.599-1.96-1.477-3.02-0.859-1.088-2.001-1.896-2.668-1.862h-15.153v-0.999h15.153c1.29 0.033 2.47 1.057 3.444 2.232 0.958 1.201 1.681 2.554 1.701 3.648v14.676h-7.355v-5.379h-10.49v5.381h-7.352zm6.354-9.779v-3.922c6e-3 -1.204 0.872-2.429 2.214-2.459v1.001c-0.616 2e-3 -1.212 0.709-1.214 1.458v2.92h10.49v-2.92c4e-3 -0.32-0.178-0.715-0.45-1.008-0.267-0.301-0.619-0.462-0.76-0.45h-8.065v-1.001l8.065 2e-3c1.126 0.07 2.149 1.16 2.21 2.457v3.922h-12.49z"/>
	<path d="m191.91 99.231v-19.558h-6.11v19.559h6.11v-1e-3z" fill="#fff"/>
	<path d="m185.29 99.73v-20.56h7.112v20.56h-7.112zm6.612-0.5v-0.5 0.5zm-5.61-0.5h5.108v-18.557h-5.108v18.557z"/>
	<path id="_x33_177_2_" d="m250.86 126.02v-14.18c0-2.688-2.689-5.379-5.381-5.379h-27.623v19.559h6.354v-13.201c0-0.979 0.732-1.957 1.71-1.957h3.667c0.734 0 1.714 0.979 1.714 1.957v13.199h6.354v-13.199c0-0.979 0.73-1.957 1.709-1.957h3.668c0.732 0 1.715 0.979 1.715 1.957v13.199h6.111l2e-3 2e-3z" fill="#fff"/>
	<path d="m250.65 126.52h-6.402v-13.698c4e-3 -0.319-0.179-0.714-0.451-1.009-0.266-0.299-0.622-0.461-0.764-0.449h-3.669c-0.616 0-1.208 0.704-1.21 1.458v13.698h-7.354v-13.698c5e-3 -0.319-0.176-0.714-0.448-1.009-0.266-0.299-0.62-0.461-0.764-0.449h-3.667c-0.616 0-1.21 0.704-1.212 1.458v13.698h-7.353v-20.558l28.122 2e-3c3.015 0.037 5.845 2.867 5.883 5.877v15.39l-0.711-0.711zm0.21-0.498 0.354-0.354-0.354 0.354zm-32.503-0.5h5.353v-12.7c6e-3 -1.206 0.87-2.429 2.211-2.458h3.667c1.129 0.07 2.15 1.162 2.213 2.458l-2e-3 12.698h5.356v-12.698c4e-3 -1.204 0.868-2.429 2.209-2.458h3.669c1.127 0.072 2.153 1.16 2.213 2.458v12.698h5.114v-13.679c4e-3 -1.173-0.601-2.412-1.534-3.342-0.931-0.935-2.17-1.539-3.348-1.535h-27.121v18.558z"/>
	<path id="_x33_181_4_" d="m213.48 126.02h-16.137c-2.688 0-5.377-1.713-5.377-4.397v-15.404h21.512v4.646h-14.422c-0.732 0-1.713 0.732-1.713 1.711s0.979 1.712 1.713 1.712h13.443v3.911h-13.443c-0.732 0-1.713 0.979-1.713 1.713 0 0.979 0.979 1.954 1.713 1.954h14.422l2e-3 4.154z" fill="#fff"/>
	<path d="m197.34 126.52c-2.868-4e-3 -5.854-1.829-5.878-4.896v-15.904h22.51v5.646h-14.921c-0.201-5e-3 -0.543 0.126-0.796 0.36-0.257 0.234-0.418 0.536-0.418 0.852s0.161 0.619 0.418 0.854c0.251 0.233 0.593 0.364 0.796 0.358h13.942v4.912l-13.942-2e-3c-0.144-0.013-0.51 0.155-0.777 0.437-0.281 0.268-0.449 0.632-0.437 0.777-5e-3 0.318 0.178 0.713 0.451 1.005 0.264 0.3 0.617 0.462 0.763 0.449h14.921l2e-3 4.653 2e-3 0.501-16.636-2e-3zm16.135-0.499v-0.499 0.499zm-21.014-4.397c4e-3 2.3 2.369 3.891 4.879 3.897h15.635l-2e-3 -3.155h-13.922c-1.129-0.068-2.152-1.156-2.213-2.453 0.092-1.123 1.092-2.122 2.213-2.213l12.944-2e-3v-2.909h-12.944c-1.025-0.028-2.169-0.882-2.213-2.212 0.046-1.33 1.189-2.182 2.213-2.211h13.922v-3.646h-20.512v14.904z"/>
	<path id="_x32_391_4_" d="m167.02 106.46v4.398h6.355c1.711 0 1.711 0 1.711 1.957v13.199h6.111v-13.199c0-1.957 0-1.957 1.959-1.957h6.109v-4.398h-22.245z" fill="#fff"/>
	<path d="m174.58 126.52v-13.698c0-0.551-4e-3 -0.94-0.035-1.164-0.033-0.222-0.057-0.218-0.057-0.22 0 0-0.052-0.031-0.194-0.048-0.187-0.024-0.499-0.026-0.926-0.026h-6.855v-5.399h23.245v5.399h-6.607c-0.731-6e-3 -1.185 0.017-1.312 0.074-0.082 0.057-0.047-0.064-0.12 0.307-0.026 0.229-0.028 0.587-0.028 1.077v13.698h-7.111zm-7.066-16.158 5.854 2e-3c0.835 0.025 1.361-0.085 1.873 0.415 0.41 0.545 0.313 1.066 0.337 2.042v12.698h5.113v-12.698c0.025-0.967-0.079-1.519 0.39-2.067 0.549-0.47 1.1-0.364 2.069-0.39l5.608-2e-3v-3.397h-21.245v3.397h1e-3zm-0.5-3.397v-0.499 0.499z"/>
	<path id="_x33_187_1_" d="m94.611 106.56c-1.712 0-5.379 2.689-5.379 4.397v2.69c0 1.713 3.667 4.4 5.379 4.4h10.756c0.978 0 1.956 0.979 1.956 1.711 0 0.978-0.979 1.954-1.956 1.954h-16.135v4.399h18.09c1.712 0 5.134-2.688 5.134-4.399v-2.688c0-1.957-3.422-4.646-5.134-4.646h-10.756c-0.979 0-1.955-0.733-1.955-1.713 0-0.978 0.977-1.713 1.955-1.713h15.89v-4.397h-17.845v5e-3z" fill="#fff"/>
	<path d="m88.732 126.62v-5.401h16.634c0.319 5e-3 0.702-0.172 0.992-0.464 0.292-0.288 0.468-0.671 0.464-0.988 0.012-0.145-0.149-0.497-0.45-0.762-0.292-0.273-0.688-0.454-1.007-0.45h-10.756c-1.092-0.021-2.44-0.741-3.64-1.665-1.168-0.947-2.194-2.033-2.238-3.234v-2.691c0.043-1.199 1.069-2.285 2.238-3.233 1.022-0.786 2.153-1.426 3.141-1.61v-0.058h18.845v5.396l-16.39 2e-3c-0.75 0-1.455 0.595-1.455 1.212 0 0.618 0.703 1.212 1.455 1.212h10.756c1.098 0.021 2.393 0.753 3.535 1.71 1.114 0.978 2.071 2.169 2.099 3.438v2.688c-0.038 1.177-0.995 2.278-2.105 3.226-1.138 0.924-2.432 1.651-3.528 1.674h-18.59v-2e-3zm1.001-1.001h17.589c0.615 0.021 1.89-0.597 2.89-1.443 1.027-0.822 1.782-1.923 1.745-2.455v-2.688c0.027-0.689-0.728-1.82-1.751-2.679-0.999-0.874-2.271-1.489-2.884-1.469h-10.757c-1.206-6e-3 -2.426-0.872-2.455-2.213 0.029-1.338 1.249-2.206 2.455-2.212l15.389-2e-3v-3.396h-16.843v5e-3h-0.501c-0.617-0.021-1.959 0.601-3.022 1.45-1.092 0.826-1.9 1.938-1.856 2.446v2.691c-0.043 0.51 0.765 1.624 1.856 2.449 1.063 0.849 2.405 1.471 3.022 1.45h10.757c1.297 0.062 2.387 1.083 2.457 2.212-0.038 1.299-1.156 2.416-2.457 2.453h-15.634v3.401zm4.876-19.052v-0.501 0.501z"/>
	<path id="_x33_187_2_" d="m146.4 106.56c-1.713 0-5.38 2.689-5.38 4.397v2.69c0 1.713 3.667 4.4 5.38 4.4h10.756c0.978 0 1.956 0.979 1.956 1.711 0 0.978-0.979 1.954-1.956 1.954h-16.136v4.399h18.091c1.712 0 5.134-2.688 5.134-4.399v-2.688c0-1.957-3.422-4.646-5.134-4.646h-10.757c-0.978 0-1.955-0.733-1.955-1.713 0-0.978 0.978-1.713 1.955-1.713h15.891v-4.397h-17.845v5e-3z" fill="#fff"/>
	<path d="m140.52 126.62v-5.401h16.638c0.317 5e-3 0.701-0.172 0.991-0.464 0.292-0.288 0.468-0.671 0.464-0.988 0.012-0.145-0.149-0.497-0.447-0.762-0.294-0.273-0.69-0.454-1.007-0.45h-10.756c-1.094-0.021-2.442-0.741-3.642-1.665-1.168-0.947-2.194-2.033-2.237-3.234l-2e-3 -2.691c0.046-1.199 1.071-2.285 2.242-3.233 1.021-0.786 2.152-1.426 3.141-1.61v-0.058h18.844v5.396l-16.392 2e-3c-0.75 0-1.454 0.597-1.457 1.212 2e-3 0.618 0.705 1.212 1.457 1.212h10.757c1.098 0.021 2.395 0.753 3.534 1.71 1.115 0.978 2.074 2.169 2.101 3.438v2.688c-0.037 1.177-0.997 2.278-2.107 3.226-1.137 0.924-2.43 1.651-3.528 1.674h-18.594v-2e-3zm1.003-1.001h17.589c0.615 0.021 1.889-0.597 2.89-1.443 1.028-0.822 1.782-1.923 1.745-2.455v-2.688c0.027-0.689-0.727-1.82-1.75-2.679-0.999-0.874-2.271-1.489-2.884-1.469h-10.757c-1.206-6e-3 -2.426-0.872-2.455-2.213 0.029-1.34 1.251-2.206 2.455-2.212h15.391l-2e-3 -3.398h-16.843v3e-3h-0.5c-0.62-0.02-1.962 0.603-3.025 1.452-1.092 0.826-1.899 1.938-1.856 2.446v2.691c-0.043 0.51 0.764 1.624 1.856 2.449 1.063 0.849 2.405 1.471 3.025 1.45h10.756c1.295 0.062 2.385 1.083 2.455 2.212-0.037 1.299-1.156 2.416-2.455 2.453h-15.637l2e-3 3.401zm4.879-19.052v-0.501 0.501z"/>
	<path d="m114.41 106.56v8.804c0 1.71 2.688 4.399 4.4 4.399h4.398v6.354h6.357v-6.354h4.4c1.71 0 4.4-2.689 4.4-4.399v-8.804h-6.112v7.092c0 0.732-0.978 1.712-1.956 1.712h-7.822c-0.979 0-1.956-0.979-1.956-1.712v-7.092h-6.109z" fill="#fff"/>
	<path d="m122.71 126.62v-6.354h-3.897c-1.112-0.021-2.246-0.771-3.196-1.705-0.935-0.951-1.685-2.084-1.705-3.195v-9.302h7.11v7.591c-0.012 0.144 0.149 0.497 0.448 0.763 0.294 0.271 0.688 0.453 1.009 0.449h7.821c0.319 4e-3 0.713-0.178 1.007-0.449 0.301-0.266 0.462-0.619 0.45-0.763v-7.591h7.112v9.302c-0.023 1.111-0.772 2.244-1.705 3.195-0.953 0.935-2.086 1.685-3.194 1.705h-3.901v6.354h-7.359zm0.999-7.354v6.354h5.357v-6.354h4.902c0.599 0.022 1.666-0.574 2.486-1.411 0.839-0.82 1.434-1.887 1.413-2.488v-8.303h-5.113v6.592c-0.07 1.129-1.16 2.15-2.455 2.211l-7.821 2e-3c-1.297-0.063-2.387-1.086-2.457-2.213v-6.592h-5.109v8.303c-0.021 0.602 0.574 1.668 1.411 2.488 0.821 0.837 1.888 1.434 2.49 1.411h4.896zm-9.296-12.203v-0.5 0.5z"/>
</svg>
