<svg width="566.93px" height="167.47px" enable-background="new 0 0 566.927 167.468" version="1.1" viewBox="0 0 566.93 167.47" xmlns="http://www.w3.org/2000/svg">
	<g fill="#fff">
		<path d="M33.98,108.929l-0.068-41.587h5.384v49.797h-5.384L5.249,75.215l0.135,41.924H0V67.342h5.652    L33.98,108.929z"/>
		<path d="M45.31,67.342h26.419v4.912H50.827v17.294h20.767v4.912H50.827v17.767h20.902v4.912H45.31V67.342z"/>
		<path d="m74.242 92.375c0-15.341 11.911-25.908 25.976-25.908 14.602 0 25.975 11.171 25.975 25.773 0 14.604-11.305 25.773-25.975 25.773-14.738 0-25.976-11.373-25.976-25.572v-0.066zm5.585-0.135c0 11.709 8.815 20.861 20.458 20.861 11.776 0 20.39-9.486 20.39-20.861 0-11.373-8.613-20.861-20.457-20.861-11.709 0-20.391 9.286-20.391 20.792v0.069z"/>
		<path d="m172.16 80.262c-1.548-2.153-3.433-3.97-5.586-5.383-3.23-2.221-7.133-3.5-11.574-3.5-10.902 0-20.39 8.344-20.39 20.792 0 12.652 9.556 20.996 20.457 20.996 5.249 0 9.892-1.815 13.324-4.508 3.5-2.76 5.922-6.527 6.73-10.432h-27.104v-4.576h33.564c-0.067 2.895-0.74 6.527-2.221 9.624-4.307 9.354-14.267 14.804-24.293 14.804-14.535 0-26.042-11.17-26.042-25.908 0-14.938 11.709-25.706 26.109-25.706 10.094 0 19.448 5.653 23.351 13.795h-6.325v2e-3z"/>
		<path d="M184.25,67.342h27.59v4.912h-22.071v17.294h21.937v4.912h-21.937v17.767h22.071v4.912h-27.59V67.342z"/>
		<path d="m214.06 92.375c0-15.341 11.911-25.908 25.975-25.908 14.603 0 25.975 11.171 25.975 25.773 0 14.604-11.305 25.773-25.975 25.773-14.737 0-25.975-11.373-25.975-25.572v-0.066zm5.585-0.135c0 11.709 8.815 20.861 20.457 20.861 11.777 0 20.39-9.486 20.39-20.861 0-11.373-8.613-20.861-20.457-20.861-11.709 0-20.39 9.286-20.39 20.792v0.069z"/>
	</g>
	<g fill="#fff">
		<path d="m327.47 92.375c0-15.341 11.91-25.908 25.976-25.908 14.603 0 25.976 11.171 25.976 25.773 0 14.604-11.305 25.773-25.976 25.773-14.737 0-25.976-11.373-25.976-25.572v-0.066zm5.584-0.135c0 11.709 8.816 20.861 20.459 20.861 11.777 0 20.391-9.486 20.391-20.861 0-11.373-8.613-20.861-20.458-20.861-11.708 0-20.392 9.286-20.392 20.792v0.069z"/>
		<path d="m435 103.75c-3.229 7.672-11.91 14.268-22.879 14.268-14.736 0-25.976-11.373-25.976-25.772 0-14.2 10.97-25.774 25.906-25.774 12.313 0 20.054 8.21 22.946 14.535h-5.99c-1.684-2.96-7.334-9.623-16.956-9.623-11.642 0-20.39 9.219-20.39 20.793 0 11.777 8.813 20.929 20.39 20.929 10.433 0 15.745-7.47 16.956-9.354l5.993-2e-3z"/>
		<path d="m489.64 67.342h27.592v4.912h-22.072v17.294h21.936v4.912h-21.936v17.767h22.072v4.912h-27.592v-49.797z"/>
		<path d="m545.23 72.254h-16.047v-4.912h37.746v4.912h-16.113v44.885h-5.586v-44.885z"/>
	</g>
	<g fill="#F10000">
		<path d="m214.24 155.51c-2.053 6.982-8.625 11.957-16.521 11.957-10.314 0-17.707-8.17-17.707-17.569 0-8.99 6.982-17.479 17.662-17.479 9.721 0.047 15.243 7.211 16.566 12.142h-7.165c-1.049-2.328-4.061-6.115-9.447-6.162-6.572 0-10.816 5.521-10.816 11.5 0 6.162 4.427 11.594 10.862 11.594 6.024 0 8.763-4.746 9.401-5.979l7.165-4e-3z"/>
		<path d="m232.45 150.22c0-10.813 8.306-17.799 17.708-17.799 10.223 0 17.753 7.94 17.753 17.524s-7.485 17.523-17.799 17.523c-10.36 0-17.662-8.168-17.662-17.203v-0.045zm6.8-0.273c0 6.162 4.427 11.547 11 11.547 6.846 0 10.862-5.934 10.862-11.5 0-5.658-4.016-11.594-10.908-11.594-6.754 0-10.954 5.567-10.954 11.502v0.045z"/>
		<path d="m288 133.06h6.799v27.793h11.09v5.979h-17.889v-33.772z"/>
		<path d="m322.61 150.22c0-10.813 8.306-17.799 17.707-17.799 10.224 0 17.754 7.94 17.754 17.524s-7.485 17.523-17.799 17.523c-10.358 0-17.662-8.168-17.662-17.203v-0.045zm6.8-0.273c0 6.162 4.428 11.547 10.998 11.547 6.846 0 10.862-5.934 10.862-11.5 0-5.658-4.017-11.594-10.907-11.594-6.754 0-10.953 5.567-10.953 11.502v0.045z"/>
	</g>
	<path d="m475.57 117.14h6.932l-25.871-24.968 23.783-24.83h-6.055l-26.105 26.998v-26.997h-5.518v49.797h5.518v-16.228l5.08-5.306 22.236 21.534z" fill="#fff"/>
	<path d="m385.81 133.06c3.799 0.096 7.156 0.291 10.176 2.821 0.778 0.636 1.51 1.461 2.045 2.289 1.559 2.388 1.704 5.063 1.704 5.99 0 0.825-0.097 3.114-1.362 5.209-0.342 0.532-0.779 1.264-1.802 2.188-1.12 0.976-2.288 1.51-2.728 1.704-0.828 0.341-1.654 0.585-3.456 0.974l9.933 13.193h-7.645l-9.543-12.998v12.998h-6.864v-34.371l9.542 3e-3zm-2.678 16.31h3.408c0.391 0 0.729 0 1.121-0.049 0.729 0 3.164-0.098 4.771-2.045 0.388-0.488 1.071-1.51 1.071-3.166 0-0.535-0.049-1.851-0.926-3.064-1.511-2.047-3.848-2.24-6.186-2.291h-3.262v10.615h3e-3z" fill="#F10000"/>
	<path d="m302.79 120.94c-10.838-21.554-21.646-43.05-32.461-64.562 0.06-0.042 0.108-0.083 0.163-0.11 2.697-1.38 5.395-2.76 8.091-4.138 3.812-1.946 7.625-3.883 11.433-5.839 4.003-2.056 8.21-3.293 12.751-3.146 3.091 0.1 5.925 0.999 8.411 2.895 2.194 1.674 3.747 3.848 4.937 6.306 1.129 2.332 1.934 4.759 1.979 7.377 0.063 3.636-1.036 6.924-2.985 9.977-1.306 2.042-2.796 3.921-4.544 5.584-1.204 1.146-2.491 2.204-3.739 3.299-4.569-3.241-9.041-6.41-13.531-9.593 0.853-3.113 1.693-6.198 2.539-9.291h12.94v-9.823c-6.682 0.064-13.29 0.127-19.897 0.193-2.407 6.801-4.803 13.565-7.2 20.342 7.735 6.398 15.444 12.774 23.159 19.157 3.066-1.169 5.975-2.609 8.713-4.387 4.363-2.835 8-6.396 10.671-10.881 2.481-4.169 3.728-8.71 3.796-13.559 0.042-3.005-0.414-5.943-1.298-8.823-1.173-3.816-2.987-7.27-5.755-10.165-5.189-5.433-11.553-8.353-19.081-8.621-4.45-0.158-8.66 0.847-12.632 2.842-1.789 0.9-3.541 1.872-5.341 2.744-4.01 1.939-8.04 3.837-12.062 5.748-3.547 1.686-7.095 3.366-10.642 5.047-1.199 0.569-2.399 1.14-3.6 1.71 12.046 24.561 24.078 49.093 36.104 73.625 3.049-1.312 6.035-2.598 9.081-3.908z" fill="none"/>
	<path d="m302.79 120.94c-3.047 1.311-6.032 2.596-9.086 3.908-12.025-24.529-24.059-49.063-36.104-73.624 1.201-0.57 2.4-1.141 3.6-1.71 3.547-1.682 7.095-3.362 10.642-5.047 4.022-1.911 8.052-3.809 12.062-5.748 1.8-0.872 3.552-1.844 5.341-2.744 3.972-1.996 8.182-3 12.631-2.842 7.529 0.268 13.893 3.188 19.082 8.621 2.768 2.895 4.582 6.348 5.754 10.165 0.885 2.879 1.341 5.818 1.299 8.823-0.068 4.849-1.313 9.39-3.796 13.559-2.673 4.484-6.308 8.045-10.673 10.881-2.736 1.776-5.645 3.217-8.711 4.386-7.715-6.382-15.424-12.758-23.159-19.156 2.397-6.777 4.793-13.541 7.2-20.342 6.607-0.065 13.218-0.129 19.897-0.193v9.823h-12.94c-0.846 3.093-1.688 6.178-2.539 9.291 4.49 3.183 8.961 6.352 13.531 9.593 1.248-1.095 2.535-2.153 3.739-3.299 1.748-1.663 3.238-3.542 4.543-5.584 1.95-3.053 3.05-6.341 2.986-9.977-0.048-2.618-0.851-5.045-1.979-7.377-1.188-2.458-2.742-4.632-4.937-6.306-2.486-1.896-5.32-2.794-8.411-2.895-4.541-0.147-8.748 1.089-12.751 3.146-3.806 1.956-7.621 3.893-11.433 5.839-2.697 1.378-5.395 2.758-8.091 4.138-0.055 0.028-0.104 0.069-0.163 0.11 10.821 21.511 21.629 43.007 32.466 64.561z" fill="#F10000"/>
	<path d="m310.44 26.526c-2.162-0.445-4.264-0.879-6.423-1.324 1.257-8.395 2.514-16.788 3.774-25.202 3.935 0.574 7.832 1.145 11.791 1.724-3.055 8.288-6.093 16.529-9.142 24.802z" fill="#F10000"/>
	<path d="m345.54 19.679c2.088 3.381 4.147 6.72 6.241 10.112-6.819 4.222-13.635 8.44-20.472 12.671-1.434-2.14-2.84-4.241-4.278-6.391 6.165-5.459 12.317-10.908 18.509-16.392z" fill="#07B8F9"/>
	<path d="m329.07 6.482c3.017 2.085 5.979 4.134 8.954 6.19-5.377 6.412-10.738 12.805-16.136 19.239-1.888-1.165-3.759-2.319-5.683-3.507 4.271-7.275 8.549-14.567 12.865-21.922z" fill="#069211"/>
	<g fill="#f10000">
		<path d="m412.07 158.44h-1.98v-1.621h5.791v1.621h-1.967v7.535h-1.844v-7.535z"/>
		<path d="m416.85 165.98v-9.156h2.486l2.354 6.57 2.313-6.57h2.5v9.156h-1.709l0.051-7.338-2.563 7.338h-1.213l-2.574-7.338 0.051 7.338h-1.696z"/>
	</g>
</svg>
