<svg width="317.56" height="91.736" version="1.1" viewBox="0 0 84.02 24.272" xmlns="http://www.w3.org/2000/svg"><g transform="translate(-.27101 -233.79)" stroke-width=".32733"><path d="m65.676 257.77-0.38869-0.2413-0.62979-1.6565 0.3227-1.6881-1.6587 0.31708-1.1558 1.2771 0.78927 1.2638v0.25408l-2.7688-1.3699-1.1167-1.1499-1.1167-1.1499-0.48485 0.73022-0.48485 0.73021h-0.63742l-1.9014 1.3539v-0.40443l0.99881-1.9315h-2.0194l0.37348-0.60429 0.97426-0.21399 0.97426-0.21398 1.3173-1.6747v-0.66479l-6.6192 0.43378-1.0732 0.62672 1.8471 0.02 0.95662 0.95662-1.6694 0.22145-1.6694 0.22144-1.0903 1.7102-1.3195 0.982-1.4742 0.77951 0.0072-0.38976 0.0072-0.38975 1.3349-2.9431-0.92016 0.86136-0.92018 0.86135-2.0952 1.0567h-1.9965l-1.3093-1.3093v-0.68718l0.97826-1.8918 1.4767-1.0824-1.473 0.43206v-0.61936l2.1277-0.89536 3.6007 0.1018 2.8249 0.0718 0.38787-0.24134 0.38787-0.24133 4.5827 0.20331 0.09001 0.23989 0.09001 0.23988 3.9582-0.71583 0.62412-0.81228 0.62412-0.81227 0.0146 1.1843 0.65467-0.40461v1.348l1.473 0.0208 0.6016 0.45587 0.60159 0.45588-0.11337 0.58869-0.11337 0.58869-2.4543 1.3767 0.2147 0.2147 0.2147 0.21471 1.7031-0.40306 2.7614-3.1038 1.5653-0.73353 1.5653-0.73352 0.2277-0.36179 0.2277-0.36178 0.22426 0.22425 0.22426 0.22426-1.4805 3.6477 0.19546 0.19547 0.19547 0.19546 2.3222-2.0389 0.90487-0.46793 0.90487-0.46792 3.8819-1.0137 0.13474 0.13473 0.13474 0.13474-0.52997 0.52997-0.52997 0.52996v0.33812l1.3912-0.21794 1.3912-0.21793 1.1659-1.3558 0.79812 1.0094 1.6912 0.14806 1.6912 0.14807 0.5045 0.5045 0.50451 0.50451-5.0461 0.52696 0.81833 0.11082 0.81833 0.11083 1.5308 0.33469-0.78149 0.94164-3.1923 0.42348-1.0147 0.74194 2.8678-0.22808 1.4406 0.49019 1.4406 0.4902-1.6367 0.34254-5.2373 0.76325-0.982 0.81836-1.1457 0.4063v-0.9069l-0.78131-0.26044-0.96734 1.1018-0.96734 1.1017-0.67052-0.67051 0.39425-0.8653 0.39425-0.86529-0.78986 0.19825-0.78986 0.19824-1.0208-0.35585-1.0208-0.35586-0.07752-1.0816 0.07752-0.491h-0.95233l-0.42123 2.455-0.42677 1.7786zm9.3904-3.1472v-0.1369l0.39738-1.0355h-0.56723l-0.81769 1.3093h0.98755zm-30.483-2.6868 0.35403-0.77701h-0.86974l-1.3584 0.98406-1.3584 0.98405v0.54145l0.424 0.424 2.4546-1.3796zm26.385 1.7849 0.84303-0.38411-0.83691-0.53109-0.46797-0.01-0.35037 0.65467-0.35037 0.65466h0.31956zm-23.726-2.5812v-0.63535h-0.491v1.5742l0.491-0.30346zm12.611 0.0825-0.18324-0.18324-0.80742 0.81348 1.1739-0.447zm14.885-0.0795 0.81833-0.0252-1.52-0.60946-1.7533 1.0159 1.6367-0.35603 0.81833-0.0252zm-52.455 5.1842-0.57283-0.71839v-1.4469l-1.581 0.43438-2.0418 1.825-0.46438-0.46438-0.46438-0.46439 0.20264-0.20263 0.20263-0.20264-1.2548 0.023-4.0687 0.87306-1.2938-0.90618-2.4935 0.90799-3.9674 0.7388-4.2159-0.0232 1.6367-0.92928 3.437-0.78836v-1.2052l-1.8003-0.0256 1.0187-0.4434 1.0187-0.44339 0.69983-0.75119 0.69983-0.75118v-0.45689l-3.0566-0.45836 0.92327-0.57061 3.4557-0.43176 1.2268-1.5596h0.33549l-0.17138 0.65535-0.17138 0.65534 2.2724 0.94946 5.824-0.73112 2.4732 0.46805-0.35354 0.57204 1.1537 0.25384-5.2373 0.55692 1.4107 0.29719 1.4107 0.2972-0.25324 0.77206-3.7833 0.75678-0.37448 0.37751-0.37448 0.3775 0.982-0.34506 3.8253-0.30318 4.1377-3.9732h1.5624l0.73444 0.73444-0.17311 0.45111-0.17311 0.45111h0.72471v-0.91195l1.1457-0.48944 9.1869-0.26675 0.80756 0.32232 0.80756 0.32233-0.57283 0.0208-0.57283 0.0207 0.16366 0.78194-0.95131 0.18187-0.95131 0.18186 1.7389 0.92896-5e-3 0.68119-5e-3 0.68118-0.24049 0.34439-0.24049 0.34439-2.2913 1.0465-3.6007 0.68209-2.1426-0.126 0.08928-0.44653 0.08928-0.44652 5.1169-1.4742 0.3712-0.37121 0.3712-0.3712h-1.0437l-1.0601-0.99026-1.0601-0.99027-1.0871 0.34502-2.4559 4.1982-0.78915 0.61605-1.473 0.3606v-0.95322l0.93674-1.8115-1.8408 0.27018-0.89623 3.2048zm-13.011-2.5789 0.491-0.27778-1.7202-0.02-0.89336 1.0764 1.6315-0.50096zm3.6767-2.0279 0.41501-0.15198-0.7922-0.8413-1.275 1.5745 0.15429 0.24965 0.15429 0.24964 0.92857-0.92857zm13.471 0.23663 0.1963-0.51157-1.0362 0.1024-1.0362 0.10239-0.26864 0.81834h1.9485zm-25.413-4.739-0.57283-0.34659v-2.1554l1.9803-9.3423 0.62015-1.1588 1.0537-0.40435h9.3082l0.7856 0.7856-0.0166 1.6694-2.1716 10.021-0.55331 0.55424-0.55331 0.55423-9.3075 0.1696zm8.9513-6.5334 0.83279-3.928h-5.4469v0.33426l-1.3136 6.0487-0.33554 1.473h5.4304zm3.2312 6.4648-0.01069-0.40916 2.124-10.311h8.6192l0.81634 0.98362-0.20904 1.0452-0.20904 1.0452-0.65254 2.4234-1.1386 0.52622-5.878 0.35943-0.95818 4.7463h-2.4928zm8.4601-7.856 0.10922-0.57283h-4.227l-0.3499 1.338 4.3584-0.1924zm2.2123 7.7508-0.51438-0.51438v-0.47909l0.94441-4.3228 0.94441-4.3227 0.405-0.488 0.405-0.48799h8.1032l-0.0045 0.40916-0.0045 0.40917-0.19738 0.7365-0.19737 0.7365h-6.0666l-0.1712 0.65467-0.1712 0.65466h6.1705l-0.19724 0.90017-0.19724 0.90017-0.12605 0.40916-0.12606 0.40917h-6.2399v1.2558l-0.39738 1.0355h6.2688l-0.12605 0.40917-0.12605 0.40917-0.39448 1.8003h-7.4694zm8.8153-0.22212 0.17685-0.7365 1.9501-9.1567v-0.49966h2.7986l2.9815 6.004 0.60942-3.002 0.60942-3.002h2.4937l0.0033 0.40916 0.0033 0.40917-2.1183 10.311h-2.6506l-1.505-3.0278-1.505-3.0278-1.1153 5.2373-0.12846 0.40916-0.12845 0.40917h-2.6517l0.17685-0.7365zm10.772 0.16367 0.17818-0.57284 2.3366-11.129 0.18408-0.7365 0.18408-0.7365h10.651l0.40544 0.48852 0.40544 0.48853-0.23054 1.8452-0.23054 1.8452-1.4911 1.3883 0.35292 0.55596 0.35291 0.55597-0.8015 4.674-0.34334 0.64154-0.34334 0.64153-1.6395 0.62333h-10.149zm9.5646-4.0098 0.33527-1.6367h-5.3992l-0.42822 2.1277-0.16129 0.57284-0.16129 0.57283h5.4795zm1.1835-5.401 0.15644-0.81833h-5.4739v0.60112l-0.19869 0.51777-0.19869 0.51778h5.5584zm3.4076 9.3851-0.54173-0.59861 3.28e-4 -0.46522 3.27e-4 -0.46523 1.117-5.1802 1.117-5.1803 0.57006-0.62991 0.57012-0.62991h10.06l0.33817 0.74222 0.33818 0.74221-1.1569 5.3953-1.1569 5.3953-1.6864 1.473h-9.0274zm8.4516-3.0839 0.16777-0.7365 0.6568-3.0244 0.6568-3.0244v-0.36074l-5.39 0.1902-0.72455 3.2733-0.72455 3.2733-0.01745 0.57284-0.01741 0.57283h5.2249zm4.1 3.1982v-0.52013l1.3093-6.1572 1.3093-6.1572v-0.44462l11.293 0.1792 0.11132 0.78774 0.11131 0.78775-0.21937 1.4628-0.21937 1.4628-0.77724 0.77724-0.77723 0.77723h0.54856l0.16897 0.64613 0.16897 0.64614-0.26595 1.236-0.26595 1.236-0.7581 3.7643h-3.2269v-0.28454l0.99886-4.7891 0.35459-1.1457h-5.5043l-0.63697 3.0278-0.63697 3.0278-3.0859 0.1996zm10.555-9.4994 0.15644-0.81833h-5.3976l-0.15643 0.81833-0.15644 0.81834h5.3976z" fill="#fefefe"/></g></svg>
