<svg width="315" height="112" version="1.1" viewBox="0 0 83.344 29.633" xmlns="http://www.w3.org/2000/svg">
	<g transform="translate(-.73894 -233.5)">
		<g transform="matrix(.20759 0 0 .20759 47.882 208.48)">
			<g transform="translate(-119 23.245)">
				<path d="m-106.42 228.39 0.68343-10.651 10.762-0.054 10.54-0.017v3.4347h-8.9693l-8.8953-0.0742v2.2794l-0.0741 2.2794h13.454v4.4847h-13.454v8.9693h-4.7304zm26.908 0 0.68344-10.651h20.181l1.3669 21.302h-4.7304v-8.9693h-13.454v8.9693h-4.7304zm17.501-5.0453v-2.2423h-13.454v4.4847h13.454zm8.9693 4.4847v-11.212h3.15l14.789 14.334v-14.334h4.4847v22.423h-3.15l-14.789-14.334v14.334h-4.4847zm35.877 2.2423v-8.9693h-8.9693v-4.4847h22.423v4.4847h-8.9693v17.939h-4.4847zm17.939-2.2423v-11.212h22.423v22.423h-4.4847v-8.9693h-13.454v8.9693h-4.4847zm17.939-4.4847v-2.2423h-13.454v4.4847h13.454zm8.9693 13.454v-2.2423h15.696v-4.4847h-10.663l-5.5829-6.727 2.7915-3.3635 2.7915-3.3635h17.39v4.4847h-15.696v4.4847h10.663l5.5829 6.727-5.5829 6.727h-17.39zm35.877-1.703v-3.9453l-8.9693-5.6014v-8.9313h3.9616l1.1728 4.4847 1.1728 4.4847h9.809l1.1728-4.4847 1.1728-4.4847h3.9616v8.9313l-8.9693 5.6014v7.8906h-4.4847zm47.537 1.2545-2.6908-2.6908v-11.66l5.3816-5.3816h17.042v4.2139l-16.817 1.3919v11.212l16.817 1.3919v4.214h-17.042zm26.908 0-2.6908-2.6908v-11.66l2.6908-2.6908 2.6908-2.6908h11.66l5.3816 5.3816v11.66l-5.3816 5.3816h-11.66zm14.127-8.5209v-5.6058l-10.111-1.4357-1.351 3.5208-1.351 3.5208 2.7021 7.0415 10.111-1.4357zm10.09 0v-11.212h3.15l14.789 14.334v-14.334h4.4847v22.423h-3.15l-14.789-14.334v14.334h-4.4847zm26.908 8.9693v-2.2423h15.696v-4.4847h-10.663l-5.5829-6.727 2.7914-3.3635 2.7915-3.3635h17.39v4.4847h-15.696v4.4847h10.663l5.5829 6.727-5.5829 6.727h-17.39zm29.599-0.44847-2.6908-2.6908v-11.66l5.3816-5.3816h11.66l5.3816 5.3816v11.66l-5.3816 5.3816h-11.66zm14.127-8.5209v-5.6058l-10.111-1.4357-2.7021 7.0415 2.7021 7.0415 10.111-1.4357zm11.585 9.7168-1.4949-1.4949v-19.434h4.214l0.69593 8.4087 0.69595 8.4087 16.818 1.3919v4.214h-19.434zm26.306-1.6552-1.2088-3.15 0.71858-7.501 0.71859-7.501 21.302-1.3669v4.7304h-17.939v4.4847h8.9693v4.4847h-8.9693v4.4847h17.939v4.4847h-20.322zm-377.88-56.536v-22.483l12.043-12.271h45.193v34.342h-34.342v22.895h-22.895zm34.342-17.583v-5.7236h-11.447v11.447h11.447zm34.342 34.342v-5.7236h11.447v-34.342h-11.447v-11.447h45.789v11.447h-11.447v34.342h11.447v11.447h-45.789zm57.236-16.759v-22.483l12.043-12.271h33.746v11.447h-22.895v34.342h22.895v11.447h-45.789zm57.236 0v-22.483l12.043-12.271h45.193v45.193l-12.271 12.043h-44.965zm34.342-6.1355v-17.171h-11.447v34.342h11.447zm68.684 11.738v-16.881l11.447-11.178v-12.297h45.789v57.236h-57.236zm45.789-0.2904v-5.7236h-22.895v11.447h22.895zm0-22.895v-5.7236h-22.895v11.447h22.895zm-80.131 11.447v-5.7236h22.895v11.447h-22.895z" fill="#fff" stroke-width="1.4309"/>
				<g stroke-width="1.4309">
					<path d="m258.21 151.29v-5.7236h-11.447v-11.447h-11.447v-11.447h11.447v-11.447h11.447v-12.878h11.447v12.878h11.447v11.447h11.447v11.447h-11.447v11.447h-11.447v11.447h-11.447zm11.447-11.447v-5.7236h11.447v-11.447h-11.447v-11.447h-11.447v11.447h-11.447v11.447h11.447v11.447h11.447z" fill="#fecba9"/>
					<path d="m258.21 151.29v-5.7236h-11.447v-11.447h-11.447v-11.447h11.447v-11.447h11.447v-12.878h11.447v12.878h-11.447v11.447h-11.447v11.447h11.447v11.447h11.447v-11.447h11.447v-11.447h11.447v11.447h-11.447v11.447h-11.447v11.447h-11.447z" fill="#fe76a7"/>
					<path d="m258.21 151.29v-5.7236h-11.447v-11.447h-11.447v-11.447h11.447v-11.447h11.447v-12.878h11.447v12.878h-11.447v11.447h-11.447v11.447h11.447v11.447h11.447v-11.447h11.447v11.447h-11.447v11.447h-11.447z" fill="#feeb26"/>
					<path d="m258.21 151.29v-5.7236h-11.447v-11.447h11.447v11.447h11.447v-11.447h11.447v11.447h-11.447v11.447h-11.447zm-11.447-34.342v-5.7236h11.447v-12.878h11.447v12.878h-11.447v11.447h-11.447z" fill="#28acfe"/>
					<path d="m246.76 139.84v-5.7236h11.447v11.447h-11.447zm22.895 0v-5.7236h11.447v11.447h-11.447zm-22.895-22.895v-5.7236h11.447v-12.878h11.447v12.878h-11.447v11.447h-11.447z" fill="#fea200"/>
					<path d="m246.76 139.84v-5.7236h11.447v11.447h-11.447zm22.895 0v-5.7236h11.447v11.447h-11.447zm-11.447-35.057v-6.4391h11.447v12.878h-11.447z" fill="#82759b"/>
					<path d="m246.76 139.84v-5.7236h11.447v11.447h-11.447zm11.447-35.057v-6.4391h11.447v12.878h-11.447z" fill="#fe004c"/>
					<path d="m246.76 139.84v-5.7236h11.447v11.447h-11.447z" fill="#00e335"/>
				</g>
			</g>
		</g>
	</g>
</svg>
