<svg width="530.47" height="301.11" version="1.1" viewBox="0 0 530.47 301.11" xmlns="http://www.w3.org/2000/svg">
	<g transform="matrix(1.3333 0 0 -1.3333 -67.969 495.64)" fill="#fff">
		<g fill-rule="evenodd">
			<path d="m90.059 268.31-21.283 38.723c-2.6215 4.772-0.8696 10.784 3.9015 13.406l65.497 35.992c4.771 2.622 10.782 0.876 13.406-3.897l5.238-9.532-0.97 8.355c-0.627 5.401 3.268 10.317 8.669 10.944l74.238 8.616c5.4 0.627 10.315-3.27 10.942-8.671l2.672-23.037 2.565 22.878c0.604 5.402 5.508 9.318 10.91 8.712l74.273-8.327c4.087-0.457 7.32-3.375 8.39-7.106 2.737 4.46 8.536 6.033 13.169 3.481l65.468-36.063c4.769-2.628 6.506-8.641 3.882-13.409l-22.62-41.065h-5.851l23.981 43.538c1.264 2.295 0.431 5.183-1.866 6.448l-65.467 36.062c-2.296 1.264-5.179 0.425-6.442-1.87l-46.371-84.178h-5.854l42.435 77.03 0.762 6.794c0.29 2.601-1.586 4.955-4.187 5.247l-74.274 8.326c-2.599 0.291-4.955-1.589-5.247-4.191l-10.444-93.206h-5.275l5.468 48.8-5.168 44.544c-0.303 2.603-2.659 4.474-5.261 4.171l-74.239-8.618c-2.602-0.3-4.468-2.658-4.168-5.26l9.706-83.637h-5.277l-7.135 61.478-11.145 20.28c-1.261 2.296-4.151 3.133-6.447 1.871l-65.496-35.993c-2.2953-1.261-3.1383-4.149-1.8761-6.446l22.637-41.19h-5.8465"/>
			<path d="m205.34 347.92c-0.91041-10.895-8.3529-19.467-14.726-25.72-4.9849-4.8953-9.9896-10.945-9.2931-18.755 0.62186-7.0494 7.0047-12.263 14.223-11.626 6.8156 0.59699 11.562 5.8505 13.497 11.144l0.0597-0.55221c0.61191-6.751-0.83579-12.492-4.2237-16.711-3.3979-4.2386-8.7011-6.746-15.363-7.3081l-0.28854-0.0199-0.28855-2.965 46.013 4.0794-0.78106 2.8606-0.2985-0.0199c-13.96-0.77608-21.974 6.4127-23.243 20.8l-5e-3 0.0448c3.7063-5.9699 9.2882-9.1936 15.139-8.6762 3.4576 0.30347 6.5719 1.9253 8.7558 4.5719 2.179 2.6218 3.2138 5.9798 2.8954 9.4424-0.70644 7.9897-7.2335 13.019-12.98 17.452l-1.189 0.91041c-7.5519 5.6216-14.054 11.109-17.188 21.123l-0.71638-0.0746"/>
			<path d="m272.65 321.99-8.3306-7.2199 4.6642-8.2882 6.6833-13.192 6.3962-14.849 21.344 21.278 7.8694 6.6786-0.14119 0.24474c-7.4175 12.59-13.108 24.201-17.414 35.525l-0.17885 0.47536-20.892-20.652"/>
			<path d="m75.709 265.72c-10.145 0-18.448-8.303-18.448-18.448v-76.638c0-10.144 8.3024-18.447 18.448-18.447h348.39c10.143 0 18.448 8.303 18.448 18.447v76.638c0 10.145-8.305 18.448-18.448 18.448h-348.39m0 5.535h348.39c13.193 0 23.981-10.788 23.981-23.981v-76.638c0-13.194-10.788-23.981-23.981-23.981h-348.39c-13.194 0-23.982 10.787-23.982 23.981v76.638c0 13.193 10.788 23.981 23.982 23.981"/>
			<path transform="matrix(.75 0 0 -.75 0 500)" d="m243.92 337.7c-20.979 0-38.866 12.781-46.436 30.975-1.7987-18.619-16.02-29.008-35.104-29.008h-44.521v97.652h29.146v-31.484h15.375c14.081 0 25.514-5.6563 31.262-16.098 0.85067 27.055 23.013 48.689 50.277 48.689 22.908 0 42.382-15.385 48.461-36.385v35.277h29.514v-12.059l6.998-9.6856 20.256 21.744h111.11v-26.072h-49.564v-8.9785h40.096v-26.934h-40.096v-9.9629h45.387v-26.074h-73.918v0.36914h-33.453l-26.812 38.877v-38.877h-29.514v34.498c-6.0693-21.037-25.497-36.465-48.461-36.465zm220.15 1.9668v97.652h29.268v-31.484h2l22.137 31.484h36.066l-26.648-35.176c11.237-5.4747 17.242-16.719 17.242-29.393 0-21.248-15.108-33.084-35.543-33.084zm-81.912 3.4453v86.689l-33.721-35.984zm-235.15 21.399h10.084c6.4707 0 12.055 0.46557 12.055 8.2402 0 7.7773-5.5854 8.2402-12.055 8.2402h-10.084zm346.33 0h10.086c6.76 0 11.934 0.19357 11.934 8.2402 0 7.9013-5.2696 8.3652-11.934 8.3652h-10.086zm-249.42 1.5996c11.969 0 21.646 10.146 21.646 22.016 0 11.887-9.6932 21.891-21.646 21.891-11.917 0-21.891-9.972-21.891-21.891 0-11.904 9.956-22.016 21.891-22.016z"/>
		</g>
		<path d="m380.73 316.06c-5.2115 22.39-36.216 17.896-35.486-4.5879 0.46976-4.9952 4.0478-12.877 7.9587-21.067 2.2242-7.6149 4.3973-11.33 3.558-17.696 3.5855 2.2691 7.612 4.5105 17.79 6.367 7.739 1.085 11.29 0.0826 20.412 4.307 19.618 9.5304 9.3907 40.612-14.232 32.677z"/>
		<path d="m128.06 293.98c1.7566-14.697-3.4969-16.112-5.9925-22.753l30.43 16.386c-9.2645 0.30989-17.838 1.5029-22.659 7.4905 6.6858-0.87217 12.046-3.8273 23.689 3.0898 0 0 8.6213 7.8822 0.46814 17.603-11.003 8.7407-17.308 0.91325-23.689-6.6479-2.6572 16.181-8.5205 18.352-8.5205 18.352-12.019 6.2264-17.282-5.3129-16.947-9.1759-0.41612-3.4567 5.0354-12.242 11.142-17.041-7.0279-2.1689-15.831 0.20331-18.539-12.359 0.6258-7.9569 4.3679-12.424 11.236-13.389 5.7422-1.362 17.559 7.1713 19.382 18.445z"/>
	</g>
</svg>
