<svg width="953.94" height="168.13" version="1.1" viewBox="0 0 953.94 168.13" xmlns="http://www.w3.org/2000/svg">
	<g transform="matrix(1.3333 0 0 -1.3333 143.76 429.16)" fill="#fff">
		<path d="m-63.874 315.58c-18.275 0-33.23-8.303-33.23-18.448v-76.638c0-10.144 14.955-18.447 33.23-18.447h627.56c18.271 0 33.23 8.303 33.23 18.447v76.638c0 10.145-14.96 18.448-33.23 18.448h-627.56m0 5.535h627.56c23.765 0 43.197-10.788 43.197-23.981v-76.638c0-13.194-19.432-23.981-43.197-23.981h-627.56c-23.767 0-43.198 10.787-43.198 23.981v76.638c0 13.193 19.432 23.981 43.198 23.981" fill-rule="evenodd"/>
		<g transform="translate(18.231)">
			<g fill-rule="evenodd">
				<path d="m-64.783 294.37c-1.7021-10.8-9.7495-18.806-16.561-24.579-5.3284-4.519-10.761-10.188-10.635-18.028 0.10639-7.076 6.0922-12.741 13.338-12.632 6.841 0.0986 11.957 4.9922 14.273 10.13l0.01929-0.5551c0.11823-6.7776-1.7441-12.398-5.4305-16.358-3.6978-3.9797-9.1697-6.0938-15.854-6.169l-0.28922 1e-3 -0.5039-2.9361 46.188 0.71483-0.57048 2.9099-0.29916 2e-3c-13.979 0.24345-21.448 7.9972-21.665 22.439l-0.0017 0.045c3.2613-6.2242 8.5933-9.8462 14.466-9.7566 3.4705 0.0507 6.6947 1.4412 9.0658 3.9216 2.3643 2.456 3.6411 5.7297 3.5759 9.2062-0.12222 8.02-6.2653 13.512-11.673 18.352l-1.1195 0.99465c-7.1221 6.1571-13.207 12.104-15.603 22.32l-0.71991-0.0222"/>
				<path d="m509.29 268.6-7.8601-9.6632 6.8107-8.3125 10.016-13.376 10.021-15.276 19.595 27.852 7.4526 8.9707-0.20497 0.24477c-10.716 12.562-19.318 24.372-26.324 36.133l-0.29195 0.49408-19.215-27.067"/>
				<path d="m162.77 296.59c-15.734 0-29.15-9.586-34.827-23.231-1.349 13.964-12.015 21.756-26.328 21.756h-33.391v-73.239h21.86v23.613h11.531c10.561 0 19.135 4.2422 23.446 12.073 0.638-20.291 17.26-36.517 37.708-36.517 17.181 0 31.787 11.539 36.346 27.289v-26.458h22.135v9.044l5.2485 7.2642 15.192-16.308h83.331v19.554h-37.173v6.7339h30.072v20.2h-30.072v7.4722h34.04v19.556h-55.438v-0.27686h-25.09l-20.109-29.158v29.158h-22.135v-25.874c-4.552 15.778-19.123 27.349-36.346 27.349zm165.11-1.4751v-73.239h21.951v23.613h1.5l16.603-23.613h27.05l-19.986 26.382c8.428 4.106 12.932 12.539 12.932 22.044 0 15.936-11.331 24.813-26.657 24.813zm-61.434-2.584v-65.017l-25.291 26.988zm-176.37-16.049h7.563c4.853 0 9.041-0.34918 9.041-6.1802 0-5.833-4.189-6.1802-9.041-6.1802h-7.563zm259.75 0h7.5645c5.07 0 8.9502-0.14518 8.9502-6.1802 0-5.926-3.9522-6.2739-8.9502-6.2739h-7.5645zm-187.06-1.1997c8.977 0 16.235-7.6097 16.235-16.512 0-8.915-7.2699-16.418-16.235-16.418-8.938 0-16.418 7.479-16.418 16.418 0 8.928 7.467 16.512 16.418 16.512z"/>
			</g>
			<path d="m448.6 286.98c-19.809 23.143-53.52-1.086-38.923-27.078 3.6046-5.5865 12.627-12.667 22.231-19.909 7.2681-7.5948 12.094-10.636 14.997-18.634 2.8295 4.8589 6.1945 9.9548 17.028 18.357 8.4368 6.0046 13.225 6.9956 21.369 17.536 17.245 23.193-13.773 53.491-36.701 29.727z"/>
			<path d="m14.757 245.52c-6.7688-17.411-13.46-15.868-20.181-21.782l43.618 0.18357c-10.134 5.845-18.974 12.263-20.789 21.794 6.9283-4.9404 11.144-11.414 28.217-10.622 0 0 14.281 3.6605 10.971 19.326-7.0656 16.267-18.734 11.292-30.329 6.6592 6.6469 19.599 1.4053 25.497 1.4053 25.497-9.6894 14.07-22.401 4.3424-24.322-0.15839-2.5155-3.6027-1.6597-16.624 2.2927-25.593-9.1146 1.7566-17.51 9.6244-27.984-2.7589-4.0267-9.2332-2.5108-16.429 4.5648-21.582 5.5865-4.9257 23.813-2.4373 32.536 9.0367z"/>
		</g>
	</g>
</svg>
