<svg width="248.3" height="126.39" enable-background="new 169.102 12.001 246.295 124.395" version="1.1" viewBox="169.1 12.001 248.3 126.39" xmlns="http://www.w3.org/2000/svg">
	<linearGradient id="SVGID_1_" x1="-458.33" x2="-458.33" y1="157.16" y2="230.72" gradientTransform="matrix(1 0 0 -1 655 246.84)" gradientUnits="userSpaceOnUse">
		<stop stop-color="#9B9B9B" offset="0"/>
		<stop stop-color="#5B5C60" offset="1"/>
	</linearGradient>
	<path d="m175.23 128.86 1.17-2.779v-107.26l-2.926-3.659h36.438l9.95 6v49.898l-27.071 15.071v25.462h3.659zm17.267-61.02 11.707-7.023v-28.389h-11.707z" fill="url(#SVGID_1_)"/>
	<linearGradient id="SVGID_2_" x1="-408.36" x2="-408.36" y1="157.16" y2="230.72" gradientTransform="matrix(1 0 0 -1 655 246.84)" gradientUnits="userSpaceOnUse">
		<stop stop-color="#9B9B9B" offset="0"/>
		<stop stop-color="#5B5C60" offset="1"/>
	</linearGradient>
	<path d="m262.15 15.165 6.439 7.463v85.166l-23.852 20.192-20.047-18.585v-86.188l6.146-8.048zm-20.925 15.804v65.848l9.805 8.634v-74.483z" fill="url(#SVGID_2_)"/>
	<linearGradient id="SVGID_3_" x1="-360.36" x2="-360.36" y1="157.16" y2="230.72" gradientTransform="matrix(1 0 0 -1 655 246.84)" gradientUnits="userSpaceOnUse">
		<stop stop-color="#9B9B9B" offset="0"/>
		<stop stop-color="#5B5C60" offset="1"/>
	</linearGradient>
	<path d="m273.86 126.38v-107.55l-2.926-3.659h36.436l9.95 6v30.876l-15.364 8.78 15.364 8.193v28.242l1.025 0.879-16.975 12.437v-34.68l-11.12-5.854v44.046l2.195 3.22-20.196 14.926zm16.096-74.629 11.706-7.024v-12.292h-11.706z" fill="url(#SVGID_3_)"/>
	<linearGradient id="SVGID_4_" x1="-310.69" x2="-310.69" y1="157.16" y2="230.72" gradientTransform="matrix(1 0 0 -1 655 246.84)" gradientUnits="userSpaceOnUse">
		<stop stop-color="#9B9B9B" offset="0"/>
		<stop stop-color="#5B5C60" offset="1"/>
	</linearGradient>
	<path d="m335.61 32.432h-13.024v-13.609l-2.926-3.659h49.313l-2.926 3.659v13.609h-14.196v83.553l2.342 3.513-20.341 14.633 1.756-7.902v-93.797z" fill="url(#SVGID_4_)"/>
	<linearGradient id="SVGID_5_" x1="-263.42" x2="-263.42" y1="157.16" y2="230.72" gradientTransform="matrix(1 0 0 -1 655 246.84)" gradientUnits="userSpaceOnUse">
		<stop stop-color="#9B9B9B" offset="0"/>
		<stop stop-color="#5B5C60" offset="1"/>
	</linearGradient>
	<path d="m404.82 15.165 9.951 6v14.78h-17.56v-3.512h-9.805v21.803l27.364 14.778v24.146l-44.632 35.704 1.172-2.779v-47.998h16.096v10.39l9.805-7.17v-6l-25.899-14.634v-41.849l-2.928-3.659z" fill="url(#SVGID_5_)"/>
	<linearGradient id="SVGID_6_" x1="-457.47" x2="-457.47" y1="112.86" y2="189.4" gradientTransform="matrix(1 0 0 -1 655 246.84)" gradientUnits="userSpaceOnUse">
		<stop stop-color="#F9DA55" offset="0"/>
		<stop stop-color="#E04305" offset="1"/>
	</linearGradient>
	<path d="m219.85 61.319v9.688l-27.072 15.071v25.461h3.659l-21.218 17.268 1.171-2.779v-39.828" fill="url(#SVGID_6_)"/>
	<linearGradient id="SVGID_7_" x1="-408.38" x2="-408.38" y1="112.86" y2="189.4" gradientTransform="matrix(1 0 0 -1 655 246.84)" gradientUnits="userSpaceOnUse">
		<stop stop-color="#F9DA55" offset="0"/>
		<stop stop-color="#E04305" offset="1"/>
	</linearGradient>
	<path d="m268.57 85.118v22.616l-23.852 20.193-20.047-18.585v-48.474l16.535 9.014v26.877l9.804 8.634v-29.919z" fill="url(#SVGID_7_)"/>
	<linearGradient id="SVGID_8_" x1="-359.72" x2="-359.72" y1="112.86" y2="189.4" gradientTransform="matrix(1 0 0 -1 655 246.84)" gradientUnits="userSpaceOnUse">
		<stop stop-color="#F9DA55" offset="0"/>
		<stop stop-color="#E04305" offset="1"/>
	</linearGradient>
	<path d="m290.23 77.906v36.121l2.195 3.219-20.193 14.927 1.609-5.853v-40.661m39.232-18.957 4.229 2.256v28.241l1.025 0.878-16.976 12.438v-34.68l-3.292-1.732" fill="url(#SVGID_8_)"/>
	<linearGradient id="SVGID_9_" x1="-311" x2="-311" y1="112.86" y2="189.4" gradientTransform="matrix(1 0 0 -1 655 246.84)" gradientUnits="userSpaceOnUse">
		<stop stop-color="#F9DA55" offset="0"/>
		<stop stop-color="#E04305" offset="1"/>
	</linearGradient>
	<path d="m351.83 75.202v40.727l2.341 3.512-20.34 14.633 1.756-7.902v-61.156" fill="url(#SVGID_9_)"/>
	<linearGradient id="SVGID_10_" x1="-262.56" x2="-262.56" y1="112.86" y2="189.4" gradientTransform="matrix(1 0 0 -1 655 246.84)" gradientUnits="userSpaceOnUse">
		<stop stop-color="#F9DA55" offset="0"/>
		<stop stop-color="#E04305" offset="1"/>
	</linearGradient>
	<path d="m404.9 63.632 9.859 5.326v24.145l-44.632 35.704 1.171-2.779v-47.998h16.096v10.391l9.805-7.171v-5.999l-8.329-4.708" fill="url(#SVGID_10_)"/>
	<g fill="#542209">
		<polygon transform="translate(1.001 .999)" points="218.36 61.898 176.99 85.834 175.9 83.96 217.28 60.023"/>
		<polygon transform="translate(1.001 .999)" points="240.72 67.934 239.69 69.834 224.34 61.506 225.37 59.604"/>
		<polygon transform="translate(1.001 .999)" points="267.46 83.153 266.36 85.018 250.54 75.686 251.64 73.821"/>
		<polygon transform="translate(1.001 .999)" points="289.44 77.885 273.89 85.727 272.91 83.797 288.46 75.953"/>
		<polygon transform="translate(1.001 .999)" points="310.55 67.059 298.25 73.549 297.24 71.634 309.54 65.143"/>
		<polygon transform="translate(1.001 .999)" points="349.72 72.229 348.53 74.035 335.01 65.109 336.2 63.305"/>
		<polygon transform="translate(1.001 .999)" points="402.72 63.839 388.79 70.195 387.9 68.225 401.82 61.869"/>
	</g>
	<path d="m174.78 125.22v-106.36l-4.677-5.849h40.263l11.12 6.705v51.77l-27.071 15.07v22.886h6.599l-24.756 20.146-5.048 4.107zm1.949 3.735-1.496-0.629zm1.298-111.24v106.24l13.857-11.277h-0.714v-28.038l27.068-15.072v-48.03l-8.775-5.291-32.612-2e-3zm12.85 12.558h14.953v30.929l-12.496 7.495-0.835-1.391 0.835 1.391-2.458 1.479v-39.903zm3.245 34.167 8.46-5.075v-25.847l-8.46-2e-3z"/>
	<path d="m223.07 109.57v-87.443l6.965-9.121h32.118v1.622-1.622h0.741l7.321 8.48v86.52l-25.525 21.61zm3.245-86.344v84.932l18.474 17.124 22.18-18.776v-83.814l-5.56-6.442h-29.767zm13.291 73.786v-68.203h13.049v79.7zm3.245-1.465 6.558 5.775v-69.267h-6.558zm-1.622-63.492v-1.623z"/>
	<path d="m272.23 125.61-2e-3 -106.76-4.678-5.85h40.263l11.123 6.707v32.734l-13.632 7.788 13.632 7.271-2e-3 28.469 2.014 1.724-21.208 15.534v-36.898l-7.875-4.145v40.857l2.794 4.095-25.226 18.644zm3.246 0.443-0.425 1.541 15.167-11.209-1.598-2.346v-47.229l14.365 7.56-2e-3 32.458 12.744-9.337-0.039-0.031v-28.014l-17.098-9.118 17.098-9.771v-29.019l-8.779-5.293h-32.606l1.174 1.466v108.12zm12.851-95.785h14.952v14.83l-12.494 7.499-0.836-1.392 0.836 1.392-2.458 1.475zm3.245 18.071 8.461-5.078v-9.75h-8.461z"/>
	<path d="m333.98 125.51v-91.998h-13.022v-14.662l-4.677-5.849h56.064l-4.681 5.851v14.66h-14.195v81.442l2.938 4.403-25.068 18.037zm3.248-95.242v95.597l-0.874 3.924 15.613-11.234-1.743-2.619v-85.668h14.194v-12.557l1.173-1.465h-42.562l1.174 1.465v12.557h11.4v1.623-1.623z"/>
	<path d="m369.69 125.22v-49.293h19.341v8.813l6.559-4.794v-4.232l-25.898-14.63v-42.227l-4.678-5.851h39.81v1.623-1.623h0.453l11.123 6.706v17.319h-20.807v-3.512h-6.561v19.212l27.367 14.781v25.892l-50.234 40.179zm3.246-1.206 40.212-32.17v-22.399l-27.363-14.779v-24.393h13.051l-2e-3 3.511h14.315v-12.241l-8.775-5.291-32.613-2e-3 1.176 1.468-3e-3 41.471 25.902 14.633v7.769l-13.051 9.546v-11.964h-12.849z"/>
</svg>
