<svg width="568.93" height="156.09" enable-background="new -0.003 -0.001 566.931 154.093" version="1.1" viewBox="-.003 -.001 568.93 156.09" xmlns="http://www.w3.org/2000/svg">
	<g transform="translate(1.0002 1.0001)">
		<linearGradient id="path27_1_" x1="439.68" x2="439.68" y1="979.9" y2="1115.4" gradientTransform="translate(49.71 -968.87)" gradientUnits="userSpaceOnUse">
			<stop stop-color="#ECEFEB" offset="0"/>
			<stop stop-color="#EAECE9" offset=".1746"/>
			<stop stop-color="#E1E4E0" offset=".2796"/>
			<stop stop-color="#D3D6D3" offset=".3661"/>
			<stop stop-color="#C0C1BF" offset=".4427"/>
			<stop stop-color="#A6A7A6" offset=".5127"/>
			<stop stop-color="#878787" offset=".5769"/>
			<stop stop-color="#7A7A7A" offset=".6"/>
			<stop stop-color="#343732" offset="1"/>
		</linearGradient>
		<path d="m436.78 14.144-17.318 116.25c-0.141 0.942 0.103 1.867 0.683 2.603s1.423 1.187 2.37 1.271l16.047 1.399c1.91 0.168 3.686-1.244 3.947-3.146 0 0 8.807-63.336 9.371-67.417 1.156 3.975 20.719 71.149 20.719 71.149 0.504 1.722 2.293 3.222 4.078 3.41l10.701 1.14c1.773 0.188 3.861-0.875 4.752-2.418 0 0 34.193-59.302 36.105-62.614-0.326 3.786-5.582 64.872-5.582 64.872-0.01 0.104-0.016 0.205-0.016 0.31 0 1.805 1.385 3.369 3.209 3.56l19.23 1.987c0.938 0.099 1.854-0.18 2.586-0.778 0.729-0.601 1.174-1.447 1.258-2.388l10.424-116.89c0.082-0.938-0.205-1.854-0.813-2.578-0.607-0.724-1.457-1.168-2.396-1.25l-18.051-1.57c-1.777-0.155-3.842 0.951-4.699 2.516l-44.734 81.701c-4e-3 6e-3 -6e-3 6e-3 -8e-3 0.01-2e-3 -4e-3 -2e-3 -4e-3 -4e-3 -0.01l-23.939-88.783c-0.469-1.743-2.244-3.25-4.041-3.431l-19.895-2.003c-1.918-0.195-3.701 1.194-3.984 3.095z" fill="url(#path27_1_)"/>
		<path d="m564.33 19c-1.908-2.275-4.586-3.671-7.543-3.929l-18.049-1.569c-4.77-0.415-9.699 2.227-11.996 6.423 0 0-24.188 44.166-35.697 65.188-6.199-22.988-19.039-70.604-19.039-70.604-1.293-4.797-5.645-8.496-10.594-8.993l-19.896-2.003c-5.975-0.601-11.344 3.579-12.229 9.516l-17.317 116.26c-0.442 2.984 0.364 6.049 2.228 8.406 1.858 2.354 4.647 3.855 7.658 4.121l16.043 1.4c5.963 0.521 11.277-3.717 12.104-9.646 0 0 2.26-16.262 4.5-32.362 5.41 18.58 10.822 37.168 10.822 37.168 1.363 4.68 5.699 8.31 10.545 8.821l10.703 1.142c4.746 0.504 9.725-2.028 12.107-6.164 0 0 9.551-16.562 19.084-33.092-1.322 15.371-2.66 30.918-2.66 30.918-0.027 0.317-0.041 0.637-0.041 0.949 0 5.629 4.309 10.506 10.002 11.094l19.229 1.992c2.971 0.307 5.875-0.57 8.18-2.472 2.307-1.897 3.721-4.582 3.984-7.56l10.422-116.89c0.267-2.952-0.639-5.834-2.55-8.111zm-30.062 5.044c0.666-1.218 2.344-2.116 3.729-1.996l5.943 0.517-6.096 18.277h-12.773zm-93.607-11.995 19.895 2.003c1.383 0.139 2.811 1.349 3.168 2.69l5.494 20.373h-23.627l-0.168 0.527-2.979 9.373h-9.541l4.877-32.722c0.203-1.373 1.5-2.382 2.881-2.244zm-9.561 90.799 3.496 1.902 0.17 0.092h10.568l-1.459 10.486-20.783-2.473 1.498-10.049zm7.547 31.819-16.047-1.401c-1.383-0.121-2.348-1.343-2.143-2.716l2.412-16.196 20.797 2.476-2.162 15.56c-0.187 1.37-1.474 2.396-2.857 2.277zm13.586-71.948c-0.391-1.333-0.861-1.297-1.055 0.076l-5.635 40.534h-10.395l-3.494-1.899-0.166-0.093-0.191-2e-3 -6.479-0.041 7.855-52.764h10.871l0.168-0.528 2.98-9.372h22.928l11.049 40.976h-11.534v28.391h-3.723zm92.945 82.778-9.295-0.961 0.938-13.306 4.813-0.633 0.4-0.054 0.18-0.36 1.225-2.479h5.861l-1.385 15.541c-0.126 1.38-1.356 2.392-2.737 2.252zm4.256-19.309h-6.942l-0.209 0.42-1.252 2.541-5.023 0.662-0.609 0.08-0.047 0.617-0.975 13.869-8.428-0.871c-1.379-0.145-2.412-1.393-2.293-2.775l3.408-39.619h11.182l2e-3 -0.756 0.064-24.132 4.314-15.606 12.646 0.051zm5.977-67.033-13.355-0.054-0.574-2e-3 -0.152 0.557-4.5 16.264-0.027 0.098v0.102l-0.066 23.48h-9.541l2.217-25.75c0.117-1.383-0.355-1.531-1.045-0.329l-37.113 64.363c-0.691 1.203-2.391 2.064-3.77 1.918l-10.701-1.139c-1.381-0.146-2.828-1.356-3.215-2.688l-7.709-26.466h4.799v-28.391h10.426l6.58 24.403c0.361 1.338 1.203 1.439 1.869 0.224l34.709-63.387h14.693l0.176-0.518 6.379-19.139 10.557 0.918c1.383 0.12 2.412 1.35 2.289 2.733z"/>
		<linearGradient id="path50_1_" x1="324.54" x2="324.54" y1="976.89" y2="1106" gradientTransform="translate(49.71 -968.87)" gradientUnits="userSpaceOnUse">
			<stop stop-color="#ECEFEB" offset="0"/>
			<stop stop-color="#EAECE9" offset=".1746"/>
			<stop stop-color="#E1E4E0" offset=".2796"/>
			<stop stop-color="#D3D6D3" offset=".3661"/>
			<stop stop-color="#C0C1BF" offset=".4427"/>
			<stop stop-color="#A6A7A6" offset=".5127"/>
			<stop stop-color="#878787" offset=".5769"/>
			<stop stop-color="#7A7A7A" offset=".6"/>
			<stop stop-color="#343732" offset="1"/>
		</linearGradient>
		<path d="m421.88 8.088-18.472 3.722c-1.782 0.359-3.37 2.05-3.618 3.85 0 0-10.306 74.859-10.435 75.795-0.463-0.822-37.666-67.015-37.666-67.015-0.896-1.594-3-2.553-4.791-2.183l-21.271 4.396c-0.975 0.2-1.732 0.776-2.088 1.579-0.354 0.802-0.27 1.752 0.238 2.605l61.738 104.02c0.928 1.561 3.045 2.518 4.822 2.182l10.776-2.038c1.776-0.336 3.404-1.996 3.707-3.781l20.308-119.98c0.168-0.984-0.096-1.897-0.723-2.504-0.625-0.605-1.547-0.837-2.525-0.642z" fill="url(#path50_1_)"/>
		<path d="m430.52 2.419c-2.027-1.968-4.895-2.809-7.668-2.251l-23.417 4.719c-3.576 0.72-6.31 3.625-6.808 7.241 0 0-4.403 31.996-7.705 55.993-11.916-21.201-27.871-49.589-27.871-49.589-1.829-3.256-5.559-4.954-9.217-4.198l-26.215 5.418c-2.72 0.561-4.994 2.4-6.115 4.938-1.119 2.537-0.942 5.459 0.472 7.844l64.317 108.36c1.84 3.104 5.426 4.721 8.972 4.051l15.729-2.971c3.526-0.666 6.269-3.46 6.866-7l21.148-124.96c0.471-2.784-0.459-5.625-2.488-7.591zm-29.734 13.379c0.188-1.375 1.457-2.724 2.815-2.999l7.015-1.413v5.358l-1.759 1.556-0.256 0.226v4.246l-1.806 1.93-0.205 0.219v12.148l-2.353 1.972h-6.653zm-59.255 30.801h0.759v-10.077h7.148l0.228-0.311 1.335-1.827h5.119l22.877 40.706-18.58 15.5-26.116-43.99zm-15.702-18.954 21.271-4.396c1.355-0.281 3.025 0.48 3.707 1.689l4.459 7.934h-5.035l-0.229 0.31-1.338 1.828h-7.895v10.077h-7.368l-8.762-14.76c-0.704-1.196-0.172-2.403 1.19-2.682zm77.993 103.41c-0.229 1.369-1.536 2.701-2.899 2.957l-10.771 2.035c-1.362 0.258-3.062-0.508-3.771-1.701l-7.616-12.834 15.272-5.639 0.494-0.182v-7.375l3.793-2.902 5.36 0.043 0.267 2e-3 0.209-0.164 4.637-3.643zm2.262-64.336 1.992-1.949 0.228-0.223v-3.9h7.434l-3.547 20.953h-6.147zm18.043-55.649-8.135 48.063h-9.205v4.779l-1.99 1.947-0.226 0.223-2e-3 0.317-0.049 15.958-2e-3 0.76h7.412l-2.763 16.316-5.737 4.506-5.357-0.043-0.26-2e-3 -4.502 3.448-0.297 0.226v7.067l-15.039 5.553-16.783-28.273 18.554-15.48 8.959 15.937c0.68 1.209 1.392 1.074 1.58-0.301l7.09-51.511h7.414l0.212-0.178 2.834-2.376 0.271-0.226v-12.257l1.809-1.931 0.205-0.218v-4.163l1.756-1.557 0.254-0.225v-6.344l9.945-2.003c1.359-0.275 2.285 0.621 2.052 1.988z"/>
		<path d="m353.48 66.369c15.177 6.063 19.17 25.939 16.729 48.469-1.06 9.77-1.271 22.031-10.825 23.375-3.25 0.457-6.921-0.324-10.335-0.738-3.063-0.373-6.569-1.598-9.596-1.229-1.84 0.225-3.238 1.721-4.922 2.213-3.736 1.098-8.386 0.492-13.531 0.492-3.146 0-6.34 0.051-9.103-0.492-1.666-0.328-3.373-1.59-5.168-1.721-1.642-0.123-3.303 0.783-5.166 0.982-5.01 0.533-11.729 0.695-16.979 0.246-1.88-0.166-3.958-1.256-5.657-1.229-1.678 0.025-3.559 1.271-5.414 1.477-6.576 0.729-13.49-2.537-19.189-1.967-2.656 0.266-5.342 2.623-8.857 2.951-5.074 0.479-13.408 0.182-18.453-0.736-1.891-0.344-3.834-1.6-5.658-1.723-1.654-0.113-3.541 0.811-5.412 0.984-4.783 0.445-10.76 0.486-15.748 0.246-1.436-0.072-2.875-0.574-4.184-0.492-2.266 0.145-4.504 1.713-6.643 1.969-5.709 0.688-12.07 0.789-17.467 0.246-1.918-0.195-3.865-1.209-5.906-1.229-2.764-0.032-5.326 1.277-7.627 1.478-13.297 1.158-23.307-5.229-30.018-12.549-2.968 1.426-4.869 4.063-7.627 5.905-12.333 8.259-33.379 5.879-44.287-2.707-1.548-1.219-3.757-4.95-5.658-4.92-1.621 0.027-4.445 3.8-5.906 4.92-5.808 4.451-13.629 7.709-23.373 8.365-14.66 0.983-26.373-4.496-33.953-11.563-3.885-3.627-9.488-9.584-6.889-16.976 1.338-3.806 5.254-7.694 8.119-11.071 1.055-1.246 2.639-2.462 2.705-3.691 0.123-2.213-3.496-5.51-4.428-7.135-4.228-7.377-5.582-19.55-1.476-28.788 4.896-11.01 17.828-18.976 35.429-17.715 6.71 0.482 13.599 2.547 19.437 5.905 8.34 4.793 16.992 9.227 14.271 21.897 3.516-0.753 5.535-3.256 8.611-4.674 10.691-4.936 27.801-4.587 37.643 1.723 1.234 0.793 3.127 2.69 4.184 2.705 1.957 0.025 4.361-3.92 6.15-4.675 4.008-1.69 16.895-1.782 22.637-1.229 2.285 0.222 4.627 1.82 6.395 1.723 1.928-0.107 4.414-2.495 5.906-2.953 4.586-1.404 18.709-1.978 23.865-0.492 1.695 0.487 3.506 2.48 5.414 2.707 1.813 0.215 4.176-0.65 6.15-0.738 3.664-0.168 7.781-0.418 11.318-0.246 2.551 0.125 4.965 1.58 7.379 1.722 2.244 0.135 4.926-1.004 7.381-0.983 1.967 0.016 4.229 0.486 6.15 0.983 1.83 0.474 3.66 1.733 5.168 1.724 2.246-0.017 4.652-1.703 6.643-2.215 6.889-1.768 14.553-1.378 21.652 1.23 1.588 0.584 4.469 3.209 6.148 3.199 1.994-0.012 4.344-3.476 6.152-4.184 5.037-1.963 12.468-1.707 18.451-1.477 2.697 0.104 5.115 1.594 7.629 1.722 2.229 0.114 4.617-0.948 6.887-0.983 2.152-0.035 4.227 0.486 6.152 0.983 1.939 0.502 3.986 1.702 5.414 1.724 1.906 0.024 3.781-1.498 5.412-1.97 7.439-2.144 16.275-1.81 23.874 1.225z"/>
		<g enable-background="new    ">
			<path id="SVGID_1_" d="m65.161 95.064c1.551 3.064 2.33 6.711 2.33 10.945 0 4.084-0.854 7.619-2.558 10.605-1.705 2.985-3.921 5.44-6.649 7.37-2.727 1.929-5.816 3.363-9.263 4.312-3.449 0.943-6.916 1.416-10.399 1.416-6.973 0-12.826-1.287-17.562-3.854s-8.998-6.463-12.786-11.681l8.075-10.193c0.747-0.942 2.017-0.979 2.817-0.086 0 0 0.929 1.037 2.52 2.283 1.591 1.25 3.313 2.344 5.171 3.289 1.854 0.947 3.75 1.721 5.683 2.326s3.731 0.908 5.398 0.908c1.666 0 2.938-0.304 3.807-0.908 0.871-0.604 1.309-1.738 1.309-3.402 0-1.436-0.779-2.797-2.33-4.084-1.555-1.283-3.487-2.625-5.797-4.024-2.313-1.397-4.813-2.91-7.502-4.537-2.689-1.625-5.189-3.533-7.5-5.728-2.313-2.19-4.245-4.707-5.797-7.541-1.553-2.836-2.33-6.105-2.33-9.811 0-3.629 0.682-6.805 2.045-9.526 1.363-2.723 3.201-5.008 5.513-6.862 2.31-1.851 4.981-3.25 8.013-4.197 3.029-0.944 6.25-1.417 9.66-1.417 6.061 0 11.498 1.116 16.311 3.345 4.812 2.231 9.377 5.539 13.697 9.922l-6.539 10.073c-0.654 1.009-1.936 1.191-2.846 0.402 0 0-1.643-1.42-3.46-2.595-1.817-1.17-3.599-2.171-5.341-3.004-1.744-0.832-3.374-1.455-4.889-1.872-1.517-0.415-2.84-0.624-3.978-0.624-1.364 0-2.368 0.341-3.012 1.021-0.646 0.681-0.966 1.55-0.966 2.608 0 1.36 0.775 2.628 2.33 3.8 1.551 1.172 3.504 2.381 5.853 3.629 2.349 1.249 4.868 2.646 7.56 4.195 2.688 1.552 5.209 3.423 7.559 5.613 2.346 2.197 4.297 4.824 5.853 7.884zm29.793-4.388c0.866-0.941 1.848-1.656 2.944-2.146 1.093-0.487 2.168-0.733 3.228-0.733 3.17 0 5.528 0.791 7.076 2.373 1.547 1.582 2.248 3.197 2.248 3.197 0.477 1.1 1.818 1.762 2.981 1.473l13.737-3.428c-1.435-6.25-4.342-11.3-8.719-15.139-4.379-3.842-10.267-5.762-17.664-5.762-4.529 0-8.568 0.695-12.117 2.09s-6.529 3.389-8.944 5.989c-2.417 2.599-4.247 5.726-5.492 9.377-1.246 3.656-1.869 7.74-1.869 12.259 0 3.918 0.566 7.646 1.698 11.188s2.887 6.646 5.266 9.32c2.377 2.676 5.377 4.803 9.002 6.385 3.623 1.58 7.963 2.371 13.021 2.371 2.868 0 5.661-0.438 8.379-1.299 2.718-0.867 5.209-2.186 7.474-3.955 2.266-1.77 4.246-4.01 5.944-6.725 1.698-2.711 3.16-7.518 3.16-7.518 0.349-1.146-0.31-2.354-1.461-2.687l-13.304-3.807c-0.228 1.207-0.719 2.297-1.473 3.277-0.756 0.979-1.604 1.826-2.548 2.541-0.944 0.719-1.907 1.284-2.888 1.698s-1.887 0.619-2.717 0.619c-2.944 0-5.342-1.129-7.19-3.389-1.851-2.261-2.774-5.233-2.774-8.929 0-1.954 0.283-3.649 0.85-5.084 0.566-1.425 1.282-2.612 2.152-3.556zm94.375 9.574c-0.189-4.686-0.379-9.461-0.568-14.334s-0.445-13.508-0.445-13.508c-0.035-1.201-1.049-2.164-2.25-2.137l-18.598 0.404c0.229 3.627 0.436 6.763 0.625 9.407 0.189 2.645 0.342 5.176 0.455 7.592s0.189 4.91 0.229 7.477c0.035 2.57 0.057 5.593 0.057 9.066 0 2.645-0.871 4.74-2.611 6.289-1.742 1.549-3.822 2.322-6.248 2.322-2.572 0-4.504-0.775-5.791-2.322-1.289-1.549-1.93-3.418-1.93-5.609 0-3.92 0.18-7.598 0.566-11.442 0.379-3.774 0.756-7.25 1.137-10.427 0.455-3.625 1.229-8.268 1.229-8.268 0.197-1.186-0.623-2.146-1.826-2.133l-19.391 0.203c-0.531 3.779-0.984 7.555-1.363 11.333-0.379 3.248-0.699 6.685-0.965 10.312-0.266 3.625-0.396 6.873-0.396 9.743 0 4.078 0.492 7.755 1.477 11.025 0.982 3.271 2.5 6.051 4.543 8.34s4.674 4.051 7.893 5.291c3.217 1.235 7.059 1.856 11.525 1.856 1.287 0 2.611-0.17 3.975-0.51 1.361-0.341 2.668-0.813 3.918-1.419 1.248-0.604 2.4-1.301 3.463-2.094 0.477-0.356 1.313-1.485 1.998-1.248 0.889 0.312 0.387 2.306 0.387 2.97 0 1.202 0.982 2.163 2.186 2.137l17.801-0.399c-0.152-5.554-0.322-10.756-0.512-15.61-0.193-4.855-0.383-9.623-0.57-14.307zm82.494-19.064c-1.736-2.672-4.115-4.762-7.133-6.27-3.02-1.506-6.945-2.26-11.775-2.26-3.625 0-6.738 0.791-9.344 2.373-0.693 0.422-1.373 0.869-2.025 1.354-0.586 0.435-1.154 0.898-1.684 1.399-0.395 0.373-0.738 0.944-1.311 1.045-0.146 0.024-0.299 0.062-0.453 0.047-0.523-0.049-0.668-0.401-0.938-0.791-0.754-1.094-1.732-2.015-2.818-2.772-1.889-1.316-4.266-1.977-7.133-1.977-1.436 0-2.795 0.226-4.078 0.678-1.285 0.451-2.434 1.035-3.453 1.751-0.861 0.604-1.604 1.334-2.426 1.984-0.404 0.317-0.564 0.756-1.131 0.721-0.586-0.038-0.502-0.784-0.543-1.184-0.049-0.474-0.1-0.947-0.148-1.421-0.037-0.347-0.074-0.694-0.109-1.04-0.123-1.191-1.205-2.144-2.404-2.115l-16.279 0.399c0.227 4.595 0.396 9 0.51 13.22 0.114 4.219 0.188 8.491 0.227 12.821 0.037 4.332 0.037 8.908 0 13.729-0.039 4.82-0.053 13.75-0.053 13.75-2e-3 1.199 0.977 2.164 2.176 2.146l15.797-0.27c1.197-0.021 2.199-1.02 2.223-2.215l0.637-31.037c0-1.055 0.264-2.127 0.791-3.221 0.527-1.093 1.771-1.64 3.736-1.64 0.906 0 1.623 0.338 2.152 1.019 0.525 0.678 0.961 1.582 1.303 2.711 0.34 1.129 0.564 2.428 0.678 3.897 0.113 1.467 0.17 2.994 0.17 4.576v9.604c0 2.483-0.02 4.649-0.057 6.493-0.039 1.851-0.096 3.58-0.17 5.199-0.076 1.62-0.143 3.416-0.143 3.416-0.045 1.196 0.896 2.198 2.096 2.228l18.543 0.401c-0.152-1.129-0.283-2.522-0.395-4.181-0.113-1.655-0.191-3.351-0.229-5.084-0.037-1.731-0.074-3.389-0.113-4.971s-0.057-2.861-0.057-3.843c0-7.229 0.303-12.612 0.908-16.155 0.604-3.539 2.188-5.311 4.756-5.311 1.584 0 2.811 0.66 3.68 1.979 0.865 1.318 1.303 3.521 1.303 6.609 0 2.938-0.359 6.686-1.076 11.242-0.719 4.558-2.971 14.427-2.971 14.427-0.266 1.168 0.49 2.244 1.68 2.396l18.672 2.33c0.83-4.67 1.529-9.188 2.096-13.56 0.566-4.366 0.85-8.625 0.85-12.769 0-4.442-0.322-8.528-0.963-12.258-0.646-3.724-1.836-6.926-3.572-9.599zm89.059 9.604c-0.644-3.729-1.83-6.931-3.563-9.604-1.737-2.672-4.116-4.762-7.137-6.27-3.021-1.506-6.942-2.26-11.774-2.26-3.623 0-6.736 0.791-9.343 2.373-0.666 0.405-1.315 0.834-1.946 1.295-0.593 0.434-1.162 0.896-1.697 1.396-0.442 0.414-1.014 1.406-1.715 1.203-0.5-0.146-0.938-0.701-1.229-1.105-0.718-0.984-1.644-1.813-2.64-2.506-1.889-1.315-4.267-1.978-7.133-1.978-1.438 0-2.795 0.227-4.078 0.679-1.282 0.452-2.435 1.036-3.451 1.751-1.02 0.716-1.852 1.469-2.491 2.259-0.104 0.127-0.205 0.252-0.317 0.369-0.162 0.168-0.416 0.396-0.671 0.334-0.288-0.067-0.459-0.498-0.522-0.752-0.116-0.445-0.127-0.917-0.172-1.374-0.062-0.592-0.121-1.186-0.185-1.777-0.125-1.193-1.207-2.145-2.403-2.115l-16.277 0.399c0.225 4.595 0.396 9.001 0.508 13.22 0.115 4.219 0.189 8.492 0.229 12.822 0.037 4.332 0.037 8.908 0 13.729-0.039 4.82-0.055 13.75-0.055 13.75-2e-3 1.199 0.977 2.164 2.178 2.146l15.799-0.269c1.197-0.021 2.197-1.016 2.223-2.215l0.635-31.037c0-1.055 0.266-2.127 0.793-3.221 0.527-1.092 1.773-1.639 3.736-1.639 0.906 0 1.623 0.338 2.15 1.018 0.525 0.678 0.963 1.582 1.303 2.711s0.563 2.428 0.68 3.898c0.113 1.469 0.17 2.994 0.17 4.574v9.604c0 2.483-0.02 4.649-0.057 6.495-0.039 1.849-0.096 3.578-0.17 5.197-0.076 1.621-0.146 3.416-0.146 3.416-0.045 1.196 0.896 2.198 2.1 2.228h0.033c0.6 0.012 1.197 0.024 1.799 0.039 1.293 0.026 2.586 0.057 3.881 0.084 1.582 0.032 3.164 0.067 4.748 0.104 1.494 0.031 2.988 0.063 4.48 0.098 0.916 0.021 1.99 0.219 2.891 0.012 0.76-0.176 0.592-0.777 0.57-1.385-0.025-0.918-0.193-1.814-0.26-2.729-0.109-1.655-0.188-3.352-0.229-5.084-0.037-1.731-0.074-3.391-0.111-4.971-0.039-1.582-0.059-2.861-0.059-3.843 0-7.229 0.301-12.614 0.906-16.155s2.189-5.313 4.756-5.313c1.586 0 2.813 0.662 3.682 1.979 0.865 1.317 1.305 3.521 1.305 6.608 0 2.938-0.357 6.687-1.078 11.242-0.717 4.562-2.969 14.428-2.969 14.428-0.268 1.168 0.486 2.246 1.68 2.396 0.51 0.063 1.018 0.127 1.521 0.19 2.555 0.32 5.104 0.636 7.656 0.955 1.619 0.203 3.242 0.373 4.863 0.563 0.984 0.113 1.957 0.332 2.938 0.443 0.607 0.066 1.377 0.375 1.867-0.166 0.465-0.52 0.438-1.469 0.545-2.109 0.166-0.967 0.264-1.939 0.344-2.916 0.121-1.495 0.313-2.959 0.523-4.443 0.18-1.248 0.344-2.496 0.506-3.746 0.564-4.367 0.85-8.624 0.85-12.768-6e-3 -4.443-0.328-8.529-0.97-12.257z" fill="#8ed703"/>
		</g>
	</g>
</svg>
