<svg width="761.6" height="161.3" enable-background="new -90.674 86 759.604 159.302" version="1.1" viewBox="-90.674 86 761.6 161.3" xmlns="http://www.w3.org/2000/svg">
	<g transform="translate(.999 1)">
		<path d="m34.216 126.24c1.222-0.088 2.456-0.127 3.706-0.127 27.223 0 50.532 26.348 52.282 39.772 0.186 1.401 0.312 2.661 0.399 3.735-0.365-36.584-57.422-83.621-103.23-83.621-35.406 0-51.91 14.336-57.354 30.431-8.116 20.308 2.598 49.249 27.652 69.85 2.622 2.153 5.308 4.146 8.042 5.972-1.226 0.083-2.456 0.126-3.701 0.126-27.222 0-50.538-26.353-52.286-39.776-0.181-1.401-0.313-2.656-0.396-3.735 0.362 36.583 57.423 83.619 103.23 83.619 35.406 0 51.909-14.331 57.359-30.43 8.11-20.308-2.597-49.244-27.656-69.851-2.618-2.152-5.309-4.14-8.044-5.965zm-51.026 60.777c-20.162-16.572-26.949-40.929-15.523-54.718 11.44-13.808 37.154-12.217 57.809 3.867 20.493 15.967 28.379 40.206 17.857 54.685 4.355-8.711-0.45-21.778-11.666-30.597-12.163-9.561-27.305-10.508-34.043-2.3-6.729 8.198-2.729 22.671 9.145 32.525 9.146 7.588 20.327 10.274 28.283 7.491-13.557 7.148-34.796 3.08-51.862-10.953z" fill="#f00"/>
		<path d="m400.8 159.76c-4.492-1.324-9.556 5.023-13.879 14.709-3.852 16.146-12.414 39.951-12.965 56.377-0.25 7.289 6.479 9.426 11.051 11.039 14.471 5.105 22.934 0.111 27.243-5.104 3.1-3.74-0.179-6.859-4.021-5.715-5.556 1.643-12.344 2.758-13.746-2.607-1.545-5.916 6.688-30.225 12.373-48.324 3.108-9.879 5.736-18.08-6.056-20.375z" fill="#f0373f"/>
		<path d="m325.82 188.4c-9.795 1.012-29.26 6.195-29.26 31.375 0 1.186-3.551 28.43 31.586 25.271 35.148-3.16 41.064-25.271 41.064-25.271s8.693-29.221-12.636-28.428c-13.017 0.48-18.952 6.316-18.952 6.316s8.684 1.705 10.559 7.941c3.561 11.822 2.247 31.77-16.876 29.963-19.192-1.813-9.817-27.166-3.77-40.021 2.088-4.42 1.574-7.488-1.715-7.146z" fill="#f5a023"/>
		<path d="m442.69 188.4c-9.797 1.012-29.263 6.195-29.263 31.375 0 1.186-3.549 28.43 31.587 25.271 35.147-3.16 41.065-25.271 41.065-25.271s8.692-29.221-12.636-28.428c-13.017 0.48-18.951 6.316-18.951 6.316s8.682 1.705 10.557 7.941c3.562 11.822 2.247 31.77-16.876 29.963-19.192-1.813-9.817-27.166-3.771-40.021 2.09-4.42 1.577-7.488-1.712-7.146z" fill="#7487bf"/>
		<path d="m211.27 207.14c-1.574-31.197 41.515-45.195 56.857-46.379 15.354-1.194 31.588 2.154 31.588 2.154s-2.367 30.797-9.477 31.588c-7.1 0.793-5.525-23.295-18.953-22.109-24.588 2.166-34.455 28.969-34.747 37.902-0.129 4.322 1.194 23.686 18.953 22.111 17.769-1.586 21.72-11.061 25.27-12.635 3.56-1.586 10.368-4.703 9.477 3.158-1.966 17.367-34.746 22.111-34.746 22.111s-42.177 2.328-44.222-37.901z" fill="#019ee3"/>
		<path d="m501.88 241.89c-15.004 0.793-6.711-17.377-3.159-28.428 3.56-11.063 2.907-23.184 15.793-22.111 14.249 1.176 3.158 18.953 3.158 18.953s21.641-23.734 41.063-22.109c4.743 0.389-9.477 31.586-9.477 31.586s-3.551-11.451-12.634-9.477c-26.112 5.676-19.735 30.795-34.744 31.586z" fill="#da72a3"/>
		<g fill="#fff">
			<polygon points="121.3 88.465 130.91 88.465 121.3 128.78 130.91 123.02 138.63 94.254 144.42 88.465 157.96 88.465 148.31 128.78 157.96 121.13 163.72 96.149 171.47 88.465 183.08 88.465 173.44 126.88 161.86 136.46 102 136.46 111.62 96.149"/>
			<polygon points="506.6 105.06 517.83 105.06 511.24 130.36 520.92 124.6 523.38 111.52 529.83 105.06 543.31 105.06 536.71 130.36 545.83 124.25 548.43 113.45 556.85 105.06 566.88 105.06 561.27 126.88 548.11 136.46 492.96 136.46 497.87 113.45"/>
			<path d="m417.63 136.46 9.683-9.578h41.543s3.575 1.053 5.615-3.473c1.857-4.213-1.756-4.213-1.756-4.213h-19.295s-5.543-1.265-5.578-8.07c-0.104-16.733 13.648-21.051 13.648-21.051h40.556l-8.067 8h-21.264s-6.771 1.93-6.913 7.58c-0.104 2.562 3.054 2.035 3.054 2.035h17.33s10.034 1.684 7.721 12.49c-3.021 14.21-13.475 16.279-13.475 16.279h-62.802z"/>
			<path d="m384.65 136.46h17.33l5.266-19.928c0.632-2.316 6.736-4.945 5.124-4.668-1.58 0.281 5.543-1.054 5.543-1.054s2.243 0.632 3.368 2.177c1.158 1.508-1.125 3.754-1.44 5.51-0.313 1.752 1.931 1.928 1.931 1.928h9.684s5.196-1.928 6.601-3.857c1.369-1.964 3.084-4 3.084-5.72s-3.823-3.858-3.823-3.858l-3.896-1.896h-28.945s-13.854 7.933-15.471 9.579c-0.566 0.491-4.356 21.787-4.356 21.787z"/>
			<path d="m182.06 114.46c-1.332 1.543-5.682 15.088-4.735 17.297 0.981 2.143 6.35 4.701 6.35 4.701h28.208s13.157-8.246 14.174-9.404c0.983-1.191 4.702-14.35 4.702-15.721 0-1.369-3.157-6.278-3.157-6.278h-32.98c0 3e-3 -11.189 7.862-12.562 9.405zm22-3.121h8.668s-0.982 10.422-3.157 13.365c-2.21 2.949-7.087 5.51-7.087 5.51s-5.473 0.563-6.245 0c-0.808-0.631-0.211-6.28-0.211-6.28s0.737-6.104 1.754-7.894c0.983-1.753 6.278-4.701 6.278-4.701z"/>
			<path d="m287.25 114.46c-1.333 1.543-5.683 15.088-4.701 17.297 0.982 2.143 6.315 4.701 6.315 4.701h39.26s1.299-6.246 2.914-12.563c1.542-5.931 3.368-15.048 3.368-15.72 0-1.404 9.754-13.717 9.754-13.717h-17.054l-8.627 10.594h-18.668c0.038 6e-3 -11.155 7.865-12.561 9.408zm21.999-3.121h8.63s-0.948 10.422-3.159 13.365c-2.142 2.949-7.052 5.51-7.052 5.51s-5.473 0.563-6.281 0c-0.737-0.631-0.209-6.28-0.209-6.28s0.737-6.104 1.789-7.894c0.983-1.753 6.282-4.701 6.282-4.701z"/>
			<path d="m226.56 136.46 8.911-31.402h37.683s4.982 0.525 6.666 3.333c1.754 2.81 1.193 7.649 1.193 7.649l-5.123 20.42h-15.719s1.825-9.998 3.579-17.264c1.754-7.264-3.157-7.857-3.157-7.857h-9.402l-5.403 18.84s-4.702 5.473-6.666 6.281z"/>
			<path d="m613.26 136.46 10.001-31.402h37.684s4.945 0.525 6.701 3.333c1.756 2.81 1.193 7.649 1.193 7.649l-5.3 20.42h-17.226s2.875-8.42 4.7-15.721c1.755-7.228-2.563-9.402-2.563-9.402h-9.438l-5.265 18.84s-4.348 5.474-6.278 6.281h-14.212v2e-3z"/>
			<path d="m339.07 114.46c-1.37 1.543-5.647 15.088-4.699 17.297 0.946 2.143 6.278 4.701 6.278 4.701h28.246s5.613-3.51 9.791-6.281c0 0-24.002 0.176-25.475 0-0.665-0.07-0.42-2.979-0.35-4.699h19.296s3.719-0.809 9.262-5.404c5.617-4.595 6.315-5.089 6.315-8.736 0-3.611-3.158-6.281-3.158-6.281h-32.977c0.068 1e-3 -11.159 7.86-12.529 9.403zm22.036-3.121h12.666s-1.403 4.809-8.314 7.857h-10.561c-1.019-2.734 1.474-4.91 2.877-6.105 1.473-1.332 3.332-1.752 3.332-1.752z"/>
			<path d="m592.85 136.46s5.333-16.877 7.02-22.28c0.842-2.946-1.123-2.841-4.844-2.841-3.722 0-6.422 0.806-11.578 9.4-6.035 10.035 8.91 12.772 8.91 12.772l-1.054 2.944h-17.259s-9.439 0.388-9.439-10.979c0-13.964 17.856-20.423 17.856-20.423h37.717l-10.033 31.402h-17.296z"/>
		</g>
	</g>
</svg>
