<svg width="568.93" height="89.965" version="1.2" viewBox="0 0 568.93 89.965" xmlns="http://www.w3.org/2000/svg">
	<g fill="#fff">
		<path d="m1.566 53.343v-7.735h60.565v-8.827h-60.565l-0.381-23.82h68.81v7.714h-60.566l0.381 8.394h60.564v24.276h-68.808z"/>
		<path d="m75.357 53.343v-40.23h8.244v40.23z"/>
		<path d="m88.026 53.343v-40.23h68.81v40.23h-8.244v-32.517h-52.323v32.52l-8.243-3e-3z"/>
		<path d="m161.24 53.343v-40.23h68.86v7.714h-60.564v24.782h60.564v7.739h-68.86z"/>
		<path d="m235.58 53.343v-52.343h8.246v52.345h-8.246z"/>
		<path d="m321.99 53.343v-40.23h8.295v40.23z"/>
		<path d="m335.27 53.343v-40.23h68.807v7.714h-60.563v32.521h-8.244z"/>
		<path d="m248.23 13.113v7.714h60.564v8.824h-60.564v23.694h68.861v-40.232zm60.564 32.496h-52.271v-8.827h52.271z"/>
		<path d="m75.357 8.739v-7.739h8.244v7.739z"/>
		<path d="m321.99 8.739v-7.739h8.295v7.739z"/>
		<path d="m1 81.22 9.688-11.586h-8.928v-3.336h14.215v3.136l-9.688 11.586h9.941v3.338h-15.228z"/>
		<path d="m22.985 74.897-5.819-8.601h4.604l3.542 5.768 3.668-5.768h4.351l-5.792 8.625 6.298 9.436h-4.73l-3.947-6.247-4.022 6.247h-4.479z"/>
		<path d="m45.172 78.365c0 2.402 1.871 3.338 3.996 3.338 1.393 0 3.519-0.404 3.519-2.252 0-1.947-2.707-2.275-5.363-2.984-2.681-0.709-5.388-1.744-5.388-5.137 0-3.692 3.491-5.463 6.754-5.463 3.769 0 7.235 1.643 7.235 5.818h-3.845c-0.126-2.176-1.67-2.73-3.566-2.73-1.266 0-2.732 0.531-2.732 2.049 0 1.394 0.861 1.567 5.389 2.731 1.315 0.329 5.362 1.163 5.362 5.261 0 3.313-2.605 5.793-7.513 5.793-3.997 0-7.741-1.974-7.69-6.424z"/>
		<path d="m58.503 71.281h3.416v1.67h0.052c0.858-1.391 2.275-2.023 3.895-2.023 4.099 0 5.944 3.314 5.944 7.031 0 3.492-1.922 6.754-5.742 6.754-1.569 0-3.061-0.684-3.921-1.973h-0.051v6.225h-3.593zm9.715 6.576c0-2.074-0.835-4.225-3.138-4.225-2.353 0-3.11 2.101-3.11 4.225 0 2.125 0.809 4.148 3.137 4.148 2.351 0 3.111-2.022 3.111-4.148z"/>
		<path d="m76.922 78.691c0.101 2.277 1.214 3.314 3.212 3.314 1.441 0 2.605-0.885 2.833-1.694h3.161c-1.012 3.085-3.161 4.399-6.121 4.399-4.124 0-6.678-2.832-6.678-6.881 0-3.922 2.708-6.906 6.678-6.906 4.451 0 6.603 3.746 6.35 7.767zm5.842-2.275c-0.328-1.822-1.113-2.781-2.858-2.781-2.277 0-2.935 1.77-2.985 2.781z"/>
		<path d="m97.387 75.884c-0.229-1.467-1.164-2.25-2.657-2.25-2.302 0-3.062 2.326-3.062 4.248 0 1.873 0.733 4.123 2.985 4.123 1.669 0 2.63-1.063 2.858-2.653h3.464c-0.455 3.464-2.858 5.36-6.298 5.36-3.946 0-6.604-2.781-6.604-6.703 0-4.072 2.428-7.084 6.678-7.084 3.088 0 5.92 1.619 6.147 4.961z"/>
		<path d="m107.56 71.281h2.63v2.403h-2.63v6.476c0 1.215 0.303 1.521 1.517 1.521 0.38 0 0.734-0.025 1.113-0.104v2.807c-0.606 0.104-1.391 0.13-2.099 0.13-2.201 0-4.123-0.509-4.123-3.112v-7.714h-2.177v-2.403h2.177v-3.925h3.592z"/>
		<path d="m111.91 71.281h3.415v2.43h0.051c0.657-1.646 2.429-2.782 4.175-2.782 0.253 0 0.556 0.05 0.784 0.129v3.337c-0.33-0.075-0.859-0.126-1.29-0.126-2.63 0-3.542 1.896-3.542 4.196v5.896h-3.592z"/>
		<path d="m134.02 84.358h-3.416v-1.821h-0.076c-0.911 1.467-2.479 2.176-3.997 2.176-3.82 0-4.782-2.147-4.782-5.387v-8.045h3.594v7.387c0 2.149 0.632 3.213 2.301 3.213 1.949 0 2.783-1.088 2.783-3.743v-6.854h3.592z"/>
		<path d="m136.85 71.281h3.391v1.771h0.05c0.937-1.344 2.302-2.127 3.997-2.127 1.645 0 3.111 0.607 3.82 2.178 0.759-1.141 2.125-2.178 3.946-2.178 2.783 0 4.782 1.289 4.782 4.681v8.752h-3.593v-7.412c0-1.743-0.15-3.187-2.2-3.187-2.024 0-2.404 1.67-2.404 3.313v7.286h-3.592v-7.335c0-1.52 0.101-3.264-2.177-3.264-0.708 0-2.428 0.455-2.428 3.011v7.588h-3.592z"/>
	</g>
	<polygon transform="translate(1,1)" points="404.06 62.285 464.17 2.173 429.96 2.173 369.86 62.285" fill="#ca2825"/>
	<polygon transform="translate(1,1)" points="438.35 62.285 498.45 2.173 464.24 2.173 404.14 62.285" fill="#fdc601"/>
	<polygon transform="translate(1,1)" points="472.6 62.285 532.71 2.173 498.5 2.173 438.4 62.285" fill="#009c37"/>
	<polygon transform="translate(1,1)" points="506.83 62.285 566.93 2.173 532.72 2.173 472.62 62.285" fill="#02559c"/>
</svg>
